<svg width="150" height="108" viewBox="0 0 150 108" fill="none" xmlns="http://www.w3.org/2000/svg">
<g clip-path="url(#clip0_116_240)">
<path d="M104.59 41.64C79.48 24.16 50.19 22.56 21.17 31.92C19.44 32.48 19.58 35.11 21.28 36.08C21.4073 36.1505 21.5106 36.2586 21.5765 36.3904C21.6424 36.5223 21.668 36.6719 21.65 36.82C20.55 45.0467 19.2967 53.25 17.89 61.43C16.27 70.86 18.55 73.19 27.6 74.59C27.7483 74.6111 27.888 74.6715 28.0042 74.7648C28.1205 74.8581 28.2088 74.9809 28.26 75.12C31.84 84.47 43.86 85.07 48.36 76.05C48.4253 75.9191 48.5271 75.8098 48.653 75.7353C48.779 75.6608 48.9238 75.6242 49.07 75.63C63.21 76.1167 77.35 76.1133 91.49 75.62C91.651 75.6136 91.8108 75.65 91.9531 75.7255C92.0954 75.8011 92.2151 75.913 92.3 76.05C97.88 85.11 106.85 84.48 112.27 75.67C112.35 75.5417 112.462 75.4358 112.595 75.3623C112.728 75.2888 112.877 75.2502 113.03 75.25C116.717 75.25 121.427 74.7933 127.16 73.88C130.47 73.35 132.19 72.29 131.98 68.58C131.75 64.59 131.59 57.99 129.82 54.44C126.09 46.98 110.9 46.04 104.59 41.64Z" stroke="#C3C3C3" stroke-width="2"/>
<path d="M24.86 36.22C23.58 45.2467 22.21 54.2567 20.75 63.25C20.5767 64.2833 20.6434 66.1233 20.95 68.77C20.9685 68.9452 21.0256 69.1141 21.1172 69.2646C21.2089 69.415 21.3328 69.5433 21.48 69.64C23.0933 70.7467 24.9067 71.28 26.92 71.24C27.0777 71.2351 27.2287 71.1756 27.3473 71.0716C27.4658 70.9676 27.5446 70.8257 27.57 70.67C30.04 56.14 48.8 57.67 49.55 72.12C49.5577 72.274 49.6254 72.4191 49.7389 72.5252C49.8525 72.6313 50.0033 72.6903 50.16 72.69L90.62 72.66C90.7738 72.66 90.9214 72.5978 91.0301 72.4872C91.1389 72.3766 91.2 72.2265 91.2 72.07C91.15 57.35 112.07 56.11 113.11 71.37C113.12 71.5363 113.193 71.6927 113.313 71.8076C113.434 71.9226 113.593 71.9878 113.76 71.99C118.747 72.15 123.657 71.6233 128.49 70.41C128.647 70.372 128.785 70.2777 128.877 70.145C128.969 70.0123 129.009 69.8504 128.99 69.69L128.49 65.12C128.472 64.9574 128.41 64.8029 128.309 64.674C128.208 64.545 128.073 64.4467 127.92 64.39C124.9 63.25 121.14 60.9 122.21 57.04C122.58 55.7 123.75 54.69 125.06 54.39C125.139 54.3741 125.212 54.3338 125.267 54.2747C125.323 54.2157 125.359 54.1408 125.37 54.0606C125.381 53.9803 125.366 53.8986 125.329 53.8268C125.291 53.755 125.232 53.6967 125.16 53.66C119.62 50.7067 113.9 48.3567 108 46.61C106.127 46.05 104.4 45.24 102.82 44.18C78.84 28.13 52.77 25.74 25.17 33.93C24.51 34.13 24.3567 34.5867 24.71 35.3C24.8532 35.5859 24.9055 35.907 24.86 36.22Z" stroke="#C3C3C3" stroke-width="2"/>
<path d="M126.55 60.2L127.15 60.7C127.67 61.14 127.89 61.0233 127.81 60.35L127.49 57.7C127.48 57.6104 127.45 57.5243 127.401 57.4487C127.351 57.3731 127.285 57.3099 127.206 57.2643C127.127 57.2187 127.039 57.1919 126.948 57.1859C126.856 57.1799 126.765 57.195 126.68 57.23L125.46 57.75C125.299 57.8165 125.168 57.9409 125.092 58.0995C125.016 58.2581 125.001 58.4399 125.05 58.61C125.177 59.03 125.41 59.3567 125.75 59.59C126.05 59.7967 126.317 60 126.55 60.2Z" stroke="#C3C3C3" stroke-width="2"/>
<path d="M46.24 71.46C46.24 69.4099 45.4256 67.4437 43.976 65.994C42.5263 64.5444 40.5602 63.73 38.51 63.73C36.4599 63.73 34.4937 64.5444 33.0441 65.994C31.5944 67.4437 30.78 69.4099 30.78 71.46C30.78 72.4751 30.98 73.4803 31.3684 74.4181C31.7569 75.356 32.3263 76.2081 33.0441 76.9259C33.7619 77.6437 34.614 78.2131 35.5519 78.6016C36.4897 78.99 37.4949 79.19 38.51 79.19C39.5251 79.19 40.5303 78.99 41.4682 78.6016C42.406 78.2131 43.2582 77.6437 43.976 76.9259C44.6938 76.2081 45.2631 75.356 45.6516 74.4181C46.0401 73.4803 46.24 72.4751 46.24 71.46Z" stroke="#C3C3C3" stroke-width="2"/>
<path d="M109.94 71.44C109.94 69.3952 109.128 67.4341 107.682 65.9882C106.236 64.5423 104.275 63.73 102.23 63.73C100.185 63.73 98.2241 64.5423 96.7782 65.9882C95.3323 67.4341 94.52 69.3952 94.52 71.44C94.52 73.4848 95.3323 75.4459 96.7782 76.8918C98.2241 78.3377 100.185 79.15 102.23 79.15C104.275 79.15 106.236 78.3377 107.682 76.8918C109.128 75.4459 109.94 73.4848 109.94 71.44Z" stroke="#C3C3C3" stroke-width="2"/>
<path d="M98.12 47.61C79.82 33.4 59.59 31.85 37.38 35.88C35.34 36.25 33.07 36.31 32.32 38.55C31.85 39.96 29.94 50.73 34.06 50.74C55.1266 50.76 76.19 50.76 97.25 50.74C99.28 50.74 99.65 48.8 98.12 47.61Z" stroke="#C3C3C3" stroke-width="2"/>
<path d="M91.42 46.85C73.94 35.7 56.09 35.7 35.99 39.25C35.7634 39.2907 35.5565 39.4048 35.4011 39.5747C35.2457 39.7445 35.1505 39.9607 35.13 40.19L34.53 46.89C34.523 46.9703 34.5329 47.0511 34.5589 47.1273C34.5849 47.2036 34.6266 47.2736 34.6811 47.3328C34.7357 47.3921 34.802 47.4394 34.8759 47.4716C34.9497 47.5038 35.0294 47.5203 35.11 47.52L91.25 47.46C91.9967 47.46 92.0533 47.2567 91.42 46.85Z" stroke="#C3C3C3" stroke-width="2"/>
<path d="M0 0H150V108H0V0ZM104.59 41.64C79.48 24.16 50.19 22.56 21.17 31.92C19.44 32.48 19.58 35.11 21.28 36.08C21.4073 36.1505 21.5106 36.2586 21.5765 36.3904C21.6424 36.5223 21.668 36.6719 21.65 36.82C20.55 45.0467 19.2967 53.25 17.89 61.43C16.27 70.86 18.55 73.19 27.6 74.59C27.7483 74.6111 27.888 74.6715 28.0043 74.7648C28.1205 74.8581 28.2088 74.9809 28.26 75.12C31.84 84.47 43.86 85.07 48.36 76.05C48.4254 75.9191 48.5271 75.8098 48.6531 75.7353C48.779 75.6608 48.9238 75.6242 49.07 75.63C63.21 76.1167 77.35 76.1133 91.49 75.62C91.651 75.6135 91.8108 75.65 91.9531 75.7255C92.0954 75.8011 92.2151 75.913 92.3 76.05C97.88 85.11 106.85 84.48 112.27 75.67C112.35 75.5416 112.462 75.4358 112.595 75.3623C112.728 75.2888 112.877 75.2502 113.03 75.25C116.717 75.25 121.427 74.7933 127.16 73.88C130.47 73.35 132.19 72.29 131.98 68.58C131.75 64.59 131.59 57.99 129.82 54.44C126.09 46.98 110.9 46.04 104.59 41.64Z" fill="white"/>
<path d="M104.59 41.64C110.9 46.04 126.09 46.98 129.82 54.44C131.59 57.99 131.75 64.59 131.98 68.58C132.19 72.29 130.47 73.35 127.16 73.88C121.427 74.7933 116.717 75.25 113.03 75.25C112.877 75.2502 112.728 75.2888 112.595 75.3623C112.462 75.4358 112.35 75.5417 112.27 75.67C106.85 84.48 97.88 85.11 92.3 76.05C92.2151 75.913 92.0954 75.8011 91.9531 75.7255C91.8108 75.65 91.651 75.6136 91.49 75.62C77.35 76.1133 63.21 76.1167 49.07 75.63C48.9238 75.6242 48.779 75.6608 48.653 75.7353C48.5271 75.8098 48.4253 75.9191 48.36 76.05C43.86 85.07 31.84 84.47 28.26 75.12C28.2088 74.9809 28.1205 74.8581 28.0042 74.7648C27.888 74.6715 27.7483 74.6111 27.6 74.59C18.55 73.19 16.27 70.86 17.89 61.43C19.2967 53.25 20.55 45.0467 21.65 36.82C21.668 36.6719 21.6424 36.5223 21.5765 36.3904C21.5106 36.2586 21.4073 36.1505 21.28 36.08C19.58 35.11 19.44 32.48 21.17 31.92C50.19 22.56 79.48 24.16 104.59 41.64ZM24.86 36.22C23.58 45.2467 22.21 54.2567 20.75 63.25C20.5767 64.2833 20.6433 66.1233 20.95 68.77C20.9684 68.9452 21.0255 69.1141 21.1172 69.2646C21.2088 69.415 21.3328 69.5433 21.48 69.64C23.0933 70.7467 24.9067 71.28 26.92 71.24C27.0776 71.2351 27.2287 71.1756 27.3472 71.0716C27.4658 70.9676 27.5446 70.8257 27.57 70.67C30.04 56.14 48.8 57.67 49.55 72.12C49.5577 72.274 49.6253 72.4191 49.7389 72.5252C49.8525 72.6313 50.0033 72.6903 50.16 72.69L90.62 72.66C90.7738 72.66 90.9213 72.5978 91.0301 72.4872C91.1389 72.3766 91.2 72.2265 91.2 72.07C91.15 57.35 112.07 56.11 113.11 71.37C113.12 71.5363 113.193 71.6926 113.313 71.8076C113.434 71.9226 113.593 71.9878 113.76 71.99C118.747 72.15 123.657 71.6233 128.49 70.41C128.647 70.372 128.785 70.2777 128.877 70.145C128.969 70.0123 129.009 69.8504 128.99 69.69L128.49 65.12C128.472 64.9574 128.409 64.8029 128.309 64.674C128.208 64.545 128.073 64.4467 127.92 64.39C124.9 63.25 121.14 60.9 122.21 57.04C122.58 55.7 123.75 54.69 125.06 54.39C125.139 54.3741 125.212 54.3338 125.267 54.2747C125.323 54.2157 125.359 54.1408 125.37 54.0606C125.381 53.9803 125.366 53.8986 125.329 53.8268C125.291 53.755 125.232 53.6967 125.16 53.66C119.62 50.7067 113.9 48.3567 108 46.61C106.127 46.05 104.4 45.24 102.82 44.18C78.84 28.13 52.77 25.74 25.17 33.93C24.51 34.13 24.3567 34.5867 24.71 35.3C24.8532 35.5859 24.9055 35.907 24.86 36.22ZM126.55 60.2L127.15 60.7C127.67 61.14 127.89 61.0233 127.81 60.35L127.49 57.7C127.48 57.6104 127.45 57.5243 127.401 57.4487C127.351 57.3731 127.285 57.3099 127.206 57.2643C127.127 57.2187 127.039 57.1918 126.948 57.1859C126.856 57.1799 126.765 57.195 126.68 57.23L125.46 57.75C125.299 57.8164 125.168 57.9409 125.092 58.0995C125.016 58.2581 125.001 58.4399 125.05 58.61C125.177 59.03 125.41 59.3567 125.75 59.59C126.05 59.7967 126.317 60 126.55 60.2ZM46.24 71.46C46.24 69.4099 45.4256 67.4437 43.9759 65.9941C42.5263 64.5444 40.5601 63.73 38.51 63.73C36.4599 63.73 34.4937 64.5444 33.0441 65.9941C31.5944 67.4437 30.78 69.4099 30.78 71.46C30.78 72.4751 30.9799 73.4803 31.3684 74.4182C31.7569 75.356 32.3263 76.2081 33.0441 76.9259C33.7619 77.6437 34.614 78.2131 35.5518 78.6016C36.4897 78.9901 37.4949 79.19 38.51 79.19C39.5251 79.19 40.5303 78.9901 41.4681 78.6016C42.406 78.2131 43.2581 77.6437 43.9759 76.9259C44.6937 76.2081 45.2631 75.356 45.6516 74.4182C46.0401 73.4803 46.24 72.4751 46.24 71.46ZM109.94 71.44C109.94 69.3952 109.128 67.4341 107.682 65.9882C106.236 64.5423 104.275 63.73 102.23 63.73C100.185 63.73 98.2241 64.5423 96.7782 65.9882C95.3323 67.4341 94.52 69.3952 94.52 71.44C94.52 73.4848 95.3323 75.4459 96.7782 76.8918C98.2241 78.3377 100.185 79.15 102.23 79.15C104.275 79.15 106.236 78.3377 107.682 76.8918C109.128 75.4459 109.94 73.4848 109.94 71.44Z" fill="#878787"/>
<path d="M24.71 35.3C24.3567 34.5867 24.51 34.13 25.17 33.93C52.77 25.74 78.84 28.13 102.82 44.18C104.4 45.24 106.127 46.05 108 46.61C113.9 48.3567 119.62 50.7067 125.16 53.66C125.232 53.6967 125.291 53.755 125.329 53.8268C125.366 53.8986 125.381 53.9803 125.37 54.0606C125.359 54.1408 125.323 54.2157 125.267 54.2747C125.212 54.3338 125.139 54.3741 125.06 54.39C123.75 54.69 122.58 55.7 122.21 57.04C121.14 60.9 124.9 63.25 127.92 64.39C128.073 64.4467 128.208 64.545 128.309 64.674C128.41 64.8029 128.472 64.9574 128.49 65.12L128.99 69.69C129.009 69.8504 128.969 70.0123 128.877 70.145C128.785 70.2777 128.647 70.372 128.49 70.41C123.657 71.6233 118.747 72.15 113.76 71.99C113.593 71.9878 113.434 71.9226 113.313 71.8076C113.193 71.6926 113.12 71.5363 113.11 71.37C112.07 56.11 91.15 57.35 91.2 72.07C91.2 72.2265 91.1389 72.3766 91.0301 72.4872C90.9214 72.5978 90.7738 72.66 90.62 72.66L50.16 72.69C50.0033 72.6903 49.8525 72.6313 49.7389 72.5252C49.6254 72.4191 49.5577 72.274 49.55 72.12C48.8 57.67 30.04 56.14 27.57 70.67C27.5446 70.8257 27.4658 70.9676 27.3473 71.0716C27.2287 71.1756 27.0777 71.2351 26.92 71.24C24.9067 71.28 23.0933 70.7467 21.48 69.64C21.3328 69.5433 21.2089 69.415 21.1172 69.2646C21.0256 69.1141 20.9685 68.9452 20.95 68.77C20.6434 66.1233 20.5767 64.2833 20.75 63.25C22.21 54.2567 23.58 45.2467 24.86 36.22C24.9055 35.907 24.8532 35.5859 24.71 35.3ZM98.12 47.61C79.82 33.4 59.59 31.85 37.38 35.88C35.34 36.25 33.07 36.31 32.32 38.55C31.85 39.96 29.94 50.73 34.06 50.74C55.1267 50.76 76.19 50.76 97.25 50.74C99.28 50.74 99.65 48.8 98.12 47.61Z" fill="white"/>
<path d="M37.38 35.88C59.59 31.85 79.82 33.4 98.12 47.61C99.65 48.8 99.28 50.74 97.25 50.74C76.19 50.76 55.1266 50.76 34.06 50.74C29.94 50.73 31.85 39.96 32.32 38.55C33.07 36.31 35.34 36.25 37.38 35.88ZM91.42 46.85C73.94 35.7 56.09 35.7 35.99 39.25C35.7634 39.2907 35.5565 39.4048 35.4011 39.5747C35.2457 39.7445 35.1505 39.9607 35.13 40.19L34.53 46.89C34.523 46.9703 34.5329 47.0511 34.5589 47.1273C34.5849 47.2036 34.6265 47.2736 34.6811 47.3328C34.7357 47.3921 34.802 47.4394 34.8758 47.4716C34.9497 47.5038 35.0294 47.5203 35.11 47.52L91.25 47.46C91.9966 47.46 92.0533 47.2567 91.42 46.85Z" fill="#878787"/>
<path d="M91.25 47.46L35.11 47.52C35.0294 47.5203 34.9497 47.5038 34.8759 47.4716C34.802 47.4394 34.7357 47.3921 34.6811 47.3328C34.6266 47.2736 34.5849 47.2036 34.5589 47.1273C34.5329 47.0511 34.523 46.9703 34.53 46.89L35.13 40.19C35.1505 39.9607 35.2457 39.7445 35.4011 39.5747C35.5565 39.4048 35.7634 39.2907 35.99 39.25C56.09 35.7 73.94 35.7 91.42 46.85C92.0533 47.2567 91.9967 47.46 91.25 47.46Z" fill="white"/>
<path d="M125.75 59.59C125.41 59.3567 125.177 59.03 125.05 58.61C125.001 58.4399 125.016 58.2581 125.092 58.0995C125.168 57.9409 125.299 57.8165 125.46 57.75L126.68 57.23C126.765 57.195 126.856 57.1799 126.948 57.1859C127.039 57.1919 127.127 57.2187 127.206 57.2643C127.285 57.3099 127.351 57.3731 127.401 57.4487C127.45 57.5243 127.48 57.6104 127.49 57.7L127.81 60.35C127.89 61.0233 127.67 61.14 127.15 60.7L126.55 60.2C126.317 60 126.05 59.7967 125.75 59.59Z" fill="white"/>
<path d="M38.51 79.19C42.7792 79.19 46.24 75.7291 46.24 71.46C46.24 67.1908 42.7792 63.73 38.51 63.73C34.2409 63.73 30.78 67.1908 30.78 71.46C30.78 75.7291 34.2409 79.19 38.51 79.19Z" fill="white"/>
<path d="M102.23 79.15C106.488 79.15 109.94 75.6981 109.94 71.44C109.94 67.1819 106.488 63.73 102.23 63.73C97.9719 63.73 94.52 67.1819 94.52 71.44C94.52 75.6981 97.9719 79.15 102.23 79.15Z" fill="white"/>
</g>
<defs>
<clipPath id="clip0_116_240">
<rect width="150" height="108" fill="white"/>
</clipPath>
</defs>
</svg>
