<svg width="150" height="108" viewBox="0 0 150 108" fill="none" xmlns="http://www.w3.org/2000/svg">
<g clip-path="url(#clip0_116_159)">
<path d="M55.49 24.5L19.77 24.51C19.3059 24.51 18.8607 24.6944 18.5326 25.0226C18.2044 25.3508 18.02 25.7959 18.02 26.26C17.9933 37.04 17.99 47.7867 18.01 58.5C18.01 59.42 18.52 60.1933 19.54 60.82C19.6585 60.8897 19.7568 60.99 19.8251 61.111C19.8935 61.232 19.9297 61.3695 19.93 61.51L20.3 96.28C20.3053 96.8043 20.5172 97.3053 20.8899 97.6742C21.2625 98.0431 21.7657 98.25 22.29 98.25H121.44C121.917 98.25 122.375 98.0593 122.713 97.7199C123.05 97.3804 123.24 96.92 123.24 96.44L123.25 61.54C123.25 61.4078 123.296 61.2796 123.38 61.1775C123.463 61.0753 123.58 61.0055 123.71 60.98C125.063 60.7 125.74 59.96 125.74 58.76C125.76 48.18 125.76 37.5733 125.74 26.94C125.737 26.2893 125.477 25.6662 125.016 25.207C124.555 24.7478 123.931 24.49 123.28 24.49L89.52 24.5C89.3927 24.5 89.2706 24.4494 89.1806 24.3594C89.0906 24.2694 89.04 24.1473 89.04 24.02L88.92 12.57C88.9147 12.0192 88.6922 11.4927 88.3008 11.1051C87.9094 10.7174 87.3808 10.5 86.83 10.5H58.05C57.516 10.5 57.0037 10.7125 56.6252 11.091C56.2466 11.4696 56.0326 11.9834 56.03 12.52L55.99 24.01C55.9874 24.1409 55.9335 24.2655 55.8401 24.3571C55.7466 24.4487 55.6209 24.5 55.49 24.5Z" stroke="#C3C3C3" stroke-width="2"/>
<path d="M84.52 15.02C84.52 14.9484 84.4916 14.8797 84.4409 14.8291C84.3903 14.7784 84.3216 14.75 84.25 14.75H60.77C60.6984 14.75 60.6297 14.7784 60.5791 14.8291C60.5284 14.8797 60.5 14.9484 60.5 15.02V24.02C60.5 24.0916 60.5284 24.1603 60.5791 24.2109C60.6297 24.2616 60.6984 24.29 60.77 24.29H84.25C84.3216 24.29 84.3903 24.2616 84.4409 24.2109C84.4916 24.1603 84.52 24.0916 84.52 24.02V15.02Z" stroke="#C3C3C3" stroke-width="2"/>
<path d="M32.0237 29.0683C32.0238 29.0315 32.0166 28.9951 32.0026 28.9611C31.9886 28.9271 31.968 28.8962 31.9421 28.8702C31.9161 28.8441 31.8853 28.8234 31.8513 28.8093C31.8174 28.7952 31.781 28.7879 31.7442 28.7878L22.8042 28.7722C22.7674 28.7721 22.731 28.7793 22.697 28.7933C22.663 28.8073 22.6321 28.8279 22.6061 28.8539C22.58 28.8798 22.5594 28.9106 22.5452 28.9446C22.5311 28.9785 22.5238 29.0149 22.5237 29.0517L22.4763 56.2117C22.4763 56.2485 22.4834 56.2849 22.4974 56.3189C22.5115 56.3529 22.532 56.3838 22.558 56.4098C22.5839 56.4359 22.6148 56.4566 22.6487 56.4707C22.6827 56.4848 22.719 56.4921 22.7558 56.4922L31.6958 56.5078C31.7326 56.5079 31.769 56.5007 31.803 56.4867C31.837 56.4727 31.8679 56.4521 31.894 56.4261C31.92 56.4002 31.9407 56.3694 31.9548 56.3354C31.9689 56.3015 31.9763 56.2651 31.9763 56.2283L32.0237 29.0683Z" stroke="#C3C3C3" stroke-width="2"/>
<path d="M77.46 51.29C80.56 51.33 81.38 51.96 81.2 55.12C81.1891 55.2974 81.2143 55.4751 81.2742 55.6422C81.3342 55.8094 81.4275 55.9623 81.5483 56.0916C81.6692 56.221 81.8152 56.3239 81.9771 56.3942C82.1391 56.4644 82.3136 56.5004 82.49 56.5H106.66C106.748 56.5 106.834 56.4828 106.915 56.4495C106.996 56.4162 107.069 56.3675 107.13 56.306C107.192 56.2446 107.24 56.1718 107.273 56.0918C107.305 56.0118 107.321 55.9262 107.32 55.84L107.06 31.19C107.053 30.8767 107.097 30.5733 107.19 30.28C107.29 29.9733 107.31 29.6533 107.25 29.32C107.224 29.161 107.142 29.0165 107.02 28.9121C106.897 28.8077 106.741 28.7502 106.58 28.75H37.13C36.9629 28.75 36.8027 28.8153 36.6845 28.9316C36.5664 29.0479 36.5 29.2056 36.5 29.37V56C36.5 56.1326 36.5527 56.2598 36.6464 56.3536C36.7402 56.4473 36.8674 56.5 37 56.5H60.83C60.9016 56.4998 60.9722 56.4839 61.0368 56.4535C61.1015 56.4231 61.1584 56.379 61.2034 56.3243C61.2485 56.2697 61.2806 56.2059 61.2973 56.1377C61.314 56.0695 61.3149 55.9985 61.3 55.93C60.9533 54.2367 61.3433 52.8167 62.47 51.67C62.7264 51.413 63.0707 51.266 63.43 51.26C68.1433 51.22 72.82 51.23 77.46 51.29Z" stroke="#C3C3C3" stroke-width="2"/>
<path d="M121.25 29.23C121.25 29.1478 121.217 29.0689 121.159 29.0108C121.101 28.9527 121.022 28.92 120.94 28.92H111.82C111.738 28.92 111.659 28.9527 111.601 29.0108C111.543 29.0689 111.51 29.1478 111.51 29.23V56.19C111.51 56.2722 111.543 56.3511 111.601 56.4092C111.659 56.4673 111.738 56.5 111.82 56.5H120.94C121.022 56.5 121.101 56.4673 121.159 56.4092C121.217 56.3511 121.25 56.2722 121.25 56.19V29.23Z" stroke="#C3C3C3" stroke-width="2"/>
<path d="M76.7446 56.0104C76.7445 55.9749 76.7375 55.9398 76.7238 55.9071C76.7102 55.8744 76.6903 55.8447 76.6651 55.8196C76.64 55.7946 76.6102 55.7748 76.5774 55.7613C76.5446 55.7478 76.5095 55.7408 76.4741 55.7409L66.0141 55.7591C65.9786 55.7592 65.9435 55.7662 65.9108 55.7798C65.878 55.7935 65.8483 55.8134 65.8233 55.8385C65.7983 55.8637 65.7784 55.8935 65.7649 55.9262C65.7514 55.959 65.7445 55.9941 65.7446 56.0296L65.7554 62.2496C65.7554 62.2851 65.7625 62.3202 65.7761 62.3529C65.7897 62.3856 65.8097 62.4153 65.8348 62.4404C65.8599 62.4654 65.8897 62.4852 65.9225 62.4987C65.9553 62.5122 65.9904 62.5192 66.0259 62.5191L76.4859 62.5009C76.5213 62.5008 76.5564 62.4938 76.5892 62.4802C76.6219 62.4665 76.6516 62.4466 76.6766 62.4215C76.7017 62.3963 76.7215 62.3665 76.735 62.3338C76.7485 62.301 76.7554 62.2659 76.7554 62.2304L76.7446 56.0104Z" stroke="#C3C3C3" stroke-width="2"/>
<path d="M107.52 66.36L107.13 61.53C107.115 61.3178 107.02 61.1192 106.864 60.9745C106.708 60.8297 106.503 60.7495 106.29 60.75H81.79C81.6581 60.7498 81.5313 60.7997 81.4362 60.8892C81.3412 60.9787 81.2851 61.1008 81.28 61.23C81.17 63.98 81.97 66.88 78 66.95C73.3533 67.0367 68.71 67.0067 64.07 66.86C60.61 66.75 61.32 63.5 61.21 61.23C61.2048 61.1009 61.1499 60.9788 61.0566 60.8893C60.9634 60.7998 60.8392 60.7499 60.71 60.75H37.03C36.9674 60.75 36.9055 60.7627 36.8478 60.7874C36.7901 60.8121 36.7378 60.8484 36.6941 60.894C36.6503 60.9397 36.6159 60.9938 36.5928 61.0532C36.5698 61.1126 36.5587 61.1761 36.56 61.24C36.6 63.82 36.92 67.37 33.83 67.28C33.4168 67.2684 33.0228 67.1032 32.7251 66.8165C32.4273 66.5299 32.2472 66.1424 32.22 65.73L31.92 61.2C31.9123 61.078 31.8584 60.9635 31.7692 60.8798C31.68 60.7962 31.5623 60.7498 31.44 60.75H25.37C25.2002 60.75 25.0375 60.8174 24.9174 60.9375C24.7974 61.0575 24.73 61.2203 24.73 61.39L24.75 93.4C24.75 93.5591 24.8121 93.7117 24.9228 93.8243C25.0334 93.9368 25.1835 94 25.34 94H118.5C118.633 94 118.76 93.9473 118.854 93.8536C118.947 93.7598 119 93.6326 119 93.5V61.37C119 61.2056 118.935 61.0479 118.818 60.9316C118.702 60.8153 118.544 60.75 118.38 60.75H112.75C112.539 60.7487 112.33 60.7964 112.14 60.8892C111.95 60.982 111.784 61.1175 111.656 61.285C111.527 61.4525 111.439 61.6475 111.398 61.8549C111.357 62.0622 111.364 62.2761 111.42 62.48C112.053 64.8067 111.397 66.46 109.45 67.44C109.254 67.5374 109.037 67.5856 108.818 67.5804C108.599 67.5752 108.385 67.5168 108.194 67.4102C108.004 67.3036 107.843 67.1521 107.725 66.969C107.608 66.7859 107.537 66.5768 107.52 66.36Z" stroke="#C3C3C3" stroke-width="2"/>
<path d="M0 0H150V108H0V0ZM55.49 24.5L19.77 24.51C19.3059 24.51 18.8608 24.6944 18.5326 25.0226C18.2044 25.3508 18.02 25.7959 18.02 26.26C17.9933 37.04 17.99 47.7867 18.01 58.5C18.01 59.42 18.52 60.1933 19.54 60.82C19.6585 60.8897 19.7568 60.99 19.8252 61.111C19.8935 61.232 19.9297 61.3695 19.93 61.51L20.3 96.28C20.3053 96.8043 20.5173 97.3054 20.8899 97.6742C21.2625 98.0431 21.7657 98.25 22.29 98.25H121.44C121.917 98.25 122.375 98.0593 122.713 97.7199C123.05 97.3804 123.24 96.92 123.24 96.44L123.25 61.54C123.25 61.4078 123.296 61.2796 123.38 61.1775C123.463 61.0753 123.58 61.0055 123.71 60.98C125.063 60.7 125.74 59.96 125.74 58.76C125.76 48.18 125.76 37.5733 125.74 26.94C125.737 26.2893 125.477 25.6662 125.016 25.207C124.555 24.7478 123.931 24.49 123.28 24.49L89.52 24.5C89.3927 24.5 89.2706 24.4494 89.1806 24.3594C89.0906 24.2694 89.04 24.1473 89.04 24.02L88.92 12.57C88.9147 12.0192 88.6922 11.4927 88.3008 11.1051C87.9094 10.7174 87.3809 10.5 86.83 10.5H58.05C57.516 10.5 57.0037 10.7125 56.6252 11.091C56.2466 11.4696 56.0326 11.9834 56.03 12.52L55.99 24.01C55.9874 24.1409 55.9336 24.2655 55.8401 24.3571C55.7466 24.4487 55.6209 24.5 55.49 24.5Z" fill="white"/>
<path d="M55.99 24.01L56.03 12.52C56.0326 11.9834 56.2466 11.4696 56.6252 11.091C57.0037 10.7125 57.516 10.5 58.05 10.5H86.83C87.3808 10.5 87.9094 10.7174 88.3008 11.1051C88.6922 11.4927 88.9147 12.0192 88.92 12.57L89.04 24.02C89.04 24.1473 89.0906 24.2694 89.1806 24.3594C89.2706 24.4494 89.3927 24.5 89.52 24.5L123.28 24.49C123.931 24.49 124.555 24.7478 125.016 25.207C125.477 25.6662 125.737 26.2893 125.74 26.94C125.76 37.5733 125.76 48.18 125.74 58.76C125.74 59.96 125.063 60.7 123.71 60.98C123.58 61.0055 123.463 61.0753 123.38 61.1775C123.296 61.2796 123.25 61.4078 123.25 61.54L123.24 96.44C123.24 96.92 123.05 97.3804 122.713 97.7199C122.375 98.0593 121.917 98.25 121.44 98.25H22.29C21.7657 98.25 21.2625 98.0431 20.8899 97.6742C20.5172 97.3054 20.3053 96.8043 20.3 96.28L19.93 61.51C19.9297 61.3695 19.8935 61.232 19.8251 61.111C19.7568 60.99 19.6585 60.8897 19.54 60.82C18.52 60.1933 18.01 59.42 18.01 58.5C17.99 47.7867 17.9933 37.04 18.02 26.26C18.02 25.7959 18.2044 25.3508 18.5326 25.0226C18.8607 24.6944 19.3059 24.51 19.77 24.51L55.49 24.5C55.6209 24.5 55.7466 24.4487 55.8401 24.3571C55.9335 24.2655 55.9874 24.1409 55.99 24.01ZM84.52 15.02C84.52 14.9484 84.4915 14.8797 84.4409 14.8291C84.3903 14.7784 84.3216 14.75 84.25 14.75H60.77C60.6984 14.75 60.6297 14.7784 60.5791 14.8291C60.5284 14.8797 60.5 14.9484 60.5 15.02V24.02C60.5 24.0916 60.5284 24.1603 60.5791 24.2109C60.6297 24.2616 60.6984 24.29 60.77 24.29H84.25C84.3216 24.29 84.3903 24.2616 84.4409 24.2109C84.4915 24.1603 84.52 24.0916 84.52 24.02V15.02ZM32.0237 29.0683C32.0238 29.0315 32.0166 28.9951 32.0026 28.9611C31.9886 28.9271 31.968 28.8962 31.942 28.8702C31.9161 28.8441 31.8852 28.8234 31.8513 28.8093C31.8174 28.7952 31.781 28.7879 31.7442 28.7878L22.8042 28.7722C22.7674 28.7721 22.731 28.7793 22.697 28.7933C22.663 28.8073 22.6321 28.8279 22.6061 28.8539C22.58 28.8798 22.5593 28.9106 22.5452 28.9446C22.5311 28.9785 22.5238 29.0149 22.5237 29.0517L22.4763 56.2117C22.4762 56.2485 22.4834 56.2849 22.4974 56.3189C22.5114 56.3529 22.532 56.3838 22.5579 56.4098C22.5839 56.4359 22.6147 56.4566 22.6487 56.4707C22.6826 56.4848 22.719 56.4921 22.7558 56.4922L31.6958 56.5078C31.7326 56.5079 31.769 56.5007 31.803 56.4867C31.837 56.4727 31.8679 56.4521 31.8939 56.4261C31.92 56.4002 31.9407 56.3694 31.9548 56.3354C31.9689 56.3015 31.9762 56.2651 31.9763 56.2283L32.0237 29.0683ZM77.46 51.29C80.56 51.33 81.38 51.96 81.2 55.12C81.1891 55.2974 81.2143 55.4751 81.2742 55.6422C81.3341 55.8094 81.4274 55.9623 81.5483 56.0916C81.6692 56.221 81.8152 56.3239 81.9771 56.3942C82.1391 56.4644 82.3136 56.5004 82.49 56.5H106.66C106.748 56.5 106.834 56.4828 106.915 56.4495C106.996 56.4162 107.069 56.3675 107.13 56.306C107.192 56.2446 107.24 56.1718 107.273 56.0918C107.305 56.0118 107.321 55.9262 107.32 55.84L107.06 31.19C107.053 30.8767 107.097 30.5733 107.19 30.28C107.29 29.9733 107.31 29.6533 107.25 29.32C107.224 29.161 107.142 29.0165 107.02 28.9121C106.897 28.8077 106.741 28.7502 106.58 28.75H37.13C36.9629 28.75 36.8027 28.8153 36.6845 28.9316C36.5664 29.0479 36.5 29.2056 36.5 29.37V56C36.5 56.1326 36.5527 56.2598 36.6464 56.3536C36.7402 56.4473 36.8674 56.5 37 56.5H60.83C60.9015 56.4998 60.9722 56.4839 61.0368 56.4535C61.1014 56.4231 61.1584 56.379 61.2034 56.3243C61.2485 56.2697 61.2805 56.2059 61.2972 56.1377C61.314 56.0695 61.3149 55.9985 61.3 55.93C60.9533 54.2367 61.3433 52.8167 62.47 51.67C62.7264 51.4131 63.0707 51.266 63.43 51.26C68.1433 51.22 72.82 51.23 77.46 51.29ZM121.25 29.23C121.25 29.1478 121.217 29.0689 121.159 29.0108C121.101 28.9527 121.022 28.92 120.94 28.92H111.82C111.738 28.92 111.659 28.9527 111.601 29.0108C111.543 29.0689 111.51 29.1478 111.51 29.23V56.19C111.51 56.2722 111.543 56.3511 111.601 56.4092C111.659 56.4673 111.738 56.5 111.82 56.5H120.94C121.022 56.5 121.101 56.4673 121.159 56.4092C121.217 56.3511 121.25 56.2722 121.25 56.19V29.23ZM76.7446 56.0104C76.7445 55.9749 76.7375 55.9398 76.7238 55.9071C76.7102 55.8744 76.6903 55.8447 76.6652 55.8196C76.64 55.7946 76.6102 55.7748 76.5774 55.7613C76.5447 55.7478 76.5095 55.7408 76.4741 55.7409L66.0141 55.7591C65.9786 55.7592 65.9435 55.7662 65.9108 55.7798C65.8781 55.7935 65.8483 55.8134 65.8233 55.8385C65.7983 55.8637 65.7785 55.8935 65.7649 55.9262C65.7514 55.959 65.7445 55.9941 65.7446 56.0296L65.7554 62.2496C65.7555 62.2851 65.7625 62.3202 65.7761 62.3529C65.7898 62.3856 65.8097 62.4153 65.8348 62.4404C65.8599 62.4654 65.8897 62.4852 65.9225 62.4987C65.9553 62.5122 65.9904 62.5192 66.0259 62.5191L76.4859 62.5009C76.5213 62.5008 76.5564 62.4938 76.5892 62.4802C76.6219 62.4665 76.6516 62.4466 76.6767 62.4215C76.7017 62.3963 76.7215 62.3665 76.735 62.3338C76.7485 62.301 76.7555 62.2659 76.7554 62.2304L76.7446 56.0104ZM107.52 66.36L107.13 61.53C107.115 61.3178 107.02 61.1192 106.864 60.9744C106.708 60.8297 106.503 60.7495 106.29 60.75H81.79C81.6581 60.7498 81.5313 60.7997 81.4363 60.8892C81.3412 60.9787 81.2852 61.1008 81.28 61.23C81.17 63.98 81.97 66.88 78 66.95C73.3533 67.0367 68.71 67.0067 64.07 66.86C60.61 66.75 61.32 63.5 61.21 61.23C61.2048 61.1009 61.1499 60.9788 61.0567 60.8893C60.9634 60.7998 60.8392 60.7499 60.71 60.75H37.03C36.9674 60.75 36.9055 60.7627 36.8478 60.7874C36.7901 60.8121 36.7378 60.8484 36.6941 60.894C36.6503 60.9397 36.6159 60.9938 36.5929 61.0532C36.5698 61.1126 36.5587 61.1761 36.56 61.24C36.6 63.82 36.92 67.37 33.83 67.28C33.4168 67.2684 33.0228 67.1032 32.7251 66.8165C32.4273 66.5299 32.2472 66.1424 32.22 65.73L31.92 61.2C31.9123 61.078 31.8584 60.9634 31.7692 60.8798C31.68 60.7962 31.5623 60.7498 31.44 60.75H25.37C25.2003 60.75 25.0375 60.8174 24.9174 60.9375C24.7974 61.0575 24.73 61.2203 24.73 61.39L24.75 93.4C24.75 93.5591 24.8121 93.7117 24.9228 93.8243C25.0334 93.9368 25.1835 94 25.34 94H118.5C118.633 94 118.76 93.9473 118.854 93.8536C118.947 93.7598 119 93.6326 119 93.5V61.37C119 61.2056 118.935 61.0479 118.818 60.9316C118.702 60.8153 118.544 60.75 118.38 60.75H112.75C112.539 60.7487 112.33 60.7964 112.14 60.8892C111.95 60.982 111.785 61.1175 111.656 61.285C111.527 61.4525 111.439 61.6475 111.398 61.8549C111.357 62.0622 111.364 62.2761 111.42 62.48C112.053 64.8067 111.397 66.46 109.45 67.44C109.254 67.5374 109.037 67.5856 108.818 67.5804C108.599 67.5752 108.385 67.5168 108.194 67.4102C108.004 67.3036 107.843 67.1521 107.725 66.969C107.608 66.7859 107.537 66.5768 107.52 66.36Z" fill="#878787"/>
<path d="M84.25 14.75H60.77C60.6209 14.75 60.5 14.8709 60.5 15.02V24.02C60.5 24.1691 60.6209 24.29 60.77 24.29H84.25C84.3991 24.29 84.52 24.1691 84.52 24.02V15.02C84.52 14.8709 84.3991 14.75 84.25 14.75Z" fill="white"/>
<path d="M31.7442 28.7878L22.8042 28.7722C22.6495 28.7719 22.524 28.8971 22.5237 29.0517L22.4763 56.2117C22.476 56.3663 22.6011 56.4919 22.7558 56.4922L31.6958 56.5078C31.8504 56.508 31.976 56.3829 31.9763 56.2283L32.0237 29.0683C32.0239 28.9137 31.8988 28.7881 31.7442 28.7878Z" fill="white"/>
<path d="M77.46 51.29C72.82 51.23 68.1433 51.22 63.43 51.26C63.0707 51.266 62.7264 51.413 62.47 51.67C61.3433 52.8167 60.9533 54.2367 61.3 55.93C61.3149 55.9985 61.314 56.0695 61.2973 56.1377C61.2806 56.2059 61.2485 56.2697 61.2034 56.3243C61.1584 56.379 61.1015 56.4231 61.0368 56.4535C60.9722 56.4839 60.9016 56.4998 60.83 56.5H37C36.8674 56.5 36.7402 56.4473 36.6464 56.3536C36.5527 56.2598 36.5 56.1326 36.5 56V29.37C36.5 29.2056 36.5664 29.0479 36.6845 28.9316C36.8027 28.8153 36.9629 28.75 37.13 28.75H106.58C106.741 28.7502 106.897 28.8077 107.02 28.9121C107.142 29.0165 107.224 29.161 107.25 29.32C107.31 29.6533 107.29 29.9733 107.19 30.28C107.097 30.5733 107.053 30.8767 107.06 31.19L107.32 55.84C107.321 55.9262 107.305 56.0118 107.273 56.0918C107.24 56.1718 107.192 56.2446 107.13 56.306C107.069 56.3675 106.996 56.4162 106.915 56.4495C106.834 56.4828 106.748 56.5 106.66 56.5H82.49C82.3136 56.5004 82.1391 56.4644 81.9771 56.3942C81.8152 56.3239 81.6692 56.221 81.5483 56.0916C81.4275 55.9623 81.3342 55.8094 81.2742 55.6422C81.2143 55.4751 81.1891 55.2974 81.2 55.12C81.38 51.96 80.56 51.33 77.46 51.29Z" fill="white"/>
<path d="M120.94 28.92H111.82C111.649 28.92 111.51 29.0588 111.51 29.23V56.19C111.51 56.3612 111.649 56.5 111.82 56.5H120.94C121.111 56.5 121.25 56.3612 121.25 56.19V29.23C121.25 29.0588 121.111 28.92 120.94 28.92Z" fill="white"/>
<path d="M76.4741 55.7409L66.0141 55.7591C65.865 55.7594 65.7444 55.8805 65.7446 56.0296L65.7555 62.2496C65.7557 62.3987 65.8768 62.5194 66.0259 62.5191L76.4859 62.5009C76.635 62.5006 76.7557 62.3795 76.7555 62.2304L76.7446 56.0104C76.7443 55.8613 76.6232 55.7406 76.4741 55.7409Z" fill="white"/>
<path d="M107.52 66.36C107.537 66.5768 107.608 66.7859 107.725 66.969C107.843 67.1521 108.004 67.3036 108.194 67.4102C108.385 67.5168 108.599 67.5752 108.818 67.5804C109.037 67.5856 109.254 67.5374 109.45 67.44C111.397 66.46 112.053 64.8067 111.42 62.48C111.364 62.2761 111.357 62.0622 111.398 61.8549C111.439 61.6475 111.527 61.4525 111.656 61.285C111.784 61.1175 111.95 60.982 112.14 60.8892C112.33 60.7964 112.539 60.7487 112.75 60.75H118.38C118.544 60.75 118.702 60.8153 118.818 60.9316C118.935 61.0479 119 61.2056 119 61.37V93.5C119 93.6326 118.947 93.7598 118.854 93.8536C118.76 93.9473 118.633 94 118.5 94H25.34C25.1835 94 25.0334 93.9368 24.9228 93.8243C24.8121 93.7117 24.75 93.5591 24.75 93.4L24.73 61.39C24.73 61.2203 24.7974 61.0575 24.9174 60.9375C25.0375 60.8174 25.2002 60.75 25.37 60.75H31.44C31.5623 60.7498 31.68 60.7962 31.7692 60.8798C31.8584 60.9635 31.9123 61.078 31.92 61.2L32.22 65.73C32.2472 66.1424 32.4273 66.5299 32.7251 66.8165C33.0228 67.1032 33.4168 67.2684 33.83 67.28C36.92 67.37 36.6 63.82 36.56 61.24C36.5587 61.1761 36.5698 61.1126 36.5928 61.0532C36.6159 60.9938 36.6503 60.9397 36.6941 60.894C36.7378 60.8484 36.7901 60.8121 36.8478 60.7874C36.9055 60.7627 36.9674 60.75 37.03 60.75H60.71C60.8392 60.7499 60.9634 60.7998 61.0566 60.8893C61.1499 60.9788 61.2048 61.1009 61.21 61.23C61.32 63.5 60.61 66.75 64.07 66.86C68.71 67.0067 73.3533 67.0367 78 66.95C81.97 66.88 81.17 63.98 81.28 61.23C81.2851 61.1008 81.3412 60.9787 81.4362 60.8892C81.5313 60.7997 81.6581 60.7498 81.79 60.75H106.29C106.503 60.7495 106.708 60.8297 106.864 60.9745C107.02 61.1192 107.115 61.3178 107.13 61.53L107.52 66.36Z" fill="white"/>
</g>
<defs>
<clipPath id="clip0_116_159">
<rect width="150" height="108" fill="white"/>
</clipPath>
</defs>
</svg>
