<svg width="150" height="108" viewBox="0 0 150 108" fill="none" xmlns="http://www.w3.org/2000/svg">
<g clip-path="url(#clip0_116_176)">
<path d="M138.46 28.67C138.46 26.9431 138.12 25.2331 137.459 23.6377C136.798 22.0423 135.83 20.5926 134.608 19.3715C133.387 18.1505 131.938 17.1818 130.342 16.521C128.747 15.8601 127.037 15.52 125.31 15.52H28.89C25.4024 15.52 22.0576 16.9054 19.5915 19.3715C17.1254 21.8377 15.74 25.1824 15.74 28.67V82.07C15.74 85.5576 17.1254 88.9024 19.5915 91.3685C22.0576 93.8346 25.4024 95.22 28.89 95.22H125.31C127.037 95.22 128.747 94.8799 130.342 94.219C131.938 93.5582 133.387 92.5895 134.608 91.3685C135.83 90.1474 136.798 88.6977 137.459 87.1023C138.12 85.5069 138.46 83.7969 138.46 82.07V28.67Z" stroke="#C3C3C3" stroke-width="2"/>
<path d="M28.75 19.8C24.5 19.81 20.59 22.62 20.11 27.03C20.1043 27.0898 20.111 27.1502 20.1296 27.2071C20.1482 27.2641 20.1782 27.3164 20.2178 27.3607C20.2574 27.405 20.3056 27.4403 20.3594 27.4643C20.4131 27.4882 20.4713 27.5004 20.53 27.5H133.48C133.541 27.5008 133.601 27.4883 133.656 27.4631C133.711 27.4379 133.76 27.4008 133.8 27.3543C133.84 27.3077 133.87 27.2528 133.887 27.1934C133.904 27.134 133.909 27.0714 133.9 27.01C132.99 21.05 128.86 19.77 123.14 19.76C91.6866 19.7467 60.2233 19.76 28.75 19.8Z" stroke="#C3C3C3" stroke-width="2"/>
<path d="M134.24 31.91C134.24 31.8411 134.213 31.7749 134.164 31.7262C134.115 31.6774 134.049 31.65 133.98 31.65H20.02C19.9511 31.65 19.8849 31.6774 19.8362 31.7262C19.7874 31.7749 19.76 31.8411 19.76 31.91V36.99C19.76 37.059 19.7874 37.1251 19.8362 37.1739C19.8849 37.2226 19.9511 37.25 20.02 37.25H133.98C134.049 37.25 134.115 37.2226 134.164 37.1739C134.213 37.1251 134.24 37.059 134.24 36.99V31.91Z" stroke="#C3C3C3" stroke-width="2"/>
<path d="M19.81 78.29C19.86 84.41 20.83 91.02 28.75 91.02C60.2833 91.02 91.82 91.01 123.36 90.99C132.15 90.98 134.25 87.13 134.25 78.6C134.25 66.2733 134.247 53.9733 134.24 41.7C134.24 41.5807 134.193 41.4662 134.108 41.3818C134.024 41.2974 133.909 41.25 133.79 41.25H20.28C20.1474 41.25 20.0202 41.3027 19.9264 41.3964C19.8326 41.4902 19.78 41.6174 19.78 41.75C19.7066 53.8833 19.7166 66.0633 19.81 78.29Z" stroke="#C3C3C3" stroke-width="2"/>
<path d="M49.6691 58.5731C49.6676 57.6893 49.492 56.8145 49.1523 55.9985C48.8127 55.1826 48.3157 54.4416 47.6896 53.8177C47.0636 53.1939 46.3208 52.6995 45.5037 52.3627C44.6866 52.0259 43.8111 51.8533 42.9273 51.8549L37.0673 51.8651C36.1835 51.8666 35.3087 52.0423 34.4928 52.3819C33.6768 52.7215 32.9358 53.2186 32.312 53.8446C31.6881 54.4706 31.1937 55.2134 30.8569 56.0305C30.5201 56.8477 30.3476 57.7231 30.3491 58.6069L30.3509 59.6669C30.3525 60.5507 30.5281 61.4255 30.8677 62.2415C31.2074 63.0574 31.7044 63.7984 32.3304 64.4223C32.9565 65.0461 33.6993 65.5405 34.5164 65.8773C35.3335 66.2141 36.2089 66.3867 37.0927 66.3851L42.9527 66.3749C43.8365 66.3734 44.7114 66.1977 45.5273 65.8581C46.3432 65.5184 47.0843 65.0214 47.7081 64.3954C48.3319 63.7694 48.8264 63.0266 49.1632 62.2095C49.4999 61.3923 49.6725 60.5169 49.6709 59.6331L49.6691 58.5731Z" stroke="#C3C3C3" stroke-width="2"/>
<path d="M125.97 55.69C125.97 54.9819 125.689 54.3028 125.188 53.802C124.687 53.3013 124.008 53.02 123.3 53.02H61.42C61.0694 53.02 60.7222 53.0891 60.3982 53.2232C60.0743 53.3574 59.78 53.5541 59.532 53.802C59.2841 54.05 59.0874 54.3443 58.9532 54.6682C58.8191 54.9922 58.75 55.3394 58.75 55.69V63.33C58.75 63.6806 58.8191 64.0278 58.9532 64.3518C59.0874 64.6757 59.2841 64.97 59.532 65.218C59.78 65.4659 60.0743 65.6626 60.3982 65.7968C60.7222 65.9309 61.0694 66 61.42 66H123.3C124.008 66 124.687 65.7187 125.188 65.218C125.689 64.7173 125.97 64.0381 125.97 63.33V55.69Z" stroke="#C3C3C3" stroke-width="2"/>
<path d="M45.72 58.95C45.72 58.1782 45.4134 57.4381 44.8676 56.8923C44.3219 56.3466 43.5818 56.04 42.81 56.04H37.19C36.4182 56.04 35.678 56.3466 35.1323 56.8923C34.5866 57.4381 34.28 58.1782 34.28 58.95V59.31C34.28 60.0818 34.5866 60.822 35.1323 61.3677C35.678 61.9134 36.4182 62.22 37.19 62.22H42.81C43.5818 62.22 44.3219 61.9134 44.8676 61.3677C45.4134 60.822 45.72 60.0818 45.72 59.31V58.95Z" stroke="#C3C3C3" stroke-width="2"/>
<path d="M121.74 57.77C121.74 57.6321 121.685 57.4998 121.588 57.4023C121.49 57.3048 121.358 57.25 121.22 57.25H63.26C63.1221 57.25 62.9898 57.3048 62.8923 57.4023C62.7948 57.4998 62.74 57.6321 62.74 57.77V61.23C62.74 61.3679 62.7948 61.5002 62.8923 61.5977C62.9898 61.6952 63.1221 61.75 63.26 61.75H121.22C121.358 61.75 121.49 61.6952 121.588 61.5977C121.685 61.5002 121.74 61.3679 121.74 61.23V57.77Z" stroke="#C3C3C3" stroke-width="2"/>
<path d="M0 0H150V108H0V0ZM138.46 28.67C138.46 26.9431 138.12 25.2331 137.459 23.6377C136.798 22.0423 135.83 20.5926 134.608 19.3715C133.387 18.1505 131.938 17.1818 130.342 16.521C128.747 15.8601 127.037 15.52 125.31 15.52H28.89C25.4024 15.52 22.0576 16.9054 19.5915 19.3715C17.1254 21.8376 15.74 25.1824 15.74 28.67V82.07C15.74 85.5576 17.1254 88.9024 19.5915 91.3685C22.0576 93.8346 25.4024 95.22 28.89 95.22H125.31C127.037 95.22 128.747 94.8799 130.342 94.219C131.938 93.5582 133.387 92.5895 134.608 91.3685C135.83 90.1474 136.798 88.6977 137.459 87.1023C138.12 85.5069 138.46 83.7969 138.46 82.07V28.67Z" fill="white"/>
<path d="M138.46 82.07C138.46 83.7969 138.12 85.5069 137.459 87.1023C136.798 88.6977 135.83 90.1474 134.608 91.3685C133.387 92.5895 131.938 93.5582 130.342 94.219C128.747 94.8799 127.037 95.22 125.31 95.22H28.89C25.4024 95.22 22.0576 93.8346 19.5915 91.3685C17.1254 88.9024 15.74 85.5576 15.74 82.07V28.67C15.74 25.1824 17.1254 21.8377 19.5915 19.3715C22.0576 16.9054 25.4024 15.52 28.89 15.52H125.31C127.037 15.52 128.747 15.8601 130.342 16.521C131.938 17.1818 133.387 18.1505 134.608 19.3715C135.83 20.5926 136.798 22.0423 137.459 23.6377C138.12 25.2331 138.46 26.9431 138.46 28.67V82.07ZM28.75 19.8C24.5 19.81 20.59 22.62 20.11 27.03C20.1044 27.0898 20.1111 27.1502 20.1297 27.2071C20.1482 27.2641 20.1783 27.3164 20.2178 27.3607C20.2574 27.405 20.3056 27.4403 20.3594 27.4643C20.4132 27.4882 20.4713 27.5004 20.53 27.5H133.48C133.541 27.5008 133.601 27.4883 133.656 27.4631C133.711 27.4379 133.761 27.4008 133.8 27.3543C133.84 27.3077 133.87 27.2528 133.887 27.1934C133.904 27.134 133.909 27.0714 133.9 27.01C132.99 21.05 128.86 19.77 123.14 19.76C91.6867 19.7467 60.2233 19.76 28.75 19.8ZM134.24 31.91C134.24 31.841 134.213 31.7749 134.164 31.7262C134.115 31.6774 134.049 31.65 133.98 31.65H20.02C19.951 31.65 19.8849 31.6774 19.8361 31.7262C19.7874 31.7749 19.76 31.841 19.76 31.91V36.99C19.76 37.059 19.7874 37.1251 19.8361 37.1739C19.8849 37.2226 19.951 37.25 20.02 37.25H133.98C134.049 37.25 134.115 37.2226 134.164 37.1739C134.213 37.1251 134.24 37.059 134.24 36.99V31.91ZM19.81 78.29C19.86 84.41 20.83 91.02 28.75 91.02C60.2833 91.02 91.82 91.01 123.36 90.99C132.15 90.98 134.25 87.13 134.25 78.6C134.25 66.2733 134.247 53.9733 134.24 41.7C134.24 41.5807 134.193 41.4662 134.108 41.3818C134.024 41.2974 133.909 41.25 133.79 41.25H20.28C20.1474 41.25 20.0202 41.3027 19.9264 41.3965C19.8327 41.4902 19.78 41.6174 19.78 41.75C19.7067 53.8833 19.7167 66.0633 19.81 78.29Z" fill="#878787"/>
<path d="M20.11 27.03C20.59 22.62 24.5 19.81 28.75 19.8C60.2233 19.76 91.6866 19.7467 123.14 19.76C128.86 19.77 132.99 21.05 133.9 27.01C133.909 27.0714 133.904 27.134 133.887 27.1934C133.87 27.2528 133.84 27.3077 133.8 27.3543C133.76 27.4008 133.711 27.4379 133.656 27.4631C133.601 27.4883 133.541 27.5008 133.48 27.5H20.53C20.4713 27.5004 20.4131 27.4882 20.3594 27.4643C20.3056 27.4403 20.2574 27.405 20.2178 27.3607C20.1782 27.3164 20.1482 27.2641 20.1296 27.2071C20.111 27.1502 20.1043 27.0898 20.11 27.03Z" fill="white"/>
<path d="M133.98 31.65H20.02C19.8764 31.65 19.76 31.7664 19.76 31.91V36.99C19.76 37.1336 19.8764 37.25 20.02 37.25H133.98C134.124 37.25 134.24 37.1336 134.24 36.99V31.91C134.24 31.7664 134.124 31.65 133.98 31.65Z" fill="white"/>
<path d="M28.75 91.02C20.83 91.02 19.86 84.41 19.81 78.29C19.7166 66.0633 19.7066 53.8833 19.78 41.75C19.78 41.6174 19.8326 41.4902 19.9264 41.3964C20.0202 41.3027 20.1474 41.25 20.28 41.25H133.79C133.909 41.25 134.024 41.2974 134.108 41.3818C134.193 41.4662 134.24 41.5807 134.24 41.7C134.247 53.9733 134.25 66.2733 134.25 78.6C134.25 87.13 132.15 90.98 123.36 90.99C91.82 91.01 60.2833 91.02 28.75 91.02ZM49.6691 58.5731C49.6675 57.6893 49.4919 56.8145 49.1523 55.9985C48.8126 55.1826 48.3156 54.4416 47.6896 53.8177C47.0635 53.1939 46.3207 52.6995 45.5036 52.3627C44.6865 52.0259 43.8111 51.8533 42.9273 51.8549L37.0673 51.8651C36.1835 51.8666 35.3086 52.0423 34.4927 52.3819C33.6768 52.7215 32.9357 53.2186 32.3119 53.8446C31.688 54.4706 31.1936 55.2134 30.8568 56.0305C30.5201 56.8477 30.3475 57.7231 30.3491 58.6069L30.3509 59.6669C30.3524 60.5507 30.528 61.4255 30.8677 62.2415C31.2073 63.0574 31.7043 63.7984 32.3304 64.4223C32.9564 65.0461 33.6992 65.5405 34.5163 65.8773C35.3334 66.2141 36.2089 66.3867 37.0927 66.3851L42.9527 66.3749C43.8365 66.3734 44.7113 66.1977 45.5272 65.8581C46.3432 65.5184 47.0842 65.0214 47.708 64.3954C48.3319 63.7694 48.8263 63.0266 49.1631 62.2095C49.4999 61.3923 49.6724 60.5169 49.6709 59.6331L49.6691 58.5731ZM125.97 55.69C125.97 54.9819 125.689 54.3027 125.188 53.802C124.687 53.3013 124.008 53.02 123.3 53.02H61.42C61.0693 53.02 60.7221 53.0891 60.3982 53.2232C60.0743 53.3574 59.7799 53.5541 59.532 53.802C59.2841 54.05 59.0874 54.3443 58.9532 54.6682C58.819 54.9922 58.75 55.3394 58.75 55.69V63.33C58.75 63.6806 58.819 64.0278 58.9532 64.3518C59.0874 64.6757 59.2841 64.97 59.532 65.218C59.7799 65.4659 60.0743 65.6626 60.3982 65.7968C60.7221 65.9309 61.0693 66 61.42 66H123.3C124.008 66 124.687 65.7187 125.188 65.218C125.689 64.7172 125.97 64.0381 125.97 63.33V55.69Z" fill="white"/>
<path d="M49.6709 59.6331C49.6725 60.5169 49.4999 61.3923 49.1632 62.2095C48.8264 63.0266 48.3319 63.7694 47.7081 64.3954C47.0843 65.0214 46.3432 65.5184 45.5273 65.8581C44.7114 66.1977 43.8365 66.3734 42.9527 66.3749L37.0927 66.3851C36.2089 66.3867 35.3335 66.2141 34.5164 65.8773C33.6993 65.5405 32.9565 65.0461 32.3304 64.4223C31.7044 63.7984 31.2074 63.0574 30.8677 62.2415C30.5281 61.4255 30.3525 60.5507 30.3509 59.6669L30.3491 58.6069C30.3476 57.7231 30.5201 56.8477 30.8569 56.0305C31.1937 55.2134 31.6881 54.4706 32.312 53.8446C32.9358 53.2186 33.6768 52.7215 34.4928 52.3819C35.3087 52.0423 36.1835 51.8666 37.0673 51.8651L42.9273 51.8549C43.8111 51.8533 44.6866 52.0259 45.5037 52.3627C46.3208 52.6995 47.0636 53.1939 47.6896 53.8177C48.3157 54.4416 48.8127 55.1826 49.1523 55.9985C49.492 56.8145 49.6676 57.6893 49.6691 58.5731L49.6709 59.6331ZM45.72 58.95C45.72 58.1782 45.4134 57.438 44.8677 56.8923C44.322 56.3466 43.5818 56.04 42.81 56.04H37.19C36.4183 56.04 35.6781 56.3466 35.1324 56.8923C34.5866 57.438 34.28 58.1782 34.28 58.95V59.31C34.28 60.0818 34.5866 60.8219 35.1324 61.3677C35.6781 61.9134 36.4183 62.22 37.19 62.22H42.81C43.5818 62.22 44.322 61.9134 44.8677 61.3677C45.4134 60.8219 45.72 60.0818 45.72 59.31V58.95Z" fill="#878787"/>
<path d="M125.97 63.33C125.97 64.0381 125.689 64.7173 125.188 65.218C124.687 65.7187 124.008 66 123.3 66H61.42C61.0694 66 60.7222 65.9309 60.3982 65.7968C60.0743 65.6626 59.78 65.4659 59.532 65.218C59.2841 64.97 59.0874 64.6757 58.9532 64.3518C58.8191 64.0278 58.75 63.6806 58.75 63.33V55.69C58.75 55.3394 58.8191 54.9922 58.9532 54.6682C59.0874 54.3443 59.2841 54.05 59.532 53.802C59.78 53.5541 60.0743 53.3574 60.3982 53.2232C60.7222 53.0891 61.0694 53.02 61.42 53.02H123.3C124.008 53.02 124.687 53.3013 125.188 53.802C125.689 54.3028 125.97 54.9819 125.97 55.69V63.33ZM121.74 57.77C121.74 57.6321 121.685 57.4998 121.588 57.4023C121.49 57.3048 121.358 57.25 121.22 57.25H63.26C63.1221 57.25 62.9898 57.3048 62.8923 57.4023C62.7948 57.4998 62.74 57.6321 62.74 57.77V61.23C62.74 61.3679 62.7948 61.5002 62.8923 61.5977C62.9898 61.6952 63.1221 61.75 63.26 61.75H121.22C121.358 61.75 121.49 61.6952 121.588 61.5977C121.685 61.5002 121.74 61.3679 121.74 61.23V57.77Z" fill="#878787"/>
<path d="M42.81 56.04H37.19C35.5829 56.04 34.28 57.3429 34.28 58.95V59.31C34.28 60.9172 35.5829 62.22 37.19 62.22H42.81C44.4172 62.22 45.72 60.9172 45.72 59.31V58.95C45.72 57.3429 44.4172 56.04 42.81 56.04Z" fill="white"/>
<path d="M121.22 57.25H63.26C62.9728 57.25 62.74 57.4828 62.74 57.77V61.23C62.74 61.5172 62.9728 61.75 63.26 61.75H121.22C121.507 61.75 121.74 61.5172 121.74 61.23V57.77C121.74 57.4828 121.507 57.25 121.22 57.25Z" fill="white"/>
</g>
<defs>
<clipPath id="clip0_116_176">
<rect width="150" height="108" fill="white"/>
</clipPath>
</defs>
</svg>
