<svg width="150" height="108" viewBox="0 0 150 108" fill="none" xmlns="http://www.w3.org/2000/svg">
<g clip-path="url(#clip0_116_195)">
<path d="M116.65 26.44L15.75 26.32C15.4905 26.3187 15.2333 26.3689 14.9931 26.4678C14.7529 26.5668 14.5346 26.7124 14.3506 26.8964C14.1666 27.0804 14.0206 27.2991 13.921 27.54C13.8213 27.7808 13.7701 28.0391 13.77 28.3C13.7434 45.98 13.74 63.66 13.76 81.34C13.76 83.38 14.26 84.71 16.5 84.71C55.5601 84.75 94.6734 84.76 133.84 84.74C134.16 84.74 134.478 84.6765 134.773 84.553C135.069 84.4295 135.337 84.2485 135.562 84.0206C135.787 83.7927 135.965 83.5224 136.085 83.2253C136.204 82.9282 136.264 82.6103 136.26 82.29C136.14 70.5 136.93 58.29 136.22 46.32C136.194 45.9909 136.052 45.6825 135.82 45.45L116.94 26.56C116.902 26.5219 116.857 26.4917 116.807 26.4712C116.757 26.4506 116.704 26.44 116.65 26.44Z" stroke="#C3C3C3" stroke-width="2"/>
<path d="M18.59 80.55C56.33 80.42 94.08 81.06 131.76 80.44C131.891 80.4374 132.015 80.3835 132.107 80.2901C132.199 80.1966 132.25 80.0709 132.25 79.94V49.5C132.25 49.4243 132.235 49.3493 132.205 49.2795C132.175 49.2097 132.132 49.1464 132.077 49.0934C132.022 49.0403 131.957 48.9985 131.885 48.9705C131.814 48.9424 131.737 48.9287 131.66 48.93C126.673 49.0833 121.673 49.0533 116.66 48.84C114.57 48.75 113.78 47.68 113.78 45.72C113.787 40.8467 113.757 35.93 113.69 30.97C113.687 30.8445 113.637 30.725 113.549 30.6371C113.461 30.5492 113.343 30.5 113.22 30.5H18.53C18.3894 30.5 18.2546 30.5558 18.1552 30.6552C18.0558 30.7546 18 30.8894 18 31.03V79.96C18 80.1165 18.0622 80.2665 18.1728 80.3772C18.2835 80.4878 18.4335 80.55 18.59 80.55Z" stroke="#C3C3C3" stroke-width="2"/>
<path d="M128.55 44.61C128.609 44.6092 128.666 44.5911 128.715 44.5581C128.763 44.5251 128.801 44.4786 128.823 44.4243C128.846 44.37 128.852 44.3103 128.84 44.2526C128.829 44.195 128.801 44.1419 128.76 44.1L118.54 34.16C118.498 34.1183 118.444 34.0902 118.385 34.0793C118.326 34.0684 118.266 34.0751 118.211 34.0987C118.156 34.1223 118.11 34.1617 118.078 34.2118C118.046 34.2619 118.029 34.3204 118.03 34.38L118.04 44.58C118.04 44.6203 118.048 44.6601 118.064 44.6972C118.08 44.7342 118.103 44.7678 118.131 44.7957C118.16 44.8237 118.195 44.8456 118.232 44.8601C118.27 44.8746 118.31 44.8813 118.35 44.88L128.55 44.61Z" stroke="#C3C3C3" stroke-width="2"/>
<path d="M47.4801 38.57C47.4801 38.029 47.2651 37.5101 46.8826 37.1275C46.5 36.7449 45.9811 36.53 45.4401 36.53H28.1001C27.8322 36.53 27.5669 36.5828 27.3194 36.6853C27.0719 36.7878 26.847 36.9381 26.6576 37.1275C26.4681 37.3169 26.3179 37.5418 26.2153 37.7893C26.1128 38.0368 26.0601 38.3021 26.0601 38.57V38.69C26.0601 38.9579 26.1128 39.2232 26.2153 39.4707C26.3179 39.7182 26.4681 39.9431 26.6576 40.1325C26.847 40.3219 27.0719 40.4722 27.3194 40.5747C27.5669 40.6772 27.8322 40.73 28.1001 40.73H45.4401C45.9811 40.73 46.5 40.5151 46.8826 40.1325C47.2651 39.7499 47.4801 39.231 47.4801 38.69V38.57Z" stroke="#C3C3C3" stroke-width="2"/>
<path d="M47.5 44.46C47.5 43.9455 47.2956 43.452 46.9318 43.0882C46.568 42.7244 46.0746 42.52 45.56 42.52H27.98C27.4655 42.52 26.9721 42.7244 26.6083 43.0882C26.2444 43.452 26.04 43.9455 26.04 44.46V44.56C26.04 45.0745 26.2444 45.568 26.6083 45.9318C26.9721 46.2956 27.4655 46.5 27.98 46.5H45.56C46.0746 46.5 46.568 46.2956 46.9318 45.9318C47.2956 45.568 47.5 45.0745 47.5 44.56V44.46Z" stroke="#C3C3C3" stroke-width="2"/>
<path d="M123.23 58.98C123.23 58.4575 123.023 57.9565 122.653 57.587C122.284 57.2176 121.783 57.01 121.26 57.01H28.7801C28.2576 57.01 27.7565 57.2176 27.3871 57.587C27.0176 57.9565 26.8101 58.4575 26.8101 58.98V59.02C26.8101 59.5425 27.0176 60.0436 27.3871 60.413C27.7565 60.7825 28.2576 60.99 28.7801 60.99H121.26C121.783 60.99 122.284 60.7825 122.653 60.413C123.023 60.0436 123.23 59.5425 123.23 59.02V58.98Z" stroke="#C3C3C3" stroke-width="2"/>
<path d="M123.25 71.21C123.25 70.6902 123.043 70.1916 122.676 69.8241C122.308 69.4565 121.81 69.25 121.29 69.25H85.95C85.4302 69.25 84.9316 69.4565 84.5641 69.8241C84.1965 70.1916 83.99 70.6902 83.99 71.21V71.29C83.99 71.8098 84.1965 72.3084 84.5641 72.6759C84.9316 73.0435 85.4302 73.25 85.95 73.25H121.29C121.81 73.25 122.308 73.0435 122.676 72.6759C123.043 72.3084 123.25 71.8098 123.25 71.29V71.21Z" stroke="#C3C3C3" stroke-width="2"/>
<path d="M0 0H150V108H0V0ZM116.65 26.44L15.75 26.32C15.4905 26.3187 15.2332 26.3689 14.9931 26.4678C14.7529 26.5667 14.5345 26.7124 14.3505 26.8964C14.1666 27.0804 14.0205 27.2991 13.9209 27.54C13.8213 27.7808 13.77 28.0391 13.77 28.3C13.7433 45.98 13.74 63.66 13.76 81.34C13.76 83.38 14.26 84.71 16.5 84.71C55.56 84.75 94.6733 84.76 133.84 84.74C134.16 84.74 134.477 84.6765 134.773 84.553C135.069 84.4295 135.337 84.2485 135.562 84.0206C135.787 83.7927 135.965 83.5224 136.084 83.2253C136.204 82.9282 136.264 82.6103 136.26 82.29C136.14 70.5 136.93 58.29 136.22 46.32C136.194 45.9909 136.052 45.6825 135.82 45.45L116.94 26.56C116.902 26.5219 116.857 26.4917 116.807 26.4712C116.757 26.4506 116.704 26.44 116.65 26.44Z" fill="white"/>
<path d="M116.65 26.44C116.704 26.44 116.757 26.4506 116.807 26.4712C116.857 26.4917 116.902 26.5219 116.94 26.56L135.82 45.45C136.052 45.6825 136.194 45.9909 136.22 46.32C136.93 58.29 136.14 70.5 136.26 82.29C136.264 82.6103 136.204 82.9282 136.085 83.2253C135.965 83.5224 135.787 83.7927 135.562 84.0206C135.337 84.2485 135.069 84.4295 134.773 84.553C134.478 84.6765 134.16 84.74 133.84 84.74C94.6734 84.76 55.5601 84.75 16.5 84.71C14.26 84.71 13.76 83.38 13.76 81.34C13.74 63.66 13.7434 45.98 13.77 28.3C13.7701 28.0391 13.8213 27.7808 13.921 27.54C14.0206 27.2991 14.1666 27.0804 14.3506 26.8964C14.5346 26.7124 14.7529 26.5668 14.9931 26.4678C15.2333 26.3689 15.4905 26.3187 15.75 26.32L116.65 26.44ZM18.59 80.55C56.3301 80.42 94.08 81.06 131.76 80.44C131.891 80.4374 132.016 80.3836 132.107 80.2901C132.199 80.1966 132.25 80.0709 132.25 79.94V49.5C132.25 49.4243 132.235 49.3493 132.205 49.2795C132.175 49.2097 132.132 49.1464 132.077 49.0934C132.022 49.0403 131.957 48.9985 131.885 48.9705C131.814 48.9424 131.737 48.9287 131.66 48.93C126.673 49.0833 121.673 49.0533 116.66 48.84C114.57 48.75 113.78 47.68 113.78 45.72C113.787 40.8467 113.757 35.93 113.69 30.97C113.687 30.8445 113.637 30.725 113.549 30.6371C113.461 30.5493 113.343 30.5 113.22 30.5H18.53C18.3895 30.5 18.2547 30.5558 18.1553 30.6552C18.0559 30.7546 18 30.8894 18 31.03V79.96C18 80.1165 18.0622 80.2665 18.1729 80.3772C18.2835 80.4878 18.4336 80.55 18.59 80.55ZM128.55 44.61C128.609 44.6092 128.666 44.5911 128.715 44.5581C128.763 44.5251 128.801 44.4786 128.823 44.4243C128.846 44.37 128.852 44.3103 128.84 44.2526C128.829 44.195 128.801 44.1419 128.76 44.1L118.54 34.16C118.498 34.1183 118.444 34.0902 118.385 34.0793C118.326 34.0684 118.266 34.0751 118.211 34.0987C118.156 34.1223 118.11 34.1617 118.078 34.2118C118.046 34.2619 118.029 34.3204 118.03 34.38L118.04 44.58C118.04 44.6203 118.048 44.6601 118.064 44.6972C118.079 44.7342 118.102 44.7678 118.131 44.7957C118.16 44.8237 118.195 44.8456 118.232 44.8601C118.27 44.8746 118.31 44.8813 118.35 44.88L128.55 44.61Z" fill="#878787"/>
<path d="M131.76 80.44C94.08 81.06 56.33 80.42 18.59 80.55C18.4335 80.55 18.2835 80.4878 18.1728 80.3772C18.0622 80.2665 18 80.1165 18 79.96V31.03C18 30.8894 18.0558 30.7546 18.1552 30.6552C18.2546 30.5558 18.3894 30.5 18.53 30.5H113.22C113.343 30.5 113.461 30.5492 113.549 30.6371C113.637 30.725 113.687 30.8445 113.69 30.97C113.757 35.93 113.787 40.8467 113.78 45.72C113.78 47.68 114.57 48.75 116.66 48.84C121.673 49.0533 126.673 49.0833 131.66 48.93C131.737 48.9287 131.814 48.9424 131.885 48.9705C131.957 48.9985 132.022 49.0403 132.077 49.0934C132.132 49.1464 132.175 49.2097 132.205 49.2795C132.235 49.3493 132.25 49.4243 132.25 49.5V79.94C132.25 80.0709 132.199 80.1966 132.107 80.2901C132.015 80.3835 131.891 80.4374 131.76 80.44ZM47.48 38.57C47.48 38.029 47.2651 37.5101 46.8825 37.1275C46.4999 36.7449 45.981 36.53 45.44 36.53H28.1C27.8321 36.53 27.5668 36.5828 27.3193 36.6853C27.0718 36.7878 26.8469 36.9381 26.6575 37.1275C26.4681 37.3169 26.3178 37.5418 26.2153 37.7893C26.1128 38.0368 26.06 38.3021 26.06 38.57V38.69C26.06 38.9579 26.1128 39.2232 26.2153 39.4707C26.3178 39.7182 26.4681 39.9431 26.6575 40.1325C26.8469 40.3219 27.0718 40.4722 27.3193 40.5747C27.5668 40.6772 27.8321 40.73 28.1 40.73H45.44C45.981 40.73 46.4999 40.5151 46.8825 40.1325C47.2651 39.7499 47.48 39.231 47.48 38.69V38.57ZM47.5 44.46C47.5 43.9455 47.2956 43.452 46.9318 43.0882C46.568 42.7244 46.0745 42.52 45.56 42.52H27.98C27.4655 42.52 26.972 42.7244 26.6082 43.0882C26.2444 43.452 26.04 43.9455 26.04 44.46V44.56C26.04 45.0745 26.2444 45.568 26.6082 45.9318C26.972 46.2956 27.4655 46.5 27.98 46.5H45.56C46.0745 46.5 46.568 46.2956 46.9318 45.9318C47.2956 45.568 47.5 45.0745 47.5 44.56V44.46ZM123.23 58.98C123.23 58.4575 123.022 57.9564 122.653 57.587C122.284 57.2176 121.782 57.01 121.26 57.01H28.78C28.2575 57.01 27.7564 57.2176 27.387 57.587C27.0176 57.9564 26.81 58.4575 26.81 58.98V59.02C26.81 59.5425 27.0176 60.0436 27.387 60.413C27.7564 60.7824 28.2575 60.99 28.78 60.99H121.26C121.782 60.99 122.284 60.7824 122.653 60.413C123.022 60.0436 123.23 59.5425 123.23 59.02V58.98ZM123.25 71.21C123.25 70.6902 123.043 70.1916 122.676 69.8241C122.308 69.4565 121.81 69.25 121.29 69.25H85.95C85.4302 69.25 84.9316 69.4565 84.5641 69.8241C84.1965 70.1916 83.99 70.6902 83.99 71.21V71.29C83.99 71.8098 84.1965 72.3084 84.5641 72.6759C84.9316 73.0435 85.4302 73.25 85.95 73.25H121.29C121.81 73.25 122.308 73.0435 122.676 72.6759C123.043 72.3084 123.25 71.8098 123.25 71.29V71.21Z" fill="white"/>
<path d="M128.55 44.61L118.35 44.88C118.31 44.8813 118.27 44.8746 118.232 44.8601C118.195 44.8456 118.16 44.8237 118.131 44.7957C118.102 44.7678 118.079 44.7342 118.064 44.6972C118.048 44.6601 118.04 44.6203 118.04 44.58L118.03 34.38C118.029 34.3204 118.045 34.2619 118.078 34.2118C118.11 34.1617 118.156 34.1223 118.211 34.0987C118.266 34.0751 118.326 34.0684 118.385 34.0793C118.443 34.0902 118.497 34.1183 118.54 34.16L128.76 44.1C128.801 44.1419 128.829 44.195 128.84 44.2526C128.851 44.3103 128.846 44.37 128.823 44.4243C128.801 44.4786 128.763 44.5251 128.714 44.5581C128.666 44.5911 128.609 44.6092 128.55 44.61Z" fill="white"/>
<path d="M45.4401 36.53H28.1001C26.9734 36.53 26.0601 37.4433 26.0601 38.57V38.69C26.0601 39.8167 26.9734 40.73 28.1001 40.73H45.4401C46.5667 40.73 47.4801 39.8167 47.4801 38.69V38.57C47.4801 37.4433 46.5667 36.53 45.4401 36.53Z" fill="#878787"/>
<path d="M45.56 42.52H27.98C26.9086 42.52 26.04 43.3886 26.04 44.46V44.56C26.04 45.6314 26.9086 46.5 27.98 46.5H45.56C46.6315 46.5 47.5 45.6314 47.5 44.56V44.46C47.5 43.3886 46.6315 42.52 45.56 42.52Z" fill="#878787"/>
<path d="M121.26 57.01H28.7801C27.6921 57.01 26.8101 57.892 26.8101 58.98V59.02C26.8101 60.108 27.6921 60.99 28.7801 60.99H121.26C122.348 60.99 123.23 60.108 123.23 59.02V58.98C123.23 57.892 122.348 57.01 121.26 57.01Z" fill="#878787"/>
<path d="M121.29 69.25H85.95C84.8675 69.25 83.99 70.1275 83.99 71.21V71.29C83.99 72.3725 84.8675 73.25 85.95 73.25H121.29C122.372 73.25 123.25 72.3725 123.25 71.29V71.21C123.25 70.1275 122.372 69.25 121.29 69.25Z" fill="#878787"/>
</g>
<defs>
<clipPath id="clip0_116_195">
<rect width="150" height="108" fill="white"/>
</clipPath>
</defs>
</svg>
