<svg width="150" height="108" viewBox="0 0 150 108" fill="none" xmlns="http://www.w3.org/2000/svg">
<g clip-path="url(#clip0_116_278)">
<path d="M90.56 44.94C90.4933 32.94 90.4733 20.9433 90.5 8.95C90.5 7.27 89.83 5.5 88 5.5C67.6333 5.5 47.26 5.5 26.88 5.5C23.46 5.5 22.78 6.48 22.77 9.75C22.7367 38.6967 22.7367 67.6433 22.77 96.59C22.77 99.66 23.08 101.24 26.5 101.24C59.3133 101.253 92.15 101.253 125.01 101.24C125.599 101.24 126.163 101.006 126.58 100.59C126.996 100.173 127.23 99.6088 127.23 99.02C127.257 82.3467 127.263 65.6967 127.25 49.07C127.24 46.74 126.41 45.48 124 45.49C113.02 45.5233 102.04 45.5067 91.06 45.44C90.9274 45.44 90.8002 45.3873 90.7064 45.2936C90.6127 45.1998 90.56 45.0726 90.56 44.94Z" stroke="#C3C3C3" stroke-width="2"/>
<path d="M85.74 10.5C85.74 10.431 85.7126 10.3649 85.6638 10.3161C85.6151 10.2674 85.549 10.24 85.48 10.24H27.76C27.691 10.24 27.6249 10.2674 27.5762 10.3161C27.5274 10.3649 27.5 10.431 27.5 10.5V96.24C27.5 96.3089 27.5274 96.3751 27.5762 96.4238C27.6249 96.4726 27.691 96.5 27.76 96.5H85.48C85.549 96.5 85.6151 96.4726 85.6638 96.4238C85.7126 96.3751 85.74 96.3089 85.74 96.24V10.5Z" stroke="#C3C3C3" stroke-width="2"/>
<path d="M122.5 50.53C122.5 50.4584 122.472 50.3897 122.421 50.3391C122.37 50.2885 122.302 50.26 122.23 50.26H91.01C90.9745 50.26 90.9394 50.267 90.9067 50.2806C90.8739 50.2941 90.8441 50.314 90.8191 50.3391C90.794 50.3642 90.7741 50.3939 90.7605 50.4267C90.747 50.4594 90.74 50.4946 90.74 50.53V96.23C90.74 96.2655 90.747 96.3006 90.7605 96.3333C90.7741 96.3661 90.794 96.3959 90.8191 96.4209C90.8441 96.446 90.8739 96.4659 90.9067 96.4795C90.9394 96.493 90.9745 96.5 91.01 96.5H122.23C122.302 96.5 122.37 96.4716 122.421 96.4209C122.472 96.3703 122.5 96.3016 122.5 96.23V50.53Z" stroke="#C3C3C3" stroke-width="2"/>
<path d="M53.2449 23.5757C53.2463 23.1778 53.1693 22.7835 53.0183 22.4154C52.8673 22.0472 52.6453 21.7124 52.3649 21.43C52.0846 21.1477 51.7513 20.9233 51.3842 20.7698C51.0171 20.6162 50.6234 20.5365 50.2255 20.5351L41.5855 20.505C40.7819 20.5022 40.0101 20.8187 39.4399 21.385C38.8697 21.9512 38.5478 22.7208 38.545 23.5244L38.5151 32.0843C38.5137 32.4822 38.5907 32.8765 38.7417 33.2446C38.8927 33.6128 39.1147 33.9476 39.3951 34.2299C39.6754 34.5123 40.0087 34.7366 40.3758 34.8902C40.7429 35.0438 41.1366 35.1235 41.5345 35.1249L50.1745 35.155C50.9781 35.1578 51.7499 34.8412 52.3201 34.275C52.8903 33.7087 53.2122 32.9392 53.215 32.1356L53.2449 23.5757Z" stroke="#C3C3C3" stroke-width="2"/>
<path d="M74.7422 23.2672C74.7416 22.9074 74.67 22.5512 74.5318 22.219C74.3935 21.8868 74.1911 21.5851 73.9363 21.3311C73.6814 21.0771 73.379 20.8758 73.0463 20.7387C72.7136 20.6016 72.3572 20.5314 71.9974 20.532L62.8374 20.548C62.4776 20.5486 62.1214 20.6201 61.7892 20.7584C61.457 20.8967 61.1553 21.099 60.9013 21.3539C60.6473 21.6088 60.446 21.9112 60.3089 22.2439C60.1718 22.5765 60.1015 22.933 60.1022 23.2928L60.1178 32.2728C60.1184 32.6326 60.1899 32.9888 60.3282 33.321C60.4665 33.6532 60.6688 33.9549 60.9237 34.2089C61.1786 34.4628 61.481 34.6641 61.8137 34.8013C62.1463 34.9384 62.5028 35.0086 62.8626 35.008L72.0226 34.992C72.3824 34.9914 72.7386 34.9199 73.0708 34.7816C73.403 34.6433 73.7047 34.4409 73.9586 34.1861C74.2126 33.9312 74.4139 33.6288 74.551 33.2961C74.6882 32.9634 74.7584 32.607 74.7578 32.2472L74.7422 23.2672Z" stroke="#C3C3C3" stroke-width="2"/>
<path d="M53.2273 43.1715C53.2232 42.3944 52.9106 41.6508 52.3582 41.1042C51.8059 40.5576 51.059 40.2528 50.282 40.2569L41.4022 40.3033C41.0174 40.3053 40.6368 40.3831 40.2821 40.5322C39.9273 40.6813 39.6055 40.8988 39.3348 41.1723C39.0642 41.4458 38.85 41.7699 38.7046 42.1262C38.5592 42.4824 38.4855 42.8638 38.4875 43.2486L38.5327 51.8685C38.5367 52.6456 38.8493 53.3892 39.4017 53.9358C39.954 54.4824 40.7009 54.7872 41.478 54.7831L50.3578 54.7367C50.7425 54.7347 51.1232 54.6569 51.4779 54.5078C51.8326 54.3587 52.1545 54.1412 52.4251 53.8677C52.6958 53.5942 52.9099 53.2701 53.0553 52.9138C53.2007 52.5576 53.2745 52.1762 53.2725 51.7914L53.2273 43.1715Z" stroke="#C3C3C3" stroke-width="2"/>
<path d="M74.7398 43.1688C74.7371 42.784 74.6586 42.4035 74.5089 42.0491C74.3592 41.6946 74.1411 41.3732 73.8672 41.103C73.5932 40.8328 73.2687 40.6192 72.9122 40.4745C72.5557 40.3297 72.1741 40.2566 71.7894 40.2593L62.9496 40.321C62.1725 40.3264 61.4295 40.6403 60.8838 41.1936C60.3382 41.7469 60.0347 42.4943 60.0402 43.2714L60.1002 51.8712C60.1029 52.256 60.1813 52.6364 60.331 52.9909C60.4807 53.3453 60.6988 53.6668 60.9728 53.937C61.2468 54.2072 61.5713 54.4207 61.9278 54.5655C62.2843 54.7103 62.6658 54.7834 63.0506 54.7807L71.8904 54.719C72.6674 54.7135 73.4105 54.3996 73.9561 53.8463C74.5017 53.293 74.8052 52.5456 74.7998 51.7686L74.7398 43.1688Z" stroke="#C3C3C3" stroke-width="2"/>
<path d="M53.2374 62.9415C53.2333 62.1618 52.9197 61.4156 52.3654 60.8671C51.8112 60.3187 51.0618 60.0128 50.2821 60.0169L41.4222 60.0633C40.6425 60.0674 39.8963 60.381 39.3478 60.9352C38.7994 61.4895 38.4935 62.2389 38.4976 63.0186L38.5426 71.5985C38.5467 72.3782 38.8603 73.1244 39.4145 73.6728C39.9688 74.2213 40.7182 74.5272 41.4979 74.5231L50.3578 74.4767C51.1375 74.4726 51.8837 74.159 52.4322 73.6047C52.9806 73.0505 53.2865 72.3011 53.2824 71.5214L53.2374 62.9415Z" stroke="#C3C3C3" stroke-width="2"/>
<path d="M74.729 62.8089C74.7238 62.0663 74.4238 61.3562 73.895 60.8348C73.3663 60.3134 72.6521 60.0234 71.9095 60.0286L62.8497 60.0918C62.482 60.0944 62.1184 60.1693 61.7797 60.3124C61.4409 60.4555 61.1337 60.6639 60.8755 60.9257C60.6174 61.1875 60.4133 61.4976 60.2749 61.8383C60.1366 62.179 60.0667 62.5436 60.0693 62.9113L60.131 71.7511C60.1362 72.4937 60.4362 73.2038 60.9649 73.7252C61.4937 74.2466 62.2079 74.5366 62.9505 74.5314L72.0103 74.4682C72.378 74.4656 72.7416 74.3907 73.0803 74.2476C73.419 74.1045 73.7262 73.8961 73.9844 73.6343C74.2426 73.3725 74.4467 73.0624 74.585 72.7217C74.7234 72.381 74.7933 72.0164 74.7907 71.6487L74.729 62.8089Z" stroke="#C3C3C3" stroke-width="2"/>
<path d="M48.4504 25.6336C48.4489 25.5222 48.4031 25.416 48.3233 25.3384C48.2434 25.2607 48.136 25.2179 48.0246 25.2195L43.625 25.281C43.5136 25.2825 43.4074 25.3283 43.3298 25.4081C43.2521 25.488 43.2094 25.5954 43.2109 25.7068L43.2696 29.9064C43.2712 30.0178 43.3169 30.124 43.3968 30.2016C43.4766 30.2793 43.584 30.322 43.6954 30.3205L48.095 30.259C48.2064 30.2574 48.3126 30.2117 48.3902 30.1319C48.4679 30.052 48.5107 29.9446 48.5091 29.8332L48.4504 25.6336Z" stroke="#C3C3C3" stroke-width="2"/>
<path d="M69.9922 25.5113C69.9921 25.4758 69.985 25.4407 69.9713 25.408C69.9576 25.3753 69.9376 25.3456 69.9125 25.3206C69.8873 25.2956 69.8575 25.2759 69.8247 25.2624C69.7919 25.2489 69.7567 25.2421 69.7213 25.2422L65.2613 25.2578C65.2258 25.2579 65.1907 25.265 65.158 25.2787C65.1253 25.2924 65.0956 25.3123 65.0706 25.3375C65.0456 25.3627 65.0259 25.3925 65.0124 25.4253C64.9989 25.4581 64.9921 25.4932 64.9922 25.5287L65.0078 29.9887C65.0079 30.0241 65.015 30.0592 65.0287 30.0919C65.0424 30.1247 65.0623 30.1544 65.0875 30.1793C65.1127 30.2043 65.1425 30.2241 65.1753 30.2376C65.2081 30.251 65.2432 30.2579 65.2787 30.2578L69.7387 30.2422C69.7741 30.2421 69.8092 30.235 69.8419 30.2213C69.8747 30.2076 69.9044 30.1876 69.9293 30.1625C69.9543 30.1373 69.9741 30.1075 69.9876 30.0747C70.001 30.0419 70.0079 30.0067 70.0078 29.9713L69.9922 25.5113Z" stroke="#C3C3C3" stroke-width="2"/>
<path d="M48.4755 45.4118C48.4751 45.3553 48.4636 45.2995 48.4416 45.2475C48.4197 45.1955 48.3877 45.1483 48.3474 45.1086C48.3072 45.069 48.2596 45.0376 48.2073 45.0164C48.155 44.9951 48.099 44.9844 48.0425 44.9848L43.6626 45.0153C43.6061 45.0157 43.5503 45.0272 43.4983 45.0492C43.4463 45.0712 43.3991 45.1032 43.3594 45.1434C43.3198 45.1836 43.2884 45.2312 43.2672 45.2835C43.2459 45.3359 43.2352 45.3918 43.2356 45.4483L43.2645 49.5882C43.2649 49.6447 43.2764 49.7005 43.2984 49.7525C43.3204 49.8046 43.3524 49.8517 43.3926 49.8914C43.4328 49.931 43.4804 49.9624 43.5327 49.9836C43.585 50.0049 43.641 50.0156 43.6975 50.0152L48.0774 49.9847C48.1339 49.9843 48.1897 49.9728 48.2417 49.9508C48.2938 49.9289 48.3409 49.8969 48.3806 49.8567C48.4202 49.8164 48.4516 49.7688 48.4728 49.7165C48.4941 49.6642 48.5048 49.6082 48.5044 49.5517L48.4755 45.4118Z" stroke="#C3C3C3" stroke-width="2"/>
<path d="M70.0058 45.2774C70.0063 45.2058 69.9783 45.137 69.928 45.086C69.8778 45.035 69.8093 45.0061 69.7377 45.0056L65.2978 44.9746C65.2623 44.9744 65.2272 44.9811 65.1943 44.9944C65.1615 45.0078 65.1316 45.0275 65.1063 45.0523C65.0811 45.0772 65.061 45.1069 65.0472 45.1395C65.0334 45.1722 65.0262 45.2073 65.0259 45.2427L64.9942 49.7826C64.9937 49.8542 65.0217 49.9231 65.072 49.974C65.1223 50.025 65.1907 50.0539 65.2623 50.0544L69.7022 50.0854C69.7377 50.0857 69.7728 50.0789 69.8057 50.0656C69.8385 50.0523 69.8684 50.0326 69.8937 50.0077C69.9189 49.9828 69.939 49.9532 69.9528 49.9205C69.9666 49.8878 69.9739 49.8528 69.9741 49.8173L70.0058 45.2774Z" stroke="#C3C3C3" stroke-width="2"/>
<path d="M114.013 62.8986C114.017 62.1401 113.719 61.4111 113.186 60.8719C112.652 60.3328 111.926 60.0277 111.168 60.0237L102.148 59.9765C101.389 59.9725 100.66 60.2701 100.121 60.8036C99.5822 61.3371 99.2771 62.063 99.2731 62.8215L99.2271 71.6014C99.2231 72.3599 99.5206 73.0889 100.054 73.6281C100.588 74.1672 101.314 74.4723 102.072 74.4763L111.092 74.5235C111.851 74.5275 112.58 74.23 113.119 73.6964C113.658 73.1629 113.963 72.437 113.967 71.6785L114.013 62.8986Z" stroke="#C3C3C3" stroke-width="2"/>
<path d="M48.4553 65.0491C48.4539 64.959 48.4167 64.8731 48.352 64.8103C48.2872 64.7476 48.2002 64.7131 48.11 64.7145L43.5505 64.7861C43.4604 64.7875 43.3745 64.8247 43.3117 64.8895C43.249 64.9542 43.2145 65.0413 43.2159 65.1314L43.2847 69.5109C43.2861 69.6011 43.3233 69.687 43.3881 69.7497C43.4528 69.8125 43.5399 69.8469 43.63 69.8455L48.1895 69.7739C48.2797 69.7725 48.3656 69.7353 48.4283 69.6706C48.4911 69.6058 48.5255 69.5188 48.5241 69.4286L48.4553 65.0491Z" stroke="#C3C3C3" stroke-width="2"/>
<path d="M69.9885 65.0469C69.988 64.9647 69.955 64.886 69.8965 64.8282C69.8381 64.7704 69.7591 64.7382 69.6769 64.7386L65.2969 64.7615C65.2147 64.7619 65.136 64.795 65.0782 64.8535C65.0204 64.9119 64.9882 64.9909 64.9886 65.0731L65.0115 69.4531C65.0119 69.5353 65.045 69.6139 65.1035 69.6718C65.1619 69.7296 65.2409 69.7618 65.3231 69.7614L69.7031 69.7385C69.7853 69.738 69.8639 69.705 69.9218 69.6465C69.9796 69.5881 70.0118 69.5091 70.0114 69.4269L69.9885 65.0469Z" stroke="#C3C3C3" stroke-width="2"/>
<path d="M109.221 65.0936C109.219 64.961 109.165 64.8346 109.07 64.7422C108.975 64.6497 108.847 64.5988 108.714 64.6006L104.474 64.6598C104.409 64.6607 104.344 64.6746 104.284 64.7006C104.223 64.7265 104.169 64.7641 104.123 64.8112C104.077 64.8583 104.041 64.9139 104.017 64.9749C103.993 65.036 103.981 65.1012 103.981 65.1668L104.039 69.2864C104.041 69.419 104.095 69.5455 104.19 69.6379C104.285 69.7304 104.413 69.7813 104.546 69.7794L108.785 69.7202C108.851 69.7193 108.916 69.7055 108.976 69.6795C109.037 69.6535 109.091 69.6159 109.137 69.5689C109.183 69.5218 109.219 69.4661 109.243 69.4051C109.267 69.3441 109.279 69.2789 109.278 69.2132L109.221 65.0936Z" stroke="#C3C3C3" stroke-width="2"/>
<path d="M0 0H150V108H0V0ZM90.56 44.94C90.4933 32.94 90.4733 20.9433 90.5 8.95C90.5 7.27 89.83 5.5 88 5.5C67.6333 5.5 47.26 5.5 26.88 5.5C23.46 5.5 22.78 6.48 22.77 9.75C22.7367 38.6967 22.7367 67.6433 22.77 96.59C22.77 99.66 23.08 101.24 26.5 101.24C59.3133 101.253 92.15 101.253 125.01 101.24C125.599 101.24 126.163 101.006 126.58 100.59C126.996 100.173 127.23 99.6088 127.23 99.02C127.257 82.3467 127.263 65.6967 127.25 49.07C127.24 46.74 126.41 45.48 124 45.49C113.02 45.5233 102.04 45.5067 91.06 45.44C90.9274 45.44 90.8002 45.3873 90.7064 45.2936C90.6127 45.1998 90.56 45.0726 90.56 44.94Z" fill="white"/>
<path d="M91.06 45.44C102.04 45.5067 113.02 45.5233 124 45.49C126.41 45.48 127.24 46.74 127.25 49.07C127.263 65.6967 127.257 82.3467 127.23 99.02C127.23 99.6088 126.996 100.173 126.58 100.59C126.163 101.006 125.599 101.24 125.01 101.24C92.15 101.253 59.3133 101.253 26.5 101.24C23.08 101.24 22.77 99.66 22.77 96.59C22.7367 67.6433 22.7367 38.6967 22.77 9.75C22.78 6.48 23.46 5.5 26.88 5.5C47.26 5.5 67.6333 5.5 88 5.5C89.83 5.5 90.5 7.27 90.5 8.95C90.4733 20.9433 90.4933 32.94 90.56 44.94C90.56 45.0726 90.6127 45.1998 90.7064 45.2936C90.8002 45.3873 90.9274 45.44 91.06 45.44ZM85.74 10.5C85.74 10.431 85.7126 10.3649 85.6638 10.3162C85.6151 10.2674 85.549 10.24 85.48 10.24H27.76C27.691 10.24 27.6249 10.2674 27.5761 10.3162C27.5274 10.3649 27.5 10.431 27.5 10.5V96.24C27.5 96.309 27.5274 96.3751 27.5761 96.4239C27.6249 96.4726 27.691 96.5 27.76 96.5H85.48C85.549 96.5 85.6151 96.4726 85.6638 96.4239C85.7126 96.3751 85.74 96.309 85.74 96.24V10.5ZM122.5 50.53C122.5 50.4584 122.472 50.3897 122.421 50.3391C122.37 50.2884 122.302 50.26 122.23 50.26H91.01C90.9745 50.26 90.9394 50.267 90.9067 50.2806C90.8739 50.2941 90.8441 50.314 90.8191 50.3391C90.794 50.3642 90.7741 50.3939 90.7605 50.4267C90.747 50.4594 90.74 50.4945 90.74 50.53V96.23C90.74 96.2655 90.747 96.3006 90.7605 96.3333C90.7741 96.3661 90.794 96.3959 90.8191 96.4209C90.8441 96.446 90.8739 96.4659 90.9067 96.4794C90.9394 96.493 90.9745 96.5 91.01 96.5H122.23C122.302 96.5 122.37 96.4716 122.421 96.4209C122.472 96.3703 122.5 96.3016 122.5 96.23V50.53Z" fill="#878787"/>
<path d="M85.74 96.24C85.74 96.3089 85.7126 96.3751 85.6638 96.4238C85.6151 96.4726 85.549 96.5 85.48 96.5H27.76C27.691 96.5 27.6249 96.4726 27.5762 96.4238C27.5274 96.3751 27.5 96.3089 27.5 96.24V10.5C27.5 10.431 27.5274 10.3649 27.5762 10.3161C27.6249 10.2674 27.691 10.24 27.76 10.24H85.48C85.549 10.24 85.6151 10.2674 85.6638 10.3161C85.7126 10.3649 85.74 10.431 85.74 10.5V96.24ZM53.2449 23.5757C53.2463 23.1778 53.1693 22.7835 53.0183 22.4153C52.8673 22.0472 52.6453 21.7124 52.3649 21.43C52.0846 21.1477 51.7513 20.9233 51.3842 20.7698C51.0171 20.6162 50.6234 20.5365 50.2255 20.5351L41.5855 20.505C40.7819 20.5022 40.0101 20.8187 39.4399 21.385C38.8697 21.9512 38.5478 22.7208 38.545 23.5244L38.5151 32.0843C38.5137 32.4822 38.5907 32.8765 38.7417 33.2446C38.8927 33.6128 39.1147 33.9476 39.3951 34.2299C39.6754 34.5123 40.0087 34.7366 40.3758 34.8902C40.7429 35.0438 41.1366 35.1235 41.5345 35.1249L50.1745 35.155C50.9781 35.1578 51.7499 34.8412 52.3201 34.275C52.8903 33.7087 53.2122 32.9392 53.215 32.1356L53.2449 23.5757ZM74.7422 23.2672C74.7416 22.9074 74.6701 22.5512 74.5318 22.219C74.3935 21.8868 74.1912 21.5851 73.9363 21.3311C73.6814 21.0771 73.379 20.8758 73.0463 20.7387C72.7136 20.6016 72.3572 20.5314 71.9974 20.532L62.8374 20.548C62.4776 20.5486 62.1214 20.6201 61.7892 20.7584C61.457 20.8967 61.1553 21.099 60.9013 21.3539C60.6473 21.6088 60.446 21.9112 60.3089 22.2439C60.1718 22.5765 60.1016 22.933 60.1022 23.2928L60.1178 32.2728C60.1184 32.6326 60.1899 32.9888 60.3282 33.321C60.4665 33.6532 60.6688 33.9549 60.9237 34.2089C61.1786 34.4628 61.481 34.6641 61.8137 34.8013C62.1464 34.9384 62.5028 35.0086 62.8626 35.008L72.0226 34.992C72.3824 34.9914 72.7386 34.9199 73.0708 34.7816C73.403 34.6433 73.7047 34.441 73.9587 34.1861C74.2127 33.9312 74.414 33.6288 74.5511 33.2961C74.6882 32.9634 74.7584 32.607 74.7578 32.2472L74.7422 23.2672ZM53.2273 43.1715C53.2232 42.3944 52.9106 41.6508 52.3583 41.1042C51.8059 40.5576 51.0591 40.2528 50.282 40.2569L41.4022 40.3033C41.0174 40.3053 40.6368 40.3831 40.2821 40.5322C39.9274 40.6813 39.6055 40.8988 39.3348 41.1723C39.0642 41.4458 38.8501 41.7699 38.7047 42.1262C38.5593 42.4824 38.4855 42.8638 38.4875 43.2486L38.5327 51.8685C38.5368 52.6456 38.8494 53.3892 39.4017 53.9358C39.9541 54.4824 40.7009 54.7872 41.478 54.7831L50.3578 54.7367C50.7426 54.7347 51.1232 54.6569 51.4779 54.5078C51.8326 54.3587 52.1545 54.1412 52.4252 53.8677C52.6958 53.5942 52.9099 53.2701 53.0553 52.9138C53.2007 52.5576 53.2745 52.1762 53.2725 51.7914L53.2273 43.1715ZM74.7398 43.1688C74.7371 42.784 74.6587 42.4036 74.5089 42.0491C74.3592 41.6946 74.1412 41.3732 73.8672 41.103C73.5932 40.8328 73.2687 40.6193 72.9122 40.4745C72.5557 40.3297 72.1742 40.2566 71.7894 40.2593L62.9496 40.321C62.1725 40.3264 61.4295 40.6403 60.8839 41.1936C60.3382 41.747 60.0348 42.4943 60.0402 43.2714L60.1002 51.8712C60.1029 52.256 60.1813 52.6364 60.3311 52.9909C60.4808 53.3453 60.6988 53.6668 60.9728 53.937C61.2468 54.2072 61.5713 54.4207 61.9278 54.5655C62.2843 54.7103 62.6658 54.7834 63.0506 54.7807L71.8904 54.719C72.6675 54.7136 73.4105 54.3996 73.9561 53.8463C74.5018 53.293 74.8052 52.5456 74.7998 51.7686L74.7398 43.1688ZM53.2374 62.9415C53.2333 62.1618 52.9197 61.4156 52.3655 60.8671C51.8112 60.3187 51.0618 60.0128 50.2821 60.0169L41.4222 60.0633C40.6425 60.0674 39.8963 60.381 39.3478 60.9352C38.7994 61.4895 38.4935 62.2389 38.4976 63.0186L38.5426 71.5985C38.5467 72.3782 38.8603 73.1244 39.4145 73.6729C39.9688 74.2213 40.7182 74.5272 41.4979 74.5231L50.3578 74.4767C51.1375 74.4726 51.8837 74.159 52.4322 73.6047C52.9806 73.0505 53.2865 72.3011 53.2824 71.5214L53.2374 62.9415ZM74.729 62.8089C74.7238 62.0663 74.4238 61.3562 73.8951 60.8348C73.3663 60.3134 72.6521 60.0234 71.9095 60.0286L62.8497 60.0918C62.482 60.0944 62.1184 60.1693 61.7797 60.3124C61.441 60.4555 61.1337 60.6639 60.8756 60.9257C60.6174 61.1875 60.4133 61.4976 60.2749 61.8383C60.1366 62.179 60.0667 62.5436 60.0693 62.9113L60.131 71.7511C60.1362 72.4937 60.4362 73.2038 60.9649 73.7252C61.4937 74.2466 62.2079 74.5366 62.9505 74.5314L72.0103 74.4682C72.378 74.4656 72.7416 74.3907 73.0803 74.2476C73.419 74.1045 73.7263 73.8961 73.9844 73.6343C74.2426 73.3725 74.4467 73.0624 74.5851 72.7217C74.7234 72.381 74.7933 72.0164 74.7907 71.6487L74.729 62.8089Z" fill="white"/>
<path d="M53.215 32.1356C53.2122 32.9392 52.8903 33.7087 52.3201 34.275C51.7499 34.8412 50.9781 35.1578 50.1745 35.155L41.5345 35.1249C41.1366 35.1235 40.7429 35.0438 40.3758 34.8902C40.0087 34.7366 39.6754 34.5123 39.3951 34.2299C39.1147 33.9476 38.8927 33.6128 38.7417 33.2446C38.5907 32.8765 38.5137 32.4822 38.5151 32.0843L38.545 23.5244C38.5478 22.7208 38.8697 21.9512 39.4399 21.385C40.0101 20.8187 40.7819 20.5022 41.5855 20.505L50.2255 20.5351C50.6234 20.5365 51.0171 20.6162 51.3842 20.7698C51.7513 20.9233 52.0846 21.1477 52.3649 21.43C52.6453 21.7124 52.8673 22.0472 53.0183 22.4154C53.1693 22.7835 53.2463 23.1778 53.2449 23.5757L53.215 32.1356ZM48.4504 25.6336C48.4488 25.5222 48.4031 25.416 48.3233 25.3384C48.2434 25.2607 48.136 25.2179 48.0246 25.2195L43.625 25.281C43.5136 25.2825 43.4074 25.3283 43.3298 25.4081C43.2521 25.488 43.2093 25.5954 43.2109 25.7068L43.2696 29.9064C43.2711 30.0178 43.3169 30.124 43.3967 30.2016C43.4766 30.2793 43.584 30.322 43.6954 30.3205L48.095 30.259C48.2064 30.2574 48.3126 30.2117 48.3902 30.1319C48.4679 30.052 48.5106 29.9446 48.5091 29.8332L48.4504 25.6336Z" fill="#878787"/>
<path d="M74.7578 32.2472C74.7584 32.607 74.6882 32.9634 74.551 33.2961C74.4139 33.6288 74.2126 33.9312 73.9586 34.1861C73.7047 34.4409 73.403 34.6433 73.0708 34.7816C72.7386 34.9199 72.3824 34.9914 72.0226 34.992L62.8626 35.008C62.5028 35.0086 62.1463 34.9384 61.8137 34.8013C61.481 34.6641 61.1786 34.4628 60.9237 34.2089C60.6688 33.9549 60.4665 33.6532 60.3282 33.321C60.1899 32.9888 60.1184 32.6326 60.1178 32.2728L60.1022 23.2928C60.1015 22.933 60.1718 22.5765 60.3089 22.2439C60.446 21.9112 60.6473 21.6088 60.9013 21.3539C61.1553 21.099 61.457 20.8967 61.7892 20.7584C62.1214 20.6201 62.4776 20.5486 62.8374 20.548L71.9974 20.532C72.3572 20.5314 72.7136 20.6016 73.0463 20.7387C73.379 20.8758 73.6814 21.0771 73.9363 21.3311C74.1911 21.5851 74.3935 21.8868 74.5318 22.219C74.67 22.5512 74.7416 22.9074 74.7422 23.2672L74.7578 32.2472ZM69.9922 25.5113C69.9921 25.4758 69.985 25.4407 69.9713 25.408C69.9576 25.3753 69.9376 25.3456 69.9125 25.3206C69.8873 25.2956 69.8575 25.2759 69.8247 25.2624C69.7919 25.2489 69.7567 25.2421 69.7213 25.2422L65.2613 25.2578C65.2258 25.2579 65.1907 25.265 65.158 25.2787C65.1253 25.2924 65.0956 25.3123 65.0706 25.3375C65.0456 25.3627 65.0258 25.3925 65.0124 25.4253C64.9989 25.4581 64.9921 25.4932 64.9922 25.5287L65.0078 29.9887C65.0079 30.0241 65.015 30.0592 65.0287 30.0919C65.0423 30.1247 65.0623 30.1544 65.0875 30.1793C65.1126 30.2043 65.1425 30.2241 65.1753 30.2376C65.2081 30.251 65.2432 30.2579 65.2787 30.2578L69.7387 30.2422C69.7741 30.2421 69.8092 30.235 69.8419 30.2213C69.8746 30.2076 69.9043 30.1876 69.9293 30.1625C69.9543 30.1373 69.9741 30.1075 69.9876 30.0747C70.001 30.0419 70.0079 30.0067 70.0078 29.9713L69.9922 25.5113Z" fill="#878787"/>
<path d="M48.0246 25.2195L43.625 25.281C43.3931 25.2842 43.2077 25.4749 43.2109 25.7068L43.2696 29.9064C43.2728 30.1383 43.4635 30.3237 43.6954 30.3205L48.095 30.259C48.3269 30.2558 48.5123 30.0652 48.5091 29.8332L48.4504 25.6336C48.4472 25.4017 48.2565 25.2163 48.0246 25.2195Z" fill="white"/>
<path d="M69.7212 25.2422L65.2613 25.2578C65.1122 25.2583 64.9917 25.3796 64.9922 25.5287L65.0078 29.9887C65.0083 30.1378 65.1296 30.2583 65.2787 30.2578L69.7387 30.2422C69.8878 30.2417 70.0083 30.1204 70.0078 29.9712L69.9922 25.5113C69.9917 25.3622 69.8704 25.2417 69.7212 25.2422Z" fill="white"/>
<path d="M53.2725 51.7914C53.2745 52.1762 53.2007 52.5576 53.0553 52.9138C52.9099 53.2701 52.6958 53.5942 52.4251 53.8677C52.1545 54.1412 51.8326 54.3587 51.4779 54.5078C51.1232 54.6569 50.7425 54.7347 50.3578 54.7367L41.478 54.7831C40.7009 54.7872 39.954 54.4824 39.4017 53.9358C38.8493 53.3892 38.5367 52.6456 38.5327 51.8685L38.4875 43.2486C38.4855 42.8638 38.5592 42.4824 38.7046 42.1262C38.85 41.7699 39.0642 41.4458 39.3348 41.1723C39.6055 40.8988 39.9273 40.6813 40.2821 40.5322C40.6368 40.3831 41.0174 40.3053 41.4022 40.3033L50.282 40.2569C51.059 40.2528 51.8059 40.5576 52.3582 41.1042C52.9106 41.6508 53.2232 42.3944 53.2273 43.1715L53.2725 51.7914ZM48.4755 45.4118C48.4751 45.3553 48.4636 45.2995 48.4416 45.2475C48.4196 45.1955 48.3876 45.1483 48.3474 45.1086C48.3072 45.069 48.2596 45.0376 48.2073 45.0164C48.1549 44.9951 48.0989 44.9844 48.0425 44.9848L43.6626 45.0153C43.6061 45.0157 43.5503 45.0272 43.4982 45.0492C43.4462 45.0712 43.399 45.1032 43.3594 45.1434C43.3197 45.1836 43.2884 45.2312 43.2671 45.2835C43.2459 45.3358 43.2352 45.3918 43.2356 45.4483L43.2645 49.5882C43.2649 49.6447 43.2764 49.7005 43.2983 49.7525C43.3203 49.8046 43.3523 49.8517 43.3925 49.8914C43.4327 49.931 43.4804 49.9624 43.5327 49.9836C43.585 50.0049 43.641 50.0156 43.6975 50.0152L48.0774 49.9847C48.1338 49.9843 48.1897 49.9728 48.2417 49.9508C48.2937 49.9289 48.3409 49.8968 48.3805 49.8566C48.4202 49.8164 48.4515 49.7688 48.4728 49.7165C48.494 49.6642 48.5048 49.6082 48.5044 49.5517L48.4755 45.4118Z" fill="#878787"/>
<path d="M74.7998 51.7686C74.8052 52.5456 74.5017 53.293 73.9561 53.8463C73.4105 54.3996 72.6674 54.7135 71.8904 54.719L63.0506 54.7807C62.6658 54.7834 62.2843 54.7103 61.9278 54.5655C61.5713 54.4207 61.2468 54.2072 60.9728 53.937C60.6988 53.6668 60.4807 53.3453 60.331 52.9909C60.1813 52.6364 60.1029 52.256 60.1002 51.8712L60.0402 43.2714C60.0347 42.4943 60.3382 41.7469 60.8838 41.1936C61.4295 40.6403 62.1725 40.3264 62.9496 40.321L71.7894 40.2593C72.1741 40.2566 72.5557 40.3297 72.9122 40.4745C73.2687 40.6192 73.5932 40.8328 73.8672 41.103C74.1411 41.3732 74.3592 41.6946 74.5089 42.0491C74.6586 42.4035 74.7371 42.784 74.7398 43.1688L74.7998 51.7686ZM70.0058 45.2774C70.0062 45.2058 69.9783 45.1369 69.928 45.086C69.8777 45.035 69.8093 45.0061 69.7377 45.0056L65.2978 44.9746C65.2623 44.9743 65.2272 44.9811 65.1943 44.9944C65.1614 45.0077 65.1315 45.0274 65.1063 45.0523C65.081 45.0772 65.061 45.1068 65.0472 45.1395C65.0334 45.1722 65.0261 45.2072 65.0259 45.2427L64.9942 49.7826C64.9937 49.8542 65.0217 49.923 65.0719 49.974C65.1222 50.025 65.1907 50.0539 65.2623 50.0544L69.7022 50.0854C69.7376 50.0856 69.7728 50.0789 69.8056 50.0656C69.8385 50.0522 69.8684 50.0325 69.8936 50.0077C69.9189 49.9828 69.939 49.9531 69.9528 49.9205C69.9666 49.8878 69.9738 49.8527 69.9741 49.8173L70.0058 45.2774Z" fill="#878787"/>
<path d="M48.0425 44.9848L43.6626 45.0153C43.4251 45.017 43.2339 45.2109 43.2356 45.4483L43.2645 49.5882C43.2662 49.8257 43.46 50.0169 43.6975 50.0152L48.0774 49.9846C48.3149 49.983 48.506 49.7891 48.5044 49.5516L48.4755 45.4117C48.4738 45.1743 48.28 44.9831 48.0425 44.9848Z" fill="white"/>
<path d="M69.7377 45.0056L65.2978 44.9746C65.1487 44.9735 65.0269 45.0936 65.0259 45.2427L64.9942 49.7826C64.9932 49.9317 65.1132 50.0534 65.2623 50.0544L69.7022 50.0854C69.8513 50.0865 69.973 49.9664 69.9741 49.8173L70.0058 45.2774C70.0068 45.1283 69.8868 45.0066 69.7377 45.0056Z" fill="white"/>
<path d="M122.5 96.23C122.5 96.3016 122.472 96.3703 122.421 96.4209C122.37 96.4716 122.302 96.5 122.23 96.5H91.01C90.9745 96.5 90.9394 96.493 90.9067 96.4795C90.8739 96.4659 90.8441 96.446 90.8191 96.4209C90.794 96.3959 90.7741 96.3661 90.7605 96.3333C90.747 96.3006 90.74 96.2655 90.74 96.23V50.53C90.74 50.4946 90.747 50.4594 90.7605 50.4267C90.7741 50.3939 90.794 50.3642 90.8191 50.3391C90.8441 50.314 90.8739 50.2941 90.9067 50.2806C90.9394 50.267 90.9745 50.26 91.01 50.26H122.23C122.302 50.26 122.37 50.2885 122.421 50.3391C122.472 50.3897 122.5 50.4584 122.5 50.53V96.23ZM114.013 62.8986C114.017 62.1401 113.719 61.4111 113.186 60.8719C112.652 60.3328 111.926 60.0277 111.168 60.0237L102.148 59.9765C101.389 59.9726 100.66 60.2701 100.121 60.8036C99.5822 61.3371 99.2771 62.063 99.2731 62.8215L99.2271 71.6014C99.2231 72.3599 99.5206 73.0889 100.054 73.6281C100.588 74.1672 101.314 74.4723 102.072 74.4763L111.092 74.5235C111.851 74.5275 112.58 74.23 113.119 73.6964C113.658 73.1629 113.963 72.437 113.967 71.6785L114.013 62.8986Z" fill="white"/>
<path d="M53.2824 71.5214C53.2865 72.3011 52.9806 73.0505 52.4322 73.6047C51.8837 74.159 51.1375 74.4726 50.3578 74.4767L41.4979 74.5231C40.7182 74.5272 39.9688 74.2213 39.4145 73.6728C38.8603 73.1244 38.5467 72.3782 38.5426 71.5985L38.4976 63.0186C38.4935 62.2389 38.7994 61.4895 39.3478 60.9352C39.8963 60.381 40.6425 60.0674 41.4222 60.0633L50.2821 60.0169C51.0618 60.0128 51.8112 60.3187 52.3654 60.8671C52.9197 61.4156 53.2333 62.1618 53.2374 62.9415L53.2824 71.5214ZM48.4553 65.0491C48.4539 64.9589 48.4167 64.873 48.3519 64.8103C48.2872 64.7475 48.2002 64.7131 48.11 64.7145L43.5505 64.7861C43.4603 64.7875 43.3744 64.8247 43.3117 64.8894C43.2489 64.9542 43.2145 65.0412 43.2159 65.1314L43.2847 69.5109C43.2861 69.601 43.3233 69.6869 43.3881 69.7497C43.4528 69.8124 43.5398 69.8469 43.63 69.8455L48.1895 69.7739C48.2797 69.7725 48.3656 69.7353 48.4283 69.6705C48.4911 69.6058 48.5255 69.5187 48.5241 69.4286L48.4553 65.0491Z" fill="#878787"/>
<path d="M74.7907 71.6487C74.7933 72.0164 74.7234 72.381 74.585 72.7217C74.4467 73.0624 74.2426 73.3725 73.9844 73.6343C73.7262 73.8961 73.419 74.1045 73.0803 74.2476C72.7416 74.3907 72.378 74.4656 72.0103 74.4682L62.9505 74.5314C62.2079 74.5366 61.4937 74.2466 60.9649 73.7252C60.4362 73.2038 60.1362 72.4937 60.131 71.7511L60.0693 62.9113C60.0667 62.5436 60.1366 62.179 60.2749 61.8383C60.4133 61.4976 60.6174 61.1875 60.8755 60.9257C61.1337 60.6639 61.4409 60.4555 61.7797 60.3124C62.1184 60.1693 62.482 60.0944 62.8497 60.0918L71.9095 60.0286C72.6521 60.0234 73.3663 60.3134 73.895 60.8348C74.4238 61.3562 74.7238 62.0663 74.729 62.8089L74.7907 71.6487ZM69.9885 65.0469C69.988 64.9647 69.955 64.8861 69.8965 64.8282C69.8381 64.7704 69.7591 64.7382 69.6769 64.7386L65.2969 64.7615C65.2147 64.762 65.136 64.795 65.0782 64.8535C65.0204 64.9119 64.9882 64.9909 64.9886 65.0731L65.0115 69.4531C65.0119 69.5353 65.045 69.614 65.1034 69.6718C65.1619 69.7296 65.2409 69.7618 65.3231 69.7614L69.7031 69.7385C69.7853 69.7381 69.8639 69.705 69.9217 69.6465C69.9796 69.5881 70.0118 69.5091 70.0114 69.4269L69.9885 65.0469Z" fill="#878787"/>
<path d="M113.967 71.6785C113.963 72.437 113.658 73.1629 113.119 73.6964C112.58 74.23 111.851 74.5275 111.092 74.5235L102.072 74.4763C101.314 74.4723 100.588 74.1672 100.054 73.6281C99.5206 73.0889 99.2231 72.3599 99.2271 71.6014L99.2731 62.8215C99.2771 62.063 99.5822 61.3371 100.121 60.8036C100.66 60.2701 101.389 59.9725 102.148 59.9765L111.168 60.0237C111.926 60.0277 112.652 60.3328 113.186 60.8719C113.719 61.4111 114.017 62.1401 114.013 62.8986L113.967 71.6785ZM109.221 65.0936C109.219 64.961 109.165 64.8346 109.07 64.7421C108.975 64.6497 108.847 64.5988 108.714 64.6006L104.474 64.6598C104.409 64.6607 104.344 64.6746 104.284 64.7005C104.223 64.7265 104.169 64.7641 104.123 64.8112C104.077 64.8583 104.041 64.9139 104.017 64.9749C103.993 65.0359 103.981 65.1011 103.981 65.1668L104.039 69.2864C104.041 69.419 104.095 69.5454 104.19 69.6379C104.285 69.7303 104.413 69.7813 104.546 69.7794L108.785 69.7202C108.851 69.7193 108.916 69.7055 108.976 69.6795C109.037 69.6535 109.091 69.6159 109.137 69.5688C109.183 69.5217 109.219 69.4661 109.243 69.4051C109.267 69.3441 109.279 69.2789 109.278 69.2132L109.221 65.0936Z" fill="#878787"/>
<path d="M108.714 64.6006L104.474 64.6598C104.198 64.6637 103.978 64.8906 103.981 65.1668L104.039 69.2864C104.043 69.5625 104.27 69.7832 104.546 69.7793L108.786 69.7201C109.062 69.7163 109.282 69.4893 109.278 69.2132L109.221 65.0936C109.217 64.8175 108.99 64.5968 108.714 64.6006Z" fill="white"/>
<path d="M48.11 64.7145L43.5505 64.7861C43.3628 64.7891 43.213 64.9436 43.2159 65.1314L43.2847 69.5109C43.2877 69.6986 43.4423 69.8484 43.63 69.8455L48.1894 69.7739C48.3772 69.7709 48.527 69.6163 48.5241 69.4286L48.4553 65.0491C48.4523 64.8613 48.2977 64.7115 48.11 64.7145Z" fill="white"/>
<path d="M69.6769 64.7386L65.2969 64.7615C65.1257 64.7624 64.9877 64.9019 64.9886 65.0731L65.0115 69.4531C65.0124 69.6243 65.1519 69.7623 65.3231 69.7614L69.7031 69.7385C69.8743 69.7376 70.0123 69.5981 70.0114 69.4269L69.9885 65.0469C69.9876 64.8757 69.8481 64.7377 69.6769 64.7386Z" fill="white"/>
</g>
<defs>
<clipPath id="clip0_116_278">
<rect width="150" height="108" fill="white"/>
</clipPath>
</defs>
</svg>
