<svg width="150" height="108" viewBox="0 0 150 108" fill="none" xmlns="http://www.w3.org/2000/svg">
<g clip-path="url(#clip0_115_50)">
<path d="M97.8 15.44C93.0733 12.4333 88.44 9.26001 83.9 5.92001C77.59 1.28001 75.31 3.61001 69.2 7.92001C54.2333 18.48 39.29 29.0667 24.37 39.68C20.98 42.09 18.65 44.08 22.18 48.19C24.36 50.73 26.88 54.06 30.58 51.38C31.64 50.6067 32.79 49.9667 34.03 49.46C34.0813 49.4388 34.1371 49.4304 34.1924 49.4357C34.2477 49.441 34.3009 49.4597 34.3472 49.4903C34.3936 49.5209 34.4318 49.5624 34.4584 49.6112C34.485 49.6599 34.4993 49.7145 34.5 49.77V103.53C34.5 104.051 34.7062 104.55 35.0735 104.919C35.4407 105.289 35.9393 105.497 36.46 105.5C63.2133 105.567 90.1067 105.557 117.14 105.47C118.93 105.46 121.51 105.8 121.51 103.25C121.49 85.3567 121.493 67.4567 121.52 49.55C121.519 49.4979 121.532 49.4465 121.557 49.4009C121.582 49.3552 121.619 49.3169 121.663 49.2896C121.707 49.2624 121.758 49.2472 121.81 49.2455C121.862 49.2438 121.914 49.2557 121.96 49.28C127.35 52.2 127.88 54.06 132.78 48.73C137.08 44.05 135.16 42.29 130.93 39.21C126.403 35.9167 121.827 32.67 117.2 29.47C117.073 29.3836 116.969 29.2677 116.896 29.132C116.823 28.9963 116.783 28.8448 116.78 28.69C116.76 25.17 117.53 5.80001 116.16 4.06001C114.82 2.35001 102.75 3.28001 100.28 3.28001C99.7504 3.28265 99.2432 3.49526 98.8687 3.87164C98.4942 4.24802 98.2826 4.75774 98.28 5.29001L98.24 15.2C98.24 15.5467 98.0933 15.6267 97.8 15.44Z" stroke="#C3C3C3" stroke-width="2"/>
<path d="M102.51 17.99C102.511 18.0428 102.524 18.0947 102.548 18.1415C102.572 18.1884 102.607 18.229 102.65 18.26L112.12 25.09C112.17 25.1267 112.23 25.1488 112.292 25.1539C112.354 25.1591 112.416 25.1471 112.472 25.1192C112.528 25.0913 112.575 25.0487 112.608 24.9959C112.641 24.9432 112.659 24.8823 112.66 24.82L112.73 7.62001C112.73 7.52984 112.694 7.44336 112.63 7.3796C112.567 7.31583 112.48 7.28001 112.39 7.28001L102.58 7.20001C102.535 7.19999 102.489 7.20911 102.448 7.22682C102.406 7.24452 102.368 7.27047 102.336 7.30311C102.304 7.33574 102.279 7.37441 102.263 7.41683C102.246 7.45924 102.239 7.50453 102.24 7.55001L102.51 17.99Z" stroke="#C3C3C3" stroke-width="2"/>
<path d="M130.92 44.23L79.33 7.54001C79.0583 7.34631 78.7256 7.25429 78.39 7.28001C77.3766 7.37334 76.2433 7.86334 74.99 8.75001C58.2833 20.5967 41.5766 32.4567 24.87 44.33C24.8102 44.3727 24.7604 44.4277 24.7239 44.4914C24.6873 44.555 24.665 44.6258 24.6583 44.699C24.6517 44.7721 24.6609 44.8457 24.6854 44.9149C24.7098 44.9842 24.7489 45.0473 24.8 45.1L27.57 48.05C27.6873 48.1724 27.8446 48.2487 28.0133 48.2652C28.1821 48.2817 28.3511 48.2373 28.49 48.14L77.54 13.28C77.6404 13.2045 77.7634 13.1637 77.8911 13.1637C78.0188 13.1637 78.1445 13.2045 78.25 13.28L127.14 47.89C127.282 47.9924 127.458 48.0378 127.634 48.0175C127.809 47.9972 127.972 47.9126 128.09 47.78L130.96 44.58C130.982 44.5549 130.998 44.5257 131.007 44.494C131.017 44.4624 131.02 44.4291 131.016 44.3963C131.013 44.3634 131.002 44.3317 130.986 44.3031C130.969 44.2744 130.947 44.2496 130.92 44.23Z" stroke="#C3C3C3" stroke-width="2"/>
<path d="M103.49 73.74C104.087 73.74 104.659 73.9771 105.081 74.399C105.503 74.821 105.74 75.3933 105.74 75.99L105.75 101C105.75 101.133 105.803 101.26 105.896 101.354C105.99 101.447 106.117 101.5 106.25 101.5H117C117.133 101.5 117.26 101.447 117.354 101.354C117.447 101.26 117.5 101.133 117.5 101V47.11C117.5 46.9552 117.462 46.8026 117.391 46.6652C117.32 46.5278 117.216 46.4094 117.09 46.32L78.36 18.97C78.2371 18.8851 78.0916 18.8395 77.9432 18.8395C77.7948 18.8395 77.6505 18.8851 77.53 18.97L38.91 46.31C38.7838 46.3963 38.6805 46.5124 38.6091 46.6483C38.5376 46.7842 38.5002 46.9358 38.5 47.09L38.49 100.9C38.49 101.059 38.5532 101.212 38.6657 101.324C38.7782 101.437 38.9309 101.5 39.09 101.5H84C84.1326 101.5 84.2598 101.447 84.3535 101.354C84.4473 101.26 84.5 101.133 84.5 101V75.75C84.5 75.2196 84.7107 74.7109 85.0858 74.3358C85.4608 73.9607 85.9696 73.75 86.5 73.75L103.49 73.74Z" stroke="#C3C3C3" stroke-width="2"/>
<path d="M101.64 78.0313C101.64 77.9972 101.634 77.9634 101.621 77.9318C101.608 77.9002 101.589 77.8715 101.564 77.8474C101.54 77.8232 101.512 77.804 101.48 77.7909C101.449 77.7777 101.415 77.771 101.381 77.7709L88.9207 77.7491C88.8865 77.7491 88.8527 77.7557 88.8212 77.7688C88.7896 77.7818 88.7609 77.8009 88.7367 77.825C88.7125 77.8491 88.6934 77.8777 88.6802 77.9092C88.6671 77.9408 88.6603 77.9746 88.6603 78.0087L88.6197 101.229C88.6196 101.263 88.6263 101.297 88.6393 101.328C88.6523 101.36 88.6715 101.389 88.6956 101.413C88.7197 101.437 88.7483 101.456 88.7798 101.469C88.8113 101.482 88.8452 101.489 88.8793 101.489L101.339 101.511C101.373 101.511 101.407 101.504 101.439 101.491C101.47 101.478 101.499 101.459 101.523 101.435C101.547 101.411 101.567 101.382 101.58 101.351C101.593 101.319 101.6 101.285 101.6 101.251L101.64 78.0313Z" stroke="#C3C3C3" stroke-width="2"/>
<path d="M73.2253 55.421C73.2247 55.0993 73.1608 54.7808 73.0372 54.4838C72.9135 54.1867 72.7326 53.917 72.5047 53.6899C72.2768 53.4628 72.0064 53.2828 71.7089 53.1602C71.4114 53.0376 71.0927 52.9747 70.771 52.9753L53.931 53.0047C53.6093 53.0053 53.2908 53.0692 52.9937 53.1929C52.6967 53.3165 52.4269 53.4974 52.1998 53.7253C51.9727 53.9532 51.7927 54.2237 51.6701 54.5211C51.5475 54.8186 51.4847 55.1373 51.4853 55.459L51.5147 72.299C51.5153 72.6208 51.5792 72.9392 51.7028 73.2363C51.8265 73.5333 52.0074 73.8031 52.2353 74.0302C52.4632 74.2573 52.7336 74.4373 53.0311 74.5599C53.3286 74.6825 53.6473 74.7453 53.969 74.7447L70.809 74.7153C71.1307 74.7148 71.4492 74.6508 71.7462 74.5272C72.0433 74.4035 72.313 74.2226 72.5401 73.9947C72.7673 73.7668 72.9472 73.4964 73.0699 73.1989C73.1925 72.9015 73.2553 72.5828 73.2547 72.261L73.2253 55.421Z" stroke="#C3C3C3" stroke-width="2"/>
<path d="M69.2289 57.398C69.2288 57.3442 69.2181 57.2909 69.1974 57.2412C69.1767 57.1915 69.1465 57.1463 69.1083 57.1083C69.0702 57.0703 69.0249 57.0402 68.9751 57.0197C68.9254 56.9991 68.872 56.9886 68.8182 56.9887L55.8982 57.0113C55.8444 57.0114 55.7911 57.0221 55.7413 57.0428C55.6916 57.0635 55.6465 57.0938 55.6085 57.1319C55.5705 57.17 55.5404 57.2153 55.5198 57.2651C55.4993 57.3148 55.4888 57.3682 55.4889 57.422L55.5111 70.122C55.5112 70.1759 55.5219 70.2291 55.5426 70.2789C55.5633 70.3286 55.5935 70.3737 55.6317 70.4117C55.6698 70.4497 55.7151 70.4798 55.7648 70.5004C55.8146 70.5209 55.8679 70.5314 55.9218 70.5313L68.8418 70.5087C68.8956 70.5086 68.9489 70.4979 68.9986 70.4772C69.0484 70.4565 69.0935 70.4263 69.1315 70.3881C69.1695 70.35 69.1996 70.3047 69.2202 70.255C69.2407 70.2052 69.2512 70.1519 69.2511 70.098L69.2289 57.398Z" stroke="#C3C3C3" stroke-width="2"/>
<path d="M0 0H150V108H0V0ZM97.8 15.44C93.0733 12.4333 88.44 9.26 83.9 5.92C77.59 1.28 75.31 3.61 69.2 7.92C54.2333 18.48 39.29 29.0667 24.37 39.68C20.98 42.09 18.65 44.08 22.18 48.19C24.36 50.73 26.88 54.06 30.58 51.38C31.64 50.6067 32.79 49.9667 34.03 49.46C34.0813 49.4388 34.1371 49.4304 34.1924 49.4357C34.2477 49.441 34.3009 49.4597 34.3472 49.4903C34.3936 49.5209 34.4318 49.5624 34.4584 49.6112C34.485 49.6599 34.4993 49.7145 34.5 49.77V103.53C34.5 104.051 34.7062 104.55 35.0735 104.919C35.4407 105.289 35.9393 105.497 36.46 105.5C63.2133 105.567 90.1067 105.557 117.14 105.47C118.93 105.46 121.51 105.8 121.51 103.25C121.49 85.3567 121.493 67.4567 121.52 49.55C121.519 49.4979 121.532 49.4465 121.557 49.4009C121.582 49.3552 121.619 49.3169 121.663 49.2896C121.707 49.2624 121.758 49.2472 121.81 49.2455C121.862 49.2438 121.914 49.2557 121.96 49.28C127.35 52.2 127.88 54.06 132.78 48.73C137.08 44.05 135.16 42.29 130.93 39.21C126.403 35.9167 121.827 32.67 117.2 29.47C117.073 29.3836 116.969 29.2677 116.896 29.132C116.823 28.9963 116.783 28.8447 116.78 28.69C116.76 25.17 117.53 5.8 116.16 4.06C114.82 2.35 102.75 3.28 100.28 3.28C99.7504 3.28264 99.2432 3.49526 98.8687 3.87164C98.4942 4.24802 98.2826 4.75773 98.28 5.29L98.24 15.2C98.24 15.5467 98.0933 15.6267 97.8 15.44Z" fill="white"/>
<path d="M98.24 15.2L98.28 5.29001C98.2826 4.75774 98.4942 4.24802 98.8687 3.87164C99.2432 3.49526 99.7504 3.28265 100.28 3.28001C102.75 3.28001 114.82 2.35001 116.16 4.06001C117.53 5.80001 116.76 25.17 116.78 28.69C116.783 28.8448 116.823 28.9963 116.896 29.132C116.969 29.2677 117.073 29.3836 117.2 29.47C121.827 32.67 126.403 35.9167 130.93 39.21C135.16 42.29 137.08 44.05 132.78 48.73C127.88 54.06 127.35 52.2 121.96 49.28C121.914 49.2557 121.862 49.2438 121.81 49.2455C121.758 49.2472 121.707 49.2624 121.663 49.2896C121.619 49.3169 121.582 49.3552 121.557 49.4009C121.532 49.4465 121.519 49.4979 121.52 49.55C121.493 67.4567 121.49 85.3567 121.51 103.25C121.51 105.8 118.93 105.46 117.14 105.47C90.1067 105.557 63.2133 105.567 36.46 105.5C35.9393 105.497 35.4407 105.289 35.0735 104.919C34.7062 104.55 34.5 104.051 34.5 103.53V49.77C34.4993 49.7145 34.485 49.6599 34.4584 49.6112C34.4318 49.5624 34.3936 49.5209 34.3472 49.4903C34.3009 49.4598 34.2477 49.441 34.1924 49.4357C34.1371 49.4304 34.0813 49.4388 34.03 49.46C32.79 49.9667 31.64 50.6067 30.58 51.38C26.88 54.06 24.36 50.73 22.18 48.19C18.65 44.08 20.98 42.09 24.37 39.68C39.29 29.0667 54.2333 18.48 69.2 7.92001C75.31 3.61001 77.59 1.28001 83.9 5.92001C88.44 9.26001 93.0733 12.4333 97.8 15.44C98.0933 15.6267 98.24 15.5467 98.24 15.2ZM102.51 17.99C102.511 18.0428 102.524 18.0947 102.548 18.1415C102.572 18.1884 102.607 18.229 102.65 18.26L112.12 25.09C112.17 25.1267 112.23 25.1488 112.292 25.1539C112.354 25.1591 112.416 25.147 112.472 25.1192C112.528 25.0913 112.575 25.0487 112.608 24.9959C112.641 24.9432 112.659 24.8823 112.66 24.82L112.73 7.62001C112.73 7.52983 112.694 7.44335 112.63 7.37959C112.567 7.31583 112.48 7.28001 112.39 7.28001L102.58 7.20001C102.535 7.19999 102.489 7.2091 102.448 7.22681C102.406 7.24452 102.368 7.27046 102.336 7.3031C102.304 7.33574 102.279 7.37441 102.263 7.41682C102.246 7.45923 102.239 7.50452 102.24 7.55001L102.51 17.99ZM130.92 44.23L79.33 7.54001C79.0584 7.34631 78.7257 7.25429 78.39 7.28001C77.3767 7.37334 76.2433 7.86334 74.99 8.75001C58.2833 20.5967 41.5767 32.4567 24.87 44.33C24.8103 44.3727 24.7604 44.4277 24.7239 44.4914C24.6874 44.555 24.665 44.6258 24.6584 44.6989C24.6517 44.7721 24.6609 44.8457 24.6854 44.9149C24.7098 44.9842 24.7489 45.0473 24.8 45.1L27.57 48.05C27.6873 48.1724 27.8446 48.2487 28.0133 48.2652C28.1821 48.2817 28.3512 48.2373 28.49 48.14L77.54 13.28C77.6404 13.2045 77.7634 13.1637 77.8911 13.1637C78.0188 13.1637 78.1445 13.2045 78.25 13.28L127.14 47.89C127.282 47.9924 127.458 48.0378 127.634 48.0175C127.809 47.9972 127.972 47.9126 128.09 47.78L130.96 44.58C130.982 44.5549 130.998 44.5257 131.007 44.494C131.017 44.4624 131.02 44.4291 131.016 44.3963C131.013 44.3634 131.002 44.3317 130.986 44.3031C130.969 44.2744 130.947 44.2496 130.92 44.23ZM103.49 73.74C104.087 73.74 104.659 73.9771 105.081 74.399C105.503 74.821 105.74 75.3933 105.74 75.99L105.75 101C105.75 101.133 105.803 101.26 105.896 101.354C105.99 101.447 106.117 101.5 106.25 101.5H117C117.133 101.5 117.26 101.447 117.354 101.354C117.447 101.26 117.5 101.133 117.5 101V47.11C117.5 46.9552 117.462 46.8026 117.391 46.6652C117.32 46.5278 117.216 46.4094 117.09 46.32L78.36 18.97C78.2371 18.8851 78.0916 18.8395 77.9432 18.8395C77.7948 18.8395 77.6505 18.8851 77.53 18.97L38.91 46.31C38.7838 46.3963 38.6805 46.5124 38.6091 46.6483C38.5376 46.7842 38.5002 46.9358 38.5 47.09L38.49 100.9C38.49 101.059 38.5532 101.212 38.6657 101.324C38.7783 101.437 38.9309 101.5 39.09 101.5H84C84.1326 101.5 84.2598 101.447 84.3536 101.354C84.4473 101.26 84.5 101.133 84.5 101V75.75C84.5 75.2196 84.7107 74.7109 85.0858 74.3358C85.4609 73.9607 85.9696 73.75 86.5 73.75L103.49 73.74ZM101.64 78.0313C101.64 77.9972 101.634 77.9633 101.621 77.9318C101.608 77.9002 101.589 77.8715 101.564 77.8473C101.54 77.8232 101.512 77.804 101.48 77.7909C101.449 77.7777 101.415 77.771 101.381 77.7709L88.9207 77.7491C88.8866 77.7491 88.8527 77.7557 88.8212 77.7687C88.7896 77.7818 88.7609 77.8009 88.7367 77.825C88.7126 77.8491 88.6934 77.8777 88.6802 77.9092C88.6671 77.9408 88.6604 77.9746 88.6603 78.0087L88.6197 101.229C88.6196 101.263 88.6263 101.297 88.6393 101.328C88.6524 101.36 88.6715 101.388 88.6956 101.413C88.7197 101.437 88.7483 101.456 88.7798 101.469C88.8114 101.482 88.8452 101.489 88.8793 101.489L101.339 101.511C101.373 101.511 101.407 101.504 101.439 101.491C101.47 101.478 101.499 101.459 101.523 101.435C101.547 101.411 101.567 101.382 101.58 101.351C101.593 101.319 101.6 101.285 101.6 101.251L101.64 78.0313Z" fill="#878787"/>
<path d="M102.51 17.99L102.24 7.55C102.239 7.50451 102.246 7.45922 102.263 7.41681C102.279 7.3744 102.304 7.33573 102.336 7.30309C102.368 7.27045 102.406 7.24451 102.448 7.2268C102.489 7.20909 102.535 7.19998 102.58 7.2L112.39 7.28C112.48 7.28 112.567 7.31582 112.63 7.37958C112.694 7.44334 112.73 7.52982 112.73 7.62L112.66 24.82C112.659 24.8823 112.641 24.9431 112.608 24.9959C112.575 25.0487 112.528 25.0913 112.472 25.1192C112.416 25.147 112.354 25.1591 112.292 25.1539C112.23 25.1488 112.17 25.1267 112.12 25.09L102.65 18.26C102.607 18.229 102.572 18.1884 102.548 18.1415C102.524 18.0947 102.511 18.0428 102.51 17.99Z" fill="white"/>
<path d="M130.92 44.23C130.947 44.2496 130.969 44.2744 130.986 44.3031C131.002 44.3317 131.013 44.3634 131.016 44.3963C131.02 44.4291 131.017 44.4624 131.007 44.494C130.998 44.5257 130.982 44.5549 130.96 44.58L128.09 47.78C127.972 47.9126 127.809 47.9972 127.634 48.0175C127.458 48.0378 127.282 47.9924 127.14 47.89L78.25 13.28C78.1445 13.2045 78.0188 13.1637 77.8911 13.1637C77.7634 13.1637 77.6404 13.2045 77.54 13.28L28.49 48.14C28.3511 48.2373 28.1821 48.2817 28.0133 48.2652C27.8446 48.2487 27.6873 48.1724 27.57 48.05L24.8 45.1C24.7489 45.0473 24.7098 44.9842 24.6854 44.9149C24.6609 44.8457 24.6517 44.7721 24.6583 44.699C24.665 44.6258 24.6873 44.555 24.7239 44.4914C24.7604 44.4277 24.8102 44.3727 24.87 44.33C41.5766 32.4567 58.2833 20.5967 74.99 8.75001C76.2433 7.86334 77.3766 7.37334 78.39 7.28001C78.7256 7.25429 79.0583 7.34631 79.33 7.54001L130.92 44.23Z" fill="white"/>
<path d="M103.49 73.74L86.5 73.75C85.9696 73.75 85.4608 73.9607 85.0858 74.3358C84.7107 74.7109 84.5 75.2196 84.5 75.75V101C84.5 101.133 84.4473 101.26 84.3535 101.354C84.2598 101.447 84.1326 101.5 84 101.5H39.09C38.9309 101.5 38.7782 101.437 38.6657 101.324C38.5532 101.212 38.49 101.059 38.49 100.9L38.5 47.09C38.5002 46.9358 38.5376 46.7842 38.6091 46.6483C38.6805 46.5124 38.7838 46.3963 38.91 46.31L77.53 18.97C77.6505 18.8851 77.7948 18.8395 77.9432 18.8395C78.0916 18.8395 78.2371 18.8851 78.36 18.97L117.09 46.32C117.216 46.4094 117.32 46.5278 117.391 46.6652C117.462 46.8026 117.5 46.9552 117.5 47.11V101C117.5 101.133 117.447 101.26 117.354 101.354C117.26 101.447 117.133 101.5 117 101.5H106.25C106.117 101.5 105.99 101.447 105.896 101.354C105.803 101.26 105.75 101.133 105.75 101L105.74 75.99C105.74 75.3933 105.503 74.821 105.081 74.399C104.659 73.9771 104.087 73.74 103.49 73.74ZM73.2253 55.421C73.2247 55.0993 73.1608 54.7808 73.0372 54.4838C72.9135 54.1867 72.7326 53.917 72.5047 53.6899C72.2768 53.4627 72.0064 53.2828 71.7089 53.1602C71.4114 53.0376 71.0927 52.9747 70.771 52.9753L53.931 53.0047C53.6092 53.0053 53.2908 53.0692 52.9937 53.1928C52.6967 53.3165 52.4269 53.4974 52.1998 53.7253C51.9727 53.9532 51.7927 54.2236 51.6701 54.5211C51.5475 54.8186 51.4847 55.1373 51.4853 55.459L51.5147 72.299C51.5153 72.6208 51.5792 72.9392 51.7028 73.2363C51.8265 73.5333 52.0074 73.8031 52.2353 74.0302C52.4632 74.2573 52.7336 74.4373 53.0311 74.5599C53.3286 74.6825 53.6473 74.7453 53.969 74.7447L70.809 74.7153C71.1307 74.7147 71.4492 74.6508 71.7462 74.5272C72.0433 74.4035 72.313 74.2226 72.5401 73.9947C72.7672 73.7668 72.9472 73.4964 73.0698 73.1989C73.1924 72.9015 73.2553 72.5827 73.2547 72.261L73.2253 55.421Z" fill="white"/>
<path d="M73.2547 72.261C73.2553 72.5827 73.1925 72.9014 73.0699 73.1989C72.9472 73.4964 72.7673 73.7668 72.5401 73.9947C72.313 74.2226 72.0433 74.4035 71.7462 74.5272C71.4492 74.6508 71.1307 74.7147 70.809 74.7153L53.969 74.7447C53.6473 74.7453 53.3286 74.6825 53.0311 74.5599C52.7336 74.4373 52.4632 74.2573 52.2353 74.0302C52.0074 73.803 51.8265 73.5333 51.7028 73.2362C51.5792 72.9392 51.5153 72.6207 51.5147 72.299L51.4853 55.459C51.4847 55.1373 51.5475 54.8186 51.6701 54.5211C51.7927 54.2236 51.9727 53.9532 52.1998 53.7253C52.4269 53.4974 52.6967 53.3165 52.9937 53.1928C53.2908 53.0692 53.6093 53.0053 53.931 53.0047L70.771 52.9753C71.0927 52.9747 71.4114 53.0375 71.7089 53.1601C72.0064 53.2828 72.2768 53.4627 72.5047 53.6898C72.7326 53.917 72.9135 54.1867 73.0372 54.4838C73.1608 54.7808 73.2247 55.0993 73.2253 55.421L73.2547 72.261ZM69.2289 57.398C69.2288 57.3442 69.2181 57.2909 69.1974 57.2412C69.1767 57.1914 69.1465 57.1463 69.1083 57.1083C69.0702 57.0703 69.0249 57.0402 68.9751 57.0196C68.9254 56.9991 68.872 56.9886 68.8182 56.9887L55.8982 57.0113C55.8444 57.0114 55.7911 57.0221 55.7413 57.0428C55.6916 57.0635 55.6465 57.0937 55.6085 57.1319C55.5705 57.17 55.5404 57.2153 55.5198 57.265C55.4993 57.3148 55.4888 57.3682 55.4889 57.422L55.5111 70.122C55.5112 70.1758 55.5219 70.2291 55.5426 70.2788C55.5633 70.3286 55.5935 70.3737 55.6317 70.4117C55.6698 70.4497 55.7151 70.4798 55.7648 70.5004C55.8146 70.5209 55.868 70.5314 55.9218 70.5313L68.8418 70.5087C68.8956 70.5086 68.9489 70.4979 68.9986 70.4772C69.0484 70.4565 69.0935 70.4263 69.1315 70.3881C69.1695 70.35 69.1996 70.3047 69.2202 70.255C69.2407 70.2052 69.2512 70.1518 69.2511 70.098L69.2289 57.398Z" fill="#878787"/>
<path d="M68.8182 56.9887L55.8982 57.0113C55.6718 57.0117 55.4885 57.1956 55.4889 57.422L55.5111 70.122C55.5115 70.3484 55.6954 70.5317 55.9218 70.5313L68.8418 70.5087C69.0682 70.5083 69.2515 70.3244 69.2511 70.098L69.2289 57.398C69.2285 57.1716 69.0446 56.9883 68.8182 56.9887Z" fill="white"/>
<path d="M101.381 77.7709L88.9207 77.7491C88.7771 77.7489 88.6605 77.8651 88.6603 78.0087L88.6197 101.229C88.6195 101.372 88.7357 101.489 88.8793 101.489L101.339 101.511C101.483 101.511 101.599 101.395 101.6 101.251L101.64 78.0313C101.64 77.8877 101.524 77.7711 101.381 77.7709Z" fill="white"/>
</g>
<defs>
<clipPath id="clip0_115_50">
<rect width="150" height="108" fill="white"/>
</clipPath>
</defs>
</svg>
