<svg width="150" height="108" viewBox="0 0 150 108" fill="none" xmlns="http://www.w3.org/2000/svg">
<g clip-path="url(#clip0_116_257)">
<path d="M138.22 20.13C138.22 19.4325 137.943 18.7635 137.45 18.2703C136.956 17.7771 136.288 17.5 135.59 17.5H18.15C17.4525 17.5 16.7835 17.7771 16.2903 18.2703C15.7971 18.7635 15.52 19.4325 15.52 20.13V86.63C15.52 86.9754 15.588 87.3174 15.7202 87.6365C15.8524 87.9555 16.0461 88.2455 16.2903 88.4897C16.5345 88.7339 16.8245 88.9276 17.1436 89.0598C17.4626 89.192 17.8046 89.26 18.15 89.26H135.59C135.935 89.26 136.277 89.192 136.596 89.0598C136.916 88.9276 137.205 88.7339 137.45 88.4897C137.694 88.2455 137.888 87.9555 138.02 87.6365C138.152 87.3174 138.22 86.9754 138.22 86.63V20.13Z" stroke="#C3C3C3" stroke-width="2"/>
<path d="M46.08 48.37C55.54 49.24 64.96 50.07 74.34 50.88C74.4289 50.8884 74.5187 50.878 74.6034 50.8496C74.6881 50.8213 74.7659 50.7754 74.8319 50.7152C74.8978 50.6549 74.9504 50.5814 74.9862 50.4996C75.0221 50.4178 75.0404 50.3293 75.04 50.24L75 22.37C75.0005 22.2355 74.9499 22.1052 74.8578 22.0038C74.7656 21.9025 74.6383 21.8371 74.5 21.82C67.19 20.96 57.61 21.82 46.02 21.52C45.9522 21.5187 45.8848 21.5306 45.8217 21.5551C45.7587 21.5797 45.7012 21.6163 45.6528 21.6629C45.6044 21.7094 45.5659 21.765 45.5397 21.8263C45.5135 21.8876 45.5 21.9535 45.5 22.02V47.74C45.4996 47.8957 45.5586 48.0462 45.6657 48.1625C45.7728 48.2788 45.9204 48.3527 46.08 48.37Z" stroke="#C3C3C3" stroke-width="2"/>
<path d="M99.81 32.49L108.41 43.76C108.803 44.2667 109 44.2 109 43.56V22.26C109 22.13 108.948 22.0054 108.856 21.9135C108.765 21.8216 108.64 21.77 108.51 21.77L79.88 21.72C79.7929 21.7187 79.7065 21.7346 79.6258 21.7668C79.5451 21.799 79.4718 21.8468 79.4102 21.9074C79.3487 21.968 79.3001 22.0402 79.2674 22.1197C79.2347 22.1992 79.2186 22.2843 79.22 22.37L79.33 47.74C79.33 48.36 79.56 48.4567 80.02 48.03L97.06 32.26C97.2505 32.0837 97.4757 31.9491 97.7212 31.8646C97.9666 31.7801 98.227 31.7476 98.4857 31.7693C98.7443 31.7909 98.9957 31.8662 99.2237 31.9902C99.4517 32.1143 99.6514 32.2845 99.81 32.49Z" stroke="#C3C3C3" stroke-width="2"/>
<path d="M41.16 49.58C41.1892 49.5514 41.2122 49.5171 41.2277 49.4793C41.2432 49.4415 41.2508 49.4009 41.25 49.36L41.26 22.05C41.26 21.9704 41.2284 21.8941 41.1721 21.8379C41.1159 21.7816 41.0396 21.75 40.96 21.75H20.05C19.9704 21.75 19.8941 21.7816 19.8379 21.8379C19.7816 21.8941 19.75 21.9704 19.75 22.05V69.24C19.7488 69.2996 19.7654 69.3581 19.7977 69.4082C19.83 69.4583 19.8764 69.4977 19.9311 69.5213C19.9858 69.5449 20.0463 69.5517 20.1049 69.5407C20.1635 69.5298 20.2175 69.5017 20.26 69.46L41.16 49.58Z" stroke="#C3C3C3" stroke-width="2"/>
<path d="M113.07 45.9C113.071 45.9576 113.088 46.0138 113.12 46.0619C113.151 46.1099 113.196 46.1478 113.249 46.171C113.302 46.1942 113.36 46.2017 113.417 46.1927C113.474 46.1836 113.527 46.1584 113.57 46.12C119.823 40.4 125.99 34.51 132.07 28.45C134.06 26.47 134.57 24.92 133.89 22.25C133.856 22.1077 133.775 21.9809 133.659 21.8902C133.542 21.7994 133.398 21.7501 133.25 21.75H113.71C113.564 21.75 113.424 21.8079 113.321 21.9111C113.218 22.0142 113.16 22.1541 113.16 22.3L113.07 45.9Z" stroke="#C3C3C3" stroke-width="2"/>
<path d="M133.64 85.02C133.736 85.02 133.827 84.9831 133.895 84.9175C133.962 84.8519 134 84.7628 134 84.67V33.03C133.999 32.99 133.986 32.9512 133.964 32.9182C133.941 32.8851 133.91 32.8592 133.873 32.8434C133.836 32.8277 133.796 32.8227 133.756 32.8292C133.717 32.8357 133.68 32.8533 133.65 32.88L113.57 51.74C113.337 51.9602 113.186 52.2527 113.14 52.57C113.047 53.15 113 53.88 113 54.76C112.993 64.6467 113.023 74.5667 113.09 84.52C113.09 84.6447 113.14 84.7642 113.228 84.8523C113.316 84.9405 113.435 84.99 113.56 84.99L133.64 85.02Z" stroke="#C3C3C3" stroke-width="2"/>
<path d="M79.25 84.62C79.25 84.7155 79.2879 84.807 79.3554 84.8746C79.423 84.9421 79.5145 84.98 79.61 84.98L108.64 85.03C108.735 85.03 108.827 84.9921 108.895 84.9246C108.962 84.8571 109 84.7655 109 84.67V51.42C109.001 51.341 108.977 51.2637 108.93 51.2L98.25 37.18C98.2199 37.1399 98.1818 37.1066 98.138 37.0822C98.0943 37.0577 98.0459 37.0426 97.9961 37.0379C97.9462 37.0332 97.8958 37.039 97.8483 37.0548C97.8008 37.0707 97.7571 37.0963 97.72 37.13L79.37 54.16C79.332 54.194 79.3017 54.2356 79.281 54.2821C79.2603 54.3287 79.2498 54.3791 79.25 54.43V84.62Z" stroke="#C3C3C3" stroke-width="2"/>
<path d="M73.31 54.98C64.2367 54.0333 55.1367 53.2267 46.01 52.56C45.945 52.5544 45.8796 52.5625 45.8178 52.5836C45.7561 52.6047 45.6995 52.6385 45.6515 52.6827C45.6035 52.7269 45.5653 52.7806 45.5392 52.8404C45.5131 52.9002 45.4998 52.9648 45.5 53.03V84.5C45.5 84.6326 45.5527 84.7598 45.6464 84.8535C45.7402 84.9473 45.8674 85 46 85H74.76C74.8265 85 74.8924 84.9867 74.9537 84.961C75.015 84.9352 75.0706 84.8975 75.1171 84.85C75.1637 84.8025 75.2003 84.7462 75.2248 84.6844C75.2494 84.6226 75.2613 84.5565 75.26 84.49L75.01 55.37C75.0105 55.3178 74.9996 55.2662 74.9782 55.2185C74.9567 55.1707 74.9251 55.128 74.8854 55.0931C74.8458 55.0581 74.799 55.0318 74.748 55.0157C74.6971 54.9997 74.6433 54.9943 74.59 55C74.2367 55.04 73.81 55.0333 73.31 54.98Z" stroke="#C3C3C3" stroke-width="2"/>
<path d="M41.51 56.03C41.5433 55.9233 41.54 55.8133 41.5 55.7C41.4762 55.636 41.4372 55.5787 41.3864 55.5333C41.3355 55.4878 41.2746 55.4557 41.209 55.4398C41.1434 55.4239 41.0753 55.4247 41.0109 55.4422C40.9464 55.4597 40.8877 55.4934 40.84 55.54L20.11 75.24C19.9964 75.3472 19.9058 75.4779 19.8439 75.6241C19.782 75.7703 19.75 75.9288 19.75 76.09V84.54C19.75 84.6673 19.8006 84.7894 19.8906 84.8794C19.9806 84.9694 20.1027 85.02 20.23 85.02L40.72 84.99C40.8553 84.99 40.985 84.9363 41.0806 84.8406C41.1763 84.745 41.23 84.6153 41.23 84.48L41.31 56.67C41.31 56.65 41.3767 56.4367 41.51 56.03Z" stroke="#C3C3C3" stroke-width="2"/>
<path d="M0 0H150V108H0V0ZM138.22 20.13C138.22 19.4325 137.943 18.7635 137.45 18.2703C136.956 17.7771 136.288 17.5 135.59 17.5H18.15C17.4525 17.5 16.7835 17.7771 16.2903 18.2703C15.7971 18.7635 15.52 19.4325 15.52 20.13V86.63C15.52 86.9754 15.588 87.3174 15.7202 87.6365C15.8524 87.9555 16.0461 88.2455 16.2903 88.4897C16.5345 88.7339 16.8245 88.9276 17.1435 89.0598C17.4626 89.192 17.8046 89.26 18.15 89.26H135.59C135.935 89.26 136.277 89.192 136.596 89.0598C136.916 88.9276 137.205 88.7339 137.45 88.4897C137.694 88.2455 137.888 87.9555 138.02 87.6365C138.152 87.3174 138.22 86.9754 138.22 86.63V20.13Z" fill="white"/>
<path d="M138.22 86.63C138.22 86.9754 138.152 87.3174 138.02 87.6365C137.888 87.9555 137.694 88.2455 137.45 88.4897C137.205 88.7339 136.916 88.9276 136.596 89.0598C136.277 89.192 135.935 89.26 135.59 89.26H18.15C17.8046 89.26 17.4626 89.192 17.1436 89.0598C16.8245 88.9276 16.5345 88.7339 16.2903 88.4897C16.0461 88.2455 15.8524 87.9555 15.7202 87.6365C15.588 87.3174 15.52 86.9754 15.52 86.63V20.13C15.52 19.4325 15.7971 18.7635 16.2903 18.2703C16.7835 17.7771 17.4525 17.5 18.15 17.5H135.59C136.288 17.5 136.956 17.7771 137.45 18.2703C137.943 18.7635 138.22 19.4325 138.22 20.13V86.63ZM46.08 48.37C55.54 49.24 64.96 50.07 74.34 50.88C74.429 50.8884 74.5187 50.878 74.6034 50.8496C74.6881 50.8213 74.7659 50.7754 74.8319 50.7152C74.8978 50.6549 74.9504 50.5814 74.9862 50.4996C75.0221 50.4178 75.0404 50.3293 75.04 50.24L75 22.37C75.0005 22.2355 74.9499 22.1052 74.8578 22.0038C74.7656 21.9025 74.6384 21.8371 74.5 21.82C67.19 20.96 57.61 21.82 46.02 21.52C45.9522 21.5187 45.8848 21.5306 45.8217 21.5551C45.7587 21.5797 45.7013 21.6163 45.6528 21.6629C45.6044 21.7094 45.566 21.765 45.5397 21.8263C45.5135 21.8876 45.5 21.9535 45.5 22.02V47.74C45.4996 47.8957 45.5586 48.0462 45.6657 48.1625C45.7728 48.2788 45.9204 48.3527 46.08 48.37ZM99.81 32.49L108.41 43.76C108.803 44.2667 109 44.2 109 43.56V22.26C109 22.13 108.948 22.0054 108.857 21.9135C108.765 21.8216 108.64 21.77 108.51 21.77L79.88 21.72C79.793 21.7187 79.7065 21.7346 79.6258 21.7668C79.5451 21.799 79.4718 21.8468 79.4103 21.9074C79.3487 21.9681 79.3001 22.0402 79.2675 22.1197C79.2348 22.1992 79.2187 22.2843 79.22 22.37L79.33 47.74C79.33 48.36 79.56 48.4567 80.02 48.03L97.06 32.26C97.2506 32.0837 97.4758 31.9491 97.7212 31.8646C97.9667 31.7801 98.227 31.7476 98.4857 31.7693C98.7444 31.7909 98.9957 31.8662 99.2237 31.9902C99.4517 32.1143 99.6514 32.2845 99.81 32.49ZM41.16 49.58C41.1892 49.5514 41.2123 49.5171 41.2277 49.4793C41.2432 49.4415 41.2508 49.4009 41.25 49.36L41.26 22.05C41.26 21.9704 41.2284 21.8941 41.1721 21.8379C41.1159 21.7816 41.0396 21.75 40.96 21.75H20.05C19.9705 21.75 19.8941 21.7816 19.8379 21.8379C19.7816 21.8941 19.75 21.9704 19.75 22.05V69.24C19.7489 69.2996 19.7655 69.3581 19.7977 69.4082C19.83 69.4583 19.8764 69.4977 19.9311 69.5213C19.9858 69.5449 20.0463 69.5517 20.1049 69.5407C20.1635 69.5298 20.2175 69.5017 20.26 69.46L41.16 49.58ZM113.07 45.9C113.071 45.9576 113.088 46.0138 113.12 46.0619C113.152 46.1099 113.196 46.1478 113.249 46.171C113.302 46.1942 113.36 46.2017 113.417 46.1927C113.474 46.1836 113.527 46.1584 113.57 46.12C119.823 40.4 125.99 34.51 132.07 28.45C134.06 26.47 134.57 24.92 133.89 22.25C133.856 22.1077 133.775 21.9809 133.659 21.8902C133.542 21.7994 133.398 21.7501 133.25 21.75H113.71C113.564 21.75 113.424 21.8079 113.321 21.9111C113.218 22.0142 113.16 22.1541 113.16 22.3L113.07 45.9ZM133.64 85.02C133.735 85.02 133.827 84.9831 133.895 84.9175C133.962 84.8519 134 84.7628 134 84.67V33.03C133.999 32.99 133.986 32.9512 133.964 32.9182C133.941 32.8851 133.91 32.8592 133.873 32.8434C133.836 32.8277 133.796 32.8227 133.756 32.8292C133.717 32.8357 133.68 32.8533 133.65 32.88L113.57 51.74C113.337 51.9602 113.186 52.2527 113.14 52.57C113.047 53.15 113 53.88 113 54.76C112.993 64.6467 113.023 74.5667 113.09 84.52C113.09 84.6446 113.14 84.7642 113.228 84.8523C113.316 84.9405 113.435 84.99 113.56 84.99L133.64 85.02ZM79.25 84.62C79.25 84.7155 79.2879 84.807 79.3555 84.8746C79.423 84.9421 79.5145 84.98 79.61 84.98L108.64 85.03C108.735 85.03 108.827 84.9921 108.895 84.9246C108.962 84.857 109 84.7655 109 84.67V51.42C109.001 51.341 108.977 51.2637 108.93 51.2L98.25 37.18C98.2199 37.1399 98.1818 37.1066 98.138 37.0821C98.0943 37.0577 98.046 37.0426 97.9961 37.0379C97.9462 37.0332 97.8959 37.039 97.8483 37.0548C97.8008 37.0707 97.7571 37.0963 97.72 37.13L79.37 54.16C79.3321 54.194 79.3017 54.2356 79.281 54.2821C79.2604 54.3287 79.2498 54.3791 79.25 54.43V84.62ZM73.31 54.98C64.2367 54.0333 55.1367 53.2267 46.01 52.56C45.945 52.5544 45.8796 52.5625 45.8179 52.5836C45.7561 52.6047 45.6995 52.6385 45.6515 52.6827C45.6035 52.7269 45.5653 52.7806 45.5392 52.8404C45.5131 52.9002 45.4998 52.9648 45.5 53.03V84.5C45.5 84.6326 45.5527 84.7598 45.6465 84.8536C45.7402 84.9473 45.8674 85 46 85H74.76C74.8265 85 74.8924 84.9868 74.9537 84.961C75.015 84.9353 75.0706 84.8975 75.1172 84.85C75.1637 84.8025 75.2003 84.7462 75.2249 84.6844C75.2494 84.6226 75.2614 84.5565 75.26 84.49L75.01 55.37C75.0105 55.3178 74.9997 55.2662 74.9782 55.2185C74.9567 55.1707 74.9251 55.128 74.8855 55.0931C74.8458 55.0581 74.799 55.0318 74.7481 55.0157C74.6971 54.9997 74.6433 54.9943 74.59 55C74.2367 55.04 73.81 55.0333 73.31 54.98ZM41.51 56.03C41.5434 55.9233 41.54 55.8133 41.5 55.7C41.4763 55.636 41.4372 55.5787 41.3864 55.5333C41.3356 55.4878 41.2746 55.4557 41.209 55.4398C41.1434 55.4239 41.0753 55.4247 41.0109 55.4422C40.9465 55.4597 40.8877 55.4933 40.84 55.54L20.11 75.24C19.9964 75.3472 19.9058 75.4779 19.8439 75.6241C19.782 75.7703 19.7501 75.9288 19.75 76.09V84.54C19.75 84.6673 19.8006 84.7894 19.8906 84.8794C19.9806 84.9694 20.1027 85.02 20.23 85.02L40.72 84.99C40.8553 84.99 40.985 84.9363 41.0806 84.8406C41.1763 84.745 41.23 84.6153 41.23 84.48L41.31 56.67C41.31 56.65 41.3767 56.4367 41.51 56.03Z" fill="#878787"/>
<path d="M74.34 50.88C64.96 50.07 55.54 49.24 46.08 48.37C45.9204 48.3527 45.7728 48.2788 45.6657 48.1625C45.5586 48.0462 45.4996 47.8957 45.5 47.74V22.02C45.5 21.9535 45.5135 21.8876 45.5397 21.8263C45.5659 21.765 45.6044 21.7094 45.6528 21.6629C45.7012 21.6163 45.7587 21.5797 45.8217 21.5551C45.8848 21.5306 45.9522 21.5187 46.02 21.52C57.61 21.82 67.19 20.96 74.5 21.82C74.6383 21.8371 74.7656 21.9025 74.8578 22.0038C74.9499 22.1052 75.0005 22.2355 75 22.37L75.04 50.24C75.0404 50.3293 75.0221 50.4178 74.9862 50.4996C74.9504 50.5814 74.8978 50.6549 74.8319 50.7152C74.7659 50.7754 74.6881 50.8213 74.6034 50.8496C74.5187 50.878 74.4289 50.8884 74.34 50.88Z" fill="white"/>
<path d="M99.81 32.49C99.6514 32.2845 99.4517 32.1143 99.2237 31.9902C98.9957 31.8662 98.7443 31.7909 98.4857 31.7693C98.227 31.7476 97.9666 31.7801 97.7212 31.8646C97.4757 31.9491 97.2505 32.0837 97.06 32.26L80.02 48.03C79.56 48.4567 79.33 48.36 79.33 47.74L79.22 22.37C79.2186 22.2843 79.2347 22.1992 79.2674 22.1197C79.3001 22.0402 79.3487 21.968 79.4102 21.9074C79.4718 21.8468 79.5451 21.799 79.6258 21.7668C79.7065 21.7346 79.7929 21.7187 79.88 21.72L108.51 21.77C108.64 21.77 108.765 21.8216 108.856 21.9135C108.948 22.0054 109 22.13 109 22.26V43.56C109 44.2 108.803 44.2667 108.41 43.76L99.81 32.49Z" fill="white"/>
<path d="M41.16 49.58L20.26 69.46C20.2175 69.5017 20.1635 69.5298 20.1049 69.5407C20.0463 69.5517 19.9858 69.5449 19.9311 69.5213C19.8764 69.4977 19.83 69.4583 19.7977 69.4082C19.7654 69.3581 19.7488 69.2996 19.75 69.24V22.05C19.75 21.9704 19.7816 21.8941 19.8379 21.8379C19.8941 21.7816 19.9704 21.75 20.05 21.75H40.96C41.0396 21.75 41.1159 21.7816 41.1721 21.8379C41.2284 21.8941 41.26 21.9704 41.26 22.05L41.25 49.36C41.2508 49.4009 41.2432 49.4415 41.2277 49.4793C41.2122 49.5171 41.1892 49.5514 41.16 49.58Z" fill="white"/>
<path d="M113.07 45.9L113.16 22.3C113.16 22.1541 113.218 22.0142 113.321 21.9111C113.424 21.8079 113.564 21.75 113.71 21.75H133.25C133.398 21.7501 133.542 21.7994 133.659 21.8902C133.775 21.9809 133.856 22.1077 133.89 22.25C134.57 24.92 134.06 26.47 132.07 28.45C125.99 34.51 119.823 40.4 113.57 46.12C113.527 46.1584 113.474 46.1836 113.417 46.1927C113.36 46.2017 113.302 46.1942 113.249 46.171C113.196 46.1478 113.151 46.1099 113.12 46.0619C113.088 46.0138 113.071 45.9576 113.07 45.9Z" fill="white"/>
<path d="M133.64 85.02L113.56 84.99C113.435 84.99 113.316 84.9405 113.228 84.8523C113.14 84.7642 113.09 84.6447 113.09 84.52C113.023 74.5667 112.993 64.6467 113 54.76C113 53.88 113.047 53.15 113.14 52.57C113.186 52.2527 113.337 51.9602 113.57 51.74L133.65 32.88C133.68 32.8533 133.717 32.8357 133.756 32.8292C133.796 32.8227 133.836 32.8277 133.873 32.8434C133.91 32.8592 133.941 32.8851 133.964 32.9182C133.986 32.9512 133.999 32.99 134 33.03V84.67C134 84.7628 133.962 84.8519 133.895 84.9175C133.827 84.9831 133.735 85.02 133.64 85.02Z" fill="white"/>
<path d="M79.25 84.62V54.43C79.2498 54.3791 79.2603 54.3287 79.281 54.2821C79.3017 54.2356 79.332 54.194 79.37 54.16L97.72 37.13C97.7571 37.0963 97.8008 37.0707 97.8483 37.0548C97.8958 37.039 97.9462 37.0332 97.9961 37.0379C98.0459 37.0426 98.0943 37.0577 98.138 37.0822C98.1818 37.1066 98.2199 37.1399 98.25 37.18L108.93 51.2C108.977 51.2637 109.001 51.341 109 51.42V84.67C109 84.7655 108.962 84.8571 108.895 84.9246C108.827 84.9921 108.735 85.03 108.64 85.03L79.61 84.98C79.5145 84.98 79.423 84.9421 79.3554 84.8746C79.2879 84.807 79.25 84.7155 79.25 84.62Z" fill="white"/>
<path d="M73.31 54.98C73.81 55.0333 74.2367 55.04 74.59 55C74.6433 54.9943 74.6971 54.9997 74.748 55.0157C74.799 55.0318 74.8458 55.0581 74.8854 55.0931C74.9251 55.128 74.9567 55.1707 74.9782 55.2185C74.9996 55.2662 75.0105 55.3178 75.01 55.37L75.26 84.49C75.2613 84.5565 75.2494 84.6226 75.2248 84.6844C75.2003 84.7462 75.1637 84.8025 75.1171 84.85C75.0706 84.8975 75.015 84.9352 74.9537 84.961C74.8924 84.9867 74.8265 85 74.76 85H46C45.8674 85 45.7402 84.9473 45.6464 84.8535C45.5527 84.7598 45.5 84.6326 45.5 84.5V53.03C45.4998 52.9648 45.5131 52.9002 45.5392 52.8404C45.5653 52.7806 45.6035 52.7269 45.6515 52.6827C45.6995 52.6385 45.7561 52.6047 45.8178 52.5836C45.8796 52.5625 45.945 52.5544 46.01 52.56C55.1367 53.2267 64.2367 54.0333 73.31 54.98Z" fill="white"/>
<path d="M41.31 56.67L41.23 84.48C41.23 84.6153 41.1763 84.745 41.0806 84.8406C40.985 84.9363 40.8553 84.99 40.72 84.99L20.23 85.02C20.1027 85.02 19.9806 84.9694 19.8906 84.8794C19.8006 84.7894 19.75 84.6673 19.75 84.54V76.09C19.75 75.9288 19.782 75.7703 19.8439 75.6241C19.9058 75.4779 19.9964 75.3472 20.11 75.24L40.84 55.54C40.8877 55.4934 40.9464 55.4597 41.0109 55.4422C41.0753 55.4247 41.1434 55.4239 41.209 55.4398C41.2746 55.4557 41.3355 55.4878 41.3864 55.5333C41.4372 55.5787 41.4762 55.636 41.5 55.7C41.54 55.8133 41.5433 55.9233 41.51 56.03C41.3767 56.4367 41.31 56.65 41.31 56.67Z" fill="white"/>
</g>
<defs>
<clipPath id="clip0_116_257">
<rect width="150" height="108" fill="white"/>
</clipPath>
</defs>
</svg>
