<svg width="150" height="108" viewBox="0 0 150 108" fill="none" xmlns="http://www.w3.org/2000/svg">
<g clip-path="url(#clip0_114_9)">
<path d="M74.32 36.66C74.32 32.1725 72.5373 27.8689 69.3642 24.6958C66.1911 21.5226 61.8874 19.74 57.4 19.74C52.9125 19.74 48.6088 21.5226 45.4357 24.6958C42.2626 27.8689 40.48 32.1725 40.48 36.66C40.48 41.1475 42.2626 45.4511 45.4357 48.6242C48.6088 51.7974 52.9125 53.58 57.4 53.58C61.8874 53.58 66.1911 51.7974 69.3642 48.6242C72.5373 45.4511 74.32 41.1475 74.32 36.66Z" stroke="#C3C3C3" stroke-width="2"/>
<path d="M114.3 36.54C114.3 33.7499 113.192 31.0741 111.219 29.1012C109.246 27.1284 106.57 26.02 103.78 26.02C100.99 26.02 98.3141 27.1284 96.3412 29.1012C94.3684 31.0741 93.26 33.7499 93.26 36.54C93.26 39.3301 94.3684 42.0059 96.3412 43.9788C98.3141 45.9516 100.99 47.06 103.78 47.06C106.57 47.06 109.246 45.9516 111.219 43.9788C113.192 42.0059 114.3 39.3301 114.3 36.54Z" stroke="#C3C3C3" stroke-width="2"/>
<path d="M121.04 67.75C120.28 52.39 112.19 48.39 97.97 50.9C88.09 52.65 87.37 59.24 86.36 67.7C86.3427 67.8518 86.2709 67.992 86.1584 68.0935C86.0458 68.195 85.9003 68.2507 85.75 68.25H81.07C80.8932 68.2501 80.7203 68.2003 80.5715 68.1065C80.4227 68.0126 80.3042 67.8785 80.23 67.72C77.6033 62.14 73.1933 58.8 67 57.7C55.83 55.72 40.12 55.66 34.68 67.73C34.6082 67.8911 34.4906 68.0279 34.3415 68.1238C34.1924 68.2197 34.0181 68.2705 33.84 68.27C31.76 68.25 19.85 67.19 20.05 70C20.0779 70.4077 20.2598 70.7894 20.5587 71.068C20.8577 71.3465 21.2514 71.501 21.66 71.5H32.9C32.9705 71.5002 33.0401 71.516 33.1039 71.5462C33.1676 71.5763 33.224 71.6202 33.2688 71.6746C33.3137 71.7291 33.346 71.7927 33.3635 71.861C33.381 71.9294 33.3832 72.0007 33.37 72.07C32.4366 76.8033 31.98 81.5833 32 86.41C32 86.585 32.0695 86.7529 32.1933 86.8767C32.3171 87.0005 32.4849 87.07 32.66 87.07H81.97C82.1066 87.0707 82.2419 87.0426 82.367 86.9873C82.4922 86.9321 82.6045 86.8511 82.6968 86.7494C82.7891 86.6477 82.8593 86.5276 82.9029 86.3968C82.9465 86.266 82.9625 86.1275 82.95 85.99L81.71 71.93C81.7058 71.8776 81.7123 71.8248 81.7291 71.7752C81.7458 71.7255 81.7724 71.6799 81.8072 71.6414C81.8419 71.6029 81.8841 71.5722 81.9311 71.5513C81.9781 71.5304 82.0288 71.5197 82.08 71.52C99.2333 71.5 116.387 71.4933 133.54 71.5C135.13 71.5 135.89 70.65 135.42 69.08C135.347 68.8398 135.199 68.6294 134.997 68.48C134.795 68.3305 134.551 68.2499 134.3 68.25H121.57C121.434 68.2502 121.304 68.1985 121.205 68.1055C121.107 68.0125 121.048 67.8853 121.04 67.75Z" stroke="#C3C3C3" stroke-width="2"/>
<path d="M110.91 36.53C110.91 34.631 110.156 32.8099 108.813 31.4671C107.47 30.1244 105.649 29.37 103.75 29.37C101.851 29.37 100.03 30.1244 98.6871 31.4671C97.3443 32.8099 96.59 34.631 96.59 36.53C96.59 38.4289 97.3443 40.2501 98.6871 41.5929C100.03 42.9356 101.851 43.69 103.75 43.69C105.649 43.69 107.47 42.9356 108.813 41.5929C110.156 40.2501 110.91 38.4289 110.91 36.53Z" stroke="#C3C3C3" stroke-width="2"/>
<path d="M113.56 55.94C108.63 53.28 95.56 52.38 92.3 57.32C90.6067 59.8867 89.8133 63.3367 89.92 67.67C89.9226 67.8247 89.9859 67.9722 90.0963 68.0807C90.2067 68.1892 90.3552 68.25 90.51 68.25H116.96C117.092 68.2501 117.219 68.1991 117.314 68.1078C117.409 68.0164 117.465 67.8918 117.47 67.76C117.64 64.36 116.73 57.65 113.56 55.94Z" stroke="#C3C3C3" stroke-width="2"/>
<path d="M0 0H150V108H0V0ZM74.32 36.66C74.32 32.1725 72.5374 27.8689 69.3643 24.6958C66.1911 21.5226 61.8875 19.74 57.4 19.74C52.9125 19.74 48.6089 21.5226 45.4358 24.6958C42.2626 27.8689 40.48 32.1725 40.48 36.66C40.48 41.1475 42.2626 45.4511 45.4358 48.6242C48.6089 51.7974 52.9125 53.58 57.4 53.58C61.8875 53.58 66.1911 51.7974 69.3643 48.6242C72.5374 45.4511 74.32 41.1475 74.32 36.66ZM114.3 36.54C114.3 33.7499 113.192 31.0741 111.219 29.1012C109.246 27.1284 106.57 26.02 103.78 26.02C100.99 26.02 98.3141 27.1284 96.3412 29.1012C94.3684 31.0741 93.26 33.7499 93.26 36.54C93.26 39.3301 94.3684 42.0059 96.3412 43.9788C98.3141 45.9516 100.99 47.06 103.78 47.06C106.57 47.06 109.246 45.9516 111.219 43.9788C113.192 42.0059 114.3 39.3301 114.3 36.54ZM121.04 67.75C120.28 52.39 112.19 48.39 97.97 50.9C88.09 52.65 87.37 59.24 86.36 67.7C86.3428 67.8518 86.271 67.992 86.1584 68.0935C86.0458 68.195 85.9004 68.2507 85.75 68.25H81.07C80.8932 68.2501 80.7203 68.2003 80.5715 68.1065C80.4227 68.0126 80.3043 67.8785 80.23 67.72C77.6033 62.14 73.1933 58.8 67 57.7C55.83 55.72 40.12 55.66 34.68 67.73C34.6082 67.8911 34.4906 68.0279 34.3415 68.1238C34.1924 68.2197 34.0182 68.2704 33.84 68.27C31.76 68.25 19.85 67.19 20.05 70C20.0779 70.4077 20.2598 70.7894 20.5587 71.068C20.8577 71.3465 21.2514 71.501 21.66 71.5H32.9C32.9705 71.5002 33.0402 71.516 33.1039 71.5462C33.1677 71.5763 33.224 71.6202 33.2689 71.6746C33.3137 71.729 33.3461 71.7927 33.3635 71.861C33.381 71.9294 33.3832 72.0007 33.37 72.07C32.4367 76.8033 31.98 81.5833 32 86.41C32 86.585 32.0695 86.7529 32.1933 86.8767C32.3171 87.0005 32.485 87.07 32.66 87.07H81.97C82.1066 87.0707 82.2419 87.0426 82.3671 86.9873C82.4922 86.9321 82.6046 86.8511 82.6969 86.7494C82.7891 86.6477 82.8593 86.5276 82.9029 86.3968C82.9465 86.266 82.9626 86.1274 82.95 85.99L81.71 71.93C81.7059 71.8776 81.7123 71.8248 81.7291 71.7752C81.7458 71.7255 81.7724 71.6799 81.8072 71.6414C81.842 71.6029 81.8842 71.5722 81.9311 71.5513C81.9781 71.5304 82.0288 71.5197 82.08 71.52C99.2333 71.5 116.387 71.4933 133.54 71.5C135.13 71.5 135.89 70.65 135.42 69.08C135.347 68.8398 135.199 68.6294 134.997 68.48C134.795 68.3305 134.551 68.2499 134.3 68.25H121.57C121.434 68.2502 121.304 68.1985 121.205 68.1055C121.107 68.0125 121.048 67.8853 121.04 67.75Z" fill="white"/>
<path d="M57.4 53.58C66.7446 53.58 74.32 46.0047 74.32 36.66C74.32 27.3153 66.7446 19.74 57.4 19.74C48.0553 19.74 40.48 27.3153 40.48 36.66C40.48 46.0047 48.0553 53.58 57.4 53.58Z" fill="#878787"/>
<path d="M114.3 36.54C114.3 39.3301 113.192 42.0059 111.219 43.9788C109.246 45.9516 106.57 47.06 103.78 47.06C100.99 47.06 98.3141 45.9516 96.3412 43.9788C94.3684 42.0059 93.26 39.3301 93.26 36.54C93.26 33.7499 94.3684 31.0741 96.3412 29.1012C98.3141 27.1284 100.99 26.02 103.78 26.02C106.57 26.02 109.246 27.1284 111.219 29.1012C113.192 31.0741 114.3 33.7499 114.3 36.54ZM110.91 36.53C110.91 34.631 110.156 32.8099 108.813 31.4671C107.47 30.1244 105.649 29.37 103.75 29.37C101.851 29.37 100.03 30.1244 98.6871 31.4671C97.3444 32.8099 96.59 34.631 96.59 36.53C96.59 38.4289 97.3444 40.2501 98.6871 41.5929C100.03 42.9356 101.851 43.69 103.75 43.69C105.649 43.69 107.47 42.9356 108.813 41.5929C110.156 40.2501 110.91 38.4289 110.91 36.53Z" fill="#878787"/>
<path d="M103.75 43.69C107.704 43.69 110.91 40.4844 110.91 36.53C110.91 32.5756 107.704 29.37 103.75 29.37C99.7956 29.37 96.59 32.5756 96.59 36.53C96.59 40.4844 99.7956 43.69 103.75 43.69Z" fill="white"/>
<path d="M121.57 68.25H134.3C134.551 68.2499 134.795 68.3305 134.997 68.48C135.199 68.6294 135.347 68.8398 135.42 69.08C135.89 70.65 135.13 71.5 133.54 71.5C116.387 71.4933 99.2333 71.5 82.08 71.52C82.0288 71.5197 81.9781 71.5304 81.9311 71.5513C81.8841 71.5722 81.8419 71.6029 81.8072 71.6414C81.7724 71.6799 81.7458 71.7255 81.7291 71.7752C81.7123 71.8248 81.7058 71.8776 81.71 71.93L82.95 85.99C82.9625 86.1275 82.9465 86.266 82.9029 86.3968C82.8593 86.5276 82.7891 86.6477 82.6968 86.7494C82.6045 86.8511 82.4922 86.9321 82.367 86.9873C82.2419 87.0426 82.1066 87.0707 81.97 87.07H32.66C32.4849 87.07 32.3171 87.0005 32.1933 86.8767C32.0695 86.7529 32 86.585 32 86.41C31.98 81.5833 32.4366 76.8033 33.37 72.07C33.3832 72.0007 33.381 71.9294 33.3635 71.861C33.346 71.7927 33.3137 71.7291 33.2688 71.6746C33.224 71.6202 33.1676 71.5763 33.1039 71.5462C33.0401 71.516 32.9705 71.5002 32.9 71.5H21.66C21.2514 71.501 20.8577 71.3465 20.5587 71.068C20.2598 70.7894 20.0779 70.4077 20.05 70C19.85 67.19 31.76 68.25 33.84 68.27C34.0181 68.2705 34.1924 68.2197 34.3415 68.1238C34.4906 68.0279 34.6082 67.8911 34.68 67.73C40.12 55.66 55.83 55.72 67 57.7C73.1933 58.8 77.6033 62.14 80.23 67.72C80.3042 67.8785 80.4227 68.0126 80.5715 68.1065C80.7203 68.2003 80.8932 68.2501 81.07 68.25H85.75C85.9003 68.2507 86.0458 68.195 86.1584 68.0935C86.2709 67.992 86.3427 67.8518 86.36 67.7C87.37 59.24 88.09 52.65 97.97 50.9C112.19 48.39 120.28 52.39 121.04 67.75C121.048 67.8853 121.107 68.0125 121.205 68.1055C121.304 68.1985 121.434 68.2502 121.57 68.25ZM113.56 55.94C108.63 53.28 95.56 52.38 92.3 57.32C90.6066 59.8867 89.8133 63.3367 89.92 67.67C89.9226 67.8247 89.9859 67.9722 90.0963 68.0807C90.2066 68.1892 90.3552 68.25 90.51 68.25H116.96C117.092 68.2501 117.219 68.1991 117.314 68.1078C117.409 68.0164 117.465 67.8918 117.47 67.76C117.64 64.36 116.73 57.65 113.56 55.94Z" fill="#878787"/>
<path d="M113.56 55.94C116.73 57.65 117.64 64.36 117.47 67.76C117.465 67.8918 117.409 68.0164 117.314 68.1078C117.219 68.1991 117.092 68.2501 116.96 68.25H90.51C90.3552 68.25 90.2067 68.1892 90.0963 68.0807C89.9859 67.9722 89.9226 67.8247 89.92 67.67C89.8133 63.3367 90.6067 59.8867 92.3 57.32C95.56 52.38 108.63 53.28 113.56 55.94Z" fill="white"/>
</g>
<defs>
<clipPath id="clip0_114_9">
<rect width="150" height="108" fill="white"/>
</clipPath>
</defs>
</svg>
