<svg width="150" height="108" viewBox="0 0 150 108" fill="none" xmlns="http://www.w3.org/2000/svg">
<g clip-path="url(#clip0_115_39)">
<path d="M122.37 36.72C119.44 29.71 115.48 26.45 110.8 21.63C110.69 21.5172 110.61 21.3791 110.568 21.2286C110.526 21.0782 110.523 20.9203 110.56 20.77C111.693 16.0833 112.823 11.3933 113.95 6.69999C114.54 4.26999 113.93 2.26999 111.23 2.01999C110.881 1.98127 110.528 2.0661 110.23 2.25999L94.61 12.25C94.469 12.3374 94.31 12.3925 94.1441 12.4115C93.9782 12.4305 93.8095 12.4129 93.65 12.36C78.5233 7.26666 63.7833 8.21666 49.43 15.21C37.29 21.12 27.76 31.75 25.07 45.23C25.0436 45.3644 24.968 45.4845 24.8574 45.5674C24.7469 45.6503 24.609 45.6904 24.47 45.68C17.87 45.17 23.24 36.95 17.32 36.24C17.04 36.2066 16.7561 36.2292 16.4849 36.3064C16.2137 36.3836 15.9605 36.5139 15.74 36.6897C15.5196 36.8656 15.3362 37.0834 15.2006 37.3306C15.065 37.5779 14.9798 37.8496 14.95 38.13C14.1767 45.27 17.0933 49.6833 23.7 51.37C23.8901 51.4192 24.0604 51.5273 24.1875 51.6795C24.3147 51.8317 24.3924 52.0205 24.41 52.22C25.53 66.0933 31.84 76.8233 43.34 84.41C43.4803 84.5037 43.598 84.6268 43.6844 84.7703C43.7709 84.9139 43.824 85.0743 43.84 85.24C44.3 90.82 44.7533 96.4033 45.2 101.99C45.53 106.17 54.16 104.78 58.8 104.72C63.55 104.66 62.58 96.49 62.93 93.16C62.9359 93.0946 62.9564 93.0313 62.99 92.9748C63.0236 92.9184 63.0694 92.8701 63.1241 92.8337C63.1788 92.7972 63.2409 92.7735 63.306 92.7642C63.371 92.7549 63.4373 92.7603 63.5 92.78C70.5133 94.9 77.6 95.11 84.76 93.41C84.8234 93.3955 84.8891 93.3946 84.9529 93.4074C85.0167 93.4202 85.077 93.4463 85.1299 93.4841C85.1828 93.5219 85.2271 93.5705 85.2599 93.6267C85.2927 93.6828 85.3131 93.7453 85.32 93.81L86.14 102.52C86.1943 103.113 86.4655 103.665 86.9014 104.07C87.3372 104.474 87.9067 104.702 88.5 104.71C92.3467 104.763 96.1866 104.81 100.02 104.85C101.96 104.87 103.11 104 103.47 102.24C104.037 99.5 105.033 93.9933 106.46 85.72C106.488 85.5567 106.551 85.4015 106.644 85.2651C106.737 85.1288 106.859 85.0144 107 84.93C113.8 80.7567 118.747 74.99 121.84 67.63C121.902 67.4771 122.007 67.3452 122.142 67.2496C122.276 67.154 122.435 67.0986 122.6 67.09C127.56 66.77 132.93 67.76 132.99 60.74C133.03 55.4267 133.027 50.12 132.98 44.82C132.92 37.94 129.12 37.2 123.07 37.19C122.921 37.1894 122.775 37.1446 122.651 37.061C122.526 36.9775 122.429 36.8589 122.37 36.72Z" stroke="#C3C3C3" stroke-width="2"/>
<path d="M118.84 61.85C121.353 61.4167 123.887 61.3233 126.44 61.57C126.511 61.577 126.583 61.569 126.651 61.5465C126.718 61.524 126.781 61.4876 126.833 61.4395C126.886 61.3914 126.928 61.3328 126.957 61.2674C126.986 61.2021 127 61.1314 127 61.06V43.62C127 43.4556 126.934 43.2979 126.815 43.1816C126.697 43.0653 126.537 43 126.37 43L120.36 43.01C119.886 43.0105 119.423 42.8638 119.034 42.5899C118.646 42.316 118.351 41.9283 118.19 41.48C115.843 34.9867 111.87 29.6533 106.27 25.48C102.88 22.95 106.01 15.67 106.61 11.99C106.663 11.6567 106.543 11.5767 106.25 11.75C103.92 13.13 95.63 19.1 93.42 18.33C75.18 11.9433 58.4267 14.47 43.16 25.91C39.0333 28.99 35.78 32.9267 33.4 37.72C24.79 54.99 33.41 71.24 48.32 81.02C48.5875 81.2025 48.796 81.4597 48.92 81.76C50.31 85.16 50.07 93.23 50.3 98.5C50.3051 98.6274 50.3586 98.748 50.4497 98.8373C50.5408 98.9265 50.6625 98.9775 50.79 98.98L55.96 99.06C56.093 99.0629 56.222 99.0148 56.3206 98.9255C56.4192 98.8363 56.4798 98.7126 56.49 98.58C56.81 94.94 55.73 84.47 62.25 86.68C70.67 89.5333 79.0267 89.6433 87.32 87.01C87.652 86.9052 88.0034 86.8766 88.348 86.9261C88.6926 86.9756 89.0217 87.1021 89.3108 87.2961C89.5999 87.4901 89.8416 87.7467 90.0181 88.0469C90.1945 88.347 90.3011 88.683 90.33 89.03L91.11 98.41C91.1222 98.5516 91.186 98.6838 91.2892 98.7815C91.3924 98.8792 91.5279 98.9356 91.67 98.94L97.44 99.17C97.5765 99.1725 97.7096 99.1267 97.8157 99.0407C97.9218 98.9547 97.9941 98.8341 98.02 98.7C98.56 95.59 100.29 82.2 102.81 80.82C111.31 76.19 113.49 70.78 117.98 62.47C118.067 62.3081 118.189 62.1682 118.338 62.0608C118.487 61.9534 118.659 61.8813 118.84 61.85Z" stroke="#C3C3C3" stroke-width="2"/>
<path d="M62 27.47C58.82 29.34 60.21 32.3 63.27 33.03C63.6216 33.1082 63.9881 33.0768 64.32 32.94C70.8467 30.16 77.46 29.7867 84.16 31.82C85.7467 32.3 86.73 31.73 87.11 30.11C88.47 24.31 75.58 24.41 72.68 24.87C66.9867 25.7633 63.4267 26.63 62 27.47Z" stroke="#C3C3C3" stroke-width="2"/>
<path d="M106.62 43.61C106.62 42.337 106.114 41.1161 105.214 40.2159C104.314 39.3157 103.093 38.81 101.82 38.81C100.547 38.81 99.326 39.3157 98.4258 40.2159C97.5257 41.1161 97.02 42.337 97.02 43.61C97.02 44.883 97.5257 46.1039 98.4258 47.0041C99.326 47.9043 100.547 48.41 101.82 48.41C103.093 48.41 104.314 47.9043 105.214 47.0041C106.114 46.1039 106.62 44.883 106.62 43.61Z" stroke="#C3C3C3" stroke-width="2"/>
<path d="M0 0H150V108H0V0ZM122.37 36.72C119.44 29.71 115.48 26.45 110.8 21.63C110.69 21.5172 110.61 21.3791 110.568 21.2286C110.526 21.0782 110.523 20.9203 110.56 20.77C111.693 16.0833 112.823 11.3933 113.95 6.7C114.54 4.27 113.93 2.27 111.23 2.02C110.881 1.98128 110.528 2.0661 110.23 2.26L94.61 12.25C94.469 12.3374 94.31 12.3925 94.1441 12.4115C93.9782 12.4305 93.8095 12.4129 93.65 12.36C78.5233 7.26667 63.7833 8.21667 49.43 15.21C37.29 21.12 27.76 31.75 25.07 45.23C25.0436 45.3644 24.968 45.4845 24.8575 45.5674C24.7469 45.6503 24.609 45.6904 24.47 45.68C17.87 45.17 23.24 36.95 17.32 36.24C17.04 36.2066 16.7561 36.2292 16.4849 36.3064C16.2137 36.3836 15.9605 36.5139 15.74 36.6897C15.5196 36.8656 15.3362 37.0834 15.2006 37.3306C15.065 37.5779 14.9798 37.8496 14.95 38.13C14.1767 45.27 17.0933 49.6833 23.7 51.37C23.8901 51.4192 24.0604 51.5273 24.1876 51.6795C24.3147 51.8317 24.3924 52.0205 24.41 52.22C25.53 66.0933 31.84 76.8233 43.34 84.41C43.4803 84.5037 43.598 84.6268 43.6845 84.7704C43.7709 84.9139 43.8241 85.0743 43.84 85.24C44.3 90.82 44.7533 96.4033 45.2 101.99C45.53 106.17 54.16 104.78 58.8 104.72C63.55 104.66 62.58 96.49 62.93 93.16C62.9359 93.0946 62.9565 93.0313 62.9901 92.9748C63.0236 92.9184 63.0695 92.8701 63.1241 92.8337C63.1788 92.7972 63.2409 92.7735 63.306 92.7642C63.371 92.7549 63.4373 92.7603 63.5 92.78C70.5133 94.9 77.6 95.11 84.76 93.41C84.8234 93.3955 84.8891 93.3946 84.9529 93.4074C85.0167 93.4202 85.077 93.4463 85.1299 93.4841C85.1828 93.5219 85.2271 93.5705 85.2599 93.6267C85.2927 93.6828 85.3132 93.7453 85.32 93.81L86.14 102.52C86.1943 103.113 86.4655 103.665 86.9014 104.07C87.3372 104.474 87.9067 104.702 88.5 104.71C92.3467 104.763 96.1867 104.81 100.02 104.85C101.96 104.87 103.11 104 103.47 102.24C104.037 99.5 105.033 93.9933 106.46 85.72C106.488 85.5567 106.551 85.4015 106.644 85.2651C106.737 85.1288 106.859 85.0144 107 84.93C113.8 80.7567 118.747 74.99 121.84 67.63C121.902 67.4772 122.007 67.3452 122.142 67.2496C122.276 67.154 122.435 67.0986 122.6 67.09C127.56 66.77 132.93 67.76 132.99 60.74C133.03 55.4267 133.027 50.12 132.98 44.82C132.92 37.94 129.12 37.2 123.07 37.19C122.921 37.1894 122.775 37.1446 122.651 37.061C122.526 36.9775 122.429 36.8589 122.37 36.72Z" fill="white"/>
<path d="M123.07 37.19C129.12 37.2 132.92 37.94 132.98 44.82C133.027 50.12 133.03 55.4267 132.99 60.74C132.93 67.76 127.56 66.77 122.6 67.09C122.435 67.0986 122.276 67.154 122.142 67.2496C122.007 67.3452 121.902 67.4771 121.84 67.63C118.747 74.99 113.8 80.7567 107 84.93C106.859 85.0144 106.737 85.1288 106.644 85.2651C106.551 85.4015 106.488 85.5567 106.46 85.72C105.033 93.9933 104.037 99.5 103.47 102.24C103.11 104 101.96 104.87 100.02 104.85C96.1866 104.81 92.3466 104.763 88.5 104.71C87.9067 104.702 87.3372 104.474 86.9014 104.07C86.4655 103.665 86.1943 103.113 86.14 102.52L85.32 93.81C85.3131 93.7453 85.2927 93.6828 85.2599 93.6267C85.2271 93.5705 85.1828 93.5219 85.1299 93.4841C85.077 93.4463 85.0167 93.4202 84.9529 93.4074C84.8891 93.3946 84.8234 93.3955 84.76 93.41C77.6 95.11 70.5133 94.9 63.5 92.78C63.4373 92.7603 63.371 92.7549 63.306 92.7642C63.2409 92.7735 63.1788 92.7972 63.1241 92.8337C63.0694 92.8701 63.0236 92.9184 62.99 92.9748C62.9564 93.0313 62.9359 93.0946 62.93 93.16C62.58 96.49 63.55 104.66 58.8 104.72C54.16 104.78 45.53 106.17 45.2 101.99C44.7533 96.4033 44.3 90.82 43.84 85.24C43.824 85.0743 43.7709 84.9139 43.6844 84.7703C43.598 84.6268 43.4803 84.5037 43.34 84.41C31.84 76.8233 25.53 66.0933 24.41 52.22C24.3924 52.0205 24.3147 51.8317 24.1875 51.6795C24.0604 51.5273 23.8901 51.4192 23.7 51.37C17.0933 49.6833 14.1767 45.27 14.95 38.13C14.9798 37.8496 15.065 37.5779 15.2006 37.3306C15.3362 37.0834 15.5196 36.8656 15.74 36.6897C15.9605 36.5139 16.2137 36.3836 16.4849 36.3064C16.7561 36.2292 17.04 36.2066 17.32 36.24C23.24 36.95 17.87 45.17 24.47 45.68C24.609 45.6904 24.7469 45.6503 24.8574 45.5674C24.968 45.4845 25.0436 45.3644 25.07 45.23C27.76 31.75 37.29 21.12 49.43 15.21C63.7833 8.21666 78.5233 7.26666 93.65 12.36C93.8095 12.4129 93.9782 12.4305 94.1441 12.4115C94.31 12.3925 94.469 12.3374 94.61 12.25L110.23 2.25999C110.528 2.0661 110.881 1.98127 111.23 2.01999C113.93 2.26999 114.54 4.26999 113.95 6.69999C112.823 11.3933 111.693 16.0833 110.56 20.77C110.523 20.9203 110.526 21.0782 110.568 21.2286C110.61 21.3791 110.69 21.5172 110.8 21.63C115.48 26.45 119.44 29.71 122.37 36.72C122.429 36.8589 122.526 36.9775 122.651 37.061C122.775 37.1446 122.921 37.1894 123.07 37.19ZM118.84 61.85C121.353 61.4167 123.887 61.3233 126.44 61.57C126.511 61.577 126.583 61.569 126.651 61.5465C126.718 61.524 126.781 61.4876 126.833 61.4395C126.886 61.3914 126.928 61.3328 126.957 61.2674C126.986 61.2021 127 61.1314 127 61.06V43.62C127 43.4556 126.934 43.2979 126.815 43.1816C126.697 43.0653 126.537 43 126.37 43L120.36 43.01C119.886 43.0105 119.423 42.8638 119.034 42.5899C118.646 42.316 118.351 41.9283 118.19 41.48C115.843 34.9867 111.87 29.6533 106.27 25.48C102.88 22.95 106.01 15.67 106.61 11.99C106.663 11.6567 106.543 11.5767 106.25 11.75C103.92 13.13 95.63 19.1 93.42 18.33C75.18 11.9433 58.4267 14.47 43.16 25.91C39.0333 28.99 35.78 32.9267 33.4 37.72C24.79 54.99 33.41 71.24 48.32 81.02C48.5874 81.2025 48.796 81.4597 48.92 81.76C50.31 85.16 50.07 93.23 50.3 98.5C50.3051 98.6274 50.3586 98.748 50.4497 98.8373C50.5408 98.9265 50.6625 98.9775 50.79 98.98L55.96 99.06C56.093 99.0629 56.222 99.0148 56.3206 98.9255C56.4192 98.8363 56.4798 98.7126 56.49 98.58C56.81 94.94 55.73 84.47 62.25 86.68C70.67 89.5333 79.0266 89.6433 87.32 87.01C87.652 86.9052 88.0034 86.8766 88.348 86.9261C88.6926 86.9756 89.0217 87.1021 89.3108 87.2961C89.5999 87.4901 89.8416 87.7467 90.0181 88.0469C90.1945 88.347 90.3011 88.683 90.33 89.03L91.11 98.41C91.1222 98.5516 91.1859 98.6838 91.2892 98.7815C91.3924 98.8792 91.5279 98.9356 91.67 98.94L97.44 99.17C97.5765 99.1725 97.7096 99.1267 97.8157 99.0407C97.9217 98.9547 97.9941 98.8341 98.02 98.7C98.56 95.59 100.29 82.2 102.81 80.82C111.31 76.19 113.49 70.78 117.98 62.47C118.067 62.3082 118.189 62.1682 118.338 62.0608C118.487 61.9534 118.659 61.8813 118.84 61.85Z" fill="#878787"/>
<path d="M117.98 62.47C113.49 70.78 111.31 76.19 102.81 80.82C100.29 82.2 98.56 95.59 98.02 98.7C97.9941 98.8341 97.9218 98.9548 97.8157 99.0407C97.7096 99.1267 97.5765 99.1725 97.44 99.17L91.67 98.94C91.5279 98.9356 91.3924 98.8792 91.2892 98.7815C91.186 98.6838 91.1222 98.5516 91.11 98.41L90.33 89.03C90.3011 88.683 90.1945 88.347 90.0181 88.0469C89.8416 87.7467 89.5999 87.4901 89.3108 87.2961C89.0217 87.1021 88.6926 86.9756 88.348 86.9261C88.0034 86.8766 87.652 86.9053 87.32 87.01C79.0267 89.6433 70.67 89.5333 62.25 86.68C55.73 84.47 56.81 94.94 56.49 98.58C56.4798 98.7126 56.4192 98.8363 56.3206 98.9256C56.222 99.0148 56.093 99.063 55.96 99.06L50.79 98.98C50.6625 98.9776 50.5408 98.9265 50.4497 98.8373C50.3586 98.7481 50.3051 98.6274 50.3 98.5C50.07 93.23 50.31 85.16 48.92 81.76C48.796 81.4597 48.5875 81.2025 48.32 81.02C33.41 71.24 24.79 54.99 33.4 37.72C35.78 32.9267 39.0333 28.99 43.16 25.91C58.4267 14.47 75.18 11.9433 93.42 18.33C95.63 19.1 103.92 13.13 106.25 11.75C106.543 11.5767 106.663 11.6567 106.61 11.99C106.01 15.67 102.88 22.95 106.27 25.48C111.87 29.6533 115.843 34.9867 118.19 41.48C118.351 41.9283 118.646 42.316 119.034 42.5899C119.423 42.8638 119.886 43.0105 120.36 43.01L126.37 43C126.537 43 126.697 43.0653 126.815 43.1816C126.934 43.2979 127 43.4556 127 43.62V61.06C127 61.1314 126.986 61.2021 126.957 61.2675C126.928 61.3328 126.886 61.3915 126.833 61.4395C126.781 61.4876 126.718 61.5241 126.651 61.5465C126.583 61.569 126.511 61.577 126.44 61.57C123.887 61.3233 121.353 61.4167 118.84 61.85C118.659 61.8813 118.487 61.9534 118.338 62.0608C118.189 62.1682 118.067 62.3082 117.98 62.47ZM62 27.47C58.82 29.34 60.21 32.3 63.27 33.03C63.6216 33.1082 63.9881 33.0768 64.32 32.94C70.8467 30.16 77.46 29.7867 84.16 31.82C85.7467 32.3 86.73 31.73 87.11 30.11C88.47 24.31 75.58 24.41 72.68 24.87C66.9867 25.7633 63.4267 26.63 62 27.47ZM106.62 43.61C106.62 42.337 106.114 41.1161 105.214 40.2159C104.314 39.3157 103.093 38.81 101.82 38.81C100.547 38.81 99.3261 39.3157 98.4259 40.2159C97.5257 41.1161 97.02 42.337 97.02 43.61C97.02 44.883 97.5257 46.1039 98.4259 47.0041C99.3261 47.9043 100.547 48.41 101.82 48.41C103.093 48.41 104.314 47.9043 105.214 47.0041C106.114 46.1039 106.62 44.883 106.62 43.61Z" fill="white"/>
<path d="M63.27 33.03C60.21 32.3 58.82 29.34 62 27.47C63.4267 26.63 66.9867 25.7633 72.68 24.87C75.58 24.41 88.47 24.31 87.11 30.11C86.73 31.73 85.7467 32.3 84.16 31.82C77.46 29.7867 70.8467 30.16 64.32 32.94C63.9881 33.0768 63.6216 33.1082 63.27 33.03Z" fill="#878787"/>
<path d="M101.82 48.41C104.471 48.41 106.62 46.261 106.62 43.61C106.62 40.959 104.471 38.81 101.82 38.81C99.1691 38.81 97.02 40.959 97.02 43.61C97.02 46.261 99.1691 48.41 101.82 48.41Z" fill="#878787"/>
</g>
<defs>
<clipPath id="clip0_115_39">
<rect width="150" height="108" fill="white"/>
</clipPath>
</defs>
</svg>
