<svg width="150" height="108" viewBox="0 0 150 108" fill="none" xmlns="http://www.w3.org/2000/svg">
<g clip-path="url(#clip0_116_142)">
<path d="M37.92 44.74C41.74 48.2533 45.71 51.7667 49.83 55.28C50.8433 56.14 51.84 56.1233 52.82 55.23C58.3 50.21 64.7633 47.33 72.21 46.59C72.8367 46.5258 73.4174 46.2328 73.8402 45.7675C74.2631 45.3022 74.4981 44.6975 74.5 44.07V25.96C74.5003 25.6385 74.3828 25.3288 74.17 25.09C72.47 23.21 70.52 24.05 68.37 24.29C55.4766 25.7233 44.76 30.87 36.22 39.73C33.97 42.06 36.42 43.35 37.92 44.74Z" stroke="#C3C3C3" stroke-width="2"/>
<path d="M114.98 37.68C106.053 29.6667 95.3133 25.09 82.76 23.95C80.53 23.75 79.41 24.04 79.27 26.52C78.91 32.7467 78.9367 38.9967 79.35 45.27C79.3701 45.566 79.4947 45.8452 79.7017 46.0577C79.9088 46.2702 80.1846 46.4022 80.48 46.43C88.7467 47.2167 95.83 50.4833 101.73 56.23C102.162 56.6521 102.738 56.8947 103.344 56.9096C103.95 56.9244 104.541 56.7103 105 56.31L118.83 44.12C119.156 43.8333 119.366 43.4383 119.421 43.0092C119.476 42.5802 119.373 42.1466 119.13 41.79C117.92 40.02 116.33 38.89 114.98 37.68Z" stroke="#C3C3C3" stroke-width="2"/>
<path d="M32.68 46.08C32.303 45.768 31.8177 45.6181 31.3304 45.663C30.8431 45.708 30.3935 45.9443 30.08 46.32C21.8867 56.1733 17.65 67.5533 17.37 80.46C17.362 80.7864 17.4194 81.1111 17.5387 81.4152C17.658 81.7192 17.8369 81.9966 18.0649 82.2312C18.2929 82.4657 18.5656 82.6528 18.8669 82.7813C19.1682 82.9099 19.4922 82.9774 19.82 82.98C25.4133 83.0267 30.96 83.02 36.46 82.96C38.57 82.94 40.02 82.49 40.12 80.18C40.4133 73.5733 42.5133 67.65 46.42 62.41C47.6733 60.73 47.7133 59.3367 46.54 58.23C42.0867 54.0567 37.4667 50.0067 32.68 46.08Z" stroke="#C3C3C3" stroke-width="2"/>
<path d="M115.25 83L134.6 82.99C134.818 82.99 135.033 82.947 135.234 82.8634C135.435 82.7799 135.617 82.6575 135.77 82.5032C135.924 82.3489 136.045 82.1658 136.127 81.9645C136.21 81.7632 136.251 81.5475 136.25 81.33C136.137 68.6767 132.203 57.4133 124.45 47.54C124.296 47.3417 124.103 47.177 123.882 47.0562C123.662 46.9354 123.419 46.861 123.169 46.8376C122.919 46.8142 122.667 46.8422 122.428 46.92C122.189 46.9978 121.968 47.1237 121.78 47.29L107.4 59.98C107.158 60.1917 106.996 60.4808 106.944 60.7981C106.891 61.1154 106.95 61.4412 107.11 61.72C110.82 68.19 113.3 73.55 113.49 81.27C113.5 81.7324 113.69 82.1724 114.019 82.4957C114.348 82.819 114.79 83.0001 115.25 83Z" stroke="#C3C3C3" stroke-width="2"/>
<path d="M92.26 53.91C91.9111 53.7458 91.5165 53.7059 91.1418 53.7969C90.7671 53.8878 90.4348 54.1042 90.2 54.41C85.4666 60.59 80.4033 66.54 75.01 72.26C74.1033 73.22 72.86 75.4933 71.28 79.08C69.47 83.21 74.12 86.84 77.33 83.6C80.17 80.7333 82.4066 77.4567 84.04 73.77C86.6466 67.8833 89.5866 62.17 92.86 56.63C93.5 55.55 93.46 54.48 92.26 53.91Z" stroke="#C3C3C3" stroke-width="2"/>
<path d="M113.18 42.18C110.28 39.39 106.9 36.91 103.94 35.24C103.88 35.2047 103.813 35.1824 103.743 35.1744C103.673 35.1664 103.602 35.1728 103.534 35.1933C103.466 35.2139 103.402 35.2481 103.347 35.2939C103.291 35.3397 103.244 35.3962 103.21 35.46L97.49 46.23C97.4179 46.37 97.3974 46.531 97.4322 46.6846C97.4669 46.8382 97.5547 46.9746 97.68 47.07L103.2 51.13C103.311 51.2114 103.447 51.2518 103.585 51.2445C103.723 51.2373 103.856 51.1827 103.96 51.09L113.16 42.9C113.211 42.8555 113.252 42.801 113.281 42.7397C113.31 42.6785 113.326 42.612 113.328 42.5444C113.33 42.4767 113.317 42.4094 113.292 42.3467C113.267 42.284 113.228 42.2272 113.18 42.18Z" stroke="#C3C3C3" stroke-width="2"/>
<path d="M122.21 53.05C119.21 54.89 115.4 58.91 112.74 61.43C112.635 61.5291 112.566 61.6607 112.546 61.8027C112.526 61.9447 112.556 62.0885 112.63 62.21C115.583 67.07 117.347 72.33 117.92 77.99C117.935 78.1304 118 78.2603 118.104 78.3545C118.207 78.4487 118.341 78.5006 118.48 78.5H131.02C131.086 78.5001 131.151 78.4868 131.211 78.4608C131.271 78.4348 131.325 78.3968 131.37 78.349C131.415 78.3012 131.45 78.2447 131.472 78.1829C131.495 78.1212 131.504 78.0555 131.5 77.99C130.887 68.9367 128.04 60.6767 122.96 53.21C122.878 53.0916 122.754 53.0088 122.614 52.979C122.475 52.9492 122.33 52.9746 122.21 53.05Z" stroke="#C3C3C3" stroke-width="2"/>
<path d="M0 0H150V108H0V0ZM37.92 44.74C41.74 48.2533 45.71 51.7667 49.83 55.28C50.8433 56.14 51.84 56.1233 52.82 55.23C58.3 50.21 64.7633 47.33 72.21 46.59C72.8367 46.5258 73.4174 46.2328 73.8402 45.7675C74.2631 45.3022 74.4981 44.6975 74.5 44.07V25.96C74.5003 25.6385 74.3828 25.3288 74.17 25.09C72.47 23.21 70.52 24.05 68.37 24.29C55.4767 25.7233 44.76 30.87 36.22 39.73C33.97 42.06 36.42 43.35 37.92 44.74ZM114.98 37.68C106.053 29.6667 95.3133 25.09 82.76 23.95C80.53 23.75 79.41 24.04 79.27 26.52C78.91 32.7467 78.9367 38.9967 79.35 45.27C79.3701 45.566 79.4947 45.8452 79.7018 46.0577C79.9088 46.2702 80.1846 46.4022 80.48 46.43C88.7467 47.2167 95.83 50.4833 101.73 56.23C102.162 56.6521 102.738 56.8947 103.344 56.9096C103.95 56.9244 104.541 56.7103 105 56.31L118.83 44.12C119.156 43.8333 119.366 43.4383 119.421 43.0092C119.476 42.5802 119.373 42.1466 119.13 41.79C117.92 40.02 116.33 38.89 114.98 37.68ZM32.68 46.08C32.303 45.768 31.8177 45.6181 31.3304 45.663C30.8431 45.708 30.3935 45.9442 30.08 46.32C21.8867 56.1733 17.65 67.5533 17.37 80.46C17.362 80.7864 17.4194 81.1111 17.5387 81.4152C17.658 81.7192 17.8369 81.9966 18.0649 82.2312C18.2929 82.4657 18.5656 82.6527 18.8669 82.7813C19.1682 82.9099 19.4922 82.9774 19.82 82.98C25.4133 83.0267 30.96 83.02 36.46 82.96C38.57 82.94 40.02 82.49 40.12 80.18C40.4133 73.5733 42.5133 67.65 46.42 62.41C47.6733 60.73 47.7133 59.3367 46.54 58.23C42.0867 54.0567 37.4667 50.0067 32.68 46.08ZM115.25 83L134.6 82.99C134.818 82.99 135.033 82.947 135.234 82.8634C135.435 82.7799 135.617 82.6575 135.77 82.5032C135.924 82.3489 136.045 82.1658 136.127 81.9645C136.21 81.7632 136.251 81.5475 136.25 81.33C136.137 68.6767 132.203 57.4133 124.45 47.54C124.296 47.3417 124.103 47.177 123.882 47.0562C123.662 46.9354 123.419 46.861 123.169 46.8376C122.919 46.8142 122.667 46.8422 122.428 46.92C122.189 46.9978 121.968 47.1237 121.78 47.29L107.4 59.98C107.158 60.1917 106.996 60.4808 106.944 60.7981C106.891 61.1154 106.95 61.4412 107.11 61.72C110.82 68.19 113.3 73.55 113.49 81.27C113.5 81.7324 113.69 82.1724 114.019 82.4957C114.348 82.819 114.79 83.0001 115.25 83ZM92.26 53.91C91.9111 53.7458 91.5166 53.7059 91.1419 53.7969C90.7672 53.8878 90.4348 54.1042 90.2 54.41C85.4667 60.59 80.4033 66.54 75.01 72.26C74.1033 73.22 72.86 75.4933 71.28 79.08C69.47 83.21 74.12 86.84 77.33 83.6C80.17 80.7333 82.4067 77.4567 84.04 73.77C86.6467 67.8833 89.5867 62.17 92.86 56.63C93.5 55.55 93.46 54.48 92.26 53.91Z" fill="white"/>
<path d="M37.92 44.74C36.42 43.35 33.97 42.06 36.22 39.73C44.76 30.87 55.4766 25.7233 68.37 24.29C70.52 24.05 72.47 23.21 74.17 25.09C74.3828 25.3288 74.5003 25.6385 74.5 25.96V44.07C74.4981 44.6975 74.2631 45.3022 73.8402 45.7675C73.4174 46.2328 72.8367 46.5258 72.21 46.59C64.7633 47.33 58.3 50.21 52.82 55.23C51.84 56.1233 50.8433 56.14 49.83 55.28C45.71 51.7667 41.74 48.2533 37.92 44.74Z" fill="#878787"/>
<path d="M114.98 37.68C116.33 38.89 117.92 40.02 119.13 41.79C119.373 42.1466 119.476 42.5802 119.421 43.0092C119.366 43.4383 119.156 43.8333 118.83 44.12L105 56.31C104.541 56.7103 103.95 56.9244 103.344 56.9096C102.738 56.8947 102.162 56.6521 101.73 56.23C95.83 50.4833 88.7467 47.2167 80.48 46.43C80.1846 46.4022 79.9088 46.2702 79.7017 46.0577C79.4947 45.8452 79.3701 45.566 79.35 45.27C78.9367 38.9967 78.91 32.7467 79.27 26.52C79.41 24.04 80.53 23.75 82.76 23.95C95.3133 25.09 106.053 29.6667 114.98 37.68ZM113.18 42.18C110.28 39.39 106.9 36.91 103.94 35.24C103.88 35.2047 103.813 35.1824 103.743 35.1744C103.673 35.1664 103.602 35.1728 103.534 35.1933C103.466 35.2139 103.402 35.2481 103.347 35.2939C103.291 35.3397 103.244 35.3962 103.21 35.46L97.49 46.23C97.4179 46.37 97.3974 46.531 97.4322 46.6846C97.4669 46.8382 97.5547 46.9746 97.68 47.07L103.2 51.13C103.311 51.2114 103.447 51.2518 103.585 51.2445C103.723 51.2373 103.856 51.1827 103.96 51.09L113.16 42.9C113.211 42.8555 113.252 42.801 113.281 42.7397C113.31 42.6785 113.326 42.612 113.328 42.5444C113.33 42.4767 113.317 42.4094 113.292 42.3467C113.267 42.284 113.228 42.2272 113.18 42.18Z" fill="#878787"/>
<path d="M103.94 35.24C106.9 36.91 110.28 39.39 113.18 42.18C113.228 42.2272 113.267 42.284 113.292 42.3467C113.317 42.4094 113.33 42.4767 113.328 42.5444C113.326 42.612 113.31 42.6785 113.281 42.7397C113.252 42.801 113.211 42.8555 113.16 42.9L103.96 51.09C103.856 51.1827 103.723 51.2373 103.585 51.2445C103.447 51.2518 103.311 51.2114 103.2 51.13L97.68 47.07C97.5547 46.9746 97.4669 46.8382 97.4322 46.6846C97.3974 46.531 97.4179 46.37 97.49 46.23L103.21 35.46C103.244 35.3962 103.291 35.3397 103.347 35.2939C103.402 35.2481 103.466 35.2139 103.534 35.1933C103.602 35.1728 103.673 35.1664 103.743 35.1744C103.813 35.1824 103.88 35.2047 103.94 35.24Z" fill="white"/>
<path d="M32.68 46.08C37.4667 50.0067 42.0867 54.0567 46.54 58.23C47.7133 59.3367 47.6733 60.73 46.42 62.41C42.5133 67.65 40.4133 73.5733 40.12 80.18C40.02 82.49 38.57 82.94 36.46 82.96C30.96 83.02 25.4133 83.0267 19.82 82.98C19.4922 82.9774 19.1682 82.9099 18.8669 82.7813C18.5656 82.6528 18.2929 82.4657 18.0649 82.2312C17.8369 81.9966 17.658 81.7192 17.5387 81.4152C17.4194 81.1111 17.362 80.7864 17.37 80.46C17.65 67.5533 21.8867 56.1733 30.08 46.32C30.3935 45.9443 30.8431 45.708 31.3304 45.663C31.8177 45.6181 32.303 45.768 32.68 46.08Z" fill="#878787"/>
<path d="M115.25 83C114.79 83.0001 114.348 82.819 114.019 82.4957C113.69 82.1724 113.5 81.7324 113.49 81.27C113.3 73.55 110.82 68.19 107.11 61.72C106.95 61.4412 106.891 61.1154 106.944 60.7981C106.996 60.4808 107.158 60.1917 107.4 59.98L121.78 47.29C121.968 47.1237 122.189 46.9978 122.428 46.92C122.667 46.8422 122.919 46.8142 123.169 46.8376C123.419 46.861 123.662 46.9354 123.882 47.0562C124.103 47.177 124.296 47.3417 124.45 47.54C132.203 57.4133 136.137 68.6767 136.25 81.33C136.251 81.5475 136.21 81.7632 136.127 81.9645C136.045 82.1658 135.924 82.3489 135.77 82.5032C135.617 82.6575 135.435 82.7799 135.234 82.8634C135.033 82.947 134.818 82.99 134.6 82.99L115.25 83ZM122.21 53.05C119.21 54.89 115.4 58.91 112.74 61.43C112.635 61.5291 112.566 61.6607 112.546 61.8027C112.526 61.9447 112.556 62.0885 112.63 62.21C115.583 67.07 117.347 72.33 117.92 77.99C117.935 78.1304 118 78.2603 118.104 78.3545C118.207 78.4487 118.341 78.5006 118.48 78.5H131.02C131.086 78.5001 131.151 78.4868 131.211 78.4608C131.271 78.4348 131.325 78.3968 131.37 78.349C131.415 78.3012 131.45 78.2447 131.472 78.1829C131.495 78.1212 131.504 78.0555 131.5 77.99C130.887 68.9367 128.04 60.6767 122.96 53.21C122.878 53.0916 122.754 53.0088 122.614 52.979C122.475 52.9492 122.33 52.9746 122.21 53.05Z" fill="#878787"/>
<path d="M112.74 61.43C115.4 58.91 119.21 54.89 122.21 53.05C122.33 52.9746 122.475 52.9492 122.614 52.979C122.754 53.0088 122.878 53.0916 122.96 53.21C128.04 60.6767 130.887 68.9367 131.5 77.99C131.504 78.0555 131.495 78.1212 131.472 78.1829C131.45 78.2447 131.415 78.3012 131.37 78.349C131.325 78.3968 131.271 78.4348 131.211 78.4608C131.151 78.4868 131.086 78.5001 131.02 78.5H118.48C118.341 78.5006 118.207 78.4487 118.104 78.3545C118 78.2603 117.935 78.1304 117.92 77.99C117.347 72.33 115.583 67.07 112.63 62.21C112.556 62.0885 112.526 61.9447 112.546 61.8027C112.566 61.6607 112.635 61.5291 112.74 61.43Z" fill="white"/>
<path d="M92.26 53.91C93.46 54.48 93.5 55.55 92.86 56.63C89.5866 62.17 86.6466 67.8833 84.04 73.77C82.4066 77.4567 80.17 80.7333 77.33 83.6C74.12 86.84 69.47 83.21 71.28 79.08C72.86 75.4933 74.1033 73.22 75.01 72.26C80.4033 66.54 85.4666 60.59 90.2 54.41C90.4348 54.1042 90.7671 53.8878 91.1418 53.7969C91.5165 53.7059 91.9111 53.7458 92.26 53.91Z" fill="#878787"/>
</g>
<defs>
<clipPath id="clip0_116_142">
<rect width="150" height="108" fill="white"/>
</clipPath>
</defs>
</svg>
