<?xml version="1.0" standalone="no"?>
<!DOCTYPE svg PUBLIC "-//W3C//DTD SVG 20010904//EN"
 "http://www.w3.org/TR/2001/REC-SVG-20010904/DTD/svg10.dtd">
<svg version="1.0" xmlns="http://www.w3.org/2000/svg"
 width="800.000000pt" height="800.000000pt" viewBox="0 0 800.000000 800.000000"
 preserveAspectRatio="xMidYMid meet">
<metadata>
Created by potrace 1.14, written by Peter Selinger 2001-2017
</metadata>
<g transform="translate(0.000000,800.000000) scale(0.100000,-0.100000)"
fill="#000000" stroke="none">
<path d="M4293 6535 c0 -8 4 -12 9 -9 5 3 6 10 3 15 -9 13 -12 11 -12 -6z"/>
<path d="M3540 6534 c0 -7 -13 -11 -34 -8 -29 2 -34 0 -30 -14 5 -14 4 -14 -6
1 -11 17 -13 17 -30 2 -17 -15 -19 -15 -30 2 -9 15 -11 15 -6 1 2 -9 -2 -22
-10 -29 -12 -10 -13 -9 -8 6 5 13 4 16 -5 11 -7 -5 -11 -17 -8 -27 4 -15 2
-17 -13 -9 -15 8 -17 6 -13 -11 4 -12 0 -25 -8 -30 -8 -5 -9 -9 -4 -9 6 0 11
-12 12 -27 l1 -28 -14 25 -15 25 7 -25 c4 -14 11 -27 15 -28 16 -6 -1 -21 -19
-16 -9 2 -7 -1 6 -7 12 -7 22 -16 22 -21 0 -5 -4 -6 -10 -3 -5 3 -10 -1 -10
-10 0 -9 4 -14 8 -11 10 6 9 -40 -1 -50 -4 -5 -5 -1 -2 8 4 9 2 18 -3 22 -5 3
-8 -5 -7 -16 1 -12 7 -24 13 -26 7 -2 12 -8 12 -14 0 -6 -7 -7 -15 -4 -12 4
-14 2 -6 -11 5 -10 5 -27 0 -42 -9 -25 -9 -25 7 -6 l17 20 -8 -20 c-4 -11 -9
-26 -12 -32 -3 -7 0 -13 6 -13 6 0 11 -5 11 -11 0 -6 -7 -9 -15 -5 -12 4 -13
2 -6 -13 7 -12 5 -27 -5 -47 l-14 -29 22 25 c22 25 22 23 0 -29 -3 -8 -1 -12
5 -8 5 3 10 -1 10 -9 0 -8 -6 -13 -13 -10 -8 3 -11 0 -7 -10 3 -7 10 -14 17
-14 6 0 3 -5 -7 -11 -13 -8 -15 -14 -8 -23 7 -8 6 -21 -4 -42 l-15 -29 22 25
c22 25 22 23 0 -29 -3 -8 -1 -12 5 -8 5 3 10 -1 10 -9 0 -8 -6 -13 -13 -10 -7
3 -10 -2 -7 -15 3 -10 9 -16 14 -14 10 7 4 -27 -10 -54 -8 -14 -8 -22 1 -27 6
-4 8 -3 5 3 -4 6 1 17 11 24 15 13 16 12 3 -3 -7 -10 -10 -18 -6 -18 4 0 2 -7
-5 -15 -10 -12 -9 -16 5 -21 14 -6 12 -10 -12 -26 -15 -11 -20 -18 -10 -14 20
6 21 2 6 -27 l-12 -22 24 20 c15 13 19 14 11 4 -17 -23 -23 -59 -10 -59 7 0 7
-4 -1 -13 -8 -11 -4 -13 21 -9 24 4 29 2 23 -9 -7 -11 -4 -10 11 1 10 8 23 20
27 25 5 6 7 3 3 -7 -3 -10 -1 -20 4 -23 6 -4 10 2 11 12 0 10 3 13 5 6 3 -7
12 -9 20 -6 8 3 22 -1 31 -8 9 -8 14 -9 10 -2 -9 14 9 21 40 15 14 -3 20 -9
16 -16 -4 -6 1 -5 10 3 9 7 17 10 17 5 0 -5 7 -1 14 9 12 16 14 16 20 2 4 -11
2 -14 -6 -9 -7 5 -8 3 -3 -6 6 -10 11 -9 22 5 7 11 13 14 13 8 0 -12 37 -6 57
9 7 6 17 1 27 -14 13 -18 16 -19 16 -5 0 14 5 16 28 11 15 -4 30 -12 34 -18 5
-7 8 -7 8 2 0 7 4 11 9 8 5 -4 12 0 14 6 3 7 6 4 6 -7 1 -15 4 -16 10 -7 4 7
14 14 22 15 8 2 20 6 27 10 7 5 14 2 18 -7 3 -8 12 -12 20 -9 8 3 22 -1 31 -8
9 -8 14 -9 10 -2 -9 14 9 21 40 15 14 -3 20 -9 16 -16 -4 -6 1 -5 10 3 9 7 17
10 17 5 0 -5 7 -1 14 9 12 16 14 16 20 2 4 -11 2 -14 -6 -9 -7 5 -8 3 -3 -6 6
-10 11 -9 22 5 7 11 13 14 13 8 0 -12 37 -6 57 9 7 6 17 1 27 -14 13 -18 16
-19 16 -5 0 14 5 16 28 11 15 -4 30 -12 34 -18 5 -7 8 -7 8 2 0 7 4 11 9 8 5
-4 12 0 14 6 3 7 6 4 6 -7 1 -15 4 -16 10 -7 4 7 14 14 22 15 8 2 20 6 27 10
7 5 14 2 18 -7 3 -8 12 -12 20 -9 8 3 22 -1 31 -8 9 -8 14 -9 10 -2 -9 14 9
21 40 15 14 -3 20 -9 16 -16 -4 -6 1 -5 10 3 9 7 17 10 17 5 0 -5 7 -1 14 9
12 16 14 16 20 2 4 -11 2 -14 -6 -9 -7 5 -8 3 -3 -6 6 -10 11 -9 22 5 7 11 13
14 13 8 0 -12 37 -6 57 9 7 6 17 1 27 -14 13 -18 16 -19 16 -5 0 14 5 16 28
11 15 -4 30 -12 34 -18 5 -7 8 -7 8 2 0 7 4 11 9 8 5 -4 12 0 14 6 3 7 6 4 6
-7 1 -15 4 -16 10 -7 4 7 14 14 22 15 8 2 20 6 27 10 7 5 14 2 18 -7 3 -8 12
-12 20 -9 8 3 22 -1 31 -8 9 -8 14 -9 10 -2 -9 14 9 21 40 15 14 -3 20 -9 16
-16 -4 -6 1 -5 10 3 9 7 17 10 17 5 0 -5 7 -1 14 9 12 16 14 16 20 2 4 -11 2
-14 -6 -9 -7 5 -8 3 -3 -6 6 -10 11 -9 22 5 7 11 13 14 13 8 0 -12 37 -6 57 9
7 6 17 1 27 -14 13 -18 16 -19 16 -5 0 14 5 16 28 11 15 -4 30 -12 34 -18 5
-7 8 -7 8 2 0 7 4 11 9 8 5 -4 12 0 14 6 3 8 6 5 6 -5 1 -17 2 -17 17 -3 8 9
19 14 24 11 5 -3 12 0 16 6 5 8 13 4 26 -12 11 -13 17 -18 13 -11 -7 14 17 16
31 2 6 -6 15 -5 24 1 12 9 12 10 -3 5 -11 -3 -16 -2 -12 4 7 11 53 3 72 -12 7
-6 19 -1 33 14 12 13 21 19 20 13 -7 -33 2 -37 20 -10 11 17 20 25 20 20 0 -6
-4 -15 -9 -20 -6 -6 -2 -10 13 -10 12 0 23 5 23 12 0 7 -4 10 -9 7 -4 -3 -5 2
-2 10 3 9 1 16 -6 16 -6 0 -8 5 -4 11 4 8 0 8 -15 0 -18 -10 -20 -9 -14 5 4
11 3 15 -5 10 -7 -4 -10 1 -7 14 3 17 1 19 -15 10 -16 -9 -18 -8 -14 5 8 20
-13 45 -40 46 -12 0 -15 3 -8 6 10 4 8 9 -7 20 -12 8 -18 19 -15 25 4 7 2 8
-5 4 -6 -4 -8 -13 -5 -19 3 -7 -5 0 -18 15 -14 15 -29 24 -34 20 -4 -4 -2 2 6
12 10 13 10 17 3 12 -8 -4 -13 -2 -13 4 0 7 -8 9 -22 4 -21 -6 -22 -5 -8 11
14 17 13 18 -2 12 -13 -4 -15 -2 -11 10 4 11 2 14 -5 9 -7 -4 -12 -2 -12 4 0
6 -5 8 -12 4 -8 -5 -9 -2 -5 10 4 9 3 15 -2 12 -5 -3 -11 3 -14 14 -4 14 -10
18 -23 13 -14 -5 -16 -3 -11 11 6 14 3 16 -15 10 -20 -6 -21 -5 -10 9 10 12
10 17 1 23 -8 4 -9 3 -5 -4 4 -7 2 -12 -3 -12 -11 0 -15 15 -12 34 1 5 -6 3
-15 -5 -10 -8 -15 -9 -11 -3 4 7 0 15 -9 18 -12 5 -13 10 -6 19 9 10 5 13 -19
11 -26 -2 -28 0 -17 14 11 13 10 15 -5 9 -11 -4 -16 -3 -12 3 3 6 1 10 -4 10
-6 0 -11 5 -11 11 0 5 5 7 12 3 6 -4 8 -3 5 4 -4 5 -18 9 -32 7 -21 -2 -23 0
-13 12 6 8 7 13 2 12 -22 -4 -34 2 -34 17 0 8 -4 13 -9 10 -5 -3 -12 1 -15 10
-3 8 -11 12 -17 8 -8 -4 -7 0 1 16 11 20 10 21 -11 10 -19 -11 -21 -10 -15 5
4 12 2 16 -8 12 -10 -4 -13 -1 -10 7 3 8 0 17 -7 22 -7 4 -10 3 -6 -3 3 -5 0
-10 -7 -10 -8 0 -12 8 -9 21 4 15 2 17 -5 8 -7 -11 -11 -10 -17 5 -5 10 -7 22
-6 26 1 5 -3 6 -9 2 -9 -6 -14 8 -11 28 1 4 -9 2 -21 -4 -22 -12 -22 -11 -8 6
14 17 14 18 -10 5 -14 -7 -22 -9 -17 -5 4 5 -1 18 -10 29 l-18 21 25 -20 25
-20 -19 23 c-11 12 -23 22 -27 22 -16 0 -59 43 -59 59 0 14 -1 14 -10 1 -8
-13 -10 -12 -10 3 0 10 -4 15 -10 12 -9 -6 -15 8 -11 29 1 5 -5 6 -14 3 -8 -4
-15 -2 -15 4 0 6 -5 7 -11 3 -7 -4 -6 2 2 17 11 22 11 23 -4 10 -11 -9 -17
-10 -17 -2 0 6 -6 11 -14 11 -8 0 -17 8 -21 18 -5 14 -4 15 6 5 7 -7 18 -13
23 -13 6 0 0 7 -12 16 -12 8 -27 12 -34 8 -7 -5 -9 -2 -6 8 5 11 0 14 -20 13
-15 -1 -38 2 -51 7 -19 7 -22 6 -13 -4 8 -10 3 -13 -23 -14 -20 0 -31 4 -28
10 4 6 -1 6 -13 1 -10 -4 -28 -7 -39 -7 -11 1 -23 -4 -28 -11 -6 -8 -7 -3 -4
11 6 23 5 24 -15 5 -12 -10 -18 -13 -15 -7 4 7 0 15 -9 18 -8 3 -13 2 -10 -3
10 -15 -27 -22 -41 -8 -16 16 -66 11 -56 -6 4 -6 1 -7 -8 -1 -24 15 -39 13
-40 -4 0 -14 -2 -14 -6 -2 -10 25 -27 30 -47 12 -18 -16 -19 -16 -13 3 7 20 7
20 -8 1 -8 -11 -15 -15 -15 -10 0 6 -11 10 -24 10 -14 0 -23 -3 -20 -7 2 -4
-1 -11 -7 -15 -7 -4 -9 -3 -6 2 3 6 2 16 -4 24 -5 10 -9 11 -9 3 0 -7 -7 -10
-17 -6 -10 4 -14 2 -10 -4 7 -11 -38 -12 -49 0 -11 10 -26 9 -19 -2 3 -5 0
-13 -6 -17 -8 -4 -9 -3 -5 4 3 6 -2 16 -13 22 -18 9 -20 8 -14 -7 5 -15 3 -16
-8 -5 -15 14 -33 16 -25 4 6 -11 -34 -9 -51 1 -8 5 -13 4 -13 -2 0 -6 -5 -11
-11 -11 -5 0 -7 5 -4 10 9 14 -8 12 -24 -2 -9 -8 -11 -8 -8 -2 9 15 -20 27
-29 12 -4 -7 -3 -8 4 -4 7 4 12 2 12 -3 0 -6 -10 -9 -22 -7 -13 3 -27 5 -31 5
-5 1 -5 7 -2 14 4 6 -1 3 -9 -7 -9 -11 -16 -15 -16 -10 0 5 -20 10 -44 10 -25
0 -42 -4 -40 -8 2 -3 -1 -10 -7 -14 -7 -4 -9 -3 -6 2 3 6 2 16 -4 24 -5 9 -9
10 -9 4z m730 -14 c0 -5 -5 -10 -11 -10 -5 0 -7 5 -4 10 3 6 8 10 11 10 2 0 4
-4 4 -10z m-915 -600 c3 -6 -1 -7 -9 -4 -18 7 -21 14 -7 14 6 0 13 -4 16 -10z
m1926 -73 c-10 -9 -11 -8 -5 6 3 10 9 15 12 12 3 -3 0 -11 -7 -18z m234 -198
c11 -16 1 -19 -13 -3 -7 8 -8 14 -3 14 5 0 13 -5 16 -11z m-1925 -105 c0 -8
-19 -13 -24 -6 -3 5 1 9 9 9 8 0 15 -2 15 -3z m240 0 c0 -8 -19 -13 -24 -6 -3
5 1 9 9 9 8 0 15 -2 15 -3z m240 0 c0 -8 -19 -13 -24 -6 -3 5 1 9 9 9 8 0 15
-2 15 -3z m240 0 c0 -8 -19 -13 -24 -6 -3 5 1 9 9 9 8 0 15 -2 15 -3z m240 0
c0 -8 -19 -13 -24 -6 -3 5 1 9 9 9 8 0 15 -2 15 -3z m240 0 c0 -8 -19 -13 -24
-6 -3 5 1 9 9 9 8 0 15 -2 15 -3z m240 0 c0 -8 -19 -13 -24 -6 -3 5 1 9 9 9 8
0 15 -2 15 -3z m240 0 c0 -8 -19 -13 -24 -6 -3 5 1 9 9 9 8 0 15 -2 15 -3z
m237 -11 c0 -9 -4 -10 -14 -2 -7 6 -13 12 -13 14 0 1 6 2 13 2 8 0 14 -6 14
-14z"/>
<path d="M4390 6535 c0 -7 30 -13 34 -7 3 4 -4 9 -15 9 -10 1 -19 0 -19 -2z"/>
<path d="M3187 6400 c3 -12 2 -13 -8 -2 -19 18 -34 15 -18 -5 13 -15 12 -15
-11 -3 -21 11 -23 11 -14 -1 9 -11 8 -17 -4 -29 -14 -13 -15 -12 -9 3 4 11 3
16 -3 12 -6 -3 -10 -13 -10 -21 0 -10 -5 -12 -12 -8 -9 5 -8 2 1 -9 12 -15 12
-17 -4 -11 -13 5 -16 4 -11 -4 10 -16 -6 -15 -24 1 -12 10 -12 9 -2 -4 10 -14
10 -20 -2 -32 -8 -8 -12 -18 -8 -21 3 -4 -1 -4 -10 -1 -17 7 -43 -26 -31 -38
3 -4 -4 -4 -17 -2 -19 4 -20 2 -8 -12 7 -9 8 -14 3 -11 -6 4 -22 -2 -35 -13
l-25 -20 25 5 c15 3 10 -1 -13 -12 -22 -10 -40 -26 -43 -39 -4 -13 -10 -23
-16 -23 -5 0 -6 5 -2 12 4 7 3 8 -4 4 -6 -4 -8 -14 -5 -23 5 -12 3 -14 -7 -8
-10 6 -12 4 -6 -10 5 -15 4 -16 -9 -5 -16 13 -19 8 -15 -24 1 -10 -2 -16 -7
-13 -11 7 -34 -19 -25 -28 4 -4 0 -5 -8 -3 -8 1 -18 8 -23 13 -4 6 -6 -1 -5
-15 2 -18 -2 -25 -14 -24 -10 1 -17 -1 -16 -5 0 -3 0 -15 -1 -26 -1 -15 -3
-17 -10 -7 -6 10 -10 8 -15 -10 -5 -19 -8 -21 -16 -8 -10 13 -11 13 -9 0 3
-28 -1 -41 -10 -36 -5 3 -11 -4 -14 -15 -4 -15 -11 -20 -23 -15 -15 6 -15 4
-3 -11 9 -11 10 -14 2 -9 -12 6 -17 -4 -15 -25 1 -4 -6 -6 -16 -5 -10 0 -16
-5 -14 -13 3 -12 0 -12 -12 -2 -16 14 -25 5 -21 -22 2 -9 -1 -15 -6 -11 -5 3
-13 -5 -18 -18 -11 -29 -37 -52 -50 -44 -6 4 -8 -2 -6 -14 3 -18 1 -19 -18 -8
-20 10 -21 10 -8 -5 11 -14 11 -17 0 -18 -8 -1 -17 -1 -21 0 -8 1 -11 -18 -9
-49 0 -10 -1 -11 -5 -2 -8 17 -27 15 -21 -2 4 -11 1 -13 -10 -9 -11 4 -14 2
-9 -5 4 -7 2 -12 -4 -12 -6 0 -8 -4 -5 -10 3 -5 -1 -10 -9 -10 -9 0 -16 -7
-16 -15 0 -13 -11 -19 -32 -16 -3 0 -5 -11 -3 -24 1 -13 -1 -23 -5 -20 -8 5
-110 -89 -110 -101 0 -5 5 -2 11 6 9 13 10 12 5 -2 -3 -10 -9 -25 -13 -35 -5
-12 -3 -14 8 -8 8 5 6 -1 -5 -13 -18 -21 -18 -21 4 -17 18 3 20 2 10 -10 -7
-8 -17 -12 -24 -9 -6 3 -4 0 4 -8 21 -18 27 -46 6 -29 -12 10 -14 9 -9 -8 3
-12 8 -19 12 -16 4 2 7 -14 7 -35 0 -21 -4 -36 -8 -34 -4 3 -8 0 -8 -5 0 -6 5
-11 12 -11 6 0 3 -7 -8 -16 -10 -8 -13 -13 -6 -9 7 4 12 0 12 -9 0 -9 6 -16
13 -17 6 0 2 -5 -10 -11 -13 -6 -23 -15 -23 -20 0 -5 4 -7 9 -3 5 3 12 1 16
-5 3 -5 1 -10 -4 -10 -6 0 -11 -5 -11 -11 0 -5 5 -7 10 -4 6 3 10 1 10 -4 0
-6 -4 -11 -10 -11 -5 0 -10 -5 -10 -11 0 -5 5 -7 12 -3 7 5 8 3 2 -7 -10 -17
-6 -52 8 -60 6 -4 1 -10 -11 -14 -11 -3 -21 -11 -21 -16 0 -6 4 -8 9 -4 5 3
12 1 16 -5 3 -5 1 -10 -4 -10 -6 0 -11 -5 -11 -11 0 -5 5 -7 10 -4 6 3 10 1
10 -4 0 -6 -4 -11 -10 -11 -5 0 -10 -5 -10 -11 0 -5 6 -7 13 -3 9 6 9 5 0 -7
-10 -12 -9 -20 4 -40 l16 -24 -28 25 -28 25 16 -24 c15 -23 15 -26 0 -45 -10
-12 -11 -15 -3 -8 8 6 21 12 30 11 10 0 11 -2 2 -6 -6 -2 -9 -10 -6 -15 4 -7
2 -8 -4 -4 -7 4 -12 2 -12 -3 0 -6 4 -11 8 -11 5 0 9 -7 9 -15 0 -11 -4 -12
-13 -4 -9 8 -11 5 -7 -10 3 -12 8 -19 12 -16 4 2 7 -14 7 -35 0 -21 -4 -36 -8
-34 -4 3 -8 1 -8 -5 0 -5 6 -12 13 -14 9 -4 8 -6 -2 -6 -11 -1 -11 -4 0 -18
12 -14 12 -16 0 -8 -11 6 -13 4 -8 -7 3 -9 1 -20 -5 -26 -8 -8 -4 -10 13 -6
13 2 19 2 13 -1 -6 -3 -10 -21 -8 -40 1 -19 -2 -35 -7 -35 -6 0 -7 5 -3 12 4
7 3 8 -4 4 -6 -4 -9 -13 -6 -21 4 -8 9 -13 13 -11 4 3 7 -8 6 -24 0 -15 -3
-26 -7 -23 -16 9 -7 -10 10 -23 16 -13 16 -14 0 -8 -12 4 -18 1 -18 -9 0 -9 8
-18 18 -20 16 -4 16 -5 0 -6 -20 -1 -25 -31 -5 -31 8 0 7 -4 -3 -10 -12 -8
-12 -10 -1 -10 11 0 11 -3 1 -15 -15 -18 1 -20 19 -2 11 10 11 8 2 -10 -15
-29 -14 -36 5 -29 8 3 12 2 9 -4 -3 -6 1 -20 9 -32 9 -12 16 -18 16 -12 0 5
-5 15 -10 20 -7 7 -6 11 4 11 8 0 15 -3 14 -6 -2 -19 4 -30 18 -35 14 -5 15
-4 4 9 -11 13 -10 14 4 9 9 -3 16 -11 16 -18 0 -6 5 -4 10 4 9 13 10 13 11 0
0 -10 3 -8 9 5 8 19 9 19 9 1 1 -16 3 -17 18 -5 13 11 17 11 20 2 7 -20 23
-15 17 5 -5 16 -5 16 6 0 11 -19 36 -26 25 -8 -3 6 -1 10 4 10 6 0 11 -6 12
-12 0 -7 4 -4 9 7 8 18 9 19 9 1 1 -11 6 -16 15 -13 7 3 19 0 25 -6 9 -9 11
-8 6 4 -4 10 0 16 9 16 8 0 14 -3 12 -6 -2 -3 9 -6 25 -7 15 -1 27 2 25 5 -2
3 19 5 47 5 29 -1 57 2 63 7 8 7 11 4 10 -7 0 -9 6 -19 14 -21 11 -3 11 -2 3
4 -9 6 -7 12 7 21 11 7 20 9 19 5 -3 -20 2 -34 11 -28 6 4 8 10 5 15 -3 5 9 7
27 6 17 -1 34 -8 36 -14 2 -7 8 -9 13 -6 6 3 5 12 -3 22 -12 14 -10 14 12 2
14 -7 25 -14 26 -14 0 -1 9 5 18 13 9 8 16 10 15 5 -4 -21 2 -35 11 -29 6 4 8
10 5 15 -3 5 9 7 27 6 17 -1 34 -8 36 -14 2 -7 8 -9 13 -6 6 3 5 12 -3 22 -12
14 -10 14 10 3 12 -7 20 -16 17 -21 -3 -6 1 -7 10 -3 14 5 14 8 3 15 -9 7 -8
8 7 5 11 -2 19 -9 17 -16 -1 -7 2 -10 8 -6 6 3 8 11 5 16 -4 5 -1 9 4 9 6 0
11 -4 11 -10 0 -5 5 -10 11 -10 5 0 7 6 3 13 -5 7 0 6 11 -3 14 -11 17 -12 11
-1 -6 9 -5 12 5 9 8 -3 13 -10 12 -16 -2 -6 4 -9 13 -5 11 4 12 8 4 13 -8 5
-5 9 8 12 16 4 19 2 15 -11 -4 -13 -3 -14 5 -1 7 9 7 19 2 25 -6 7 -4 19 5 33
14 19 14 22 -2 31 -17 10 -17 10 0 11 10 0 15 5 12 10 -4 6 -11 8 -16 5 -5 -4
-9 -1 -9 4 0 6 7 11 16 11 8 0 12 5 9 10 -4 6 -12 8 -18 4 -7 -3 -3 2 7 10 18
15 15 20 -9 17 -5 -1 -1 6 9 14 14 11 16 15 5 15 -12 0 -12 2 0 9 11 7 11 9 0
14 -12 5 -12 7 -1 15 11 7 10 11 -5 16 -17 7 -17 8 1 22 18 13 15 18 -9 15 -5
-1 -1 6 9 14 12 9 15 15 7 15 -11 0 -11 3 0 17 10 11 10 14 2 9 -16 -9 -17 6
-2 21 8 8 7 13 -2 18 -8 6 -10 4 -4 -5 6 -9 4 -11 -5 -5 -10 6 -9 11 5 22 18
12 14 17 -10 14 -5 -1 -1 6 9 14 14 11 16 15 5 15 -12 0 -12 2 0 9 11 7 11 9
0 14 -12 5 -12 7 -1 15 11 7 10 11 -5 16 -17 7 -17 8 1 22 18 13 15 18 -9 15
-5 -1 -1 6 9 14 14 11 16 15 5 15 -12 0 -12 2 0 9 11 7 11 10 0 15 -11 5 -12
7 -1 12 10 5 9 9 -4 18 -13 10 -14 15 -4 21 9 6 11 4 5 -5 -5 -8 -4 -11 2 -7
8 5 7 21 -3 53 -11 37 -11 44 -1 35 11 -8 13 -7 12 7 -1 9 -5 25 -9 35 -16 46
-17 50 -3 39 11 -9 13 -8 12 6 -1 9 -5 24 -8 32 -17 48 -18 53 -4 42 11 -9 13
-8 12 6 -1 9 -5 25 -9 35 -16 46 -17 50 -3 39 11 -9 13 -8 12 6 -1 9 -5 25 -9
35 -16 46 -17 50 -3 39 11 -9 13 -8 12 6 -1 9 -5 25 -9 35 -16 46 -17 50 -3
39 11 -9 13 -8 12 6 -1 9 -5 24 -8 32 -17 48 -18 53 -4 42 11 -9 13 -8 12 6
-1 9 -5 25 -9 35 -16 45 -17 50 -4 39 10 -8 13 -4 13 18 1 16 -2 27 -6 24 -4
-2 -9 7 -11 21 -4 19 -2 23 7 15 8 -7 12 -5 12 5 0 8 -5 15 -10 15 -6 0 -8 3
-5 6 4 3 2 19 -2 36 -7 23 -6 27 3 20 9 -8 12 -4 13 14 1 13 -2 24 -6 24 -4 0
-10 11 -12 25 -3 13 -2 22 3 20 4 -3 10 -1 14 5 3 5 1 10 -6 10 -8 0 -7 5 2
17 8 9 9 14 3 10 -7 -4 -14 3 -16 18 -3 13 -2 22 3 20 4 -3 10 -1 14 5 3 5 1
10 -6 10 -8 0 -7 5 2 17 8 9 9 14 3 10 -7 -4 -14 3 -16 18 -4 19 -2 23 7 15 8
-7 12 -5 12 5 0 8 -5 15 -10 15 -6 0 -8 3 -5 6 4 3 2 19 -2 36 -7 23 -6 27 3
20 9 -8 12 -3 12 18 1 16 -2 27 -6 24 -4 -2 -9 7 -11 21 -4 19 -2 23 7 15 8
-7 12 -5 12 5 0 8 -5 15 -10 15 -6 0 -8 3 -5 6 4 3 2 19 -2 36 -7 23 -6 27 3
19 10 -8 13 -4 12 15 0 14 -7 29 -15 34 -13 8 -12 10 3 10 10 0 15 5 12 10 -4
6 -12 8 -18 4 -7 -3 -3 2 7 10 18 15 15 20 -9 17 -5 -1 -2 5 8 13 14 10 15 15
5 19 -10 4 -9 6 2 6 13 1 13 2 0 11 -12 8 -13 12 -2 19 11 6 10 10 -5 15 -17
7 -17 8 1 22 18 12 15 19 -6 15 -5 0 -8 4 -8 9 0 6 6 10 14 10 14 0 16 23 3
36 -9 10 -9 26 1 21 4 -3 7 10 7 28 0 18 -3 31 -7 29 -3 -2 -8 -1 -11 3 -2 5
-2 1 0 -7z m-263 -268 c3 -5 -1 -9 -9 -9 -8 0 -12 4 -9 9 3 4 7 8 9 8 2 0 6
-4 9 -8z"/>
<path d="M3316 5767 c3 -10 9 -15 12 -12 3 3 0 11 -7 18 -10 9 -11 8 -5 -6z"/>
<path d="M2505 5720 c-4 -6 -11 -7 -17 -4 -7 4 -8 2 -4 -5 6 -9 11 -9 22 0 14
11 18 19 10 19 -3 0 -8 -5 -11 -10z"/>
<path d="M3705 5531 c-3 -5 -1 -12 5 -16 5 -3 10 1 10 9 0 18 -6 21 -15 7z"/>
<path d="M3905 5530 c-4 -6 -11 -7 -17 -4 -7 4 -8 2 -4 -4 7 -12 36 -5 36 9 0
12 -7 11 -15 -1z"/>
<path d="M4185 5531 c-3 -5 -1 -12 5 -16 5 -3 10 1 10 9 0 18 -6 21 -15 7z"/>
<path d="M4385 5530 c-4 -6 -11 -7 -17 -4 -7 4 -8 2 -4 -4 7 -12 36 -5 36 9 0
12 -7 11 -15 -1z"/>
<path d="M4665 5531 c-3 -5 -1 -12 5 -16 5 -3 10 1 10 9 0 18 -6 21 -15 7z"/>
<path d="M4865 5530 c-4 -6 -11 -7 -17 -4 -7 4 -8 2 -4 -4 7 -12 36 -5 36 9 0
12 -7 11 -15 -1z"/>
<path d="M5145 5531 c-3 -5 -1 -12 5 -16 5 -3 10 1 10 9 0 18 -6 21 -15 7z"/>
<path d="M5345 5530 c-4 -6 -11 -7 -17 -4 -7 4 -8 2 -4 -4 7 -12 36 -5 36 9 0
12 -7 11 -15 -1z"/>
<path d="M2245 5454 c-9 -15 -12 -23 -6 -20 11 7 35 46 28 46 -3 0 -12 -12
-22 -26z"/>
<path d="M4750 5390 c13 -24 12 -24 -5 -10 -11 9 -16 10 -11 3 4 -8 2 -13 -5
-13 -8 0 -8 -4 -1 -12 5 -8 6 -22 1 -33 -12 -32 -10 -38 9 -24 16 13 16 13 2
-5 -8 -11 -14 -27 -12 -38 2 -10 -3 -18 -10 -18 -9 0 -9 -3 -2 -8 14 -9 27
-45 14 -37 -6 3 -10 2 -10 -4 0 -5 5 -13 10 -16 6 -4 7 -13 1 -24 -6 -10 -6
-23 -1 -31 6 -10 4 -23 -6 -39 -9 -13 -12 -21 -6 -18 5 4 9 -18 10 -55 0 -43
-3 -57 -10 -47 -8 11 -9 10 -4 -4 3 -10 6 -21 6 -24 0 -3 8 1 18 8 14 11 13
10 -2 -9 -14 -16 -15 -22 -6 -22 9 0 7 -5 -6 -16 -10 -8 -14 -13 -8 -10 19 9
25 -22 8 -39 -9 -8 -11 -15 -5 -15 6 0 11 -9 11 -21 0 -11 -4 -17 -10 -14 -6
3 -7 -1 -4 -10 5 -13 9 -13 23 -3 11 8 10 5 -3 -10 -14 -16 -15 -22 -6 -22 9
0 7 -5 -6 -16 -10 -8 -14 -13 -8 -10 19 9 25 -22 8 -39 -9 -8 -11 -15 -6 -15
6 0 10 -16 10 -35 0 -20 -5 -35 -11 -35 -8 0 -9 -3 -1 -8 14 -9 27 -45 14 -37
-6 3 -10 2 -10 -4 0 -5 5 -13 10 -16 6 -4 7 -13 1 -24 -6 -10 -6 -23 -1 -31 6
-10 4 -23 -6 -39 -9 -13 -12 -21 -6 -18 5 4 9 -18 10 -55 0 -43 -3 -57 -10
-47 -8 11 -9 10 -4 -4 3 -10 6 -21 6 -24 0 -3 8 1 18 8 14 11 13 10 -2 -9 -14
-16 -15 -22 -6 -22 9 0 7 -5 -6 -16 -10 -8 -14 -13 -8 -10 19 9 25 -22 8 -39
-9 -8 -11 -15 -5 -15 6 0 11 -9 11 -21 0 -11 -4 -17 -10 -14 -6 3 -7 -1 -4
-10 5 -13 9 -13 23 -3 11 8 10 5 -3 -10 -14 -16 -15 -22 -6 -22 9 0 7 -5 -6
-16 -10 -8 -14 -13 -8 -10 19 9 25 -22 8 -39 -9 -8 -11 -15 -5 -15 6 0 11 -7
11 -15 0 -8 -6 -15 -12 -15 -10 0 -10 -2 -1 -8 7 -5 11 -24 10 -45 -2 -20 0
-42 4 -49 4 -6 3 -22 -1 -34 -6 -15 -5 -26 1 -30 6 -4 4 -15 -6 -31 -10 -14
-13 -23 -7 -20 5 4 9 -18 10 -55 0 -43 -3 -57 -10 -47 -8 11 -9 10 -4 -4 3
-10 6 -21 6 -24 0 -3 8 1 18 8 14 11 13 10 -2 -9 -14 -16 -15 -22 -6 -22 9 0
7 -5 -6 -16 -10 -8 -14 -13 -8 -10 19 9 25 -22 8 -39 -9 -8 -11 -15 -5 -15 6
0 11 -9 11 -21 0 -11 -4 -17 -10 -14 -6 3 -7 -1 -4 -10 5 -13 9 -13 23 -3 11
8 10 5 -3 -10 -14 -16 -15 -22 -6 -22 9 0 7 -5 -6 -16 -10 -8 -14 -13 -8 -10
19 9 25 -22 8 -39 -9 -8 -11 -15 -6 -15 6 0 10 -16 10 -35 0 -20 -5 -35 -11
-35 -9 0 -9 -2 0 -8 7 -4 12 -16 12 -27 1 -11 1 -27 2 -35 1 -25 -8 -76 -16
-91 -8 -12 -6 -12 8 -1 14 12 15 11 8 -15 -7 -24 -5 -29 10 -30 10 -1 21 3 24
8 4 5 11 6 17 3 7 -4 8 -2 4 5 -6 9 -11 9 -21 1 -10 -8 -15 -8 -21 1 -4 7 -3
9 3 6 13 -8 76 50 68 63 -3 5 -2 10 4 10 5 0 13 -5 16 -10 4 -6 11 -8 16 -4 6
4 6 11 -2 20 -10 12 -9 13 5 8 12 -4 15 -2 10 9 -3 8 0 18 7 23 8 5 10 3 4 -7
-7 -11 -6 -12 7 -2 8 7 18 10 21 6 4 -3 7 -1 7 5 0 5 -6 13 -12 15 -10 4 -10
6 0 6 8 1 10 6 6 14 -5 7 0 6 11 -3 11 -9 16 -10 11 -2 -5 8 -1 12 11 12 15 0
16 2 3 10 -14 9 -13 11 10 14 15 2 40 42 32 52 -4 5 2 2 13 -6 11 -8 17 -11
13 -6 -4 4 4 19 18 33 14 14 21 29 17 36 -4 7 1 6 11 -2 9 -8 16 -10 15 -5 -4
22 2 35 13 28 8 -5 9 -2 5 10 -6 14 -3 17 8 12 9 -3 13 -2 10 4 -3 6 1 20 9
32 9 12 16 18 16 12 0 -5 -5 -15 -12 -22 -9 -9 -9 -12 -1 -12 7 0 15 9 18 20
3 11 13 20 20 20 8 0 17 5 21 12 5 7 3 8 -5 3 -10 -6 -11 -3 -2 12 6 11 7 23
3 27 -3 4 2 4 12 0 15 -6 17 -4 11 7 -7 11 -5 11 10 -1 17 -14 18 -14 6 7 -9
19 -9 22 3 17 8 -3 23 3 32 15 10 11 22 17 27 14 5 -3 3 5 -4 18 -11 21 -11
23 3 11 13 -10 18 -10 24 -1 4 8 3 9 -4 5 -7 -4 -12 -3 -12 2 0 6 11 13 25 16
14 4 23 10 20 15 -2 5 4 20 16 32 11 13 17 18 13 10 -5 -9 -3 -12 4 -7 7 4 12
14 12 23 0 13 3 13 15 3 13 -11 14 -10 10 2 -4 9 1 22 9 31 8 8 12 18 8 23 -4
5 1 2 11 -5 15 -12 17 -12 11 4 -5 12 -4 16 3 12 6 -4 13 0 16 8 4 10 1 12
-11 9 -15 -5 -15 -4 1 6 9 6 21 9 26 6 12 -8 33 19 23 29 -4 5 1 5 10 2 10 -3
20 -2 23 4 4 5 3 8 -2 7 -4 -2 -8 2 -8 7 0 6 5 9 12 9 6 -1 10 7 8 17 -3 13 1
16 12 12 11 -4 14 -2 9 5 -4 7 -2 12 4 12 7 0 9 7 6 16 -3 8 -2 12 4 9 5 -3
23 9 41 27 17 18 27 27 23 19 -4 -9 -3 -12 4 -7 6 3 9 16 7 27 -3 16 -1 18 9
10 10 -8 16 -8 25 3 8 10 9 16 1 21 -6 3 -8 11 -4 16 4 6 11 5 20 -2 9 -7 14
-8 13 -3 -3 19 1 35 9 30 4 -2 9 5 9 17 2 17 0 18 -7 7 -7 -11 -9 -10 -7 8 1
12 6 21 12 18 7 -2 12 2 12 10 0 7 -4 11 -8 9 -4 -3 -10 2 -13 11 -4 11 -2 15
8 11 10 -4 13 -1 9 8 -3 8 -10 12 -17 8 -6 -4 -6 0 2 9 8 10 9 19 3 22 -10 7
-9 25 2 44 5 6 5 12 0 12 -4 0 -1 5 7 10 13 8 13 10 -2 10 -9 0 -20 5 -23 10
-4 6 -1 9 6 8 6 -2 14 3 17 11 2 8 0 11 -5 8 -5 -3 -9 5 -9 19 0 14 5 23 11
20 7 -2 12 2 12 10 0 7 -4 11 -8 9 -4 -3 -10 2 -13 11 -4 11 -2 15 8 11 10 -4
13 -1 9 8 -3 8 -10 12 -17 8 -6 -4 -6 0 2 9 8 10 9 19 3 22 -10 7 -9 25 2 44
5 6 5 12 0 12 -4 0 -1 5 7 10 13 8 13 10 -2 10 -9 0 -20 5 -23 10 -4 6 -1 9 6
8 6 -2 14 3 17 11 2 8 0 11 -5 8 -5 -3 -9 5 -9 19 0 14 5 23 11 20 7 -2 12 2
12 10 0 7 -4 11 -8 9 -4 -3 -10 2 -13 11 -4 11 -2 15 8 11 10 -4 13 -1 9 8 -3
8 -10 12 -17 8 -6 -4 -6 0 2 9 8 10 9 19 3 22 -10 6 -9 31 1 42 4 3 4 13 1 22
-4 10 -2 13 5 8 15 -9 3 26 -12 36 -7 5 -7 8 2 8 6 0 12 5 12 11 0 5 -6 7 -12
3 -10 -6 -10 -5 -1 8 7 8 10 18 6 22 -10 10 -13 37 -3 31 4 -3 11 2 14 11 3 8
2 12 -4 9 -6 -3 -10 -2 -10 4 0 5 6 12 13 14 11 5 -18 11 -36 8 -5 -1 -6 3 -2
9 3 6 9 8 13 6 4 -2 16 3 27 11 19 15 19 15 -4 8 -18 -6 -22 -4 -15 6 12 19
12 62 -1 71 -6 5 -5 8 3 8 6 0 12 5 12 11 0 5 -6 7 -12 3 -10 -6 -10 -5 -1 8
7 8 10 18 6 22 -10 10 -13 37 -3 31 4 -3 11 2 14 11 3 8 2 12 -4 9 -6 -3 -10
1 -10 9 0 9 -4 16 -10 16 -5 0 -10 5 -10 12 0 6 10 3 21 -8 22 -19 22 -19 12
1 -5 11 -9 34 -9 51 1 24 -2 30 -13 26 -9 -3 -12 -1 -7 6 4 7 2 12 -5 12 -8 0
-7 5 2 17 13 15 12 15 -8 4 -17 -9 -23 -9 -23 0 0 6 -10 20 -22 30 -24 22 -35
25 -20 7 8 -10 4 -13 -15 -15 -19 -1 -22 1 -12 8 10 6 7 9 -13 9 -15 0 -29 -4
-32 -8 -8 -13 -42 -8 -62 9 -11 9 -15 9 -10 2 10 -18 -4 -16 -26 3 -13 13 -21
14 -31 6 -7 -7 -24 -10 -36 -7 -16 3 -21 0 -18 -9 3 -7 -1 -13 -9 -13 -8 0
-13 6 -10 13 5 12 -12 10 -39 -5 -15 -8 -45 -8 -45 0 0 4 6 9 13 12 6 2 0 4
-15 3 -14 0 -24 -4 -21 -8 8 -14 -10 -8 -29 8 -13 13 -21 14 -31 6 -7 -7 -24
-10 -36 -7 -16 3 -21 0 -18 -9 3 -7 -1 -13 -9 -13 -8 0 -13 6 -10 13 5 12 -12
10 -39 -5 -15 -8 -45 -8 -45 0 0 4 6 9 13 12 6 2 0 4 -15 3 -14 0 -24 -4 -21
-8 8 -14 -10 -8 -29 8 -13 13 -21 14 -31 6 -7 -7 -24 -10 -36 -7 -18 3 -21 1
-17 -12 5 -13 4 -14 -9 -3 -8 7 -12 17 -8 23 4 6 1 7 -8 1 -8 -5 -25 -10 -38
-12 -14 -2 -34 -8 -45 -14 -19 -10 -19 -9 -8 4 10 13 10 18 1 24 -8 4 -9 3 -5
-4 10 -16 -7 -15 -23 1 -11 10 -11 8 -1 -13z m226 -8 c1 -7 0 -8 -2 -3 -3 6
-12 7 -21 4 -11 -4 -14 -3 -9 6 9 14 29 10 32 -7z m240 0 c1 -7 0 -8 -2 -3 -3
6 -12 7 -21 4 -11 -4 -14 -3 -9 6 9 14 29 10 32 -7z m240 0 c1 -7 0 -8 -2 -3
-3 6 -12 7 -21 4 -11 -4 -14 -3 -9 6 9 14 29 10 32 -7z m-591 -1 c-9 -8 -36
-10 -30 -2 2 4 11 8 20 8 8 0 13 -3 10 -6z m625 -1495 c0 -3 -4 -8 -10 -11 -5
-3 -10 -1 -10 4 0 6 5 11 10 11 6 0 10 -2 10 -4z"/>
<path d="M5066 5394 c-5 -14 -4 -15 9 -4 17 14 19 20 6 20 -5 0 -12 -7 -15
-16z"/>
<path d="M5306 5394 c-5 -14 -4 -15 9 -4 17 14 19 20 6 20 -5 0 -12 -7 -15
-16z"/>
<path d="M5545 5399 c-11 -16 -1 -19 13 -3 7 8 8 14 3 14 -5 0 -13 -5 -16 -11z"/>
<path d="M5510 5389 c0 -5 5 -7 10 -4 6 3 10 8 10 11 0 2 -4 4 -10 4 -5 0 -10
-5 -10 -11z"/>
<path d="M2183 4483 c4 -3 1 -13 -6 -22 -11 -14 -10 -14 6 -2 20 15 22 31 5
31 -6 0 -8 -3 -5 -7z"/>
<path d="M2866 4132 c-3 -5 1 -9 9 -9 8 0 12 4 9 9 -3 4 -7 8 -9 8 -2 0 -6 -4
-9 -8z"/>
<path d="M2298 3998 c-7 -17 39 -68 60 -68 7 0 12 -4 12 -9 0 -5 9 -13 21 -16
15 -5 17 -10 10 -19 -11 -14 -5 -26 13 -26 6 0 5 4 -2 9 -11 7 -11 9 2 14 13
5 16 -1 17 -26 0 -27 2 -29 9 -12 7 17 9 17 9 3 1 -10 6 -18 12 -18 5 0 7 -4
4 -10 -3 -5 -2 -10 4 -10 5 0 12 6 15 13 4 6 4 2 2 -11 -4 -20 -2 -21 12 -10
9 7 13 8 10 3 -4 -6 -2 -17 3 -25 8 -13 10 -13 20 0 8 12 9 10 4 -9 -5 -18 -4
-22 6 -16 8 6 11 4 7 -7 -5 -11 0 -14 17 -12 17 1 22 -2 18 -13 -4 -9 2 -16
15 -20 14 -3 19 -10 15 -21 -4 -10 -2 -13 5 -8 7 4 12 4 12 -1 0 -4 14 -16 31
-26 19 -11 29 -23 26 -32 -4 -9 -1 -12 9 -8 8 3 14 -1 14 -10 0 -13 26 -32 41
-29 4 1 6 -9 5 -21 -1 -17 4 -21 22 -19 14 2 22 -2 22 -12 0 -8 5 -18 12 -22
7 -5 8 -3 3 6 -6 9 -4 11 4 6 7 -5 10 -14 7 -22 -3 -8 -1 -13 3 -11 5 1 21
-11 36 -28 15 -16 24 -23 19 -15 -7 13 -5 13 9 1 9 -7 15 -17 12 -21 -3 -5 0
-12 6 -16 8 -4 9 -3 5 4 -4 7 -2 12 3 12 6 0 11 -9 11 -20 0 -11 7 -20 16 -20
8 0 12 -4 9 -10 -3 -5 3 -10 15 -10 12 0 18 -4 15 -10 -6 -10 9 -15 30 -10 5
1 1 -8 -10 -20 -11 -12 -15 -21 -10 -20 22 5 36 -1 29 -12 -5 -7 -3 -8 6 -3
10 6 9 11 -5 22 -11 7 -14 13 -9 13 15 0 54 -48 55 -68 0 -14 2 -14 9 3 8 19
9 19 9 -3 1 -15 5 -21 13 -16 8 5 9 2 5 -9 -3 -9 -1 -19 5 -23 6 -4 8 -3 4 4
-3 6 -2 13 4 17 5 3 10 -1 10 -10 0 -10 5 -13 13 -9 7 5 6 0 -3 -11 -8 -10 -9
-16 -3 -11 19 11 50 -11 58 -41 5 -21 8 -24 16 -12 6 10 9 10 10 2 3 -28 4
-32 13 -40 5 -5 6 -3 2 5 -4 6 -2 12 3 12 6 0 11 -7 11 -16 0 -8 5 -12 10 -9
6 3 10 -1 10 -9 0 -9 7 -16 16 -16 11 0 14 -5 10 -16 -4 -12 -2 -15 9 -10 13
5 19 -5 16 -26 -1 -8 34 -3 50 8 6 3 15 0 20 -7 6 -10 9 -11 9 -1 0 6 7 12 16
12 14 0 15 -2 3 -17 -13 -15 -12 -15 8 -3 12 8 19 19 17 25 -3 5 2 1 10 -9 14
-17 16 -18 16 -3 0 23 9 21 39 -5 14 -13 20 -16 14 -8 -20 22 -16 28 15 23 32
-5 37 -5 79 0 22 2 29 0 23 -8 -6 -7 -3 -11 10 -11 10 0 16 4 14 8 -8 13 11 9
25 -4 11 -11 12 -10 6 1 -6 11 -4 13 8 8 10 -4 17 -1 17 5 0 7 7 3 16 -8 8
-10 13 -14 10 -8 -3 7 1 15 10 18 8 3 12 2 9 -4 -11 -18 14 -10 25 8 11 16 11
16 6 0 -3 -10 -1 -20 4 -23 6 -4 10 1 10 9 0 9 4 16 10 16 5 0 7 -7 3 -16 -5
-14 -3 -15 17 -4 18 10 24 9 31 -1 6 -10 9 -11 9 -1 0 6 7 12 16 12 14 0 15
-2 3 -17 -13 -15 -12 -15 8 -3 12 8 19 19 17 25 -3 5 2 1 10 -9 14 -17 16 -18
16 -3 0 23 9 21 39 -5 14 -13 20 -16 14 -8 -20 22 -16 28 15 23 32 -5 37 -5
79 0 22 2 29 0 23 -8 -6 -7 -3 -11 10 -11 10 0 16 4 14 8 -8 13 11 9 25 -4 11
-11 12 -10 6 1 -6 11 -4 13 8 8 10 -4 17 -1 17 5 0 7 7 3 16 -8 8 -10 13 -14
10 -8 -3 7 1 15 10 18 8 3 12 2 9 -4 -11 -18 14 -10 25 8 11 16 11 16 6 0 -3
-10 -1 -20 4 -23 6 -4 10 1 10 9 0 9 4 16 10 16 5 0 7 -8 4 -17 -5 -15 -2 -14
13 3 l18 21 16 -20 c12 -16 17 -18 24 -7 5 9 4 11 -3 6 -8 -5 -10 -1 -5 10 5
15 7 15 15 0 5 -9 14 -16 19 -16 6 0 8 4 5 9 -7 11 21 8 31 -4 4 -4 2 -5 -6 0
-9 5 -12 4 -7 -3 6 -11 37 -9 57 4 6 3 16 0 21 -7 7 -11 8 -9 4 5 -5 13 -2 17
9 12 8 -3 15 0 15 7 0 7 10 23 21 37 11 14 18 19 14 13 -3 -7 -2 -13 3 -13 5
0 12 9 15 20 3 11 2 18 -2 15 -4 -2 -8 2 -8 9 0 8 7 12 15 8 11 -4 13 -1 7 7
-4 8 -2 17 6 23 11 8 10 9 -3 4 -21 -6 -22 1 -4 35 11 21 11 26 0 26 -7 0 -11
-4 -8 -9 3 -4 0 -8 -6 -8 -7 0 -9 7 -6 16 3 9 6 18 6 20 0 3 4 3 8 0 4 -2 6
11 4 31 -3 25 -1 34 7 29 7 -5 8 -1 4 10 -4 11 -8 13 -11 6 -2 -7 -8 -12 -13
-12 -6 0 -5 8 1 20 6 11 15 18 20 15 6 -4 7 2 3 11 -4 11 -8 13 -11 6 -6 -19
-18 -14 -18 7 0 11 4 17 8 15 4 -3 8 7 8 23 0 23 -2 25 -11 13 -9 -12 -10 -12
-5 3 3 10 6 21 6 24 0 3 8 -1 18 -8 16 -13 16 -12 3 4 -12 15 -12 20 -2 27 7
4 9 9 3 11 -5 2 -13 15 -17 29 -7 23 -7 24 11 10 15 -11 16 -11 7 0 -7 8 -13
28 -13 45 0 24 -2 27 -11 15 -9 -12 -10 -12 -5 3 3 10 6 21 6 24 0 3 8 -1 18
-8 16 -13 16 -12 3 4 -13 16 -13 20 0 28 8 5 9 9 3 9 -14 0 -25 36 -17 56 3 8
10 11 15 8 6 -4 5 2 -1 14 -14 26 -14 35 -1 27 6 -4 7 1 3 11 -4 11 -8 13 -11
6 -2 -7 -8 -12 -13 -12 -6 0 -6 8 1 19 5 11 10 30 10 43 0 18 2 20 10 8 14
-22 12 -6 -3 24 -8 14 -17 23 -21 19 -4 -4 -4 0 0 10 5 15 9 15 23 5 14 -11
14 -11 5 2 -20 27 -23 59 -7 69 13 7 13 9 -2 15 -14 5 -15 9 -5 21 7 9 10 18
6 22 -3 3 -6 1 -6 -5 0 -7 -4 -12 -10 -12 -5 0 -7 6 -4 14 3 8 0 17 -7 22 -8
4 -10 3 -5 -4 4 -7 3 -12 -3 -12 -5 0 -13 5 -16 10 -4 6 -13 7 -23 1 -11 -6
-24 -6 -35 0 -12 7 -17 6 -17 -2 0 -8 -4 -8 -15 1 -12 10 -15 10 -15 -1 0 -11
-2 -11 -10 1 -8 12 -10 12 -10 1 0 -11 -3 -11 -15 -1 -12 10 -15 10 -15 0 0
-10 -3 -10 -15 0 -12 10 -15 10 -15 -1 0 -11 -2 -11 -10 1 -5 8 -10 10 -10 4
0 -13 -42 -13 -52 1 -5 6 -8 4 -8 -5 0 -13 -1 -13 -10 0 -8 12 -10 12 -10 1 0
-11 -3 -11 -15 -1 -11 9 -15 9 -15 1 0 -7 -5 -9 -12 -5 -18 12 -48 12 -55 1
-3 -5 -9 -3 -14 4 -7 12 -9 12 -9 0 0 -11 -3 -11 -15 -1 -12 10 -15 10 -15 0
0 -8 -4 -9 -12 -3 -14 10 -55 10 -65 0 -3 -4 -14 -2 -24 4 -14 7 -19 6 -19 -2
0 -8 -4 -8 -15 1 -12 10 -15 10 -15 -1 0 -11 -2 -11 -10 1 -8 12 -10 12 -10 1
0 -11 -3 -11 -15 -1 -12 10 -15 10 -15 0 0 -10 -3 -10 -15 0 -12 10 -15 10
-15 -1 0 -11 -2 -11 -10 1 -5 8 -10 10 -10 4 0 -13 -42 -13 -52 1 -5 6 -8 5
-8 -4 0 -9 -4 -10 -12 -5 -16 11 -39 11 -55 1 -8 -5 -13 -3 -13 4 0 9 -3 9
-14 0 -11 -9 -15 -9 -19 1 -4 11 -6 10 -6 0 -1 -8 -6 -10 -13 -6 -18 11 -48
12 -54 2 -3 -5 -12 -4 -20 3 -11 9 -14 9 -14 -1 0 -9 -3 -10 -13 -1 -10 8 -17
7 -25 -1 -9 -9 -12 -9 -12 0 0 10 -5 10 -20 2 -15 -8 -20 -8 -20 2 0 10 -2 10
-9 -1 -5 -7 -11 -9 -14 -4 -7 11 -37 11 -55 -1 -7 -4 -12 -2 -12 5 0 8 -4 8
-15 -1 -12 -10 -15 -10 -15 1 0 12 -2 12 -9 0 -5 -7 -11 -9 -14 -4 -7 11 -37
11 -55 -1 -7 -4 -12 -2 -12 5 0 8 -4 8 -15 -1 -11 -9 -15 -9 -15 -1 0 9 -5 9
-21 0 -15 -8 -19 -8 -15 0 5 8 0 8 -18 1 -19 -7 -26 -6 -26 3 0 9 -3 8 -9 -1
-4 -8 -12 -14 -16 -14 -4 0 -12 6 -16 14 -8 11 -10 11 -18 -1 -5 -7 -11 -9
-14 -4 -7 11 -37 11 -55 -1 -7 -4 -12 -2 -12 6 0 9 -3 9 -10 -2 -8 -12 -10
-12 -10 -1 0 10 -3 11 -13 2 -10 -8 -17 -7 -27 2 -10 10 -11 9 -5 -3 8 -13 7
-13 -8 -1 -13 10 -17 10 -17 1 0 -9 -3 -10 -13 -1 -10 8 -17 7 -25 -1 -9 -9
-12 -9 -12 0 0 10 -5 10 -20 2 -14 -8 -20 -8 -20 0 0 7 -6 8 -18 1 -11 -6 -24
-6 -32 -1 -9 5 -19 5 -27 -2 -9 -7 -13 -7 -13 2 0 10 -3 10 -15 0 -11 -9 -15
-9 -15 -1 0 8 -6 9 -18 2 -11 -6 -24 -6 -34 0 -11 6 -19 5 -23 -1 -5 -8 -11
-7 -21 1 -11 9 -14 9 -14 -1 0 -10 -3 -10 -14 -1 -10 9 -16 9 -21 1 -5 -8 -11
-8 -21 1 -11 9 -14 9 -14 -1 0 -10 -3 -10 -15 0 -11 9 -15 9 -15 1 0 -7 -5 -9
-12 -4 -18 10 -70 10 -85 -1 -9 -5 -13 -4 -13 4 0 10 -3 10 -14 1 -8 -7 -17
-8 -20 -3 -6 10 -36 9 -53 -1 -6 -4 -13 -2 -15 5 -3 8 -6 7 -10 -4z m46 -45
c8 -19 2 -16 -25 13 -23 25 -23 26 -2 13 13 -7 25 -19 27 -26z m2239 -148 c-7
-21 -12 -19 -10 4 0 11 5 18 9 15 4 -3 5 -11 1 -19z m7 -106 c0 -5 -4 -9 -8
-9 -5 0 -9 7 -9 15 0 8 4 12 9 9 4 -3 8 -9 8 -15z m-5 -78 c3 -5 2 -12 -3 -15
-5 -3 -9 1 -9 9 0 17 3 19 12 6z m-1795 -75 c0 -2 -7 -7 -16 -10 -8 -3 -12 -2
-9 4 6 10 25 14 25 6z m1795 -85 c3 -5 2 -12 -3 -15 -5 -3 -9 1 -9 9 0 17 3
19 12 6z m-1226 -448 c-6 -7 -15 -10 -20 -7 -13 8 -3 21 15 21 12 0 13 -4 5
-14z"/>
<path d="M2656 3632 c-3 -5 1 -9 9 -9 8 0 12 4 9 9 -3 4 -7 8 -9 8 -2 0 -6 -4
-9 -8z"/>
<path d="M4545 3040 c-3 -6 1 -7 9 -4 18 7 21 14 7 14 -6 0 -13 -4 -16 -10z"/>
<path d="M3596 3002 c-3 -5 1 -9 9 -9 8 0 12 4 9 9 -3 4 -7 8 -9 8 -2 0 -6 -4
-9 -8z"/>
<path d="M4076 3002 c-3 -5 1 -9 9 -9 8 0 12 4 9 9 -3 4 -7 8 -9 8 -2 0 -6 -4
-9 -8z"/>
<path d="M5208 2606 c-10 -7 -17 -15 -15 -17 1 -2 -2 -1 -7 3 -5 4 -15 0 -21
-9 -10 -13 -14 -13 -20 -3 -6 9 -4 11 6 5 8 -5 11 -4 6 0 -4 5 -18 10 -30 12
-13 2 -17 0 -10 -5 9 -5 6 -11 -8 -21 -15 -9 -19 -9 -14 0 5 7 3 10 -6 7 -8
-3 -13 -11 -11 -18 2 -10 -1 -10 -14 1 -16 12 -17 12 -11 -3 4 -11 2 -17 -6
-15 -7 1 -11 -4 -9 -11 2 -10 -2 -10 -20 -1 -13 6 -19 8 -15 3 4 -4 -3 -14
-15 -21 l-23 -14 23 7 c23 6 24 6 5 -13 -12 -13 -21 -16 -26 -9 -5 7 -7 2 -4
-11 4 -18 1 -23 -16 -23 -12 0 -17 -4 -12 -8 6 -4 10 -13 9 -19 -1 -7 -2 -17
-3 -23 0 -5 -6 -10 -12 -10 -8 0 -8 4 0 14 8 10 9 16 1 21 -6 4 -10 3 -9 -2 1
-4 0 -10 -1 -13 -1 -3 -3 -22 -4 -42 -2 -21 -8 -44 -15 -52 -8 -10 -9 -16 -1
-21 5 -3 8 -19 5 -36 -3 -17 -1 -29 5 -29 6 0 8 5 4 12 -5 7 -3 8 6 3 10 -6
10 -11 -4 -20 -16 -12 -17 -48 -1 -62 4 -5 5 -1 0 7 -5 9 -5 12 1 7 12 -12 12
-50 -1 -59 -6 -5 -6 -8 3 -8 7 0 12 -13 12 -30 0 -22 5 -30 18 -30 14 0 15 -2
2 -10 -13 -8 -12 -10 3 -10 9 0 17 -7 17 -15 0 -8 -5 -15 -12 -15 -6 0 -8 -3
-5 -6 4 -4 12 -2 20 4 10 8 13 6 14 -10 1 -12 9 -26 18 -30 8 -5 12 -15 8 -21
-4 -7 0 -6 10 2 15 12 21 9 18 -11 0 -4 5 -5 13 -2 8 3 17 0 22 -7 5 -8 3 -10
-7 -4 -8 5 -11 4 -6 -1 5 -5 12 -9 15 -9 4 0 13 -4 21 -9 11 -7 13 -5 7 9 -7
18 -6 18 13 1 12 -11 21 -14 26 -7 4 8 13 6 28 -4 23 -16 41 -20 34 -7 -3 4 6
8 19 8 23 2 24 1 7 -12 -17 -13 -17 -14 2 -7 11 3 25 10 32 15 7 6 14 4 19 -3
4 -8 3 -9 -4 -5 -7 4 -12 2 -12 -3 0 -14 13 -14 27 0 5 5 25 12 44 14 21 3 29
1 21 -4 -10 -6 -9 -10 7 -14 12 -3 24 0 28 5 4 7 1 8 -7 3 -9 -6 -11 -4 -5 5
6 10 11 9 21 -4 9 -13 13 -14 17 -4 4 11 8 11 27 0 12 -8 19 -9 15 -3 -3 6 1
11 9 11 9 0 16 -6 16 -12 0 -10 2 -10 9 0 4 8 22 15 39 16 17 1 29 -2 26 -6
-8 -12 10 -10 23 3 8 8 13 7 18 -2 5 -8 4 -10 -3 -5 -7 4 -12 2 -12 -3 0 -14
13 -14 27 0 5 5 25 12 44 14 21 3 29 1 21 -4 -10 -6 -9 -10 7 -14 12 -3 24 0
28 5 4 7 1 8 -7 3 -9 -6 -11 -4 -6 4 6 9 12 8 26 -4 12 -11 20 -13 25 -6 3 6
11 11 16 11 6 0 7 -4 4 -10 -5 -8 14 -14 36 -12 4 1 5 -8 2 -18 -4 -15 0 -20
13 -21 18 0 18 -1 -1 -9 -11 -5 -14 -9 -6 -9 11 -1 11 -4 0 -18 -8 -9 -9 -14
-3 -10 7 4 15 0 18 -9 4 -10 2 -13 -6 -8 -7 5 -9 2 -5 -8 3 -9 -1 -27 -8 -42
-13 -24 -12 -25 3 -17 14 7 18 5 18 -10 0 -11 -5 -18 -12 -15 -14 5 -13 -36 1
-47 6 -5 1 -7 -11 -4 -18 4 -21 1 -17 -17 4 -18 3 -19 -7 -6 -10 12 -11 11 -7
-8 4 -18 3 -21 -8 -12 -9 8 -15 8 -20 0 -3 -5 -11 -10 -16 -10 -6 0 -7 6 -3
13 6 9 4 9 -7 1 -9 -7 -125 -10 -357 -10 -288 1 -342 -1 -337 -12 4 -10 0 -12
-11 -8 -15 6 -15 4 -3 -11 9 -11 10 -14 2 -9 -8 4 -13 2 -13 -4 0 -6 -4 -9 -9
-5 -5 3 -13 0 -17 -6 -4 -7 -3 -9 3 -6 6 4 13 0 17 -8 3 -8 0 -17 -6 -21 -7
-5 -8 -2 -3 6 5 8 3 11 -6 8 -8 -3 -13 -13 -11 -23 2 -10 -1 -14 -7 -10 -6 3
-11 -1 -11 -10 0 -9 -4 -13 -10 -10 -6 4 -7 -1 -3 -11 5 -13 3 -15 -7 -9 -10
6 -12 4 -7 -8 4 -12 1 -17 -11 -17 -14 0 -15 -2 -2 -9 8 -6 18 -7 24 -4 5 3 6
1 2 -5 -4 -6 -14 -8 -23 -5 -12 5 -12 2 3 -15 21 -26 25 -27 18 -8 -3 9 4 15
20 18 14 3 23 2 21 -3 -3 -4 -1 -10 5 -14 5 -3 10 1 10 10 0 12 4 14 19 6 10
-6 21 -8 24 -4 8 8 143 6 157 -2 5 -3 10 0 10 7 0 9 3 9 10 -2 5 -8 10 -10 10
-4 0 15 40 10 51 -7 7 -12 9 -11 9 2 0 19 31 19 54 0 14 -12 16 -12 11 0 -4
11 9 14 71 12 42 -1 83 -4 90 -7 8 -3 14 0 14 7 0 8 4 6 10 -3 5 -8 10 -10 10
-5 0 6 18 10 39 10 22 0 37 -3 35 -7 -2 -4 0 -9 6 -13 5 -3 10 1 10 10 0 12 4
13 18 7 9 -5 25 -7 34 -3 10 3 49 4 87 1 38 -3 67 -2 65 1 -2 3 8 11 21 17 15
7 25 8 25 2 0 -6 5 -10 11 -10 5 0 8 4 5 9 -3 5 1 14 9 21 13 11 14 10 9 -5
-5 -13 -4 -16 4 -11 7 4 12 14 12 22 0 8 5 14 11 14 5 0 7 -5 3 -12 -4 -7 -3
-8 4 -4 7 4 12 14 12 23 0 9 3 13 7 9 4 -3 13 6 20 21 12 26 12 26 7 3 l-7
-25 21 25 c16 20 18 28 9 39 -10 12 -9 13 2 6 11 -6 13 -4 8 8 -3 9 -2 19 4
23 6 3 8 13 4 23 -5 12 -4 13 6 4 9 -10 10 -15 0 -27 -9 -11 -9 -16 0 -22 7
-4 9 -3 5 4 -3 6 -2 14 4 17 6 4 8 16 4 27 -4 15 -3 19 7 14 8 -4 5 0 -5 8
-17 14 -17 16 -3 16 11 0 14 5 10 17 -4 10 -2 14 5 9 6 -3 14 -1 18 5 4 8 3 9
-4 5 -6 -3 -16 2 -22 13 -8 16 -6 22 7 30 14 8 15 10 3 11 -9 0 -11 3 -5 8 14
10 15 53 1 45 -6 -3 -8 -3 -4 2 4 4 2 17 -4 29 l-11 21 24 -20 c22 -18 22 -18
9 -1 -8 11 -15 22 -15 25 0 3 -3 5 -7 4 -5 -2 -8 2 -8 7 0 6 7 10 16 10 8 0
13 4 9 10 -3 5 -13 7 -23 4 -11 -4 -13 -3 -6 3 13 9 16 66 4 58 -4 -3 -11 2
-14 11 -5 12 -2 15 10 10 14 -5 15 -4 5 8 -7 8 -10 20 -6 25 3 7 0 8 -9 5 -11
-4 -16 0 -16 10 0 9 -4 16 -10 16 -5 0 -10 6 -10 14 0 8 -9 18 -20 21 -11 4
-19 9 -17 13 2 4 -4 15 -15 25 -10 9 -18 13 -18 8 0 -6 5 -13 10 -16 6 -3 10
-12 10 -18 0 -7 -8 0 -18 14 -9 15 -25 25 -34 23 -10 -1 -18 2 -18 7 0 5 -9 9
-21 9 -12 0 -17 4 -13 11 4 8 0 8 -15 0 -14 -8 -21 -8 -21 -1 0 5 -5 10 -11
10 -5 0 -8 -4 -5 -8 3 -5 -1 -9 -9 -9 -8 0 -12 4 -10 8 3 4 -2 9 -10 13 -8 3
-17 0 -21 -6 -5 -7 -2 -8 6 -3 9 5 11 4 6 -4 -6 -9 -11 -9 -21 -1 -10 8 -15 8
-20 0 -5 -8 -11 -8 -19 -1 -9 7 -16 7 -24 -1 -8 -8 -12 -9 -12 -1 0 16 -28 24
-36 11 -5 -7 -2 -8 6 -3 9 6 11 4 6 -4 -6 -9 -12 -9 -25 3 -15 14 -19 14 -41
-1 -13 -9 -20 -12 -17 -6 4 6 -3 11 -18 11 -14 0 -28 -4 -31 -9 -3 -5 -11 -9
-17 -9 -7 0 -6 4 3 10 12 8 10 10 -10 10 -15 0 -32 -6 -39 -12 -8 -8 -11 -8
-8 -2 4 7 -3 14 -18 16 -13 3 -22 2 -20 -2 3 -5 -2 -11 -11 -14 -11 -4 -15 -2
-11 6 3 8 -4 13 -18 13 -15 0 -20 -4 -15 -10 5 -6 -2 -11 -17 -12 -16 0 -21 2
-14 7 9 5 4 9 -13 12 -14 3 -23 2 -21 -2 3 -5 -2 -10 -10 -14 -8 -3 -17 0 -21
6 -4 7 -3 8 4 4 8 -5 10 -1 5 9 -4 13 -8 14 -14 4 -11 -19 -39 -20 -32 -2 5
13 2 13 -15 4 -19 -10 -21 -9 -15 6 5 12 2 15 -8 11 -10 -4 -14 3 -13 27 1 17
4 37 8 43 4 7 2 10 -7 6 -8 -3 -14 1 -14 10 0 8 6 12 13 9 17 -6 11 26 -7 38
-12 7 -12 9 1 9 13 0 13 1 0 10 -13 8 -13 10 2 10 11 0 15 6 11 20 -3 11 -9
20 -15 20 -14 0 30 44 47 46 8 1 13 -1 10 -5 -4 -7 12 -8 49 -2 5 0 2 8 -5 18
-13 15 -12 15 8 3 12 -8 20 -18 17 -22 -3 -4 2 -5 10 -2 9 3 14 10 11 14 -3 5
0 12 6 16 8 5 9 3 5 -5 -5 -8 -3 -11 5 -10 8 2 25 -3 39 -11 23 -12 24 -12 11
4 -12 14 -12 16 4 10 14 -6 16 -4 10 6 -5 9 -4 11 4 6 6 -4 9 -11 6 -16 -3 -4
2 -10 10 -13 9 -4 12 -1 9 7 -4 10 4 13 28 11 18 -2 37 2 41 8 6 8 7 6 4 -5
-8 -23 13 -28 43 -9 14 10 21 11 17 4 -10 -15 -10 -15 31 -4 20 6 32 6 32 0 0
-5 -5 -9 -12 -9 -6 0 -9 -2 -6 -5 8 -9 38 6 32 16 -3 5 2 6 10 3 9 -3 13 -10
10 -15 -3 -5 2 -6 10 -3 8 3 12 13 9 22 -4 13 -3 14 5 3 5 -7 14 -11 20 -7 6
3 14 1 18 -5 5 -8 3 -9 -7 -4 -8 5 -11 4 -6 0 4 -5 16 -9 27 -10 19 -2 19 -1
3 19 -16 19 -16 19 -1 7 9 -7 22 -10 27 -7 5 4 13 1 17 -5 5 -8 3 -9 -6 -4 -8
5 -11 4 -6 -3 10 -17 36 -3 29 16 -4 13 -2 14 4 4 6 -7 14 -12 19 -10 5 1 20
-4 34 -11 l25 -14 -20 24 c-14 16 -15 20 -3 10 9 -7 23 -9 29 -5 7 4 9 3 5 -4
-3 -6 -2 -13 4 -17 5 -3 10 1 10 9 0 8 5 18 12 22 7 5 8 3 3 -6 -6 -9 -4 -11
4 -6 7 5 10 14 7 21 -3 8 3 19 12 27 16 12 16 11 3 -7 -14 -19 -14 -19 2 -5 9
9 18 27 19 41 2 21 7 25 23 22 20 -4 20 -4 0 13 -18 15 -18 16 -1 10 14 -5 17
-3 12 10 -6 15 -4 15 11 3 10 -7 15 -9 10 -4 -4 4 0 19 9 32 12 19 13 27 3 39
-13 16 -29 19 -29 4 0 -6 4 -9 9 -8 8 3 11 -2 11 -19 0 -3 -12 4 -27 18 -14
13 -23 18 -19 12 4 -7 2 -13 -3 -13 -6 0 -11 6 -11 13 0 7 -3 8 -8 2 -11 -16
-64 -15 -58 1 9 24 -3 15 -19 -13 -15 -27 -15 -27 -9 -3 6 21 5 23 -8 13 -11
-10 -17 -10 -28 0 -10 10 -12 9 -7 -6 6 -15 4 -16 -16 -5 -33 18 -47 18 -47 0
0 -13 -3 -12 -16 4 -8 10 -13 13 -9 7 4 -8 0 -13 -10 -13 -10 0 -13 5 -9 13 5
8 2 8 -9 -2 -9 -7 -17 -10 -17 -5 0 4 -5 3 -12 -4 -8 -8 -16 -8 -32 1 -27 15
-38 15 -53 4 -9 -6 -13 -5 -13 4 0 11 -2 11 -10 -1 -9 -13 -10 -13 -10 0 0 13
-1 13 -10 0 -9 -13 -11 -13 -20 0 -8 13 -10 12 -10 -4 0 -20 0 -20 -16 0 -8
10 -13 13 -9 7 4 -8 0 -13 -10 -13 -10 0 -13 5 -9 13 4 6 -1 5 -12 -4 -18 -16
-49 -15 -40 0 3 4 -2 8 -10 8 -8 0 -13 -6 -10 -13 3 -8 0 -11 -10 -7 -7 3 -14
10 -14 16 0 6 -6 3 -13 -8 -10 -13 -16 -15 -21 -6 -6 9 -11 9 -22 0 -12 -10
-13 -9 -8 4 4 12 1 14 -16 10 -17 -5 -19 -8 -8 -15 9 -7 8 -8 -5 -4 -10 3 -21
6 -23 6 -3 0 -2 4 1 10 3 6 -1 7 -9 4 -9 -3 -13 -10 -10 -15 3 -5 -2 -6 -11
-3 -12 5 -13 9 -4 20 14 17 9 17 -13 0z m37 -216 c3 -5 1 -10 -4 -10 -6 0 -11
5 -11 10 0 6 2 10 4 10 3 0 8 -4 11 -10z m-308 -25 c0 -8 -4 -12 -9 -9 -5 3
-6 10 -3 15 9 13 12 11 12 -6z m-16 -48 c-6 -8 -7 -18 -3 -22 4 -5 1 -5 -6 -1
-10 6 -10 11 -1 22 6 8 14 14 16 14 3 0 0 -6 -6 -13z m1159 -581 c0 -2 -8 -10
-17 -17 -16 -13 -17 -12 -4 4 13 16 21 21 21 13z"/>
<path d="M1117 2599 c-9 -5 -22 -7 -27 -4 -6 3 -10 1 -10 -5 0 -7 -6 -8 -17
-2 -21 11 -59 9 -70 -3 -5 -4 -2 -5 6 0 10 6 12 4 7 -4 -6 -9 -11 -9 -24 1
-13 11 -14 11 -7 -1 6 -11 3 -13 -14 -8 -18 4 -20 3 -10 -9 16 -20 4 -17 -17
4 -17 16 -17 16 -12 -4 3 -13 1 -21 -8 -21 -7 0 -10 5 -7 10 3 6 1 7 -5 3 -7
-4 -12 -14 -12 -23 0 -12 -3 -13 -15 -3 -12 10 -14 8 -10 -8 2 -13 -2 -19 -13
-18 -9 0 -16 -4 -15 -11 2 -8 -4 -10 -14 -6 -10 4 -14 2 -10 -4 4 -6 0 -14 -9
-17 -9 -4 -14 -13 -10 -22 3 -8 2 -13 -3 -10 -7 5 -51 -62 -51 -78 0 -3 8 -6
18 -6 14 0 14 -2 3 -9 -8 -5 -21 -7 -30 -4 -13 4 -14 3 -2 -5 8 -6 16 -18 17
-27 2 -12 -3 -14 -19 -10 -16 5 -18 4 -8 -3 7 -5 11 -14 7 -20 -3 -6 -2 -13 3
-16 11 -7 2 -48 -13 -58 -7 -5 -7 -8 2 -8 7 0 10 -5 6 -12 -4 -7 -3 -8 4 -4 7
4 12 2 12 -3 0 -6 -4 -11 -8 -11 -5 0 -7 -13 -4 -30 2 -18 9 -28 16 -24 6 3 4
0 -5 -8 -9 -8 -14 -25 -12 -43 6 -62 3 -101 -10 -121 -7 -13 1 -24 17 -24 6 0
5 4 -3 9 -9 6 -10 11 -2 15 6 4 11 4 12 -1 0 -4 2 -16 4 -25 2 -10 -2 -15 -10
-12 -7 3 -16 0 -21 -7 -5 -8 -3 -10 6 -4 10 6 12 4 7 -7 -3 -9 -3 -19 1 -22
14 -14 10 -34 -6 -29 -14 4 -14 3 -3 -5 8 -6 11 -17 8 -25 -3 -8 0 -20 6 -27
9 -10 9 -11 0 -6 -7 4 -13 2 -13 -3 0 -6 6 -11 14 -11 8 0 17 -4 20 -9 4 -5
-4 -7 -16 -4 -13 3 -19 1 -13 -4 15 -12 17 -65 2 -57 -7 3 -4 -1 6 -9 20 -16
24 -52 5 -41 -7 4 3 -10 22 -31 19 -21 29 -35 23 -31 -9 5 -13 0 -13 -13 0
-12 7 -21 15 -21 9 0 12 -6 8 -17 -5 -12 -2 -15 10 -10 9 3 19 1 23 -5 4 -7 3
-8 -4 -4 -7 4 -12 2 -12 -3 0 -6 5 -11 11 -11 5 0 8 -4 5 -9 -8 -12 16 -29 36
-26 10 2 15 -2 12 -10 -3 -7 0 -16 7 -21 7 -4 10 -3 6 2 -3 5 3 10 13 10 14 0
16 -3 8 -13 -6 -7 -9 -13 -7 -14 23 -5 37 -8 54 -14 17 -6 18 -5 5 5 -13 10
-12 11 3 6 10 -3 21 -6 23 -6 3 0 2 -4 -1 -10 -3 -5 -2 -10 4 -10 5 0 13 5 16
10 3 6 12 10 18 10 7 0 6 -4 -3 -10 -13 -8 -13 -10 2 -10 9 0 25 -3 35 -6 16
-6 16 -5 -2 10 -20 17 -20 17 3 6 13 -6 30 -9 37 -6 8 3 17 0 21 -6 5 -7 2 -8
-6 -3 -9 5 -11 4 -6 -3 10 -16 26 -15 26 1 0 7 13 12 29 12 16 1 27 -3 24 -8
-3 -5 5 -6 18 -2 41 13 103 12 128 -3 13 -8 21 -10 17 -4 -9 16 44 21 59 6 7
-8 15 -10 17 -4 2 5 24 11 50 13 39 3 45 1 36 -10 -8 -11 -7 -12 6 -7 9 3 16
11 16 18 1 6 7 0 16 -14 12 -20 14 -21 9 -4 -4 16 -1 20 16 19 11 -1 25 -8 30
-16 7 -12 9 -12 9 1 0 10 10 15 29 15 16 1 27 -3 24 -8 -3 -5 4 -6 16 -2 12 3
38 8 57 10 32 3 33 2 17 -10 -17 -13 -16 -14 5 -8 12 3 22 9 22 14 0 5 7 6 15
3 13 -5 13 -9 3 -23 -10 -13 -9 -13 8 2 23 19 59 24 48 5 -5 -7 -3 -8 5 -4 7
5 10 14 7 21 -2 7 1 18 7 24 8 8 8 11 -2 11 -8 0 -11 6 -7 16 3 8 2 12 -4 9
-6 -3 -10 -1 -10 4 0 6 -6 11 -14 11 -8 0 -17 8 -21 18 -5 14 -4 15 6 5 7 -7
17 -13 22 -13 5 0 2 7 -7 15 -8 8 -20 15 -27 15 -7 0 -9 3 -5 7 3 4 -4 13 -16
21 -13 7 -15 11 -6 8 10 -3 20 -1 23 5 4 5 1 8 -7 7 -7 -2 -12 3 -10 10 1 8
-2 11 -8 7 -5 -3 -10 1 -10 10 0 9 -4 13 -10 10 -5 -3 -10 -1 -10 6 0 8 -5 7
-17 -2 -9 -8 -14 -9 -10 -3 4 7 0 15 -9 18 -8 3 -12 2 -9 -3 3 -5 1 -12 -5
-16 -5 -3 -10 -1 -10 6 0 8 -5 7 -17 -2 -9 -8 -14 -9 -10 -3 4 7 0 15 -9 18
-10 4 -13 2 -8 -6 5 -7 2 -9 -8 -5 -9 3 -21 0 -28 -6 -9 -9 -11 -9 -7 -1 4 7
0 15 -9 18 -8 3 -12 2 -9 -3 3 -5 1 -12 -5 -16 -5 -3 -10 -1 -10 6 0 8 -5 7
-17 -2 -9 -8 -14 -9 -10 -3 4 7 0 15 -9 18 -10 4 -13 2 -8 -6 5 -7 2 -9 -8 -5
-9 3 -21 0 -28 -6 -9 -9 -11 -9 -7 -1 4 7 0 15 -9 18 -8 3 -12 2 -9 -3 3 -5 1
-12 -5 -16 -5 -3 -10 -1 -10 6 0 8 -5 7 -17 -2 -9 -8 -14 -9 -10 -3 4 7 0 15
-9 18 -10 4 -13 2 -8 -6 5 -7 2 -9 -8 -5 -9 3 -21 0 -28 -6 -10 -9 -11 -9 -6
1 9 16 -6 16 -23 0 -12 -11 -13 -10 -7 6 7 20 7 20 -15 0 -12 -10 -19 -14 -16
-8 4 7 0 15 -9 18 -10 4 -13 2 -8 -6 5 -7 2 -9 -8 -6 -8 4 -21 2 -29 -2 -7 -5
-18 -5 -24 0 -11 10 -46 7 -65 -5 -6 -3 -10 -1 -10 4 0 6 5 11 12 11 6 0 9 3
5 6 -3 3 -12 2 -19 -2 -18 -12 -38 -14 -38 -4 0 4 -7 11 -16 14 -14 5 -15 4
-4 -9 11 -13 10 -14 -4 -9 -9 3 -16 10 -16 16 0 5 -5 6 -10 3 -9 -6 -14 8 -11
27 0 5 -2 7 -7 6 -4 0 -18 4 -32 10 -14 6 -18 11 -10 12 12 0 13 2 1 9 -10 6
-10 10 -1 16 8 5 5 14 -11 31 -18 19 -20 27 -11 36 14 14 16 32 3 24 -4 -3 -8
5 -7 17 1 14 7 22 19 21 9 -1 14 2 11 7 -3 5 -12 9 -20 9 -8 0 -14 5 -14 11 0
5 6 7 13 3 9 -6 9 -4 -1 8 -10 13 -10 18 -1 24 8 5 9 3 4 -6 -5 -8 -4 -11 3
-6 6 4 9 13 6 21 -4 8 -11 12 -16 9 -6 -4 -8 -1 -6 7 3 8 13 13 23 11 10 -2
14 1 10 7 -3 6 -14 11 -23 11 -15 0 -15 2 -2 10 13 9 13 10 0 11 -8 0 -4 5 10
9 l25 8 -25 1 c-20 1 -22 3 -10 11 13 9 13 10 0 11 -10 0 -8 3 5 9 l20 9 -20
0 c-17 1 -17 3 -5 11 13 9 13 10 0 11 -8 0 -4 5 10 9 l25 8 -25 1 c-20 1 -22
3 -10 11 13 9 13 10 0 11 -10 0 -8 3 5 9 l20 9 -20 0 c-17 1 -17 3 -5 11 13 9
13 10 0 11 -8 0 -4 5 10 9 l25 8 -25 1 c-20 1 -22 3 -10 11 13 9 13 10 0 11
-10 0 -8 3 5 9 l20 9 -20 0 c-17 1 -17 3 -5 11 13 9 13 10 0 11 -10 0 -8 3 5
9 15 6 16 9 4 9 -9 1 -16 7 -16 15 0 8 6 12 15 9 12 -5 12 -2 2 16 -10 19 -9
25 7 38 10 8 12 11 4 8 -9 -6 -9 -1 3 17 9 14 13 29 9 33 -5 5 0 3 10 -4 15
-12 17 -12 12 2 -4 8 -2 18 4 22 6 3 11 1 11 -4 0 -6 5 -11 11 -11 5 0 7 5 4
10 -3 6 3 10 15 10 12 0 19 4 16 8 -3 5 8 8 24 8 16 0 27 -3 24 -7 -2 -4 1
-11 7 -15 7 -4 9 -3 6 2 -3 6 -2 16 4 24 7 12 9 11 9 -5 0 -15 3 -17 9 -7 4 8
12 14 16 14 4 0 12 -6 16 -14 7 -10 9 -9 9 4 0 9 4 19 9 22 5 4 7 -3 4 -14 -3
-12 0 -20 6 -20 7 0 10 4 7 9 -7 11 13 9 33 -3 9 -6 12 -5 7 2 -3 6 -2 14 4
17 6 4 9 3 8 -2 -2 -4 2 -8 7 -8 6 0 9 4 7 10 -1 6 4 2 12 -9 8 -10 20 -15 26
-11 7 4 16 2 20 -5 5 -8 9 -7 13 5 5 10 3 14 -5 9 -7 -5 -8 -3 -4 5 6 9 13 8
29 -6 11 -10 17 -12 13 -5 -4 6 -2 12 3 12 6 0 11 -6 12 -12 0 -7 4 -4 9 7 8
18 10 16 14 -14 0 -5 5 -13 10 -18 5 -4 6 -3 3 3 -4 7 0 17 8 24 12 10 15 10
15 0 0 -7 7 -10 17 -6 9 4 20 2 23 -4 5 -8 9 -6 13 5 5 10 3 14 -5 9 -7 -5 -8
-3 -4 5 6 9 13 8 29 -6 11 -10 17 -12 13 -5 -4 6 -2 12 3 12 6 0 11 -4 11 -10
0 -5 5 -10 11 -10 5 0 8 4 4 9 -3 5 -1 13 5 16 6 4 9 2 8 -3 -2 -6 2 -10 7
-10 6 0 9 5 7 12 -1 6 4 3 12 -8 8 -10 20 -15 26 -11 7 4 16 1 21 -6 6 -9 9
-10 9 -2 0 7 9 10 21 8 11 -2 27 4 37 15 20 25 40 27 21 3 -13 -16 -12 -17 4
-4 16 13 16 15 2 31 -12 14 -13 20 -4 26 8 4 10 3 5 -4 -4 -7 -2 -12 4 -12 6
0 13 14 17 30 3 17 9 33 14 36 5 3 6 -3 3 -13 -5 -17 -5 -17 6 0 6 9 8 22 5
27 -3 6 1 10 10 10 9 0 13 4 10 10 -3 5 -1 18 5 27 10 16 11 16 6 1 -3 -11 -1
-15 9 -12 17 7 12 39 -6 40 -8 1 -20 2 -27 3 -8 1 -10 6 -6 14 5 9 4 9 -6 0
-10 -9 -18 -9 -34 -1 -20 10 -20 10 -6 -7 14 -17 14 -18 -7 -6 -13 6 -23 9
-23 5 0 -3 -8 0 -17 7 -11 10 -14 10 -9 2 4 -8 2 -13 -8 -13 -8 0 -17 6 -19
13 -4 9 -6 9 -6 0 -1 -7 -8 -10 -18 -6 -11 4 -14 3 -9 -5 10 -17 0 -15 -18 4
-9 8 -16 11 -16 5 0 -6 -5 -11 -11 -11 -5 0 -7 6 -3 13 6 10 4 10 -7 0 -7 -7
-17 -13 -22 -13 -4 0 -5 6 -1 13 5 9 4 9 -6 0 -10 -9 -18 -9 -34 -1 -20 10
-20 10 -6 -7 14 -17 13 -17 -5 -8 -11 6 -26 8 -32 6 -7 -3 -13 1 -13 9 0 10
-3 9 -10 -2 -9 -13 -11 -13 -20 0 -5 8 -10 10 -10 4 0 -19 -28 -24 -45 -8 -8
9 -15 11 -15 5 0 -6 -5 -11 -11 -11 -5 0 -7 6 -3 13 6 10 4 10 -7 0 -7 -7 -17
-13 -22 -13 -4 0 -5 6 -1 13 5 9 4 9 -6 0 -10 -9 -18 -9 -34 -1 -20 10 -20 10
-6 -7 14 -17 14 -17 -6 -7 -14 8 -24 8 -31 1 -8 -8 -13 -8 -17 0 -4 5 -14 7
-23 4 -10 -4 -14 -2 -10 4 5 7 0 9 -14 6 -16 -5 -18 -8 -7 -15 9 -7 8 -8 -5
-4 -10 3 -21 6 -23 6 -3 0 -2 6 2 13 4 6 -2 4 -13 -6 -16 -14 -23 -15 -29 -6
-5 8 -3 10 6 4 9 -5 11 -4 6 3 -8 14 -6 14 -29 1z m-67 -13 c0 -2 -7 -7 -16
-10 -8 -3 -12 -2 -9 4 6 10 25 14 25 6z m305 -185 c3 -5 2 -12 -3 -15 -5 -3
-9 1 -9 9 0 17 3 19 12 6z m362 -4 c0 -8 -6 -14 -14 -14 -9 0 -10 4 -2 14 6 7
12 13 14 13 1 0 2 -6 2 -13z m-956 -30 c-10 -9 -11 -8 -5 6 3 10 9 15 12 12 3
-3 0 -11 -7 -18z m-20 -580 c-10 -9 -11 -8 -5 6 3 10 9 15 12 12 3 -3 0 -11
-7 -18z m253 -86 c3 -5 -1 -11 -9 -14 -9 -4 -12 -1 -8 9 6 16 10 17 17 5z m36
-76 c7 -9 8 -15 2 -15 -5 0 -12 7 -16 15 -3 8 -4 15 -2 15 2 0 9 -7 16 -15z
m-180 -165 c0 -5 -2 -10 -4 -10 -3 0 -8 5 -11 10 -3 6 -1 10 4 10 6 0 11 -4
11 -10z"/>
<path d="M1430 2599 c0 -5 5 -7 10 -4 6 3 10 8 10 11 0 2 -4 4 -10 4 -5 0 -10
-5 -10 -11z"/>
<path d="M2048 2597 c-7 -17 2 -38 13 -31 5 3 9 0 9 -5 0 -6 -6 -11 -14 -11
-11 0 -12 -8 -6 -35 5 -23 4 -36 -4 -39 -6 -2 -5 -5 3 -5 11 -1 10 -5 -5 -17
-10 -8 -14 -13 -7 -10 15 8 23 -15 12 -36 -7 -12 -4 -20 8 -27 17 -10 17 -10
0 -11 -14 0 -16 -4 -7 -19 7 -14 6 -21 -3 -24 -8 -4 -8 -6 2 -6 11 -1 10 -5
-5 -16 -12 -10 -14 -14 -4 -13 9 2 15 -6 15 -24 1 -16 -4 -28 -10 -28 -5 0 -1
-7 9 -15 18 -13 18 -15 3 -15 -14 0 -16 -4 -7 -19 7 -14 6 -21 -3 -24 -8 -4
-8 -6 2 -6 11 -1 10 -5 -5 -16 -13 -11 -14 -14 -4 -13 17 3 21 -31 8 -70 -5
-15 -4 -21 2 -17 6 3 10 1 10 -4 0 -6 -5 -11 -12 -11 -9 0 -9 -3 -1 -11 7 -7
8 -21 3 -39 -5 -18 -4 -32 3 -39 8 -8 6 -11 -8 -12 -16 -1 -15 -3 5 -9 15 -5
18 -8 9 -9 -14 -1 -16 -7 -9 -36 5 -23 4 -36 -4 -39 -6 -2 -5 -5 3 -5 11 -1
10 -5 -5 -17 -10 -8 -14 -13 -7 -10 15 8 23 -15 12 -36 -7 -12 -4 -20 8 -27
17 -10 17 -10 0 -11 -14 0 -16 -4 -7 -19 7 -14 6 -21 -3 -24 -8 -4 -8 -6 2 -6
11 -1 10 -5 -5 -16 -12 -10 -14 -14 -4 -13 9 2 15 -6 15 -24 1 -16 -4 -28 -10
-28 -5 0 -1 -7 9 -15 18 -13 18 -15 3 -15 -14 0 -16 -4 -7 -19 7 -14 6 -21 -3
-24 -8 -4 -8 -6 2 -6 11 -1 10 -5 -5 -16 -12 -10 -14 -14 -4 -13 9 2 15 -6 15
-24 1 -16 -2 -28 -6 -28 -4 0 -4 -13 1 -29 4 -16 5 -33 2 -37 -4 -4 2 -4 12 0
15 5 17 4 8 -7 -9 -11 -7 -13 9 -12 11 1 24 6 27 11 11 15 38 10 64 -11 12
-11 17 -13 11 -5 -20 21 -16 26 20 24 56 -3 58 -4 53 -12 -3 -5 1 -9 8 -9 8 0
11 8 9 18 -3 9 0 20 6 23 6 4 9 1 5 -7 -3 -8 1 -18 8 -23 7 -4 10 -4 6 1 -4 4
-3 16 3 26 7 14 6 19 -2 19 -8 0 -7 5 2 17 10 11 10 14 2 9 -16 -9 -16 -1 -2
25 7 14 7 24 0 33 -6 7 -9 15 -6 18 10 9 12 68 3 68 -5 0 -7 4 -3 9 10 17 13
71 3 71 -5 0 -6 5 -3 11 11 17 13 59 2 59 -5 0 -3 8 4 17 10 11 10 14 2 9 -16
-9 -16 -1 -2 25 7 14 7 24 0 32 -5 7 -6 18 -2 25 4 8 6 24 3 38 -3 19 -1 23
12 18 9 -3 13 -11 9 -17 -3 -6 -1 -7 6 -3 6 4 9 11 6 16 -3 5 -1 11 5 15 5 3
10 1 10 -5 0 -13 42 -9 52 5 5 6 8 5 8 -4 0 -11 3 -11 17 0 14 12 16 12 8 0
-6 -11 -4 -13 7 -8 9 3 21 0 27 -6 9 -9 10 -7 5 8 -6 16 -5 18 7 10 18 -14 73
-20 66 -8 -4 6 0 10 8 10 8 0 12 -4 9 -9 -6 -9 32 -5 42 4 8 9 35 -2 29 -11
-2 -4 2 -8 9 -8 8 0 12 5 10 12 -3 6 5 11 16 11 14 0 19 -5 15 -15 -4 -11 -3
-12 10 -1 8 7 15 9 15 4 0 -4 5 -3 11 3 14 14 41 5 33 -11 -3 -6 0 -4 8 4 14
16 52 24 42 9 -4 -7 25 -6 46 1 15 6 36 4 41 -4 4 -4 16 -3 27 3 17 9 23 8 31
-6 6 -11 11 -13 11 -5 0 7 5 10 10 7 6 -4 8 -12 4 -18 -3 -7 1 -4 10 7 14 17
15 17 12 -6 -1 -13 -6 -29 -10 -36 -7 -12 -1 -16 18 -13 5 1 4 -4 -2 -12 -6
-7 -10 -24 -7 -36 3 -18 1 -22 -13 -17 -16 6 -16 5 0 -7 15 -12 15 -14 0 -25
-9 -7 -11 -10 -4 -7 6 3 12 3 13 -2 6 -45 4 -61 -4 -56 -5 3 -7 0 -5 -8 3 -8
12 -13 19 -11 8 1 3 -6 -10 -16 -21 -17 -22 -21 -9 -33 14 -12 13 -15 -1 -27
-9 -7 -10 -11 -3 -7 6 3 12 3 13 -2 6 -45 4 -61 -4 -56 -5 3 -7 0 -5 -8 3 -8
12 -13 19 -11 8 1 5 -5 -6 -13 -25 -19 -26 -34 -6 -59 9 -11 10 -16 4 -12 -7
4 -13 4 -13 -1 0 -11 20 -40 20 -29 0 5 7 2 16 -5 22 -18 44 -20 50 -5 7 18
39 13 66 -9 13 -11 17 -13 11 -5 -21 23 -16 26 42 25 43 -1 52 2 43 12 -8 10
-7 13 3 14 8 0 5 4 -6 9 -16 7 -17 9 -3 9 9 1 20 6 24 13 4 6 3 8 -3 5 -6 -4
-16 0 -23 8 -11 13 -10 14 2 10 12 -5 13 3 8 45 -4 31 -3 50 4 50 6 0 5 5 -2
12 -14 14 -16 32 -4 24 5 -3 9 1 9 9 0 8 -7 15 -16 16 -10 0 -8 4 7 9 12 5 22
12 22 15 0 4 -4 4 -8 1 -4 -2 -14 -1 -22 5 -12 7 -12 9 4 9 16 0 17 2 5 17 -8
9 -9 14 -2 10 7 -5 10 -1 8 10 -2 10 -6 37 -9 61 -4 39 -3 42 12 30 15 -11 15
-11 5 3 -7 9 -9 20 -5 24 4 5 1 5 -5 1 -7 -4 -13 -2 -13 3 0 6 8 11 18 12 14
0 14 2 -3 9 -14 6 -15 9 -5 10 10 1 9 4 -5 10 -16 7 -17 9 -3 9 9 1 20 6 24
13 4 6 3 8 -2 5 -6 -3 -16 -2 -24 4 -12 7 -12 9 4 9 16 0 17 2 5 17 -8 9 -9
14 -2 10 7 -5 10 -1 8 10 -2 10 -6 37 -9 61 -4 39 -3 42 12 30 15 -11 15 -11
5 3 -7 9 -9 20 -5 24 4 5 1 5 -5 1 -7 -4 -13 -2 -13 3 0 6 8 11 18 12 14 0 14
2 -3 9 -14 6 -15 9 -5 10 10 1 9 4 -5 10 -16 7 -17 9 -3 9 9 1 20 6 24 13 4 6
3 8 -2 5 -6 -3 -16 -2 -24 4 -12 7 -12 9 4 9 16 0 17 2 5 17 -8 9 -9 14 -2 10
7 -5 10 -1 8 10 -2 10 -6 37 -9 61 -4 39 -3 42 12 30 15 -11 15 -11 5 3 -7 9
-9 20 -5 24 4 5 1 5 -5 1 -7 -4 -13 -2 -13 3 0 6 8 11 18 12 14 0 14 2 -3 9
-14 6 -15 9 -5 10 10 1 9 4 -5 10 -16 7 -17 9 -3 9 9 1 20 6 24 13 4 6 3 8 -2
5 -6 -3 -16 -2 -24 4 -12 7 -12 9 4 9 16 0 17 2 5 17 -8 9 -9 14 -4 11 14 -9
6 75 -9 84 -7 5 -3 8 9 8 14 0 16 3 8 11 -7 7 -8 21 -3 40 6 19 5 29 -2 29 -5
0 -8 7 -4 15 4 12 0 14 -21 10 -16 -2 -31 1 -35 8 -5 8 -8 5 -8 -8 -1 -18 -1
-19 -11 -2 -8 14 -14 15 -31 6 -16 -9 -23 -8 -29 2 -8 13 -13 6 -10 -13 0 -4
-6 -5 -14 -2 -8 4 -12 11 -9 16 4 6 -3 5 -15 -1 -11 -7 -21 -8 -21 -4 0 4 -7
-2 -15 -13 -15 -19 -15 -19 -9 1 4 15 3 17 -4 6 -9 -12 -7 -57 3 -88 2 -7 0
-15 -6 -18 -5 -4 -7 -11 -3 -16 3 -5 11 -6 17 -2 9 5 9 3 0 -8 -7 -9 -11 -26
-8 -38 3 -18 1 -22 -13 -17 -16 5 -16 5 0 -6 15 -11 15 -13 0 -26 -9 -7 -11
-11 -4 -7 6 3 12 3 13 -2 6 -45 4 -61 -4 -56 -5 3 -7 0 -5 -8 3 -8 12 -13 19
-11 8 1 3 -6 -10 -16 -21 -17 -22 -21 -9 -33 14 -12 13 -15 -1 -27 -9 -7 -10
-11 -3 -7 13 7 13 6 17 -43 2 -29 0 -32 -19 -27 -12 4 -16 3 -11 -2 22 -17 10
-37 -23 -38 -24 -1 -31 3 -27 14 4 11 3 12 -10 1 -10 -8 -15 -9 -15 -1 0 6 -5
11 -11 11 -5 0 -8 -4 -5 -9 3 -5 -1 -12 -10 -15 -12 -5 -15 -2 -10 11 6 17 5
17 -8 0 -10 -12 -15 -14 -18 -6 -3 8 -9 9 -19 4 -20 -13 -40 -15 -33 -4 8 13
-10 11 -25 -3 -9 -8 -11 -8 -8 -2 4 7 0 15 -9 18 -10 4 -13 2 -8 -6 5 -8 2 -9
-9 -5 -9 3 -19 2 -22 -3 -4 -6 -12 -10 -18 -10 -8 0 -8 3 1 9 10 6 7 10 -11
13 -20 4 -24 1 -20 -11 5 -13 3 -13 -7 -4 -7 6 -19 9 -26 6 -9 -3 -13 0 -11 8
2 8 2 11 0 6 -3 -4 -9 -5 -13 -2 -5 3 -12 0 -16 -6 -4 -8 -3 -9 4 -5 7 4 12 2
12 -3 0 -18 -18 -12 -36 12 -9 13 -14 15 -11 5 8 -24 -4 -30 -20 -10 -12 16
-13 15 -6 -3 6 -18 5 -19 -11 -6 -15 13 -19 13 -27 0 -7 -12 -9 -12 -9 1 0 11
-3 11 -12 2 -15 -15 -28 -15 -28 -1 0 5 5 7 12 3 7 -4 8 -3 4 5 -6 9 -11 9
-22 0 -13 -11 -18 -6 -15 14 1 5 -3 6 -9 2 -6 -3 -8 -10 -5 -15 3 -4 -2 -10
-9 -13 -9 -4 -17 1 -19 11 -4 14 -5 13 -6 -3 -1 -15 -3 -17 -10 -6 -6 10 -13
10 -29 2 -19 -10 -20 -8 -17 19 3 21 1 28 -7 24 -8 -5 -9 -1 -4 12 12 30 14
64 4 64 -5 0 -7 4 -3 9 10 17 13 71 3 71 -5 0 -6 5 -3 11 11 17 13 59 3 59 -5
0 -6 6 -1 12 11 19 13 67 2 74 -5 3 -6 11 -2 17 13 22 12 39 -3 33 -11 -4 -11
0 2 19 15 23 15 25 -2 25 -17 0 -17 1 2 16 10 8 13 13 7 9 -8 -4 -13 1 -13 12
0 15 -2 16 -10 3 -8 -12 -10 -12 -11 5 0 11 -3 14 -6 7 -2 -6 -9 -10 -14 -6
-5 3 -9 -1 -9 -8 0 -8 -5 -6 -11 5 -10 18 -12 18 -30 1 -17 -15 -19 -16 -14
-2 5 13 2 15 -15 11 -17 -5 -19 -8 -8 -15 9 -7 8 -8 -5 -4 -10 3 -21 6 -23 6
-3 0 -2 6 1 13 4 6 0 4 -8 -6 -13 -16 -15 -16 -21 -1 -6 15 -8 16 -24 0 -10
-9 -23 -16 -28 -16 -5 0 -3 4 5 9 8 5 9 11 3 15 -5 3 -12 0 -14 -7z m249 -192
c0 -8 -4 -12 -9 -9 -5 3 -6 10 -3 15 9 13 12 11 12 -6z m703 -966 c0 -5 -4 -9
-8 -9 -5 0 -9 7 -9 15 0 8 4 12 9 9 4 -3 8 -9 8 -15z"/>
<path d="M4002 2603 c-6 -2 -10 -9 -6 -14 3 -5 -7 -4 -21 1 -15 6 -24 6 -20 1
3 -6 -3 -14 -12 -20 -10 -6 -13 -11 -7 -11 5 0 16 6 24 13 8 6 7 3 -2 -8 -16
-20 -18 -24 -18 -46 0 -8 -6 -7 -17 2 -15 13 -15 12 -4 -8 10 -19 9 -23 -4
-23 -9 0 -15 -6 -14 -12 3 -27 -2 -38 -18 -38 -15 0 -14 -2 3 -15 18 -15 18
-15 0 -8 -13 4 -17 3 -12 -5 4 -7 3 -12 -3 -12 -5 0 -8 -9 -6 -19 3 -15 -1
-18 -12 -14 -13 5 -14 3 -3 -16 11 -21 10 -22 -12 -10 -21 11 -22 11 -9 -4 10
-13 10 -17 1 -17 -10 0 -10 -3 -1 -14 9 -11 9 -16 0 -22 -8 -4 -9 -3 -5 4 4 7
4 12 -1 12 -4 -1 -18 -16 -30 -35 -12 -19 -19 -34 -15 -34 21 3 24 -3 6 -17
-10 -8 -12 -13 -4 -9 10 4 9 2 -2 -8 -20 -16 -25 -32 -6 -21 7 4 8 3 4 -5 -4
-6 -12 -9 -17 -6 -5 4 -9 -1 -9 -10 0 -9 -4 -13 -10 -10 -5 3 -10 1 -10 -4 0
-6 6 -11 13 -11 6 0 1 -10 -13 -21 -14 -11 -19 -18 -13 -14 9 4 11 1 7 -9 -3
-9 -10 -13 -15 -10 -5 3 -6 -3 -2 -12 4 -11 3 -15 -4 -11 -7 5 -10 -2 -9 -17
4 -30 -8 -51 -23 -42 -6 4 -8 12 -5 18 5 7 2 8 -5 3 -8 -5 -9 -11 -3 -17 13
-13 3 -50 -11 -41 -5 3 -7 1 -3 -5 3 -5 0 -13 -6 -16 -7 -3 -2 -3 12 0 23 6
23 6 7 -10 -9 -10 -21 -15 -26 -12 -5 3 -7 -4 -3 -16 4 -18 2 -20 -14 -15 -18
7 -18 7 0 -8 17 -13 17 -15 3 -15 -10 0 -14 -5 -11 -15 4 -8 -1 -17 -10 -21
-13 -5 -14 -9 -5 -20 11 -13 5 -18 -14 -15 -5 1 -11 -8 -14 -19 -3 -11 -10
-17 -15 -14 -7 5 -7 1 0 -11 8 -15 5 -23 -12 -38 -11 -10 -15 -16 -8 -12 20
10 14 -10 -13 -41 -16 -18 -23 -36 -19 -48 4 -13 3 -16 -7 -11 -9 6 -11 3 -6
-9 4 -10 3 -15 -3 -11 -6 4 -10 -6 -10 -22 0 -22 -2 -25 -10 -13 -8 12 -10 9
-10 -12 0 -16 -5 -28 -11 -28 -6 0 -8 -7 -5 -16 4 -11 2 -15 -8 -11 -10 4 -13
-2 -11 -24 2 -25 1 -28 -13 -17 -14 12 -14 10 -2 -12 12 -22 12 -24 -3 -12
-13 11 -15 10 -10 -9 5 -17 3 -20 -7 -14 -8 5 -11 4 -7 -2 9 -15 77 -22 77 -8
1 5 7 -1 16 -15 11 -19 14 -20 10 -5 -5 17 -1 20 33 20 22 1 37 -3 35 -7 -3
-5 -11 -5 -17 -2 -7 4 -8 3 -4 -1 13 -15 37 -14 37 1 0 11 5 12 16 6 8 -4 28
-6 45 -4 26 4 35 17 30 45 -1 4 9 2 21 -4 21 -11 22 -11 8 5 -12 16 -11 20 10
38 21 16 22 19 5 13 -20 -6 -20 -6 0 13 11 11 24 17 29 14 5 -3 6 0 2 7 -6 9
-11 9 -22 0 -12 -9 -13 -9 -9 2 3 8 18 23 33 32 l27 18 -25 -5 c-14 -3 -19 -3
-12 0 6 3 9 11 5 17 -3 7 -2 9 2 4 9 -8 45 21 45 36 0 6 -7 2 -15 -9 -8 -10
-14 -14 -14 -9 0 6 6 18 13 28 11 14 15 15 19 5 4 -8 8 -9 14 -3 8 10 114 14
107 4 -1 -3 3 -6 11 -6 8 0 12 3 10 7 -2 4 12 6 30 6 19 -1 35 -4 35 -8 0 -5
5 -8 11 -8 5 0 8 4 5 8 -3 5 11 8 29 8 19 -1 35 -4 35 -8 0 -5 5 -8 11 -8 5 0
8 4 5 8 -3 5 11 8 29 8 19 -1 35 -4 35 -8 0 -5 5 -8 11 -8 5 0 8 4 5 8 -3 5
11 8 29 8 19 -1 35 -4 35 -8 0 -5 5 -8 11 -8 5 0 7 5 4 10 -8 12 -8 12 33 1
20 -6 30 -6 27 0 -4 5 -1 9 4 9 6 0 11 -6 11 -12 0 -8 3 -9 8 -3 10 14 74 16
65 2 -4 -6 0 -8 10 -4 11 4 17 1 17 -8 0 -8 5 -15 11 -15 6 0 9 -9 6 -20 -3
-13 2 -25 15 -34 14 -10 16 -15 6 -19 -8 -3 -6 -6 6 -6 16 -1 17 -3 5 -18 -8
-9 -9 -14 -4 -11 6 3 16 0 23 -8 7 -8 9 -14 4 -14 -5 0 -9 -7 -9 -15 0 -10 4
-12 12 -5 9 7 11 2 10 -20 -1 -22 1 -27 10 -20 9 8 12 4 10 -14 -3 -23 -1 -24
22 -15 23 8 24 8 13 -6 -11 -13 -10 -14 4 -9 9 3 16 11 16 18 1 6 7 0 16 -14
11 -19 14 -20 10 -5 -5 17 -1 20 33 20 22 1 37 -3 35 -7 -3 -5 -11 -5 -17 -2
-7 4 -8 3 -4 -1 13 -15 37 -14 37 1 0 12 4 13 23 2 30 -16 60 -18 47 -3 -7 8
-1 10 21 9 23 -2 27 1 20 10 -6 7 -7 17 -3 21 4 5 1 5 -6 1 -7 -4 -9 -12 -6
-18 4 -6 2 -8 -4 -5 -5 4 -8 17 -4 29 3 12 1 19 -4 15 -5 -3 -11 2 -12 11 -4
44 -9 61 -20 75 -7 7 -8 18 -4 22 4 5 -1 5 -11 2 -11 -4 -16 -3 -12 3 3 6 2
10 -2 10 -5 0 -9 9 -10 20 -1 11 2 20 8 20 5 0 9 5 9 11 0 8 -4 9 -13 0 -18
-14 -30 -2 -15 16 9 11 8 13 -3 11 -8 -2 -13 4 -12 15 0 11 -4 16 -12 13 -7
-2 -16 1 -19 9 -3 10 0 12 12 8 14 -6 15 -4 5 9 -7 8 -9 19 -5 24 4 4 -1 2
-11 -5 -15 -12 -17 -12 -11 3 4 11 0 22 -11 30 -12 8 -16 20 -12 30 4 9 3 15
-2 12 -5 -3 -11 1 -14 9 -4 10 -1 12 11 8 9 -3 2 4 -15 16 -18 11 -33 23 -33
26 0 4 4 4 9 1 5 -3 11 3 14 14 3 11 2 18 -2 16 -4 -3 -13 -1 -21 5 -13 7 -13
9 0 10 10 0 8 3 -5 8 -11 5 -20 12 -20 17 0 5 -4 15 -9 23 -6 9 -5 12 1 8 5
-3 10 0 10 8 0 8 -4 12 -9 9 -4 -3 -8 0 -8 6 0 6 -6 8 -12 4 -10 -5 -10 -4 -1
6 9 10 7 17 -13 33 -14 10 -23 22 -20 25 3 3 0 12 -7 21 -11 14 -10 14 6 2 25
-19 21 -6 -5 20 -13 12 -17 19 -11 15 9 -5 11 -2 7 8 -3 9 -11 13 -17 9 -6 -4
-8 0 -4 10 3 9 0 18 -9 21 -12 5 -13 10 -3 27 8 15 8 19 0 15 -17 -11 -34 3
-21 19 7 9 6 16 -7 26 -17 13 -17 13 -3 -6 14 -19 14 -19 -2 -6 -10 7 -16 17
-13 21 7 12 -6 41 -15 35 -5 -3 -12 0 -16 6 -4 7 -3 9 3 6 6 -4 14 0 17 9 5
12 2 15 -9 10 -11 -4 -17 3 -21 24 -4 16 -14 31 -23 33 -9 3 -6 5 9 6 19 1 21
4 11 10 -8 5 -21 7 -30 4 -13 -5 -14 -3 -3 8 14 16 16 33 2 24 -5 -3 -10 1
-10 10 0 9 -4 14 -9 11 -5 -3 -9 0 -8 7 1 35 -4 48 -15 41 -10 -6 -10 -4 0 7
6 7 12 18 12 23 0 6 -5 4 -10 -4 -9 -13 -10 -13 -11 0 -1 8 -1 18 0 23 0 4 -4
7 -10 7 -7 0 -9 9 -6 21 5 17 3 18 -11 7 -12 -10 -14 -10 -8 0 4 7 1 15 -8 18
-9 3 -16 13 -16 21 0 12 -2 12 -16 -1 -8 -9 -17 -16 -19 -16 -2 0 -11 7 -19
16 -15 14 -16 14 -16 -3 -1 -17 -1 -17 -11 0 -8 13 -15 15 -28 8 -12 -7 -22
-6 -28 0 -8 8 -13 7 -18 -2 -6 -8 -4 -10 5 -4 8 5 11 4 6 -3 -4 -6 -13 -9 -21
-6 -8 4 -12 10 -9 15 6 10 5 10 -14 2z m93 -284 c-4 -5 -1 -9 4 -9 13 0 43
-69 35 -81 -3 -5 0 -9 5 -9 6 0 11 -7 11 -16 0 -9 -5 -12 -12 -8 -7 4 -8 3 -4
-4 4 -6 14 -8 23 -5 9 4 14 2 11 -3 -9 -15 11 -56 23 -48 8 4 9 3 5 -5 -4 -6
-13 -9 -19 -5 -7 3 -3 -3 8 -13 11 -10 19 -26 17 -35 -3 -14 1 -16 15 -11 16
6 16 5 4 -10 -10 -13 -10 -17 -1 -17 9 0 10 -3 1 -14 -9 -11 -8 -15 4 -20 11
-4 14 -2 9 7 -5 9 -4 9 6 0 12 -11 11 -15 -6 -28 -14 -11 -15 -14 -3 -9 10 3
20 1 24 -5 3 -6 0 -11 -7 -11 -10 0 -9 -3 2 -9 8 -6 19 -7 25 -3 5 3 4 -1 -3
-10 -10 -13 -10 -19 4 -32 9 -9 13 -23 10 -31 -3 -9 0 -12 9 -9 10 4 12 0 8
-15 -5 -19 -15 -26 -37 -22 -4 1 -15 -4 -24 -11 -9 -7 -13 -8 -9 -2 4 7 -20
10 -74 10 -47 0 -79 -5 -79 -11 0 -5 -4 -4 -9 4 -5 8 -16 11 -24 8 -8 -3 -20
0 -27 6 -10 9 -11 9 -5 -2 6 -11 4 -13 -7 -8 -9 3 -19 3 -22 0 -12 -13 -57 -9
-52 4 4 9 -1 10 -18 3 -13 -5 -27 -6 -31 -2 -3 3 -11 0 -16 -8 -9 -13 -10 -12
-6 2 3 9 1 19 -6 22 -7 2 -5 5 5 5 9 1 20 6 24 13 4 7 3 8 -4 4 -7 -4 -12 -3
-12 2 0 6 7 13 15 16 13 4 14 10 5 26 -9 17 -8 19 7 13 16 -6 17 -5 3 12 -12
15 -12 17 -1 10 11 -6 13 -3 8 16 -6 23 -5 23 9 5 13 -19 14 -18 10 13 -2 23
0 31 10 27 8 -3 11 2 9 15 -3 16 0 19 13 14 13 -5 14 -4 5 6 -10 10 -9 15 5
26 16 12 15 13 -3 7 -19 -5 -19 -5 -3 9 14 11 15 16 5 27 -10 10 -8 10 10 1
16 -8 24 -8 29 1 4 7 3 8 -4 4 -17 -10 -15 6 5 33 10 16 12 21 3 16 -10 -6
-12 -4 -7 8 4 10 1 17 -5 17 -6 0 -8 3 -5 6 4 4 12 2 20 -4 10 -9 13 -5 11 18
-1 17 1 28 5 26 4 -3 13 4 20 16 9 14 9 18 1 13 -9 -5 -9 -2 -2 11 5 11 8 27
7 37 -2 9 1 17 6 17 5 0 9 -5 9 -11 0 -5 5 -7 10 -4 6 4 7 11 4 17 -4 7 -2 8
5 4 6 -4 9 -12 6 -17z m-101 -174 c-4 -8 -11 -15 -16 -15 -6 0 -5 6 2 15 7 8
14 15 16 15 2 0 1 -7 -2 -15z m741 -645 c3 -5 1 -10 -4 -10 -6 0 -11 5 -11 10
0 6 2 10 4 10 3 0 8 -4 11 -10z"/>
<path d="M4067 2299 c7 -7 15 -10 18 -7 3 3 -2 9 -12 12 -14 6 -15 5 -6 -5z"/>
<path d="M3960 1841 c0 -6 4 -13 10 -16 6 -3 7 1 4 9 -7 18 -14 21 -14 7z"/>
<path d="M6354 2595 c4 -12 2 -13 -13 -5 -22 11 -40 -5 -36 -32 2 -10 -1 -20
-6 -24 -5 -3 -9 -11 -9 -17 0 -7 5 -4 11 6 5 9 14 17 20 17 5 0 2 -12 -8 -27
-15 -25 -16 -26 -1 -15 14 11 16 11 11 -7 -3 -12 -8 -19 -12 -17 -3 2 -6 -7
-6 -20 0 -13 6 -24 13 -24 7 0 10 -5 7 -10 -4 -6 -10 -8 -14 -6 -4 3 -8 -1 -8
-9 0 -8 4 -12 7 -10 4 3 6 -10 5 -28 -2 -17 -7 -31 -12 -30 -5 1 -10 -5 -10
-13 0 -10 4 -11 11 -4 5 5 14 10 19 10 5 0 1 -7 -8 -16 -15 -15 -15 -18 1 -36
17 -18 17 -19 -2 -12 -16 6 -17 5 -6 -7 13 -14 17 -33 5 -26 -5 3 -8 -6 -8
-19 0 -13 6 -24 13 -24 7 0 10 -5 7 -10 -4 -6 -10 -8 -15 -5 -4 3 -7 -3 -5
-12 2 -10 4 -22 4 -26 1 -5 6 -5 12 -2 6 4 5 -2 -2 -13 -7 -12 -18 -18 -24
-14 -5 3 -3 -2 5 -13 15 -19 15 -22 -2 -42 -6 -8 -6 -18 1 -30 6 -10 11 -12
11 -5 0 6 4 12 9 12 5 0 7 -9 4 -20 -3 -11 -8 -18 -12 -16 -3 2 -6 -7 -6 -20
0 -13 6 -24 13 -24 7 0 10 -5 7 -10 -4 -6 -10 -8 -14 -6 -4 3 -8 -1 -8 -9 0
-8 4 -12 9 -9 5 3 6 -5 3 -19 -4 -14 -2 -28 4 -32 8 -4 7 -13 -4 -28 -13 -19
-13 -23 2 -39 16 -18 16 -18 -3 -12 -16 6 -17 5 -6 -7 13 -14 17 -33 5 -26 -5
3 -8 -6 -8 -19 0 -13 6 -24 13 -24 7 0 10 -5 7 -10 -4 -6 -10 -8 -15 -5 -4 3
-7 -3 -5 -12 2 -10 4 -22 4 -26 1 -5 6 -5 12 -2 6 4 5 -2 -2 -13 -7 -12 -17
-18 -23 -15 -5 4 -6 1 0 -8 12 -20 14 -38 3 -45 -5 -3 -9 -11 -9 -17 0 -7 5
-4 11 6 5 9 14 17 20 17 5 0 2 -12 -8 -27 -15 -25 -16 -26 -1 -15 14 11 16 11
11 -7 -3 -12 -8 -19 -12 -17 -3 2 -6 -7 -6 -20 0 -13 6 -24 13 -24 7 0 10 -5
7 -10 -4 -6 -10 -8 -15 -5 -4 3 -6 -5 -2 -17 4 -16 2 -19 -9 -13 -11 7 -12 6
-3 -6 6 -8 10 -22 9 -31 -2 -11 2 -15 11 -11 9 3 14 -2 15 -13 0 -18 1 -17 9
1 5 11 9 14 9 7 1 -7 6 -10 11 -7 6 4 7 12 3 18 -4 7 0 6 10 -2 19 -15 23 -26
5 -15 -7 4 -8 3 -4 -4 5 -9 13 -8 30 3 20 13 25 13 46 -2 13 -9 20 -11 16 -5
-5 8 0 12 13 13 12 1 27 2 34 3 6 1 19 -1 27 -5 8 -3 24 -3 35 1 11 4 32 4 48
-1 18 -5 27 -4 27 4 0 7 4 6 10 -3 5 -8 10 -10 10 -5 0 7 22 10 58 8 70 -4 64
-4 134 -2 37 1 64 -3 75 -12 11 -9 14 -10 9 -1 -5 8 -1 12 11 13 10 0 30 2 45
3 14 1 25 -1 22 -5 -2 -4 5 -9 17 -12 12 -3 22 0 25 7 6 16 54 12 65 -6 6 -10
9 -8 10 7 0 11 3 15 5 9 3 -7 15 -9 27 -6 20 5 21 4 7 -14 -14 -17 -14 -18 2
-6 9 8 22 11 28 7 5 -3 13 0 16 8 6 17 53 14 65 -5 7 -11 9 -11 9 0 0 8 6 12
13 9 6 -2 17 3 24 12 10 13 11 14 10 1 -2 -8 -7 -22 -12 -30 -5 -10 -1 -8 13
3 12 11 26 16 34 11 7 -4 10 -4 6 1 -4 4 -3 17 3 28 7 13 7 17 1 13 -6 -3 -13
-2 -17 4 -4 6 -12 7 -18 3 -7 -4 -5 2 3 12 9 11 10 16 3 11 -9 -5 -13 0 -13
13 0 12 -5 21 -11 21 -5 0 -7 -5 -3 -12 4 -7 3 -8 -4 -4 -8 5 -8 15 -2 32 9
22 8 24 -10 14 -16 -9 -19 -8 -13 6 4 12 3 15 -5 10 -7 -4 -12 -3 -12 3 0 5 5
13 11 17 7 4 -5 16 -27 29 -34 19 -41 20 -56 8 -12 -11 -18 -12 -24 -2 -5 8
-3 10 6 4 9 -5 11 -4 6 4 -4 6 -13 8 -19 4 -18 -11 -77 -11 -77 1 0 5 -6 2
-13 -9 -11 -14 -16 -15 -22 -5 -6 9 -4 11 5 5 9 -5 11 -4 6 3 -5 9 -15 7 -34
-6 -19 -12 -24 -13 -17 -3 6 11 4 13 -8 8 -9 -3 -19 -1 -23 5 -5 7 -11 6 -19
-6 -11 -15 -13 -15 -19 -1 -4 10 -11 13 -18 8 -19 -11 -78 -11 -78 1 0 5 -6 2
-13 -9 -11 -14 -16 -15 -22 -5 -6 9 -4 11 5 5 9 -5 11 -4 6 3 -5 9 -15 7 -34
-6 -19 -12 -24 -13 -17 -3 6 11 4 13 -8 8 -9 -3 -19 -1 -23 5 -5 7 -12 5 -21
-7 -7 -11 -13 -14 -13 -8 0 6 -11 13 -25 15 -18 4 -22 2 -16 -6 6 -7 2 -11
-14 -11 -15 0 -21 4 -17 14 4 10 2 12 -9 5 -8 -5 -28 -9 -46 -9 -24 0 -35 6
-43 24 -9 20 -8 23 7 17 16 -6 16 -6 0 12 -15 17 -15 20 0 41 15 23 15 23 -8
10 -20 -10 -22 -10 -13 2 5 8 10 25 9 39 0 14 4 28 10 32 6 5 5 8 -3 8 -10 0
-10 5 -1 22 10 18 9 20 -6 14 -15 -5 -16 -4 -5 9 7 8 9 15 4 15 -5 0 -2 5 6
10 8 5 10 10 3 10 -17 0 -10 28 13 46 10 8 14 13 7 10 -6 -4 -14 -2 -17 3 -5
7 22 8 32 1 1 -2 5 -3 10 -4 4 -1 13 -5 19 -9 9 -6 11 -3 6 10 -5 14 -4 16 8
8 18 -14 73 -20 66 -8 -4 6 0 10 8 10 8 0 12 -4 9 -9 -6 -9 32 -5 42 4 8 9 35
-2 29 -11 -2 -4 2 -8 9 -8 8 0 12 5 10 12 -3 6 5 11 16 11 14 0 19 -5 15 -15
-4 -11 -3 -12 10 -1 8 7 15 9 15 4 0 -4 5 -3 11 3 14 14 41 5 33 -11 -3 -6 0
-4 8 4 14 16 52 24 42 9 -3 -5 5 -7 18 -5 13 3 23 5 23 6 0 1 15 2 33 3 21 1
31 -2 28 -10 -3 -7 1 -10 9 -6 8 3 12 10 8 17 -4 6 0 6 9 -2 12 -10 18 -10 23
-1 6 8 9 8 15 0 5 -9 14 -9 34 -1 25 9 28 8 22 -7 -5 -15 -4 -15 9 1 8 11 15
15 15 9 0 -7 8 -11 18 -10 10 0 19 7 19 14 0 6 -4 10 -9 7 -4 -3 -8 0 -8 5 0
6 5 11 11 11 6 0 9 6 6 13 -2 6 -10 11 -16 9 -7 -1 -10 2 -6 8 3 6 12 7 18 3
7 -4 5 2 -3 12 -13 17 -13 18 1 13 23 -9 18 28 -7 47 -16 13 -16 14 -1 9 9 -3
17 -1 17 5 0 6 -4 11 -9 11 -5 0 -11 9 -14 21 -3 12 -10 18 -16 14 -6 -3 -11
-2 -11 3 0 5 -7 9 -15 9 -8 0 -15 -5 -15 -10 0 -5 -8 -3 -17 4 -11 10 -14 10
-9 2 4 -7 3 -13 -3 -13 -5 0 -12 6 -14 13 -4 8 -8 8 -14 2 -10 -13 -33 -17
-33 -7 0 5 -7 9 -15 9 -8 0 -15 -5 -15 -10 0 -5 -8 -3 -17 4 -11 10 -14 10 -9
2 4 -7 2 -13 -3 -13 -6 0 -11 4 -11 9 0 5 -7 12 -16 15 -13 5 -14 3 -6 -7 8
-10 6 -13 -9 -13 -10 0 -19 3 -19 6 0 4 -7 7 -15 7 -8 0 -15 -5 -15 -10 0 -5
-8 -3 -17 4 -11 10 -14 10 -9 2 4 -7 2 -13 -3 -13 -6 0 -11 5 -11 12 0 9 -3 9
-11 1 -14 -14 -41 -5 -33 11 3 6 0 4 -8 -4 -19 -22 -42 -25 -34 -4 5 13 4 14
-7 6 -8 -7 -17 -9 -20 -5 -4 3 -7 1 -7 -7 0 -10 -4 -10 -17 1 -11 10 -14 10
-9 2 4 -7 2 -13 -3 -13 -6 0 -11 4 -11 8 0 5 -7 9 -15 9 -8 0 -12 -4 -9 -9 3
-4 0 -8 -5 -8 -6 0 -11 4 -11 9 0 5 -7 12 -16 15 -13 5 -14 3 -6 -6 8 -10 4
-13 -14 -14 -13 -1 -24 2 -24 6 0 4 -7 11 -16 14 -13 5 -14 3 -6 -6 8 -10 4
-13 -14 -14 -13 -1 -24 2 -24 8 0 5 5 6 12 2 7 -4 8 -3 4 4 -4 6 -12 9 -19 6
-9 -3 -13 5 -12 28 0 21 5 32 14 30 7 -1 10 2 6 8 -3 6 -10 8 -14 6 -4 -3 -7
6 -7 20 0 13 5 24 11 24 5 0 3 5 -5 10 -8 5 -10 10 -4 10 6 0 11 7 11 15 0 10
-6 14 -16 10 -13 -4 -12 -2 2 9 17 13 25 32 9 22 -4 -2 -8 6 -8 20 0 18 4 23
15 19 10 -4 9 0 -4 15 -19 21 -19 21 10 16 27 -5 28 -4 12 8 -12 9 -14 16 -8
21 6 3 11 1 11 -5 0 -6 6 -10 13 -9 6 1 21 1 32 0 17 -1 18 -3 5 -12 -12 -9
-12 -10 3 -5 10 3 21 6 23 6 3 0 2 5 -2 12 -4 7 -3 8 5 4 6 -4 19 -2 28 6 9 7
14 8 10 2 -4 -7 0 -17 8 -24 13 -11 14 -10 9 6 -7 18 -6 18 12 3 19 -16 57
-22 48 -8 -2 5 -11 6 -19 2 -8 -3 -15 1 -15 8 0 7 3 9 7 6 3 -4 13 -1 21 6 13
9 14 9 8 0 -4 -8 -1 -13 9 -13 9 0 13 -4 10 -10 -3 -6 1 -7 9 -4 9 3 14 10 11
14 -3 5 0 12 6 16 8 5 9 3 4 -6 -6 -10 -4 -12 8 -7 9 3 19 2 22 -3 4 -6 11
-10 16 -10 6 0 7 4 4 10 -3 6 1 7 9 4 9 -3 13 -11 10 -18 -3 -6 2 -2 10 8 15
18 16 18 16 2 0 -9 5 -14 10 -11 6 4 8 10 5 15 -3 5 0 12 6 16 8 4 9 3 5 -4
-4 -7 -2 -12 4 -12 6 0 8 -4 5 -10 -3 -6 1 -7 9 -4 9 3 13 11 9 17 -3 6 -1 7
6 3 6 -4 19 -2 28 6 11 8 14 9 10 1 -5 -7 1 -17 13 -23 18 -10 22 -8 27 9 3
11 9 18 14 15 5 -3 7 -9 4 -14 -3 -4 2 -11 11 -14 8 -3 12 -2 9 4 -3 6 3 10
14 10 12 0 21 5 21 12 0 6 3 8 6 5 4 -4 1 -14 -7 -23 -13 -16 -12 -16 8 -6 12
7 32 12 45 12 19 0 20 -2 8 -11 -12 -9 -12 -10 3 -5 10 3 21 6 23 6 3 0 2 5
-2 12 -5 7 -3 8 7 2 30 -19 68 -2 49 21 -8 10 -8 15 1 21 8 4 9 3 5 -4 -4 -7
-2 -12 5 -12 6 0 9 8 6 20 -3 11 2 25 12 32 14 12 15 11 2 -4 -9 -12 -10 -18
-2 -18 10 0 12 5 15 37 1 7 17 26 36 43 23 20 31 33 23 36 -7 3 -13 11 -13 17
0 15 -50 16 -50 2 0 -5 -5 -2 -11 8 -8 14 -14 15 -31 6 -16 -9 -23 -8 -29 2
-8 13 -13 6 -10 -13 0 -4 -6 -5 -14 -2 -8 4 -12 10 -9 15 3 5 -2 6 -10 3 -9
-3 -13 -10 -10 -15 8 -14 -3 -10 -20 7 -15 14 -16 14 -16 -3 -1 -17 -1 -17
-11 0 -8 14 -14 15 -31 6 -16 -9 -23 -8 -29 2 -8 13 -13 6 -10 -13 0 -4 -6 -5
-14 -2 -8 4 -12 11 -8 18 4 6 -1 5 -10 -3 -12 -9 -17 -10 -17 -2 0 7 -5 9 -10
6 -6 -4 -8 -10 -6 -14 3 -4 -1 -8 -9 -8 -8 0 -12 4 -9 9 3 4 -2 8 -11 8 -9 0
-13 -4 -10 -10 3 -6 -1 -7 -9 -4 -9 3 -16 11 -16 18 0 7 -4 6 -9 -2 -4 -8 -12
-14 -16 -14 -4 0 -12 6 -16 14 -5 8 -9 9 -9 2 0 -7 -7 -15 -16 -18 -8 -3 -12
-2 -9 4 9 14 -9 12 -24 -2 -10 -11 -11 -9 -5 7 6 16 5 18 -7 8 -14 -14 -33
-18 -25 -5 2 4 -8 8 -24 7 -19 0 -25 -4 -20 -11 6 -7 -1 -9 -22 -8 -17 1 -35
8 -39 16 -7 10 -9 10 -9 1 0 -15 -21 -13 -32 2 -5 6 -8 6 -8 -1 0 -7 -7 -15
-16 -18 -8 -3 -12 -2 -9 4 9 14 -9 12 -24 -2 -10 -11 -11 -9 -5 7 6 16 5 18
-7 8 -14 -14 -33 -18 -25 -5 2 4 -8 8 -24 7 -19 0 -25 -4 -20 -11 6 -7 -1 -9
-22 -8 -17 1 -35 8 -39 16 -7 10 -9 10 -9 1 0 -15 -21 -13 -32 2 -5 6 -8 6 -8
-1 0 -6 -11 -11 -25 -11 -14 0 -25 3 -25 8 0 5 -5 9 -11 9 -6 0 -9 -7 -5 -15z
m1026 -40 c0 -1 -6 -8 -14 -14 -11 -9 -16 -9 -22 0 -5 8 -3 9 6 4 10 -6 12 -4
7 8 -4 11 -2 14 9 10 7 -3 14 -6 14 -8z m-105 -154 c-9 -8 -36 -10 -30 -2 2 4
11 8 20 8 8 0 13 -3 10 -6z m-955 -356 c-7 -9 -15 -13 -17 -11 -7 7 7 26 19
26 6 0 6 -6 -2 -15z"/>
<path d="M7390 2590 c-9 -6 -10 -10 -3 -10 6 0 15 5 18 10 8 12 4 12 -15 0z"/>
<path d="M2970 2500 c0 -5 5 -10 11 -10 5 0 7 5 4 10 -3 6 -8 10 -11 10 -2 0
-4 -4 -4 -10z"/>
<path d="M7335 2501 c-3 -5 -2 -12 3 -15 5 -3 9 1 9 9 0 17 -3 19 -12 6z"/>
<path d="M5430 2380 c0 -5 9 -8 20 -7 21 1 18 10 -5 13 -8 1 -15 -2 -15 -6z"/>
<path d="M5185 2370 c-3 -5 -1 -10 4 -10 6 0 11 5 11 10 0 6 -2 10 -4 10 -3 0
-8 -4 -11 -10z"/>
<path d="M2975 2341 c-3 -5 -2 -12 3 -15 5 -3 9 1 9 9 0 17 -3 19 -12 6z"/>
<path d="M2976 2182 c-2 -4 -1 -14 4 -22 7 -11 9 -9 7 8 -1 24 -3 26 -11 14z"/>
<path d="M2930 2121 c0 -6 4 -13 10 -16 6 -3 7 1 4 9 -7 18 -14 21 -14 7z"/>
<path d="M5895 2100 c3 -5 8 -10 11 -10 2 0 4 5 4 10 0 6 -5 10 -11 10 -5 0
-7 -4 -4 -10z"/>
<path d="M7236 2085 c4 -8 8 -15 10 -15 2 0 4 7 4 15 0 8 -4 15 -10 15 -5 0
-7 -7 -4 -15z"/>
<path d="M4470 2026 c0 -2 7 -9 15 -16 13 -11 14 -10 9 4 -5 14 -24 23 -24 12z"/>
<path d="M5150 1896 c0 -2 8 -10 18 -17 15 -13 16 -12 3 4 -13 16 -21 21 -21
13z"/>
<path d="M5316 1882 c-3 -5 1 -9 9 -9 8 0 12 4 9 9 -3 4 -7 8 -9 8 -2 0 -6 -4
-9 -8z"/>
<path d="M5636 1882 c-3 -5 1 -9 9 -9 8 0 12 4 9 9 -3 4 -7 8 -9 8 -2 0 -6 -4
-9 -8z"/>
<path d="M6293 1843 c0 -9 4 -10 14 -2 7 6 13 12 13 14 0 1 -6 2 -13 2 -8 0
-14 -6 -14 -14z"/>
<path d="M980 1740 c0 -6 7 -10 15 -10 8 0 15 2 15 4 0 2 -7 6 -15 10 -8 3
-15 1 -15 -4z"/>
<path d="M2975 1701 c-3 -5 -2 -12 3 -15 5 -3 9 1 9 9 0 17 -3 19 -12 6z"/>
<path d="M1230 1600 c0 -5 5 -10 11 -10 5 0 7 5 4 10 -3 6 -8 10 -11 10 -2 0
-4 -4 -4 -10z"/>
<path d="M4330 1599 c0 -5 5 -7 10 -4 6 3 10 8 10 11 0 2 -4 4 -10 4 -5 0 -10
-5 -10 -11z"/>
<path d="M740 1582 c0 -5 7 -9 15 -9 8 0 12 4 9 9 -3 4 -9 8 -15 8 -5 0 -9 -4
-9 -8z"/>
<path d="M2975 1541 c-3 -5 -2 -12 3 -15 5 -3 9 1 9 9 0 17 -3 19 -12 6z"/>
<path d="M1466 1362 c-3 -5 1 -9 9 -9 8 0 12 4 9 9 -3 4 -7 8 -9 8 -2 0 -6 -4
-9 -8z"/>
<path d="M2204 1362 c4 -3 14 -7 22 -8 9 -1 13 0 10 4 -4 3 -14 7 -22 8 -9 1
-13 0 -10 -4z"/>
<path d="M3164 1362 c4 -3 14 -7 22 -8 9 -1 13 0 10 4 -4 3 -14 7 -22 8 -9 1
-13 0 -10 -4z"/>
<path d="M5315 1361 c-3 -5 -2 -12 3 -15 5 -3 9 1 9 9 0 17 -3 19 -12 6z"/>
<path d="M5386 1362 c-3 -5 1 -9 9 -9 8 0 12 4 9 9 -3 4 -7 8 -9 8 -2 0 -6 -4
-9 -8z"/>
<path d="M6426 1357 c3 -10 9 -15 12 -12 3 3 0 11 -7 18 -10 9 -11 8 -5 -6z"/>
<path d="M6506 1358 c3 -5 10 -6 15 -3 13 9 11 12 -6 12 -8 0 -12 -4 -9 -9z"/>
<path d="M6906 1357 c3 -10 9 -15 12 -12 3 3 0 11 -7 18 -10 9 -11 8 -5 -6z"/>
<path d="M6976 1362 c-3 -5 1 -9 9 -9 8 0 12 4 9 9 -3 4 -7 8 -9 8 -2 0 -6 -4
-9 -8z"/>
</g>
</svg>
