<svg width="134" height="142" viewBox="0 0 134 142" fill="none" xmlns="http://www.w3.org/2000/svg">
<g clip-path="url(#clip0_142_9)">
<path d="M119.65 72.86C119.65 65.4495 118.19 58.1116 115.354 51.2652C112.519 44.4188 108.362 38.198 103.122 32.958C97.882 27.7179 91.6612 23.5613 84.8148 20.7255C77.9684 17.8896 70.6305 16.43 63.22 16.43C48.2538 16.43 33.9006 22.3753 23.3179 32.958C12.7353 43.5406 6.78998 57.8938 6.78998 72.86C6.78998 87.8262 12.7353 102.179 23.3179 112.762C33.9006 123.345 48.2538 129.29 63.22 129.29C70.6305 129.29 77.9684 127.83 84.8148 124.995C91.6612 122.159 97.882 118.002 103.122 112.762C108.362 107.522 112.519 101.301 115.354 94.4548C118.19 87.6084 119.65 80.2705 119.65 72.86Z" stroke="#F3F9FE" stroke-width="2"/>
<path d="M67.35 59.16C66.47 58.4933 65.57 58.0833 64.65 57.93" stroke="#7FA2D0" stroke-width="2"/>
<path d="M64.65 57.93C55.19 57.0633 45.7 55.7866 36.18 54.1C35.7733 54.0266 35.46 54.1666 35.24 54.52L33.7 57C33.48 57.3533 33.5533 57.63 33.92 57.83L54.25 68.96" stroke="#8BBCE3" stroke-width="2"/>
<path d="M54.25 68.96L56.14 69.57" stroke="#7FA2D0" stroke-width="2"/>
<path d="M56.14 69.57C53.3933 72.7633 50.53 75.85 47.55 78.83C46.9033 79.4767 46.25 81.3067 45.59 84.32C45.51 84.6667 45.2933 84.8167 44.94 84.77L34.64 83.46C34.377 83.4272 34.1106 83.4854 33.8853 83.625C33.66 83.7647 33.4893 83.9773 33.4016 84.2274C33.3139 84.4776 33.3146 84.7502 33.4034 84.9999C33.4923 85.2497 33.664 85.4615 33.89 85.6L42.79 91" stroke="#8BBCE3" stroke-width="2"/>
<path d="M42.79 91L40.12 94.11C39.9067 94.3567 39.78 94.6433 39.74 94.97C39.64 95.85 39.9967 96.4167 40.81 96.67C41.1167 96.7633 41.3867 96.7 41.62 96.48L44.59 93.57" stroke="#7FA2D0" stroke-width="2"/>
<path d="M44.59 93.57C46.8366 96.2033 48.7866 99.0433 50.44 102.09C50.571 102.337 50.7848 102.53 51.0439 102.635C51.3029 102.74 51.5907 102.75 51.8567 102.664C52.1227 102.579 52.35 102.402 52.4987 102.165C52.6474 101.928 52.708 101.647 52.67 101.37L51.4 91.32C51.3533 90.9467 51.5133 90.72 51.88 90.64C57.96 89.35 61.38 85.13 65.59 79.98C65.7166 79.8267 65.88 79.75 66.08 79.75H66.46" stroke="#8BBCE3" stroke-width="2"/>
<path d="M66.46 79.75L78.35 102.08C78.51 102.38 78.75 102.477 79.07 102.37C82.72 101.2 81.73 98.76 81.21 95.27C79.91 86.57 78.6333 77.8667 77.38 69.16C77.3466 68.9733 77.3733 68.7933 77.46 68.62C77.5133 68.5133 77.54 68.39 77.54 68.25" stroke="#7FA2D0" stroke-width="2"/>
<path d="M77.54 68.25C81.45 64.43 91.07 55.2 88.25 49.04C88.11 48.7267 87.8866 48.4967 87.58 48.35C81.04 45.18 71.55 54.33 67.35 59.16" stroke="#8BBCE3" stroke-width="2"/>
<path d="M77.54 68.25C77.5333 68.1567 77.5166 68.0633 77.49 67.97C77.4633 67.8833 77.41 67.8667 77.33 67.92C75.68 69 75.26 70.68 74.1 71.89C71.5666 74.5233 69.02 77.1433 66.46 79.75" stroke="#236BB7" stroke-width="2"/>
<path d="M44.59 93.57L47.65 89.14C47.87 88.8267 47.8166 88.5667 47.49 88.36C47.15 88.14 43.81 90.69 42.79 91" stroke="#236BB7" stroke-width="2"/>
<path d="M56.14 69.57C59.32 65.5366 63.0566 62.0666 67.35 59.16" stroke="#236BB7" stroke-width="2"/>
<path d="M64.65 57.93L54.47 68.03C54.3233 68.1833 54.25 68.3633 54.25 68.57V68.96" stroke="#236BB7" stroke-width="2"/>
<path d="M79.06 53.66L81.86 57.03C81.9341 57.1187 82.0251 57.1919 82.1275 57.2454C82.23 57.2989 82.342 57.3317 82.4572 57.3419C82.5723 57.3522 82.6884 57.3396 82.7987 57.3049C82.909 57.2703 83.0113 57.2143 83.1 57.14L83.23 57.03C84.0181 56.3767 84.5683 55.5019 84.7596 54.5979C84.9509 53.694 84.7676 52.8351 84.25 52.21L84.24 52.19C83.9835 51.8799 83.6524 51.6367 83.2656 51.4744C82.8789 51.312 82.4441 51.2337 81.9861 51.2439C81.5282 51.2541 81.0561 51.3527 80.5969 51.5339C80.1377 51.7151 79.7003 51.9755 79.31 52.3L79.17 52.42C79.0813 52.4942 79.0081 52.5851 78.9546 52.6876C78.9011 52.7901 78.8683 52.9021 78.8581 53.0172C78.8478 53.1324 78.8604 53.2484 78.8951 53.3587C78.9297 53.469 78.9857 53.5714 79.06 53.66Z" stroke="#799EA9" stroke-width="2"/>
<path d="M0 0H134V142H0V0ZM119.65 72.86C119.65 65.4495 118.19 58.1116 115.355 51.2652C112.519 44.4188 108.362 38.198 103.122 32.958C97.882 27.718 91.6612 23.5613 84.8148 20.7255C77.9684 17.8896 70.6305 16.43 63.22 16.43C48.2538 16.43 33.9006 22.3753 23.318 32.958C12.7353 43.5406 6.79 57.8938 6.79 72.86C6.79 87.8262 12.7353 102.179 23.318 112.762C33.9006 123.345 48.2538 129.29 63.22 129.29C70.6305 129.29 77.9684 127.83 84.8148 124.995C91.6612 122.159 97.882 118.002 103.122 112.762C108.362 107.522 112.519 101.301 115.355 94.4548C118.19 87.6084 119.65 80.2705 119.65 72.86Z" fill="white"/>
<path d="M119.65 72.86C119.65 80.2705 118.19 87.6084 115.354 94.4548C112.519 101.301 108.362 107.522 103.122 112.762C97.882 118.002 91.6612 122.159 84.8148 124.995C77.9684 127.83 70.6305 129.29 63.22 129.29C48.2538 129.29 33.9006 123.345 23.3179 112.762C12.7353 102.179 6.78998 87.8262 6.78998 72.86C6.78998 57.8938 12.7353 43.5406 23.3179 32.958C33.9006 22.3753 48.2538 16.43 63.22 16.43C70.6305 16.43 77.9684 17.8896 84.8148 20.7255C91.6612 23.5613 97.882 27.7179 103.122 32.958C108.362 38.198 112.519 44.4188 115.354 51.2652C118.19 58.1116 119.65 65.4495 119.65 72.86ZM67.35 59.16C66.47 58.4933 65.57 58.0833 64.65 57.93C55.19 57.0633 45.7 55.7867 36.18 54.1C35.7733 54.0267 35.46 54.1667 35.24 54.52L33.7 57C33.48 57.3533 33.5533 57.63 33.92 57.83L54.25 68.96L56.14 69.57C53.3933 72.7633 50.53 75.85 47.55 78.83C46.9033 79.4767 46.25 81.3067 45.59 84.32C45.51 84.6667 45.2933 84.8167 44.94 84.77L34.64 83.46C34.3769 83.4272 34.1106 83.4854 33.8853 83.625C33.6599 83.7646 33.4892 83.9772 33.4016 84.2274C33.3139 84.4776 33.3145 84.7502 33.4034 84.9999C33.4923 85.2497 33.664 85.4614 33.89 85.6L42.79 91L40.12 94.11C39.9066 94.3567 39.78 94.6433 39.74 94.97C39.64 95.85 39.9966 96.4167 40.81 96.67C41.1166 96.7633 41.3866 96.7 41.62 96.48L44.59 93.57C46.8366 96.2033 48.7866 99.0433 50.44 102.09C50.571 102.337 50.7848 102.53 51.0439 102.635C51.3029 102.74 51.5907 102.75 51.8567 102.664C52.1227 102.579 52.35 102.402 52.4987 102.165C52.6474 101.928 52.708 101.647 52.67 101.37L51.4 91.32C51.3533 90.9467 51.5133 90.72 51.88 90.64C57.96 89.35 61.38 85.13 65.59 79.98C65.7166 79.8267 65.88 79.75 66.08 79.75H66.46L78.35 102.08C78.51 102.38 78.75 102.477 79.07 102.37C82.72 101.2 81.73 98.76 81.21 95.27C79.91 86.57 78.6333 77.8667 77.38 69.16C77.3466 68.9733 77.3733 68.7933 77.46 68.62C77.5133 68.5133 77.54 68.39 77.54 68.25C81.45 64.43 91.07 55.2 88.25 49.04C88.11 48.7267 87.8866 48.4967 87.58 48.35C81.04 45.18 71.55 54.33 67.35 59.16Z" fill="#E7F3FC"/>
<path d="M77.54 68.25C77.5333 68.1567 77.5167 68.0633 77.49 67.97C77.4633 67.8833 77.41 67.8667 77.33 67.92C75.68 69 75.26 70.68 74.1 71.89C71.5667 74.5233 69.02 77.1433 66.46 79.75H66.08C65.88 79.75 65.7167 79.8267 65.59 79.98C61.38 85.13 57.96 89.35 51.88 90.64C51.5133 90.72 51.3533 90.9467 51.4 91.32L52.67 101.37C52.7081 101.647 52.6474 101.928 52.4987 102.165C52.35 102.402 52.1227 102.579 51.8567 102.664C51.5907 102.75 51.3029 102.74 51.0439 102.635C50.7849 102.53 50.5711 102.337 50.44 102.09C48.7867 99.0433 46.8367 96.2033 44.59 93.57L47.65 89.14C47.87 88.8267 47.8167 88.5667 47.49 88.36C47.15 88.14 43.81 90.69 42.79 91L33.89 85.6C33.664 85.4615 33.4923 85.2497 33.4034 85C33.3146 84.7502 33.3139 84.4776 33.4016 84.2274C33.4893 83.9773 33.66 83.7647 33.8853 83.625C34.1106 83.4854 34.377 83.4272 34.64 83.46L44.94 84.77C45.2933 84.8167 45.51 84.6667 45.59 84.32C46.25 81.3067 46.9033 79.4767 47.55 78.83C50.53 75.85 53.3933 72.7633 56.14 69.57C59.32 65.5367 63.0567 62.0667 67.35 59.16C71.55 54.33 81.04 45.18 87.58 48.35C87.8867 48.4967 88.11 48.7267 88.25 49.04C91.07 55.2 81.45 64.43 77.54 68.25ZM79.06 53.66L81.86 57.03C81.9342 57.1187 82.0251 57.1919 82.1276 57.2454C82.23 57.2989 82.342 57.3317 82.4572 57.3419C82.5724 57.3521 82.6884 57.3396 82.7987 57.3049C82.909 57.2703 83.0114 57.2142 83.1 57.14L83.23 57.03C84.0181 56.3767 84.5683 55.5019 84.7596 54.5979C84.9509 53.694 84.7676 52.8351 84.25 52.21L84.24 52.19C83.9835 51.8799 83.6524 51.6367 83.2656 51.4743C82.8789 51.312 82.4441 51.2337 81.9862 51.2439C81.5282 51.2541 81.0561 51.3527 80.5969 51.5339C80.1377 51.7151 79.7004 51.9755 79.31 52.3L79.17 52.42C79.0813 52.4942 79.0081 52.5851 78.9546 52.6876C78.9011 52.7901 78.8683 52.9021 78.8581 53.0172C78.8479 53.1324 78.8604 53.2484 78.8951 53.3587C78.9297 53.469 78.9858 53.5714 79.06 53.66Z" fill="#2F84CA"/>
<path d="M79.06 53.66C78.9857 53.5714 78.9297 53.469 78.8951 53.3587C78.8604 53.2484 78.8478 53.1324 78.8581 53.0172C78.8683 52.9021 78.9011 52.7901 78.9546 52.6876C79.0081 52.5851 79.0813 52.4942 79.17 52.42L79.31 52.3C79.7003 51.9755 80.1377 51.7151 80.5969 51.5339C81.0561 51.3527 81.5282 51.2541 81.9861 51.2439C82.4441 51.2337 82.8789 51.312 83.2656 51.4744C83.6524 51.6367 83.9835 51.8799 84.24 52.19L84.25 52.21C84.7676 52.8351 84.9509 53.694 84.7596 54.5979C84.5683 55.5019 84.0181 56.3767 83.23 57.03L83.1 57.14C83.0113 57.2143 82.909 57.2703 82.7987 57.3049C82.6884 57.3396 82.5723 57.3522 82.4572 57.3419C82.342 57.3317 82.23 57.2989 82.1275 57.2454C82.0251 57.1919 81.9341 57.1187 81.86 57.03L79.06 53.66Z" fill="#C2B787"/>
<path d="M64.65 57.93L54.47 68.03C54.3233 68.1834 54.25 68.3634 54.25 68.57V68.96L33.92 57.83C33.5533 57.63 33.48 57.3534 33.7 57L35.24 54.52C35.46 54.1667 35.7733 54.0267 36.18 54.1C45.7 55.7867 55.19 57.0634 64.65 57.93Z" fill="#2F84CA"/>
<path d="M64.65 57.93C65.57 58.0833 66.47 58.4933 67.35 59.16C63.0567 62.0667 59.32 65.5367 56.14 69.57L54.25 68.96V68.57C54.25 68.3633 54.3233 68.1833 54.47 68.03L64.65 57.93Z" fill="#1751A3"/>
<path d="M77.54 68.25C77.54 68.39 77.5134 68.5133 77.46 68.62C77.3734 68.7933 77.3467 68.9733 77.38 69.16C78.6334 77.8667 79.91 86.57 81.21 95.27C81.73 98.76 82.72 101.2 79.07 102.37C78.75 102.477 78.51 102.38 78.35 102.08L66.46 79.75C69.02 77.1433 71.5667 74.5233 74.1 71.89C75.26 70.68 75.68 69 77.33 67.92C77.41 67.8667 77.4634 67.8833 77.49 67.97C77.5167 68.0633 77.5334 68.1567 77.54 68.25Z" fill="#1751A3"/>
<path d="M44.59 93.57L41.62 96.48C41.3867 96.7 41.1167 96.7633 40.81 96.67C39.9967 96.4167 39.64 95.85 39.74 94.97C39.78 94.6433 39.9067 94.3567 40.12 94.11L42.79 91C43.81 90.69 47.15 88.14 47.49 88.36C47.8167 88.5667 47.87 88.8267 47.65 89.14L44.59 93.57Z" fill="#1751A3"/>
</g>
<defs>
<clipPath id="clip0_142_9">
<rect width="134" height="142" fill="white"/>
</clipPath>
</defs>
</svg>
