<?xml version="1.0" encoding="UTF-8" standalone="no"?>
<!DOCTYPE svg PUBLIC "-//W3C//DTD SVG 1.1//EN" "http://www.w3.org/Graphics/SVG/1.1/DTD/svg11.dtd">
<svg xmlns="http://www.w3.org/2000/svg" version="1.1" viewBox="0.00 0.00 31.00 32.00">
<g stroke-width="2.00" fill="none" stroke-linecap="butt">
<path stroke="#93b4e3" vector-effect="non-scaling-stroke" d="
  M 30.08 16.05
  A 14.39 14.39 0.0 0 0 15.69 1.66
  A 14.39 14.39 0.0 0 0 1.30 16.05
  A 14.39 14.39 0.0 0 0 15.69 30.44
  A 14.39 14.39 0.0 0 0 30.08 16.05"
/>
<path stroke="#93b4e3" vector-effect="non-scaling-stroke" d="
  M 27.76 16.12
  A 12.04 12.04 0.0 0 0 15.72 4.08
  A 12.04 12.04 0.0 0 0 3.68 16.12
  A 12.04 12.04 0.0 0 0 15.72 28.16
  A 12.04 12.04 0.0 0 0 27.76 16.12"
/>
<path stroke="#a0bdea" vector-effect="non-scaling-stroke" d="
  M 17.92 14.02
  A 0.88 0.88 0.0 0 1 17.21 13.31
  L 16.48 9.38
  A 0.88 0.88 0.0 0 0 14.75 9.39
  L 14.08 13.34
  A 0.88 0.88 0.0 0 1 13.37 14.05
  L 9.44 14.78
  A 0.88 0.88 0.0 0 0 9.45 16.51
  L 13.40 17.18
  A 0.88 0.88 0.0 0 1 14.11 17.89
  L 14.84 21.82
  A 0.88 0.88 0.0 0 0 16.57 21.81
  L 17.24 17.86
  A 0.88 0.88 0.0 0 1 17.95 17.15
  L 21.88 16.42
  A 0.88 0.88 0.0 0 0 21.87 14.69
  L 17.92 14.02"
/>
</g>
<path fill="#ffffff" d="
  M 0.00 0.00
  L 31.00 0.00
  L 31.00 32.00
  L 0.00 32.00
  L 0.00 0.00
  Z
  M 30.08 16.05
  A 14.39 14.39 0.0 0 0 15.69 1.66
  A 14.39 14.39 0.0 0 0 1.30 16.05
  A 14.39 14.39 0.0 0 0 15.69 30.44
  A 14.39 14.39 0.0 0 0 30.08 16.05
  Z"
/>
<path fill="#2668c7" d="
  M 30.08 16.05
  A 14.39 14.39 0.0 0 1 15.69 30.44
  A 14.39 14.39 0.0 0 1 1.30 16.05
  A 14.39 14.39 0.0 0 1 15.69 1.66
  A 14.39 14.39 0.0 0 1 30.08 16.05
  Z
  M 27.76 16.12
  A 12.04 12.04 0.0 0 0 15.72 4.08
  A 12.04 12.04 0.0 0 0 3.68 16.12
  A 12.04 12.04 0.0 0 0 15.72 28.16
  A 12.04 12.04 0.0 0 0 27.76 16.12
  Z"
/>
<path fill="#ffffff" d="
  M 27.76 16.12
  A 12.04 12.04 0.0 0 1 15.72 28.16
  A 12.04 12.04 0.0 0 1 3.68 16.12
  A 12.04 12.04 0.0 0 1 15.72 4.08
  A 12.04 12.04 0.0 0 1 27.76 16.12
  Z
  M 17.92 14.02
  A 0.88 0.88 0.0 0 1 17.21 13.31
  L 16.48 9.38
  A 0.88 0.88 0.0 0 0 14.75 9.39
  L 14.08 13.34
  A 0.88 0.88 0.0 0 1 13.37 14.05
  L 9.44 14.78
  A 0.88 0.88 0.0 0 0 9.45 16.51
  L 13.40 17.18
  A 0.88 0.88 0.0 0 1 14.11 17.89
  L 14.84 21.82
  A 0.88 0.88 0.0 0 0 16.57 21.81
  L 17.24 17.86
  A 0.88 0.88 0.0 0 1 17.95 17.15
  L 21.88 16.42
  A 0.88 0.88 0.0 0 0 21.87 14.69
  L 17.92 14.02
  Z"
/>
<path fill="#407bd4" d="
  M 17.92 14.02
  L 21.87 14.69
  A 0.88 0.88 0.0 0 1 21.88 16.42
  L 17.95 17.15
  A 0.88 0.88 0.0 0 0 17.24 17.86
  L 16.57 21.81
  A 0.88 0.88 0.0 0 1 14.84 21.82
  L 14.11 17.89
  A 0.88 0.88 0.0 0 0 13.40 17.18
  L 9.45 16.51
  A 0.88 0.88 0.0 0 1 9.44 14.78
  L 13.37 14.05
  A 0.88 0.88 0.0 0 0 14.08 13.34
  L 14.75 9.39
  A 0.88 0.88 0.0 0 1 16.48 9.38
  L 17.21 13.31
  A 0.88 0.88 0.0 0 0 17.92 14.02
  Z"
/>
</svg>
