<svg width="132" height="142" viewBox="0 0 132 142" fill="none" xmlns="http://www.w3.org/2000/svg">
<g clip-path="url(#clip0_142_141)">
<path d="M123.93 69.34C123.93 61.9282 122.47 54.589 119.634 47.7414C116.797 40.8938 112.64 34.6719 107.399 29.4309C102.158 24.19 95.9363 20.0326 89.0887 17.1963C82.2411 14.3599 74.9019 12.9 67.49 12.9C52.5212 12.9 38.1655 18.8464 27.5809 29.4309C16.9964 40.0155 11.05 54.3712 11.05 69.34C11.05 84.3088 16.9964 98.6646 27.5809 109.249C38.1655 119.834 52.5212 125.78 67.49 125.78C74.9019 125.78 82.2411 124.32 89.0887 121.484C95.9363 118.647 102.158 114.49 107.399 109.249C112.64 104.008 116.797 97.7863 119.634 90.9387C122.47 84.0911 123.93 76.7518 123.93 69.34Z" stroke="#F3F9FE" stroke-width="2"/>
<path d="M68.676 31.0837C68.6717 30.7389 68.5307 30.41 68.284 30.1692C68.0373 29.9284 67.705 29.7955 67.3603 29.7997L67.2402 29.8011C67.0695 29.8031 66.9009 29.8388 66.744 29.9061C66.5871 29.9733 66.4449 30.0708 66.3257 30.193C66.2064 30.3152 66.1124 30.4597 66.049 30.6182C65.9856 30.7767 65.9541 30.9461 65.9562 31.1169L66.0242 36.6765C66.0284 37.0212 66.1694 37.3501 66.4161 37.5909C66.6628 37.8317 66.9951 37.9646 67.3398 37.9605L67.4599 37.9591C67.6306 37.957 67.7992 37.9213 67.9561 37.854C68.113 37.7868 68.2552 37.6893 68.3744 37.5671C68.4937 37.4449 68.5877 37.3005 68.6511 37.1419C68.7145 36.9834 68.746 36.814 68.7439 36.6433L68.676 31.0837Z" stroke="#EFD3A2" stroke-width="2"/>
<path d="M87.6515 37.8626C87.8321 37.6103 87.9051 37.2966 87.8544 36.9904C87.8038 36.6843 87.6335 36.4108 87.3812 36.2302L87.2674 36.1487C87.0151 35.9681 86.7014 35.8951 86.3952 35.9458C86.0891 35.9965 85.8156 36.1667 85.635 36.419L82.3285 41.0374C82.1479 41.2897 82.0749 41.6035 82.1256 41.9096C82.1763 42.2157 82.3465 42.4892 82.5988 42.6698L82.7126 42.7513C82.9649 42.9319 83.2787 43.0049 83.5848 42.9542C83.8909 42.9035 84.1644 42.7333 84.345 42.481L87.6515 37.8626Z" stroke="#EFD3A2" stroke-width="2"/>
<path d="M49.31 36.6105C49.2196 36.4814 49.1047 36.3714 48.9718 36.2867C48.8389 36.202 48.6906 36.1444 48.5354 36.117C48.3802 36.0896 48.2211 36.0931 48.0673 36.1272C47.9134 36.1613 47.7678 36.2254 47.6387 36.3158L47.4585 36.442C47.3294 36.5324 47.2194 36.6473 47.1347 36.7802C47.05 36.9131 46.9924 37.0614 46.965 37.2166C46.9376 37.3718 46.9411 37.5309 46.9752 37.6847C47.0093 37.8386 47.0734 37.9842 47.1638 38.1133L50.4102 42.7497C50.5006 42.8788 50.6155 42.9888 50.7484 43.0735C50.8813 43.1581 51.0296 43.2158 51.1848 43.2432C51.34 43.2705 51.4991 43.2671 51.6529 43.233C51.8068 43.1989 51.9524 43.1348 52.0815 43.0444L52.2617 42.9182C52.3908 42.8278 52.5008 42.7129 52.5855 42.58C52.6702 42.447 52.7278 42.2988 52.7552 42.1436C52.7826 41.9884 52.7791 41.8293 52.745 41.6754C52.7109 41.5216 52.6468 41.376 52.5564 41.2469L49.31 36.6105Z" stroke="#EFD3A2" stroke-width="2"/>
<path d="M66.75 87.9601L73.11 87.1201C73.47 87.0734 73.6933 86.8734 73.78 86.5201C76.73 73.9801 89.35 69.8901 82.58 56.1801C80.3267 51.6268 76.5567 48.5968 71.27 47.0901" stroke="#EAC7A9" stroke-width="2"/>
<path d="M71.2701 47.09C61.2568 45.63 54.5201 49.3733 51.0601 58.32C46.8601 69.19 55.6701 74.95 59.7401 83.55C60.4401 85.01 60.4501 86.82 60.8901 88.46C60.9901 88.84 61.2334 88.9933 61.6201 88.92L66.7501 87.96" stroke="#EFD3A2" stroke-width="2"/>
<path d="M71.27 47.0901C71.73 48.2201 72.03 49.2201 72.91 50.1101C80.93 58.2701 78.76 66.0501 73.06 74.4001C70.2267 78.5401 68.1233 83.0601 66.75 87.9601" stroke="#F1A74F" stroke-width="2"/>
<path d="M98.9459 52.9905C98.839 52.6936 98.6185 52.4513 98.333 52.3169C98.0474 52.1825 97.7202 52.1671 97.4232 52.2739L92.3612 54.0963C92.2142 54.1493 92.079 54.2307 91.9634 54.3358C91.8478 54.441 91.7541 54.5679 91.6876 54.7094C91.621 54.8508 91.583 55.0039 91.5757 55.16C91.5683 55.3161 91.5918 55.4721 91.6447 55.6191L91.8141 56.0895C91.921 56.3865 92.1415 56.6288 92.4271 56.7632C92.7126 56.8976 93.0399 56.913 93.3368 56.8061L98.3988 54.9837C98.5459 54.9308 98.681 54.8494 98.7966 54.7442C98.9122 54.6391 99.0059 54.5121 99.0725 54.3707C99.139 54.2293 99.177 54.0762 99.1844 53.9201C99.1917 53.764 99.1683 53.608 99.1153 53.4609L98.9459 52.9905Z" stroke="#EFD3A2" stroke-width="2"/>
<path d="M42.8737 55.9621C43.0105 55.6283 43.0092 55.2539 42.87 54.9212C42.7308 54.5884 42.4651 54.3246 42.1314 54.1878L37.1538 52.1463C36.8201 52.0094 36.4457 52.0107 36.1129 52.1499C35.7802 52.2891 35.5164 52.5548 35.3795 52.8885L35.3263 53.0181C35.1894 53.3518 35.1908 53.7262 35.33 54.0589C35.4692 54.3917 35.7349 54.6555 36.0686 54.7924L41.0462 56.8339C41.3799 56.9707 41.7543 56.9694 42.0871 56.8302C42.4198 56.691 42.6836 56.4254 42.8205 56.0917L42.8737 55.9621Z" stroke="#EFD3A2" stroke-width="2"/>
<path d="M72.6833 90.8709C72.6782 90.8358 72.6661 90.8021 72.6479 90.7716C72.6297 90.7412 72.6057 90.7146 72.5772 90.6935C72.5487 90.6724 72.5164 90.657 72.482 90.6484C72.4476 90.6398 72.4118 90.638 72.3767 90.6432L61.9498 92.1829C61.9148 92.188 61.881 92.2001 61.8506 92.2183C61.8202 92.2365 61.7936 92.2605 61.7725 92.289C61.7513 92.3175 61.736 92.3498 61.7274 92.3842C61.7187 92.4186 61.717 92.4544 61.7221 92.4895L61.9967 94.3493C62.0019 94.3843 62.014 94.4181 62.0322 94.4485C62.0504 94.4789 62.0744 94.5055 62.1029 94.5266C62.1313 94.5478 62.1637 94.5631 62.1981 94.5717C62.2325 94.5804 62.2683 94.5821 62.3033 94.577L72.7302 93.0373C72.7653 93.0321 72.799 93.0201 72.8295 93.0018C72.8599 92.9836 72.8865 92.9596 72.9076 92.9311C72.9287 92.9027 72.9441 92.8703 72.9527 92.8359C72.9614 92.8015 72.9631 92.7657 72.9579 92.7307L72.6833 90.8709Z" stroke="#7491C4" stroke-width="2"/>
<path d="M72.7979 96.6682C72.788 96.6 72.7513 96.5385 72.696 96.4973C72.6407 96.4561 72.5713 96.4386 72.5031 96.4485L61.7766 98.0133C61.7084 98.0233 61.6469 98.0599 61.6057 98.1152C61.5645 98.1705 61.547 98.2399 61.5569 98.3081L61.7821 99.8518C61.7921 99.92 61.8287 99.9815 61.884 100.023C61.9393 100.064 62.0087 100.081 62.0769 100.072L72.8034 98.5067C72.8716 98.4968 72.9331 98.4601 72.9743 98.4048C73.0155 98.3495 73.0331 98.2801 73.0231 98.2119L72.7979 96.6682Z" stroke="#7491C4" stroke-width="2"/>
<path d="M70.5801 101.84C69.3101 102.13 63.4301 102.81 63.5201 104.08C63.5934 105.167 64.1367 105.517 65.1501 105.13C66.4234 104.637 67.7134 104.58 69.0201 104.96C69.3334 105.053 69.6367 105.037 69.9301 104.91C70.9567 104.49 71.4867 103.727 71.5201 102.62C71.5245 102.502 71.5018 102.385 71.4536 102.277C71.4055 102.169 71.3332 102.074 71.2423 101.998C71.1515 101.923 71.0445 101.869 70.9296 101.842C70.8148 101.815 70.6952 101.814 70.5801 101.84Z" stroke="#7491C4" stroke-width="2"/>
<path d="M0 0H132V142H0V0ZM123.93 69.34C123.93 61.9282 122.47 54.589 119.634 47.7413C116.797 40.8937 112.64 34.6718 107.399 29.4309C102.158 24.19 95.9363 20.0326 89.0887 17.1962C82.241 14.3599 74.9018 12.9 67.49 12.9C52.5212 12.9 38.1654 18.8463 27.5809 29.4309C16.9963 40.0154 11.05 54.3712 11.05 69.34C11.05 84.3088 16.9963 98.6646 27.5809 109.249C38.1654 119.834 52.5212 125.78 67.49 125.78C74.9018 125.78 82.241 124.32 89.0887 121.484C95.9363 118.647 102.158 114.49 107.399 109.249C112.64 104.008 116.797 97.7863 119.634 90.9387C122.47 84.091 123.93 76.7518 123.93 69.34Z" fill="white"/>
<path d="M123.93 69.34C123.93 76.7518 122.47 84.0911 119.634 90.9387C116.797 97.7863 112.64 104.008 107.399 109.249C102.158 114.49 95.9363 118.647 89.0887 121.484C82.2411 124.32 74.9019 125.78 67.49 125.78C52.5212 125.78 38.1655 119.834 27.5809 109.249C16.9964 98.6646 11.05 84.3088 11.05 69.34C11.05 54.3712 16.9964 40.0155 27.5809 29.4309C38.1655 18.8464 52.5212 12.9 67.49 12.9C74.9019 12.9 82.2411 14.3599 89.0887 17.1963C95.9363 20.0326 102.158 24.19 107.399 29.4309C112.64 34.6719 116.797 40.8938 119.634 47.7414C122.47 54.589 123.93 61.9282 123.93 69.34ZM68.676 31.0836C68.6717 30.7389 68.5307 30.4099 68.284 30.1691C68.0373 29.9284 67.705 29.7954 67.3602 29.7996L67.2402 29.801C67.0695 29.8031 66.9009 29.8388 66.744 29.906C66.5871 29.9733 66.4449 30.0708 66.3257 30.193C66.2064 30.3151 66.1124 30.4596 66.049 30.6181C65.9856 30.7767 65.9541 30.9461 65.9562 31.1168L66.0242 36.6764C66.0284 37.0212 66.1693 37.3501 66.4161 37.5909C66.6628 37.8317 66.9951 37.9646 67.3398 37.9604L67.4599 37.959C67.6306 37.9569 67.7992 37.9213 67.9561 37.854C68.113 37.7868 68.2552 37.6893 68.3744 37.5671C68.4937 37.4449 68.5877 37.3004 68.6511 37.1419C68.7145 36.9834 68.746 36.8139 68.7439 36.6432L68.676 31.0836ZM87.6515 37.8626C87.8322 37.6103 87.9052 37.2966 87.8545 36.9904C87.8038 36.6843 87.6336 36.4109 87.3812 36.2302L87.2674 36.1487C87.0151 35.9681 86.7014 35.8951 86.3953 35.9458C86.0891 35.9965 85.8157 36.1667 85.635 36.419L82.3285 41.0374C82.1479 41.2897 82.0749 41.6035 82.1256 41.9096C82.1763 42.2157 82.3465 42.4892 82.5988 42.6698L82.7126 42.7513C82.965 42.932 83.2787 43.0049 83.5848 42.9543C83.891 42.9036 84.1644 42.7333 84.345 42.481L87.6515 37.8626ZM49.3099 36.6104C49.2196 36.4813 49.1046 36.3713 48.9717 36.2866C48.8388 36.202 48.6905 36.1443 48.5353 36.1169C48.3801 36.0896 48.2211 36.093 48.0672 36.1271C47.9134 36.1613 47.7677 36.2253 47.6386 36.3157L47.4585 36.4419C47.3294 36.5323 47.2193 36.6472 47.1347 36.7801C47.05 36.9131 46.9923 37.0613 46.965 37.2165C46.9376 37.3717 46.9411 37.5308 46.9752 37.6847C47.0093 37.8385 47.0734 37.9841 47.1637 38.1132L50.4101 42.7496C50.5005 42.8787 50.6155 42.9887 50.7484 43.0734C50.8813 43.1581 51.0296 43.2158 51.1848 43.2431C51.34 43.2705 51.499 43.267 51.6529 43.2329C51.8067 43.1988 51.9524 43.1347 52.0815 43.0443L52.2617 42.9181C52.3907 42.8277 52.5008 42.7128 52.5854 42.5799C52.6701 42.447 52.7278 42.2987 52.7551 42.1435C52.7825 41.9883 52.779 41.8292 52.7449 41.6754C52.7108 41.5215 52.6467 41.3759 52.5564 41.2468L49.3099 36.6104ZM66.75 87.96L73.1101 87.12C73.4701 87.0734 73.6934 86.8734 73.78 86.52C76.73 73.98 89.35 69.89 82.58 56.18C80.3267 51.6267 76.5567 48.5967 71.27 47.09C61.2567 45.63 54.5201 49.3734 51.0601 58.32C46.8601 69.19 55.6701 74.95 59.7401 83.55C60.4401 85.01 60.4501 86.82 60.89 88.46C60.99 88.84 61.2334 88.9934 61.62 88.92L66.75 87.96ZM98.9459 52.9905C98.8391 52.6936 98.6186 52.4513 98.333 52.3169C98.0474 52.1825 97.7202 52.167 97.4232 52.2739L92.3612 54.0963C92.2142 54.1493 92.079 54.2307 91.9635 54.3358C91.8479 54.441 91.7541 54.5679 91.6876 54.7093C91.6211 54.8507 91.583 55.0039 91.5757 55.16C91.5683 55.3161 91.5918 55.4721 91.6447 55.6191L91.8141 56.0895C91.921 56.3865 92.1415 56.6288 92.4271 56.7632C92.7126 56.8976 93.0399 56.913 93.3368 56.8061L98.3988 54.9837C98.5459 54.9308 98.681 54.8494 98.7966 54.7442C98.9122 54.639 99.006 54.5121 99.0725 54.3707C99.139 54.2293 99.177 54.0762 99.1844 53.9201C99.1918 53.764 99.1683 53.608 99.1153 53.4609L98.9459 52.9905ZM42.8737 55.962C43.0106 55.6283 43.0093 55.2539 42.8701 54.9211C42.7309 54.5884 42.4652 54.3246 42.1315 54.1877L37.1539 52.1462C36.8201 52.0094 36.4457 52.0107 36.113 52.1499C35.7802 52.2891 35.5164 52.5547 35.3796 52.8884L35.3264 53.018C35.1895 53.3517 35.1908 53.7262 35.33 54.0589C35.4692 54.3917 35.7349 54.6555 36.0686 54.7923L41.0462 56.8338C41.38 56.9707 41.7544 56.9694 42.0871 56.8302C42.4199 56.691 42.6837 56.4253 42.8205 56.0916L42.8737 55.962ZM72.6833 90.8708C72.6782 90.8357 72.6661 90.802 72.6479 90.7716C72.6297 90.7411 72.6057 90.7146 72.5772 90.6935C72.5487 90.6723 72.5164 90.657 72.482 90.6483C72.4476 90.6397 72.4118 90.6379 72.3768 90.6431L61.9498 92.1828C61.9148 92.188 61.881 92.2 61.8506 92.2182C61.8202 92.2365 61.7936 92.2605 61.7725 92.289C61.7513 92.3174 61.736 92.3498 61.7274 92.3842C61.7187 92.4186 61.717 92.4543 61.7221 92.4894L61.9967 94.3492C62.0019 94.3843 62.014 94.418 62.0322 94.4485C62.0504 94.4789 62.0744 94.5054 62.1029 94.5266C62.1314 94.5477 62.1637 94.5631 62.1981 94.5717C62.2325 94.5803 62.2683 94.5821 62.3033 94.5769L72.7303 93.0372C72.7653 93.0321 72.7991 93.02 72.8295 93.0018C72.8599 92.9836 72.8865 92.9596 72.9076 92.9311C72.9288 92.9026 72.9441 92.8703 72.9527 92.8359C72.9614 92.8015 72.9631 92.7657 72.958 92.7306L72.6833 90.8708ZM72.7979 96.6682C72.788 96.6 72.7513 96.5385 72.696 96.4973C72.6408 96.4561 72.5714 96.4386 72.5031 96.4485L61.7766 98.0133C61.7084 98.0233 61.6469 98.0599 61.6058 98.1152C61.5646 98.1705 61.547 98.2399 61.5569 98.3081L61.7822 99.8518C61.7921 99.92 61.8288 99.9815 61.8841 100.023C61.9393 100.064 62.0087 100.081 62.077 100.072L72.8034 98.5067C72.8717 98.4968 72.9331 98.4601 72.9743 98.4048C73.0155 98.3495 73.0331 98.2802 73.0232 98.2119L72.7979 96.6682ZM70.5801 101.84C69.3101 102.13 63.43 102.81 63.5201 104.08C63.5934 105.167 64.1367 105.517 65.1501 105.13C66.4234 104.637 67.7134 104.58 69.02 104.96C69.3334 105.053 69.6367 105.037 69.93 104.91C70.9567 104.49 71.4867 103.727 71.52 102.62C71.5245 102.502 71.5018 102.385 71.4536 102.277C71.4055 102.169 71.3332 102.074 71.2423 101.998C71.1514 101.923 71.0445 101.869 70.9296 101.842C70.8148 101.815 70.6952 101.814 70.5801 101.84Z" fill="#E7F3FC"/>
<path d="M67.3602 29.7995L67.2402 29.801C66.5223 29.8098 65.9474 30.3989 65.9562 31.1168L66.0241 36.6764C66.0329 37.3943 66.622 37.9692 67.3399 37.9604L67.4599 37.9589C68.1778 37.9502 68.7527 37.3611 68.7439 36.6432L68.676 31.0836C68.6672 30.3657 68.0781 29.7908 67.3602 29.7995Z" fill="#F6B247"/>
<path d="M87.3812 36.2302L87.2674 36.1487C86.742 35.7726 86.0111 35.8936 85.635 36.419L82.3285 41.0374C81.9523 41.5628 82.0733 42.2937 82.5987 42.6698L82.7126 42.7513C83.238 43.1275 83.9688 43.0065 84.345 42.4811L87.6514 37.8626C88.0276 37.3372 87.9066 36.6064 87.3812 36.2302Z" fill="#F6B247"/>
<path d="M47.6385 36.3158L47.4583 36.442C46.9154 36.8221 46.7835 37.5703 47.1636 38.1132L50.4101 42.7496C50.7902 43.2925 51.5385 43.4245 52.0814 43.0443L52.2616 42.9181C52.8045 42.538 52.9364 41.7897 52.5563 41.2469L49.3098 36.6105C48.9297 36.0676 48.1814 35.9356 47.6385 36.3158Z" fill="#F6B247"/>
<path d="M71.27 47.09C71.73 48.22 72.03 49.22 72.91 50.11C80.93 58.27 78.76 66.05 73.06 74.4C70.2266 78.54 68.1233 83.06 66.75 87.96L61.62 88.92C61.2333 88.9933 60.99 88.84 60.89 88.46C60.45 86.82 60.44 85.01 59.74 83.55C55.67 74.95 46.86 69.19 51.06 58.32C54.52 49.3733 61.2566 45.63 71.27 47.09Z" fill="#F6B247"/>
<path d="M71.27 47.09C76.5567 48.5966 80.3267 51.6266 82.58 56.18C89.35 69.89 76.73 73.98 73.78 86.52C73.6933 86.8733 73.47 87.0733 73.11 87.12L66.75 87.96C68.1233 83.06 70.2267 78.54 73.06 74.4C78.76 66.05 80.93 58.27 72.91 50.11C72.03 49.22 71.73 48.22 71.27 47.09Z" fill="#EC9B56"/>
<path d="M97.4232 52.2739L92.3612 54.0963C91.7429 54.3189 91.4221 55.0007 91.6447 55.619L91.814 56.0895C92.0367 56.7078 92.7184 57.0287 93.3368 56.806L98.3987 54.9836C99.0171 54.761 99.3379 54.0792 99.1153 53.4609L98.9459 52.9904C98.7233 52.3721 98.0415 52.0513 97.4232 52.2739Z" fill="#F6B247"/>
<path d="M42.1314 54.1877L37.1538 52.1462C36.4589 51.8612 35.6645 52.1935 35.3794 52.8884L35.3263 53.0179C35.0413 53.7129 35.3736 54.5073 36.0685 54.7923L41.0462 56.8338C41.7411 57.1188 42.5355 56.7865 42.8205 56.0915L42.8736 55.962C43.1587 55.2671 42.8264 54.4727 42.1314 54.1877Z" fill="#F6B247"/>
<path d="M72.3767 90.6431L61.9497 92.1828C61.8022 92.2046 61.7003 92.3419 61.7221 92.4894L61.9967 94.3492C62.0185 94.4967 62.1557 94.5987 62.3032 94.5769L72.7302 93.0372C72.8777 93.0154 72.9796 92.8781 72.9578 92.7306L72.6832 90.8708C72.6614 90.7233 72.5242 90.6213 72.3767 90.6431Z" fill="#002F8B"/>
<path d="M72.5031 96.4484L61.7767 98.0132C61.6346 98.034 61.5362 98.166 61.5569 98.3081L61.7821 99.8517C61.8029 99.9938 61.9349 100.092 62.0769 100.071L72.8034 98.5066C72.9455 98.4859 73.0439 98.3539 73.0232 98.2118L72.798 96.6682C72.7772 96.5261 72.6452 96.4277 72.5031 96.4484Z" fill="#002F8B"/>
<path d="M70.5799 101.84C70.6951 101.814 70.8147 101.815 70.9295 101.842C71.0443 101.869 71.1513 101.923 71.2422 101.998C71.3331 102.074 71.4054 102.169 71.4535 102.277C71.5017 102.385 71.5244 102.502 71.5199 102.62C71.4866 103.727 70.9566 104.49 69.9299 104.91C69.6366 105.037 69.3333 105.053 69.0199 104.96C67.7133 104.58 66.4233 104.637 65.1499 105.13C64.1366 105.517 63.5933 105.167 63.5199 104.08C63.4299 102.81 69.3099 102.13 70.5799 101.84Z" fill="#002F8B"/>
</g>
<defs>
<clipPath id="clip0_142_141">
<rect width="132" height="142" fill="white"/>
</clipPath>
</defs>
</svg>
