<?xml version="1.0" encoding="UTF-8" standalone="no"?>
<!DOCTYPE svg PUBLIC "-//W3C//DTD SVG 1.1//EN" "http://www.w3.org/Graphics/SVG/1.1/DTD/svg11.dtd">
<svg xmlns="http://www.w3.org/2000/svg" version="1.1" viewBox="0.00 0.00 29.00 26.00">
<g stroke-width="2.00" fill="none" stroke-linecap="butt">
<path stroke="#dedede" vector-effect="non-scaling-stroke" d="
  M 11.56 3.34
  L 11.12 2.51
  Q 10.63 1.56 10.08 2.47
  L 9.59 3.28
  Q 9.39 3.60 9.03 3.65
  L 6.04 4.04
  Q 5.52 4.11 5.52 4.63
  L 5.46 21.45
  Q 5.45 22.94 6.95 22.95
  L 23.90 22.95
  A 0.85 0.85 0.0 0 0 24.75 22.10
  L 24.75 4.73
  Q 24.75 4.05 24.07 3.99
  L 21.11 3.75
  Q 20.56 3.71 20.52 3.16
  Q 20.48 2.55 19.60 2.25
  Q 19.14 2.10 18.90 2.52
  L 18.46 3.27
  Q 18.21 3.71 17.71 3.72
  L 12.35 3.82
  Q 11.81 3.83 11.56 3.34"
/>
<path stroke="#dedede" vector-effect="non-scaling-stroke" d="
  M 10.24 7.02
  Q 9.62 6.77 9.77 6.15
  Q 9.92 5.48 9.23 5.49
  L 7.38 5.52
  Q 6.49 5.54 6.86 6.35
  Q 7.52 7.77 7.07 9.13
  Q 6.87 9.75 7.53 9.75
  L 22.38 9.75
  Q 23.00 9.75 23.00 9.12
  L 23.00 6.33
  Q 23.00 5.64 22.32 5.55
  L 21.06 5.38
  Q 20.50 5.30 20.50 5.86
  L 20.50 6.44
  Q 20.50 7.07 19.88 7.16
  L 19.32 7.25
  Q 19.04 7.29 18.57 6.45
  Q 18.50 6.32 18.49 6.18
  Q 18.43 5.50 17.75 5.50
  L 12.51 5.50
  Q 11.99 5.50 11.70 5.93
  L 11.16 6.74
  Q 10.81 7.26 10.24 7.02"
/>
<path stroke="#dedede" vector-effect="non-scaling-stroke" d="
  M 23.0145 11.8022
  A 0.57 0.57 0.0 0 0 22.4425 11.2342
  L 7.6226 11.2859
  A 0.57 0.57 0.0 0 0 7.0546 11.8579
  L 7.0855 20.7378
  A 0.57 0.57 0.0 0 0 7.6575 21.3058
  L 22.4774 21.2541
  A 0.57 0.57 0.0 0 0 23.0454 20.6821
  L 23.0145 11.8022"
/>
<path stroke="#dedede" vector-effect="non-scaling-stroke" d="
  M 11.49 15.11
  L 11.36 13.26
  A 0.53 0.53 0.0 0 0 10.79 12.77
  L 9.50 12.86
  A 1.33 1.08 85.8 0 0 8.52 14.27
  L 8.54 14.53
  A 1.33 1.08 85.8 0 0 9.72 15.77
  L 11.00 15.68
  A 0.53 0.53 0.0 0 0 11.49 15.11"
/>
<path stroke="#dedede" vector-effect="non-scaling-stroke" d="
  M 20.9418 13.5204
  A 0.87 0.87 0.0 0 0 20.0133 12.7132
  L 18.8561 12.7941
  A 0.87 0.87 0.0 0 0 18.0489 13.7227
  L 18.1382 14.9996
  A 0.87 0.87 0.0 0 0 19.0667 15.8068
  L 20.2239 15.7259
  A 0.87 0.87 0.0 0 0 21.0311 14.7973
  L 20.9418 13.5204"
/>
<path stroke="#dedede" vector-effect="non-scaling-stroke" d="
  M 16.2659 13.9224
  A 0.85 0.85 0.0 0 0 15.4631 13.0277
  L 14.1451 12.9563
  A 0.85 0.85 0.0 0 0 13.2503 13.7591
  L 13.1941 14.7976
  A 0.85 0.85 0.0 0 0 13.9969 15.6923
  L 15.3149 15.7637
  A 0.85 0.85 0.0 0 0 16.2097 14.9609
  L 16.2659 13.9224"
/>
<path stroke="#dedede" vector-effect="non-scaling-stroke" d="
  M 11.4825 17.6422
  A 0.51 0.51 0.0 0 0 10.9806 17.1243
  L 9.1808 17.0960
  A 0.51 0.51 0.0 0 0 8.6629 17.5980
  L 8.6375 19.2178
  A 0.51 0.51 0.0 0 0 9.1394 19.7357
  L 10.9392 19.7640
  A 0.51 0.51 0.0 0 0 11.4571 19.2620
  L 11.4825 17.6422"
/>
<path stroke="#dedede" vector-effect="non-scaling-stroke" d="
  M 16.2336 18.0005
  A 0.98 0.98 0.0 0 0 15.2216 17.0536
  L 14.1822 17.0880
  A 0.98 0.98 0.0 0 0 13.2352 18.1000
  L 13.2664 19.0395
  A 0.98 0.98 0.0 0 0 14.2784 19.9864
  L 15.3178 19.9520
  A 0.98 0.98 0.0 0 0 16.2648 18.9400
  L 16.2336 18.0005"
/>
</g>
<path fill="#ffffff" d="
  M 0.00 0.00
  L 29.00 0.00
  L 29.00 26.00
  L 0.00 26.00
  L 0.00 0.00
  Z
  M 11.56 3.34
  L 11.12 2.51
  Q 10.63 1.56 10.08 2.47
  L 9.59 3.28
  Q 9.39 3.60 9.03 3.65
  L 6.04 4.04
  Q 5.52 4.11 5.52 4.63
  L 5.46 21.45
  Q 5.45 22.94 6.95 22.95
  L 23.90 22.95
  A 0.85 0.85 0.0 0 0 24.75 22.10
  L 24.75 4.73
  Q 24.75 4.05 24.07 3.99
  L 21.11 3.75
  Q 20.56 3.71 20.52 3.16
  Q 20.48 2.55 19.60 2.25
  Q 19.14 2.10 18.90 2.52
  L 18.46 3.27
  Q 18.21 3.71 17.71 3.72
  L 12.35 3.82
  Q 11.81 3.83 11.56 3.34
  Z"
/>
<path fill="#bcbdbc" d="
  M 12.35 3.82
  L 17.71 3.72
  Q 18.21 3.71 18.46 3.27
  L 18.90 2.52
  Q 19.14 2.10 19.60 2.25
  Q 20.48 2.55 20.52 3.16
  Q 20.56 3.71 21.11 3.75
  L 24.07 3.99
  Q 24.75 4.05 24.75 4.73
  L 24.75 22.10
  A 0.85 0.85 0.0 0 1 23.90 22.95
  L 6.95 22.95
  Q 5.45 22.94 5.46 21.45
  L 5.52 4.63
  Q 5.52 4.11 6.04 4.04
  L 9.03 3.65
  Q 9.39 3.60 9.59 3.28
  L 10.08 2.47
  Q 10.63 1.56 11.12 2.51
  L 11.56 3.34
  Q 11.81 3.83 12.35 3.82
  Z
  M 10.24 7.02
  Q 9.62 6.77 9.77 6.15
  Q 9.92 5.48 9.23 5.49
  L 7.38 5.52
  Q 6.49 5.54 6.86 6.35
  Q 7.52 7.77 7.07 9.13
  Q 6.87 9.75 7.53 9.75
  L 22.38 9.75
  Q 23.00 9.75 23.00 9.12
  L 23.00 6.33
  Q 23.00 5.64 22.32 5.55
  L 21.06 5.38
  Q 20.50 5.30 20.50 5.86
  L 20.50 6.44
  Q 20.50 7.07 19.88 7.16
  L 19.32 7.25
  Q 19.04 7.29 18.57 6.45
  Q 18.50 6.32 18.49 6.18
  Q 18.43 5.50 17.75 5.50
  L 12.51 5.50
  Q 11.99 5.50 11.70 5.93
  L 11.16 6.74
  Q 10.81 7.26 10.24 7.02
  Z
  M 23.0145 11.8022
  A 0.57 0.57 0.0 0 0 22.4425 11.2342
  L 7.6226 11.2859
  A 0.57 0.57 0.0 0 0 7.0546 11.8579
  L 7.0855 20.7378
  A 0.57 0.57 0.0 0 0 7.6575 21.3058
  L 22.4774 21.2541
  A 0.57 0.57 0.0 0 0 23.0454 20.6821
  L 23.0145 11.8022
  Z"
/>
<path fill="#ffffff" d="
  M 11.16 6.74
  L 11.70 5.93
  Q 11.99 5.50 12.51 5.50
  L 17.75 5.50
  Q 18.43 5.50 18.49 6.18
  Q 18.50 6.32 18.57 6.45
  Q 19.04 7.29 19.32 7.25
  L 19.88 7.16
  Q 20.50 7.07 20.50 6.44
  L 20.50 5.86
  Q 20.50 5.30 21.06 5.38
  L 22.32 5.55
  Q 23.00 5.64 23.00 6.33
  L 23.00 9.12
  Q 23.00 9.75 22.38 9.75
  L 7.53 9.75
  Q 6.87 9.75 7.07 9.13
  Q 7.52 7.77 6.86 6.35
  Q 6.49 5.54 7.38 5.52
  L 9.23 5.49
  Q 9.92 5.48 9.77 6.15
  Q 9.62 6.77 10.24 7.02
  Q 10.81 7.26 11.16 6.74
  Z"
/>
<path fill="#ffffff" d="
  M 23.0454 20.6821
  A 0.57 0.57 0.0 0 1 22.4774 21.2541
  L 7.6575 21.3058
  A 0.57 0.57 0.0 0 1 7.0855 20.7378
  L 7.0546 11.8579
  A 0.57 0.57 0.0 0 1 7.6226 11.2859
  L 22.4425 11.2342
  A 0.57 0.57 0.0 0 1 23.0145 11.8022
  L 23.0454 20.6821
  Z
  M 11.49 15.11
  L 11.36 13.26
  A 0.53 0.53 0.0 0 0 10.79 12.77
  L 9.50 12.86
  A 1.33 1.08 85.8 0 0 8.52 14.27
  L 8.54 14.53
  A 1.33 1.08 85.8 0 0 9.72 15.77
  L 11.00 15.68
  A 0.53 0.53 0.0 0 0 11.49 15.11
  Z
  M 20.9418 13.5204
  A 0.87 0.87 0.0 0 0 20.0133 12.7132
  L 18.8561 12.7941
  A 0.87 0.87 0.0 0 0 18.0489 13.7227
  L 18.1382 14.9996
  A 0.87 0.87 0.0 0 0 19.0667 15.8068
  L 20.2239 15.7259
  A 0.87 0.87 0.0 0 0 21.0311 14.7973
  L 20.9418 13.5204
  Z
  M 16.2659 13.9224
  A 0.85 0.85 0.0 0 0 15.4631 13.0277
  L 14.1451 12.9563
  A 0.85 0.85 0.0 0 0 13.2503 13.7591
  L 13.1941 14.7976
  A 0.85 0.85 0.0 0 0 13.9969 15.6923
  L 15.3149 15.7637
  A 0.85 0.85 0.0 0 0 16.2097 14.9609
  L 16.2659 13.9224
  Z
  M 11.4825 17.6422
  A 0.51 0.51 0.0 0 0 10.9806 17.1243
  L 9.1808 17.0960
  A 0.51 0.51 0.0 0 0 8.6629 17.5980
  L 8.6375 19.2178
  A 0.51 0.51 0.0 0 0 9.1394 19.7357
  L 10.9392 19.7640
  A 0.51 0.51 0.0 0 0 11.4571 19.2620
  L 11.4825 17.6422
  Z
  M 16.2336 18.0005
  A 0.98 0.98 0.0 0 0 15.2216 17.0536
  L 14.1822 17.0880
  A 0.98 0.98 0.0 0 0 13.2352 18.1000
  L 13.2664 19.0395
  A 0.98 0.98 0.0 0 0 14.2784 19.9864
  L 15.3178 19.9520
  A 0.98 0.98 0.0 0 0 16.2648 18.9400
  L 16.2336 18.0005
  Z"
/>
<path fill="#bcbdbc" d="
  M 11.49 15.11
  A 0.53 0.53 0.0 0 1 11.00 15.68
  L 9.72 15.77
  A 1.33 1.08 85.8 0 1 8.54 14.53
  L 8.52 14.27
  A 1.33 1.08 85.8 0 1 9.50 12.86
  L 10.79 12.77
  A 0.53 0.53 0.0 0 1 11.36 13.26
  L 11.49 15.11
  Z"
/>
<rect fill="#bcbdbc" x="-1.45" y="-1.51" transform="translate(19.54,14.26) rotate(-4.0)" width="2.90" height="3.02" rx="0.87"/>
<rect fill="#bcbdbc" x="-1.51" y="-1.37" transform="translate(14.73,14.36) rotate(3.1)" width="3.02" height="2.74" rx="0.85"/>
<rect fill="#bcbdbc" x="-1.41" y="-1.32" transform="translate(10.06,18.43) rotate(0.9)" width="2.82" height="2.64" rx="0.51"/>
<rect fill="#bcbdbc" x="-1.50" y="-1.45" transform="translate(14.75,18.52) rotate(-1.9)" width="3.00" height="2.90" rx="0.98"/>
</svg>
