<svg width="110" height="108" viewBox="0 0 110 108" fill="none" xmlns="http://www.w3.org/2000/svg">
<g clip-path="url(#clip0_142_107)">
<path d="M99.92 53.5099C99.92 42.2886 95.4623 31.5269 87.5277 23.5923C79.593 15.6576 68.8313 11.2 57.61 11.2C46.3887 11.2 35.627 15.6576 27.6923 23.5923C19.7576 31.5269 15.3 42.2886 15.3 53.5099C15.3 64.7313 19.7576 75.493 27.6923 83.4276C35.627 91.3623 46.3887 95.82 57.61 95.82C68.8313 95.82 79.593 91.3623 87.5277 83.4276C95.4623 75.493 99.92 64.7313 99.92 53.5099Z" stroke="#F3F9FE" stroke-width="2"/>
<path d="M28.54 50.75L28.04 52.75" stroke="#E4F6FE" stroke-width="2"/>
<path d="M28.04 52.75C26.63 56.91 27.83 61.11 33.22 60.16C33.6051 60.0896 34.0029 60.1584 34.3433 60.3542C34.6836 60.55 34.9446 60.8602 35.08 61.23C36.65 65.48 43.84 65.52 45.1 60.74C45.1866 60.4133 45.4 60.25 45.74 60.25H72.26C72.5866 60.25 72.8133 60.4 72.94 60.7C75.1 65.82 81.41 65.48 83.58 60.52C83.7266 60.1867 83.9766 60.0633 84.33 60.15C86.41 60.6633 87.98 60.1133 89.04 58.5" stroke="#747A81" stroke-width="2"/>
<path d="M89.04 58.5C90.3066 56.78 90.4466 54.9467 89.46 53" stroke="#88B6DE" stroke-width="2"/>
<path d="M89.46 52.9999L88 51.2899" stroke="#E4F6FE" stroke-width="2"/>
<path d="M88 51.2899C85.87 49.5099 78.84 48.7499 75.94 48.2199C72.87 47.6699 70.5 46.0599 67.77 44.6899C56.15 38.8199 44.98 43.3399 33.38 48.1399C31.89 48.7599 27.74 48.0099 28.54 50.7499" stroke="#88B6DE" stroke-width="2"/>
<path d="M88 51.2899C87.8 52.0099 87.36 52.2932 86.68 52.1399C86.4333 52.0799 86.2 52.1133 85.98 52.2399L85.72 52.3999C85.3334 52.6333 85.3267 52.8699 85.7 53.1099C87.0467 53.9766 88.3 53.9399 89.46 52.9999" stroke="#84B9DF" stroke-width="2"/>
<path d="M89.04 58.4999C89.1533 57.8266 89.0633 57.2299 88.77 56.7099C88.5633 56.3366 88.3 56.2932 87.98 56.5799C86.8533 57.5799 85.5366 57.9632 84.03 57.7299C83.65 57.6699 83.3833 57.4666 83.23 57.1199C81.8433 54.0799 79.3566 52.9799 75.77 53.8199" stroke="#153D63" stroke-width="2"/>
<path d="M75.77 53.8199C71.67 53.7266 67.58 53.6933 63.5 53.7199C57.36 53.7599 51.2167 53.6799 45.07 53.4799C44.23 53.4599 43.66 53.8799 43 54.2899" stroke="#2067B1" stroke-width="2"/>
<path d="M43 54.29C41.1267 53.6033 39.21 53.52 37.25 54.04" stroke="#153D63" stroke-width="2"/>
<path d="M37.25 54.04L31.25 53.21" stroke="#2067B1" stroke-width="2"/>
<path d="M31.25 53.2099C32.3566 52.7099 32.7566 51.8666 32.45 50.6799C32.3566 50.3466 32.14 50.2066 31.8 50.2599L28.54 50.7499" stroke="#84B9DF" stroke-width="2"/>
<path d="M28.79 53.5C28.4633 55.1933 28.9133 56.52 30.14 57.48C30.42 57.7 30.74 57.8 31.1 57.78L34.41 57.57C34.77 57.5433 34.9933 57.3567 35.08 57.01C35.38 55.7033 36.1033 54.7133 37.25 54.04" stroke="#0D2A55" stroke-width="2"/>
<path d="M43 54.2899L45.31 57.3099C45.5367 57.6033 45.8367 57.7499 46.21 57.7499H71.96C72.28 57.7499 72.5433 57.6299 72.75 57.3899L75.77 53.8199" stroke="#0D2A55" stroke-width="2"/>
<path d="M31.25 53.21L28.79 53.5" stroke="#7CA7D1" stroke-width="2"/>
<path d="M28.79 53.5L28.04 52.75" stroke="#717D83" stroke-width="2"/>
<path d="M55.71 43.4899L54.9 48.2999C54.8768 48.4404 54.91 48.5844 54.9924 48.7005C55.0748 48.8166 55.1997 48.8955 55.34 48.9199L55.43 48.9399C59.4904 49.6264 63.4359 49.9772 66.3988 49.9153C69.3618 49.8535 71.0995 49.3839 71.23 48.6099L71.24 48.5699C71.3057 48.1867 70.9745 47.7401 70.2652 47.2557C69.5559 46.7714 68.4825 46.2587 67.1062 45.747C65.7299 45.2353 64.0778 44.7347 62.2442 44.2736C60.4107 43.8125 58.4315 43.4001 56.42 43.0599L56.33 43.0399C56.2597 43.0285 56.1879 43.0311 56.1186 43.0476C56.0493 43.0641 55.984 43.0941 55.9264 43.1359C55.8687 43.1778 55.82 43.2306 55.7828 43.2913C55.7457 43.3521 55.7209 43.4196 55.71 43.4899Z" stroke="#84B9DF" stroke-width="2"/>
<path d="M53.76 48.1L53.1 43.79C53.0891 43.7196 53.0643 43.6521 53.0272 43.5914C52.99 43.5306 52.9413 43.4778 52.8836 43.436C52.826 43.3942 52.7607 43.3641 52.6914 43.3477C52.6221 43.3312 52.5503 43.3286 52.48 43.34L52.31 43.37C49.1709 43.8506 46.2003 44.5711 44.0499 45.3735C41.8995 46.1759 40.7451 46.9946 40.84 47.65L40.91 48.09C40.9583 48.4149 41.3129 48.6897 41.9538 48.8988C42.5947 49.1078 43.5091 49.247 44.6449 49.3083C45.7807 49.3696 47.1156 49.3518 48.5732 49.256C50.0309 49.1602 51.5827 48.9883 53.14 48.75L53.3 48.72C53.3713 48.7102 53.4398 48.6863 53.5017 48.6497C53.5636 48.6131 53.6176 48.5645 53.6604 48.5067C53.7033 48.449 53.7341 48.3832 53.7512 48.3134C53.7684 48.2435 53.7713 48.171 53.76 48.1Z" stroke="#84B9DF" stroke-width="2"/>
<path d="M42.92 58.7499C42.92 57.9967 42.6208 57.2743 42.0882 56.7417C41.5556 56.2091 40.8332 55.9099 40.08 55.9099C39.3268 55.9099 38.6044 56.2091 38.0718 56.7417C37.5392 57.2743 37.24 57.9967 37.24 58.7499C37.24 59.1229 37.3134 59.4922 37.4562 59.8367C37.5989 60.1813 37.8081 60.4944 38.0718 60.7581C38.3355 61.0218 38.6486 61.231 38.9932 61.3737C39.3377 61.5165 39.707 61.5899 40.08 61.5899C40.4529 61.5899 40.8222 61.5165 41.1668 61.3737C41.5114 61.231 41.8245 61.0218 42.0882 60.7581C42.3519 60.4944 42.5611 60.1813 42.7038 59.8367C42.8465 59.4922 42.92 59.1229 42.92 58.7499Z" stroke="#808083" stroke-width="2"/>
<path d="M81.06 58.77C81.06 58.3852 80.9842 58.0042 80.837 57.6487C80.6897 57.2932 80.4739 56.9702 80.2018 56.6981C79.9298 56.4261 79.6068 56.2102 79.2513 56.063C78.8958 55.9158 78.5148 55.84 78.13 55.84C77.3529 55.84 76.6077 56.1487 76.0582 56.6981C75.5087 57.2476 75.2 57.9929 75.2 58.77C75.2 59.5471 75.5087 60.2923 76.0582 60.8418C76.6077 61.3913 77.3529 61.7 78.13 61.7C78.5148 61.7 78.8958 61.6242 79.2513 61.4769C79.6068 61.3297 79.9298 61.1139 80.2018 60.8418C80.4739 60.5697 80.6897 60.2467 80.837 59.8912C80.9842 59.5357 81.06 59.1547 81.06 58.77Z" stroke="#717D83" stroke-width="2"/>
<path d="M0 0H110V108H0V0ZM99.92 53.51C99.92 42.2887 95.4623 31.527 87.5277 23.5923C79.593 15.6576 68.8313 11.2 57.61 11.2C46.3887 11.2 35.627 15.6576 27.6923 23.5923C19.7576 31.527 15.3 42.2887 15.3 53.51C15.3 64.7313 19.7576 75.493 27.6923 83.4277C35.627 91.3624 46.3887 95.82 57.61 95.82C68.8313 95.82 79.593 91.3624 87.5277 83.4277C95.4623 75.493 99.92 64.7313 99.92 53.51Z" fill="white"/>
<path d="M99.92 53.5099C99.92 64.7313 95.4623 75.493 87.5277 83.4276C79.593 91.3623 68.8313 95.82 57.61 95.82C46.3887 95.82 35.627 91.3623 27.6923 83.4276C19.7576 75.493 15.3 64.7313 15.3 53.5099C15.3 42.2886 19.7576 31.5269 27.6923 23.5923C35.627 15.6576 46.3887 11.2 57.61 11.2C68.8313 11.2 79.593 15.6576 87.5277 23.5923C95.4623 31.5269 99.92 42.2886 99.92 53.5099ZM28.54 50.75L28.04 52.75C26.63 56.91 27.83 61.11 33.22 60.16C33.6051 60.0896 34.003 60.1584 34.3433 60.3542C34.6837 60.55 34.9446 60.8602 35.08 61.2299C36.65 65.4799 43.84 65.52 45.1 60.74C45.1867 60.4133 45.4 60.25 45.74 60.25H72.26C72.5867 60.25 72.8133 60.4 72.94 60.7C75.1 65.82 81.41 65.4799 83.58 60.52C83.7267 60.1866 83.9767 60.0633 84.33 60.15C86.41 60.6633 87.98 60.1133 89.04 58.5C90.3067 56.7799 90.4466 54.9466 89.46 53L88 51.29C85.87 49.51 78.84 48.75 75.94 48.22C72.87 47.67 70.5 46.0599 67.77 44.6899C56.15 38.82 44.98 43.34 33.38 48.1399C31.89 48.7599 27.74 48.0099 28.54 50.75Z" fill="#E7F3FC"/>
<path d="M88 51.29C87.8 52.01 87.36 52.2934 86.68 52.14C86.4333 52.08 86.2 52.1134 85.98 52.24L85.72 52.4C85.3333 52.6334 85.3267 52.87 85.7 53.11C87.0467 53.9767 88.3 53.94 89.46 53C90.4467 54.9467 90.3067 56.78 89.04 58.5C89.1533 57.8267 89.0633 57.23 88.77 56.71C88.5633 56.3367 88.3 56.2934 87.98 56.58C86.8533 57.58 85.5367 57.9634 84.03 57.73C83.65 57.67 83.3833 57.4667 83.23 57.12C81.8433 54.08 79.3567 52.98 75.77 53.82C71.67 53.7267 67.58 53.6934 63.5 53.72C57.36 53.76 51.2167 53.68 45.07 53.48C44.23 53.46 43.66 53.88 43 54.29C41.1267 53.6034 39.21 53.52 37.25 54.04L31.25 53.21C32.3567 52.71 32.7567 51.8667 32.45 50.68C32.3567 50.3467 32.14 50.2067 31.8 50.26L28.54 50.75C27.74 48.01 31.89 48.76 33.38 48.14C44.98 43.34 56.15 38.82 67.77 44.69C70.5 46.06 72.87 47.67 75.94 48.22C78.84 48.75 85.87 49.51 88 51.29ZM55.71 43.49L54.9 48.3C54.8768 48.4405 54.91 48.5845 54.9924 48.7006C55.0748 48.8167 55.1997 48.8956 55.34 48.92L55.43 48.94C59.4904 49.6265 63.4359 49.9773 66.3989 49.9155C69.3618 49.8536 71.0996 49.384 71.23 48.61L71.24 48.57C71.3058 48.1868 70.9745 47.7402 70.2652 47.2559C69.556 46.7715 68.4825 46.2588 67.1062 45.7471C65.73 45.2354 64.0779 44.7348 62.2443 44.2737C60.4107 43.8126 58.4316 43.4002 56.42 43.06L56.33 43.04C56.2597 43.0286 56.1879 43.0313 56.1186 43.0477C56.0493 43.0642 55.984 43.0942 55.9264 43.1361C55.8688 43.1779 55.82 43.2307 55.7829 43.2914C55.7457 43.3522 55.721 43.4197 55.71 43.49ZM53.76 48.1L53.1 43.79C53.0891 43.7197 53.0643 43.6522 53.0272 43.5914C52.99 43.5307 52.9413 43.4779 52.8836 43.4361C52.826 43.3942 52.7607 43.3642 52.6914 43.3477C52.6221 43.3313 52.5503 43.3286 52.48 43.34L52.31 43.37C49.1709 43.8506 46.2003 44.5712 44.0499 45.3736C41.8995 46.176 40.7451 46.9947 40.84 47.65L40.91 48.09C40.9583 48.415 41.3129 48.6898 41.9538 48.8989C42.5946 49.1079 43.5091 49.247 44.6449 49.3083C45.7807 49.3696 47.1156 49.3519 48.5732 49.2561C50.0309 49.1603 51.5827 48.9883 53.14 48.75L53.3 48.72C53.3713 48.7103 53.4398 48.6864 53.5017 48.6498C53.5636 48.6132 53.6176 48.5645 53.6604 48.5068C53.7033 48.449 53.7341 48.3833 53.7512 48.3135C53.7684 48.2436 53.7713 48.171 53.76 48.1Z" fill="#2879BF"/>
<path d="M55.71 43.49C55.7209 43.4197 55.7457 43.3522 55.7828 43.2914C55.82 43.2307 55.8687 43.1779 55.9264 43.1361C55.984 43.0942 56.0493 43.0642 56.1186 43.0477C56.1879 43.0313 56.2597 43.0286 56.33 43.04L56.42 43.06C58.4315 43.4002 60.4107 43.8126 62.2442 44.2737C64.0778 44.7348 65.7299 45.2355 67.1062 45.7471C68.4825 46.2588 69.5559 46.7715 70.2652 47.2559C70.9745 47.7402 71.3057 48.1868 71.24 48.57L71.23 48.61C71.0995 49.384 69.3618 49.8536 66.3988 49.9155C63.4359 49.9773 59.4904 49.6265 55.43 48.94L55.34 48.92C55.1997 48.8956 55.0748 48.8167 54.9924 48.7006C54.91 48.5845 54.8768 48.4405 54.9 48.3L55.71 43.49Z" fill="#E0F9FF"/>
<path d="M53.76 48.1C53.7713 48.171 53.7684 48.2435 53.7512 48.3134C53.7341 48.3832 53.7033 48.449 53.6604 48.5067C53.6176 48.5645 53.5636 48.6131 53.5017 48.6497C53.4398 48.6863 53.3713 48.7102 53.3 48.72L53.14 48.75C51.5827 48.9883 50.0309 49.1602 48.5732 49.256C47.1156 49.3518 45.7807 49.3696 44.6449 49.3083C43.5091 49.247 42.5947 49.1078 41.9538 48.8988C41.3129 48.6897 40.9583 48.4149 40.91 48.09L40.84 47.65C40.7451 46.9946 41.8995 46.1759 44.0499 45.3735C46.2003 44.5711 49.1709 43.8506 52.31 43.37L52.48 43.34C52.5503 43.3286 52.6221 43.3312 52.6914 43.3477C52.7607 43.3641 52.826 43.3942 52.8836 43.436C52.9413 43.4778 52.99 43.5306 53.0272 43.5914C53.0643 43.6521 53.0891 43.7196 53.1 43.79L53.76 48.1Z" fill="#E0F9FF"/>
<path d="M31.25 53.2101L28.79 53.5001L28.04 52.7501L28.54 50.7501L31.8 50.2601C32.14 50.2067 32.3566 50.3467 32.45 50.6801C32.7566 51.8667 32.3566 52.7101 31.25 53.2101Z" fill="#E0F9FF"/>
<path d="M88 51.29L89.46 53C88.3 53.94 87.0467 53.9767 85.7 53.11C85.3267 52.87 85.3334 52.6334 85.72 52.4L85.98 52.24C86.2 52.1134 86.4333 52.08 86.68 52.14C87.36 52.2934 87.8 52.01 88 51.29Z" fill="#E0F9FF"/>
<path d="M28.04 52.75L28.79 53.5C28.4634 55.1933 28.9134 56.52 30.14 57.48C30.42 57.7 30.74 57.8 31.1 57.78L34.41 57.57C34.77 57.5433 34.9934 57.3567 35.08 57.01C35.38 55.7033 36.1034 54.7133 37.25 54.04C39.21 53.52 41.1267 53.6033 43 54.29L45.31 57.31C45.5367 57.6033 45.8367 57.75 46.21 57.75H71.96C72.28 57.75 72.5434 57.63 72.75 57.39L75.77 53.82C79.3567 52.98 81.8434 54.08 83.23 57.12C83.3834 57.4667 83.65 57.67 84.03 57.73C85.5367 57.9633 86.8534 57.58 87.98 56.58C88.3 56.2933 88.5634 56.3367 88.77 56.71C89.0634 57.23 89.1534 57.8267 89.04 58.5C87.98 60.1133 86.41 60.6633 84.33 60.15C83.9767 60.0633 83.7267 60.1867 83.58 60.52C81.41 65.48 75.1 65.82 72.94 60.7C72.8134 60.4 72.5867 60.25 72.26 60.25H45.74C45.4 60.25 45.1867 60.4133 45.1 60.74C43.84 65.52 36.65 65.48 35.08 61.23C34.9446 60.8602 34.6837 60.55 34.3434 60.3542C34.003 60.1584 33.6051 60.0896 33.22 60.16C27.83 61.11 26.63 56.91 28.04 52.75ZM42.92 58.75C42.92 57.9968 42.6208 57.2744 42.0882 56.7418C41.5556 56.2092 40.8332 55.91 40.08 55.91C39.3268 55.91 38.6044 56.2092 38.0718 56.7418C37.5392 57.2744 37.24 57.9968 37.24 58.75C37.24 59.123 37.3135 59.4923 37.4562 59.8368C37.5989 60.1814 37.8081 60.4945 38.0718 60.7582C38.3356 61.0219 38.6486 61.2311 38.9932 61.3738C39.3378 61.5165 39.7071 61.59 40.08 61.59C40.453 61.59 40.8223 61.5165 41.1668 61.3738C41.5114 61.2311 41.8245 61.0219 42.0882 60.7582C42.3519 60.4945 42.5611 60.1814 42.7038 59.8368C42.8466 59.4923 42.92 59.123 42.92 58.75ZM81.06 58.77C81.06 58.3852 80.9842 58.0042 80.837 57.6487C80.6897 57.2933 80.4739 56.9703 80.2018 56.6982C79.9298 56.4261 79.6068 56.2103 79.2513 56.063C78.8958 55.9158 78.5148 55.84 78.13 55.84C77.3529 55.84 76.6077 56.1487 76.0582 56.6982C75.5087 57.2477 75.2 57.9929 75.2 58.77C75.2 59.5471 75.5087 60.2923 76.0582 60.8418C76.6077 61.3913 77.3529 61.7 78.13 61.7C78.5148 61.7 78.8958 61.6242 79.2513 61.477C79.6068 61.3297 79.9298 61.1139 80.2018 60.8418C80.4739 60.5697 80.6897 60.2467 80.837 59.8913C80.9842 59.5358 81.06 59.1548 81.06 58.77Z" fill="#010006"/>
<path d="M31.25 53.21L37.25 54.04C36.1033 54.7133 35.38 55.7033 35.08 57.01C34.9933 57.3566 34.77 57.5433 34.41 57.57L31.1 57.78C30.74 57.8 30.42 57.7 30.14 57.48C28.9133 56.52 28.4633 55.1933 28.79 53.5L31.25 53.21Z" fill="#1854A3"/>
<path d="M75.77 53.8201L72.75 57.3901C72.5433 57.6301 72.28 57.7501 71.96 57.7501H46.21C45.8367 57.7501 45.5367 57.6034 45.31 57.3101L43 54.2901C43.66 53.8801 44.23 53.4601 45.07 53.4801C51.2167 53.6801 57.36 53.7601 63.5 53.7201C67.58 53.6934 71.67 53.7267 75.77 53.8201Z" fill="#1854A3"/>
<path d="M40.08 61.59C41.6485 61.59 42.92 60.3185 42.92 58.75C42.92 57.1815 41.6485 55.91 40.08 55.91C38.5115 55.91 37.24 57.1815 37.24 58.75C37.24 60.3185 38.5115 61.59 40.08 61.59Z" fill="white"/>
<path d="M78.13 61.7C79.7482 61.7 81.06 60.3882 81.06 58.77C81.06 57.1518 79.7482 55.84 78.13 55.84C76.5118 55.84 75.2 57.1518 75.2 58.77C75.2 60.3882 76.5118 61.7 78.13 61.7Z" fill="#E0F9FF"/>
</g>
<defs>
<clipPath id="clip0_142_107">
<rect width="110" height="108" fill="white"/>
</clipPath>
</defs>
</svg>
