<svg width="90" height="88" viewBox="0 0 90 88" fill="none" xmlns="http://www.w3.org/2000/svg">
<g clip-path="url(#clip0_142_2)">
<path d="M39.4399 19.19L39.2099 34.4C39.2086 34.491 39.2255 34.5813 39.2597 34.6656C39.2939 34.7499 39.3447 34.8265 39.409 34.8909C39.4733 34.9552 39.55 35.006 39.6343 35.0402C39.7186 35.0744 39.8089 35.0913 39.8999 35.09L72.7299 34.7C74.5499 34.68 74.8233 34.02 73.5499 32.72L59.8199 18.74C59.5799 18.4933 59.2832 18.3566 58.9299 18.33C55.6399 18.06 43.4899 16.9 39.8999 18.7C39.5932 18.8533 39.4399 19.0166 39.4399 19.19Z" stroke="#8FAED1" stroke-width="2"/>
<path d="M59.3199 70.2C58.7133 70.3066 58.4199 70.05 58.4399 69.43C58.5466 65.23 58.5533 61.3133 58.4599 57.68C58.4521 57.3687 58.3205 57.0732 58.0939 56.8578C57.8673 56.6424 57.5639 56.5245 57.2499 56.53C46.9899 56.73 36.8333 56.8833 26.7799 56.99C25.8599 57 24.8599 56.63 24.1899 56.11C24.1102 56.0484 24.0518 55.9633 24.0231 55.8667C23.9943 55.7702 23.9967 55.667 24.0299 55.5718C24.0631 55.4767 24.1254 55.3944 24.208 55.3366C24.2905 55.2789 24.3892 55.2485 24.4899 55.25H36.8099C37.0047 55.25 37.1975 55.2113 37.3771 55.1362C37.5568 55.0611 37.7198 54.951 37.8565 54.8124C37.9933 54.6738 38.1012 54.5093 38.1738 54.3287C38.2465 54.148 38.2826 53.9547 38.2799 53.76C38.2133 48.2866 38.2166 43.0266 38.2899 37.98C38.3599 33.23 37.7699 26.21 38.4999 20.21C38.5599 19.6966 38.3566 19.5566 37.8899 19.79C32.8999 22.28 26.8199 29.95 23.9199 33.09C21.4899 35.73 21.3199 37.05 21.3199 40.5C21.3199 46.7866 21.3666 51.1866 21.4599 53.7C21.4733 54.0466 21.5833 54.36 21.7899 54.64C23.2899 56.67 23.7899 58.7 25.5599 60.46C27.9199 62.8 36.1999 72.22 38.9999 72.44C44.4199 72.86 50.2699 72.8666 56.5499 72.46C62.9999 72.04 70.6899 62.18 75.1299 57.75C75.3356 57.544 75.4982 57.299 75.608 57.0294C75.7179 56.7598 75.773 56.4711 75.7699 56.18L75.6999 37.61C75.6988 37.3387 75.6432 37.0704 75.5366 36.8211C75.43 36.5719 75.2746 36.3467 75.0795 36.1591C74.8844 35.9715 74.6538 35.8253 74.4013 35.7293C74.1488 35.6332 73.8797 35.5892 73.6099 35.6L61.4699 36.08C61.079 36.0954 60.7091 36.261 60.4372 36.5422C60.1652 36.8235 60.0122 37.1988 60.0099 37.59L59.9699 69.44C59.9698 69.6219 59.9044 69.7979 59.7854 69.937C59.6665 70.0761 59.5016 70.1693 59.3199 70.2Z" stroke="#8FAED1" stroke-width="2"/>
<path d="M0 0H90V88H0V0ZM39.44 19.19L39.21 34.4C39.2087 34.491 39.2256 34.5813 39.2598 34.6656C39.294 34.75 39.3447 34.8266 39.4091 34.8909C39.4734 34.9552 39.55 35.006 39.6344 35.0402C39.7187 35.0744 39.809 35.0913 39.9 35.09L72.73 34.7C74.55 34.68 74.8233 34.02 73.55 32.72L59.82 18.74C59.58 18.4933 59.2833 18.3567 58.93 18.33C55.64 18.06 43.49 16.9 39.9 18.7C39.5933 18.8533 39.44 19.0167 39.44 19.19ZM59.32 70.2C58.7133 70.3067 58.42 70.05 58.44 69.43C58.5467 65.23 58.5533 61.3133 58.46 57.68C58.4522 57.3687 58.3206 57.0732 58.094 56.8578C57.8673 56.6424 57.564 56.5246 57.25 56.53C46.99 56.73 36.8333 56.8833 26.78 56.99C25.86 57 24.86 56.63 24.19 56.11C24.1102 56.0485 24.0518 55.9634 24.0231 55.8668C23.9944 55.7702 23.9968 55.667 24.03 55.5719C24.0632 55.4767 24.1255 55.3944 24.208 55.3367C24.2906 55.2789 24.3892 55.2486 24.49 55.25H36.81C37.0047 55.25 37.1975 55.2113 37.3772 55.1362C37.5569 55.0611 37.7198 54.951 37.8566 54.8124C37.9934 54.6738 38.1012 54.5094 38.1739 54.3287C38.2466 54.148 38.2826 53.9547 38.28 53.76C38.2133 48.2867 38.2167 43.0267 38.29 37.98C38.36 33.23 37.77 26.21 38.5 20.21C38.56 19.6967 38.3567 19.5567 37.89 19.79C32.9 22.28 26.82 29.95 23.92 33.09C21.49 35.73 21.32 37.05 21.32 40.5C21.32 46.7867 21.3667 51.1867 21.46 53.7C21.4733 54.0467 21.5833 54.36 21.79 54.64C23.29 56.67 23.79 58.7 25.56 60.46C27.92 62.8 36.2 72.22 39 72.44C44.42 72.86 50.27 72.8667 56.55 72.46C63 72.04 70.69 62.18 75.13 57.75C75.3357 57.544 75.4982 57.299 75.6081 57.0294C75.718 56.7599 75.773 56.4711 75.77 56.18L75.7 37.61C75.6988 37.3387 75.6433 37.0704 75.5367 36.8211C75.4301 36.5719 75.2746 36.3467 75.0796 36.1591C74.8845 35.9715 74.6538 35.8254 74.4014 35.7293C74.1489 35.6332 73.8797 35.5893 73.61 35.6L61.47 36.08C61.0791 36.0954 60.7092 36.261 60.4372 36.5423C60.1653 36.8235 60.0123 37.1988 60.01 37.59L59.97 69.44C59.9698 69.6219 59.9045 69.798 59.7855 69.9371C59.6665 70.0762 59.5016 70.1693 59.32 70.2Z" fill="white"/>
<path d="M39.21 34.4L39.44 19.19C39.44 19.0166 39.5934 18.8533 39.9 18.7C43.49 16.9 55.64 18.06 58.93 18.33C59.2834 18.3566 59.58 18.4933 59.82 18.74L73.55 32.72C74.8234 34.02 74.55 34.68 72.73 34.7L39.9 35.09C39.8091 35.0913 39.7187 35.0744 39.6344 35.0402C39.5501 35.006 39.4735 34.9552 39.4091 34.8909C39.3448 34.8265 39.294 34.7499 39.2598 34.6656C39.2256 34.5813 39.2087 34.491 39.21 34.4Z" fill="#1F5CA2"/>
<path d="M59.3199 70.2C59.5016 70.1693 59.6665 70.0761 59.7854 69.937C59.9044 69.7979 59.9698 69.6218 59.9699 69.44L60.0099 37.59C60.0122 37.1988 60.1652 36.8235 60.4372 36.5422C60.7091 36.261 61.079 36.0954 61.4699 36.08L73.6099 35.6C73.8797 35.5892 74.1488 35.6332 74.4013 35.7293C74.6538 35.8253 74.8844 35.9715 75.0795 36.1591C75.2746 36.3467 75.43 36.5719 75.5366 36.8211C75.6432 37.0704 75.6988 37.3387 75.6999 37.61L75.7699 56.18C75.773 56.4711 75.7179 56.7598 75.608 57.0294C75.4981 57.299 75.3356 57.544 75.1299 57.75C70.6899 62.18 62.9999 72.04 56.5499 72.46C50.2699 72.8666 44.4199 72.86 38.9999 72.44C36.1999 72.22 27.9199 62.8 25.5599 60.46C23.7899 58.7 23.2899 56.67 21.7899 54.64C21.5833 54.36 21.4733 54.0466 21.4599 53.7C21.3666 51.1866 21.3199 46.7866 21.3199 40.5C21.3199 37.05 21.4899 35.73 23.9199 33.09C26.8199 29.95 32.8999 22.28 37.8899 19.79C38.3566 19.5566 38.5599 19.6966 38.4999 20.21C37.7699 26.21 38.3599 33.23 38.2899 37.98C38.2166 43.0266 38.2133 48.2866 38.2799 53.76C38.2826 53.9547 38.2465 54.148 38.1738 54.3287C38.1012 54.5093 37.9933 54.6738 37.8565 54.8124C37.7198 54.951 37.5568 55.0611 37.3771 55.1362C37.1975 55.2113 37.0047 55.25 36.8099 55.25H24.4899C24.3892 55.2486 24.2905 55.2789 24.208 55.3366C24.1254 55.3944 24.0631 55.4767 24.0299 55.5718C23.9967 55.667 23.9943 55.7702 24.0231 55.8667C24.0518 55.9633 24.1102 56.0484 24.1899 56.11C24.8599 56.63 25.8599 57 26.7799 56.99C36.8333 56.8833 46.9899 56.73 57.2499 56.53C57.5639 56.5245 57.8672 56.6424 58.0939 56.8578C58.3205 57.0732 58.4521 57.3687 58.4599 57.68C58.5533 61.3133 58.5466 65.23 58.4399 69.43C58.4199 70.05 58.7133 70.3066 59.3199 70.2Z" fill="#1F5CA2"/>
</g>
<defs>
<clipPath id="clip0_142_2">
<rect width="90" height="88" fill="white"/>
</clipPath>
</defs>
</svg>
