<?xml version="1.0" encoding="UTF-8" standalone="no"?>
<!DOCTYPE svg PUBLIC "-//W3C//DTD SVG 1.1//EN" "http://www.w3.org/Graphics/SVG/1.1/DTD/svg11.dtd">
<svg xmlns="http://www.w3.org/2000/svg" version="1.1" viewBox="0 0 14 15">
<g stroke-width="2.00" fill="none" stroke-linecap="butt">
<path stroke="#90bca3" vector-effect="non-scaling-stroke" d="
  M 13.49 8.11
  A 6.50 6.50 0.0 0 0 6.99 1.61
  A 6.50 6.50 0.0 0 0 0.49 8.11
  A 6.50 6.50 0.0 0 0 6.99 14.61
  A 6.50 6.50 0.0 0 0 13.49 8.11"
/>
<path stroke="#90bca3" vector-effect="non-scaling-stroke" d="
  M 5.74 8.76
  L 4.36 7.72
  Q 3.82 7.31 3.53 7.92
  L 3.36 8.26
  Q 3.13 8.76 3.52 9.14
  L 6.00 11.63
  Q 6.55 12.17 6.97 11.53
  L 10.86 5.63
  Q 11.40 4.81 10.43 4.73
  C 8.91 4.61 7.39 7.55 6.63 8.62
  Q 6.26 9.15 5.74 8.76"
/>
</g>
<path fill="#f7f6f5" d="
  M 0.00 0.00
  L 14.00 0.00
  L 14.00 15.00
  L 0.00 15.00
  L 0.00 0.00
  Z
  M 13.49 8.11
  A 6.50 6.50 0.0 0 0 6.99 1.61
  A 6.50 6.50 0.0 0 0 0.49 8.11
  A 6.50 6.50 0.0 0 0 6.99 14.61
  A 6.50 6.50 0.0 0 0 13.49 8.11
  Z"
/>
<path fill="#288150" d="
  M 13.49 8.11
  A 6.50 6.50 0.0 0 1 6.99 14.61
  A 6.50 6.50 0.0 0 1 0.49 8.11
  A 6.50 6.50 0.0 0 1 6.99 1.61
  A 6.50 6.50 0.0 0 1 13.49 8.11
  Z
  M 5.74 8.76
  L 4.36 7.72
  Q 3.82 7.31 3.53 7.92
  L 3.36 8.26
  Q 3.13 8.76 3.52 9.14
  L 6.00 11.63
  Q 6.55 12.17 6.97 11.53
  L 10.86 5.63
  Q 11.40 4.81 10.43 4.73
  C 8.91 4.61 7.39 7.55 6.63 8.62
  Q 6.26 9.15 5.74 8.76
  Z"
/>
<path fill="#f7f6f5" d="
  M 6.63 8.62
  C 7.39 7.55 8.91 4.61 10.43 4.73
  Q 11.40 4.81 10.86 5.63
  L 6.97 11.53
  Q 6.55 12.17 6.00 11.63
  L 3.52 9.14
  Q 3.13 8.76 3.36 8.26
  L 3.53 7.92
  Q 3.82 7.31 4.36 7.72
  L 5.74 8.76
  Q 6.26 9.15 6.63 8.62
  Z"
/>
</svg>
