<svg width="214" height="188" viewBox="0 0 214 188" fill="none" xmlns="http://www.w3.org/2000/svg">
<g clip-path="url(#clip0_142_167)">
<path d="M189.73 99.17C189.73 78.21 181.404 58.1084 166.583 43.2874C151.762 28.4664 131.66 20.14 110.7 20.14C89.7399 20.14 69.6383 28.4664 54.8173 43.2874C39.9963 58.1084 31.67 78.21 31.67 99.17C31.67 120.13 39.9963 140.232 54.8173 155.053C69.6383 169.874 89.7399 178.2 110.7 178.2C131.66 178.2 151.762 169.874 166.583 155.053C181.404 140.232 189.73 120.13 189.73 99.17Z" stroke="#8495AD" stroke-width="2"/>
<path d="M145.81 55.95C139.23 51.23 124.38 52.57 115.3 52.84C90.16 53.58 93.75 87.69 118.06 84.93C118.178 84.9159 118.297 84.9268 118.41 84.962C118.523 84.9972 118.627 85.056 118.716 85.1343C118.805 85.2127 118.876 85.309 118.925 85.4168C118.974 85.5246 118.999 85.6416 119 85.76V91.7C119.001 91.8437 119.042 91.9844 119.116 92.1072C119.191 92.2301 119.297 92.3305 119.424 92.3981C119.551 92.4656 119.694 92.4977 119.837 92.491C119.981 92.4843 120.12 92.439 120.24 92.36L130.51 85.44C130.83 85.2267 131.18 85.1167 131.56 85.11C135.18 85.02 138.65 85.17 141.92 83.79C152.87 79.18 156.33 63.5 145.81 55.95Z" stroke="#45818D" stroke-width="2"/>
<path d="M74.48 84.72C71.1266 87.6133 70.61 90.8833 72.93 94.53C73.11 94.8033 73.3633 94.96 73.69 95C73.97 95.04 74.17 94.9566 74.29 94.75" stroke="#061639" stroke-width="2"/>
<path d="M74.29 94.75C80.32 111.78 104.96 106.93 103.18 88.15C101.68 72.38 80.64 71.01 74.48 84.72" stroke="#8495AD" stroke-width="2"/>
<path d="M74.29 94.75C73.21 91.4566 73.2733 88.1133 74.48 84.72" stroke="#81808B" stroke-width="2"/>
<path d="M148.42 99.78C148.42 96.5868 147.151 93.5244 144.894 91.2664C142.636 89.0085 139.573 87.74 136.38 87.74C133.187 87.74 130.124 89.0085 127.866 91.2664C125.608 93.5244 124.34 96.5868 124.34 99.78C124.34 102.973 125.608 106.036 127.866 108.294C130.124 110.551 133.187 111.82 136.38 111.82C139.573 111.82 142.636 110.551 144.894 108.294C147.151 106.036 148.42 102.973 148.42 99.78Z" stroke="#8495AD" stroke-width="2"/>
<path d="M65.44 136.52C65.9333 137.673 67.12 138.263 69 138.29C81.9 138.483 94.7933 138.403 107.68 138.05C108.54 138.03 112.05 138.01 111.5 136.46" stroke="#061639" stroke-width="2"/>
<path d="M111.5 136.46C111.987 130.613 111.237 125.02 109.25 119.68C105.81 110.41 95.04 109.62 86.74 109.96C67.72 110.74 65.63 119.59 65.44 136.52" stroke="#8495AD" stroke-width="2"/>
<path d="M111.5 136.46L65.44 136.52" stroke="#81808B" stroke-width="2"/>
<path d="M118.91 136.97L154.09 137.03C154.238 137.03 154.381 136.971 154.486 136.866C154.591 136.761 154.65 136.619 154.65 136.47L154.66 130.86C154.666 127.151 153.281 123.592 150.809 120.965C148.338 118.338 144.982 116.858 141.48 116.85L131.6 116.83C129.865 116.826 128.145 117.185 126.54 117.885C124.936 118.585 123.477 119.613 122.247 120.91C121.018 122.208 120.042 123.749 119.375 125.446C118.708 127.143 118.363 128.962 118.36 130.8L118.35 136.41C118.35 136.559 118.409 136.701 118.514 136.806C118.619 136.911 118.761 136.97 118.91 136.97Z" stroke="#8495AD" stroke-width="2"/>
<path d="M0 0H214V188H0V0ZM189.73 99.17C189.73 78.2099 181.404 58.1083 166.583 43.2873C151.762 28.4664 131.66 20.14 110.7 20.14C89.7399 20.14 69.6384 28.4664 54.8174 43.2873C39.9964 58.1083 31.67 78.2099 31.67 99.17C31.67 120.13 39.9964 140.232 54.8174 155.053C69.6384 169.874 89.7399 178.2 110.7 178.2C131.66 178.2 151.762 169.874 166.583 155.053C181.404 140.232 189.73 120.13 189.73 99.17Z" fill="white"/>
<path d="M189.73 99.17C189.73 120.13 181.404 140.232 166.583 155.053C151.762 169.874 131.66 178.2 110.7 178.2C89.7399 178.2 69.6383 169.874 54.8173 155.053C39.9963 140.232 31.67 120.13 31.67 99.17C31.67 78.21 39.9963 58.1084 54.8173 43.2874C69.6383 28.4664 89.7399 20.14 110.7 20.14C131.66 20.14 151.762 28.4664 166.583 43.2874C181.404 58.1084 189.73 78.21 189.73 99.17ZM145.81 55.95C139.23 51.23 124.38 52.57 115.3 52.84C90.16 53.58 93.75 87.69 118.06 84.93C118.178 84.9159 118.297 84.9268 118.41 84.9621C118.523 84.9973 118.627 85.056 118.716 85.1344C118.805 85.2127 118.876 85.309 118.925 85.4168C118.974 85.5247 118.999 85.6416 119 85.76V91.7C119.001 91.8437 119.042 91.9844 119.116 92.1073C119.191 92.2301 119.297 92.3306 119.424 92.3981C119.551 92.4656 119.694 92.4977 119.837 92.491C119.981 92.4843 120.12 92.4391 120.24 92.36L130.51 85.44C130.83 85.2267 131.18 85.1167 131.56 85.11C135.18 85.02 138.65 85.17 141.92 83.79C152.87 79.18 156.33 63.5 145.81 55.95ZM74.48 84.72C71.1267 87.6133 70.61 90.8833 72.93 94.53C73.11 94.8033 73.3633 94.96 73.69 95C73.97 95.04 74.17 94.9567 74.29 94.75C80.32 111.78 104.96 106.93 103.18 88.15C101.68 72.38 80.64 71.01 74.48 84.72ZM148.42 99.78C148.42 96.5868 147.151 93.5244 144.894 91.2664C142.636 89.0085 139.573 87.74 136.38 87.74C133.187 87.74 130.124 89.0085 127.866 91.2664C125.608 93.5244 124.34 96.5868 124.34 99.78C124.34 102.973 125.608 106.036 127.866 108.294C130.124 110.552 133.187 111.82 136.38 111.82C139.573 111.82 142.636 110.552 144.894 108.294C147.151 106.036 148.42 102.973 148.42 99.78ZM65.44 136.52C65.9333 137.673 67.12 138.263 69 138.29C81.9 138.483 94.7933 138.403 107.68 138.05C108.54 138.03 112.05 138.01 111.5 136.46C111.987 130.613 111.237 125.02 109.25 119.68C105.81 110.41 95.04 109.62 86.74 109.96C67.72 110.74 65.63 119.59 65.44 136.52ZM118.91 136.97L154.09 137.03C154.239 137.03 154.381 136.971 154.486 136.866C154.591 136.761 154.65 136.619 154.65 136.47L154.66 130.86C154.666 127.151 153.281 123.592 150.809 120.965C148.338 118.338 144.982 116.858 141.48 116.85L131.6 116.83C129.865 116.826 128.145 117.185 126.54 117.885C124.936 118.585 123.477 119.613 122.247 120.91C121.018 122.208 120.042 123.749 119.375 125.446C118.708 127.143 118.363 128.962 118.36 130.8L118.35 136.41C118.35 136.559 118.409 136.701 118.514 136.806C118.619 136.911 118.761 136.97 118.91 136.97Z" fill="#092A5B"/>
<path d="M145.81 55.95C156.33 63.5 152.87 79.18 141.92 83.79C138.65 85.17 135.18 85.02 131.56 85.11C131.18 85.1167 130.83 85.2267 130.51 85.44L120.24 92.36C120.12 92.439 119.981 92.4843 119.837 92.491C119.694 92.4977 119.551 92.4656 119.424 92.3981C119.297 92.3306 119.191 92.2301 119.116 92.1072C119.042 91.9844 119.001 91.8437 119 91.7V85.76C118.999 85.6416 118.974 85.5246 118.925 85.4168C118.876 85.309 118.805 85.2127 118.716 85.1343C118.627 85.056 118.523 84.9972 118.41 84.962C118.297 84.9268 118.178 84.9159 118.06 84.93C93.75 87.69 90.16 53.58 115.3 52.84C124.38 52.57 139.23 51.23 145.81 55.95Z" fill="#81D8BE"/>
<path d="M74.29 94.75C73.21 91.4567 73.2734 88.1133 74.48 84.72C80.64 71.01 101.68 72.38 103.18 88.15C104.96 106.93 80.32 111.78 74.29 94.75Z" fill="white"/>
<path d="M74.48 84.72C73.2733 88.1133 73.21 91.4566 74.29 94.75C74.17 94.9566 73.97 95.04 73.69 95C73.3633 94.96 73.11 94.8033 72.93 94.53C70.61 90.8833 71.1266 87.6133 74.48 84.72Z" fill="#020116"/>
<path d="M136.38 111.82C143.029 111.82 148.42 106.43 148.42 99.78C148.42 93.1305 143.029 87.74 136.38 87.74C129.73 87.74 124.34 93.1305 124.34 99.78C124.34 106.43 129.73 111.82 136.38 111.82Z" fill="white"/>
<path d="M111.5 136.46L65.44 136.52C65.63 119.59 67.72 110.74 86.74 109.96C95.04 109.62 105.81 110.41 109.25 119.68C111.237 125.02 111.987 130.613 111.5 136.46Z" fill="white"/>
<path d="M118.91 136.97C118.761 136.97 118.619 136.911 118.514 136.806C118.409 136.701 118.35 136.559 118.35 136.41L118.36 130.8C118.363 128.962 118.708 127.143 119.375 125.446C120.042 123.749 121.018 122.208 122.247 120.91C123.477 119.613 124.936 118.585 126.54 117.885C128.145 117.185 129.865 116.826 131.6 116.83L141.48 116.85C144.982 116.858 148.338 118.338 150.809 120.965C153.281 123.592 154.666 127.151 154.66 130.86L154.65 136.47C154.65 136.619 154.591 136.761 154.486 136.866C154.381 136.971 154.238 137.03 154.09 137.03L118.91 136.97Z" fill="white"/>
<path d="M65.44 136.52L111.5 136.46C112.05 138.01 108.54 138.03 107.68 138.05C94.7933 138.403 81.9 138.483 69 138.29C67.12 138.263 65.9333 137.673 65.44 136.52Z" fill="#020116"/>
</g>
<defs>
<clipPath id="clip0_142_167">
<rect width="214" height="188" fill="white"/>
</clipPath>
</defs>
</svg>
