<?xml version="1.0" encoding="UTF-8" standalone="no"?>
<!DOCTYPE svg PUBLIC "-//W3C//DTD SVG 1.1//EN" "http://www.w3.org/Graphics/SVG/1.1/DTD/svg11.dtd">
<svg xmlns="http://www.w3.org/2000/svg" version="1.1" viewBox="0.00 0.00 24.00 26.00">
<g stroke-width="2.00" fill="none" stroke-linecap="butt">
<path stroke="#9cb1ce" vector-effect="non-scaling-stroke" d="
  M 20.28 4.62
  A 0.62 0.62 0.0 0 0 19.66 4.00
  L 4.16 4.00
  A 0.62 0.62 0.0 0 0 3.54 4.62
  L 3.54 4.88
  A 0.62 0.62 0.0 0 0 4.16 5.50
  L 19.66 5.50
  A 0.62 0.62 0.0 0 0 20.28 4.88
  L 20.28 4.62"
/>
<path stroke="#9cb1ce" vector-effect="non-scaling-stroke" d="
  M 13.64 9.76
  Q 14.17 10.37 15.01 10.56
  Q 16.26 10.85 15.32 9.99
  L 12.97 7.83
  Q 12.49 7.39 11.95 7.76
  Q 10.49 8.77 9.46 10.18
  Q 8.56 11.42 9.85 10.60
  L 11.32 9.66
  Q 11.85 9.33 11.86 9.96
  L 11.98 16.20
  Q 11.99 16.85 11.38 16.64
  L 10.09 16.19
  Q 9.52 15.99 9.75 16.55
  C 11.00 19.60 13.49 19.03 15.05 16.67
  Q 15.62 15.81 14.66 16.22
  L 13.65 16.66
  Q 13.00 16.94 13.00 16.23
  L 13.00 10.00
  Q 13.00 9.03 13.64 9.76"
/>
<path stroke="#9cb1ce" vector-effect="non-scaling-stroke" d="
  M 20.4600 21.7252
  A 0.72 0.72 0.0 0 0 19.7387 21.0065
  L 4.2587 21.0335
  A 0.72 0.72 0.0 0 0 3.5400 21.7548
  L 3.5400 21.7948
  A 0.72 0.72 0.0 0 0 4.2613 22.5135
  L 19.7413 22.4865
  A 0.72 0.72 0.0 0 0 20.4600 21.7652
  L 20.4600 21.7252"
/>
</g>
<path fill="#ffffff" d="
  M 0.00 0.00
  L 24.00 0.00
  L 24.00 26.00
  L 0.00 26.00
  L 0.00 0.00
  Z
  M 20.28 4.62
  A 0.62 0.62 0.0 0 0 19.66 4.00
  L 4.16 4.00
  A 0.62 0.62 0.0 0 0 3.54 4.62
  L 3.54 4.88
  A 0.62 0.62 0.0 0 0 4.16 5.50
  L 19.66 5.50
  A 0.62 0.62 0.0 0 0 20.28 4.88
  L 20.28 4.62
  Z
  M 13.64 9.76
  Q 14.17 10.37 15.01 10.56
  Q 16.26 10.85 15.32 9.99
  L 12.97 7.83
  Q 12.49 7.39 11.95 7.76
  Q 10.49 8.77 9.46 10.18
  Q 8.56 11.42 9.85 10.60
  L 11.32 9.66
  Q 11.85 9.33 11.86 9.96
  L 11.98 16.20
  Q 11.99 16.85 11.38 16.64
  L 10.09 16.19
  Q 9.52 15.99 9.75 16.55
  C 11.00 19.60 13.49 19.03 15.05 16.67
  Q 15.62 15.81 14.66 16.22
  L 13.65 16.66
  Q 13.00 16.94 13.00 16.23
  L 13.00 10.00
  Q 13.00 9.03 13.64 9.76
  Z
  M 20.4600 21.7252
  A 0.72 0.72 0.0 0 0 19.7387 21.0065
  L 4.2587 21.0335
  A 0.72 0.72 0.0 0 0 3.5400 21.7548
  L 3.5400 21.7948
  A 0.72 0.72 0.0 0 0 4.2613 22.5135
  L 19.7413 22.4865
  A 0.72 0.72 0.0 0 0 20.4600 21.7652
  L 20.4600 21.7252
  Z"
/>
<rect fill="#38629c" x="3.54" y="4.00" width="16.74" height="1.50" rx="0.62"/>
<path fill="#38629c" d="
  M 13.00 10.00
  L 13.00 16.23
  Q 13.00 16.94 13.65 16.66
  L 14.66 16.22
  Q 15.62 15.81 15.05 16.67
  C 13.49 19.03 11.00 19.60 9.75 16.55
  Q 9.52 15.99 10.09 16.19
  L 11.38 16.64
  Q 11.99 16.85 11.98 16.20
  L 11.86 9.96
  Q 11.85 9.33 11.32 9.66
  L 9.85 10.60
  Q 8.56 11.42 9.46 10.18
  Q 10.49 8.77 11.95 7.76
  Q 12.49 7.39 12.97 7.83
  L 15.32 9.99
  Q 16.26 10.85 15.01 10.56
  Q 14.17 10.37 13.64 9.76
  Q 13.00 9.03 13.00 10.00
  Z"
/>
<rect fill="#38629c" x="-8.46" y="-0.74" transform="translate(12.00,21.76) rotate(-0.1)" width="16.92" height="1.48" rx="0.72"/>
</svg>
