<?xml version="1.0" encoding="UTF-8" standalone="no"?>
<!DOCTYPE svg PUBLIC "-//W3C//DTD SVG 1.1//EN" "http://www.w3.org/Graphics/SVG/1.1/DTD/svg11.dtd">
<svg xmlns="http://www.w3.org/2000/svg" version="1.1" viewBox="0.00 0.00 18.00 14.00">
<g stroke-width="2.00" fill="none" stroke-linecap="butt">
<path stroke="#aabfdc" vector-effect="non-scaling-stroke" d="
  M 3.22 3.22
  A 0.67 0.67 0.0 0 0 3.41 4.46
  L 4.25 4.65
  Q 5.19 4.86 4.85 3.96
  Q 4.32 2.58 3.22 3.22"
/>
<path stroke="#aabfdc" vector-effect="non-scaling-stroke" d="
  M 14.9399 3.6839
  A 0.58 0.58 0.0 0 0 14.3670 3.0968
  L 6.7076 3.0033
  A 0.58 0.58 0.0 0 0 6.1206 3.5761
  L 6.1201 3.6161
  A 0.58 0.58 0.0 0 0 6.6930 4.2032
  L 14.3524 4.2967
  A 0.58 0.58 0.0 0 0 14.9394 3.7239
  L 14.9399 3.6839"
/>
<path stroke="#aabfdc" vector-effect="non-scaling-stroke" d="
  M 14.9619 6.6827
  A 0.26 0.26 0.0 0 0 14.7032 6.4214
  L 6.5434 6.3786
  A 0.26 0.26 0.0 0 0 6.2820 6.6373
  L 6.2781 7.3773
  A 0.26 0.26 0.0 0 0 6.5368 7.6386
  L 14.6966 7.6814
  A 0.26 0.26 0.0 0 0 14.9580 7.4227
  L 14.9619 6.6827"
/>
<path stroke="#aabfdc" vector-effect="non-scaling-stroke" d="
  M 3.17 6.62
  A 0.26 0.26 0.0 0 0 2.99 7.00
  L 3.32 7.61
  A 0.51 0.51 0.0 0 0 4.19 7.65
  L 4.54 7.13
  Q 5.13 6.24 4.08 6.45
  L 3.17 6.62"
/>
<path stroke="#aabfdc" vector-effect="non-scaling-stroke" d="
  M 3.55 9.50
  A 0.37 0.37 0.0 0 0 3.01 9.80
  Q 2.89 11.21 4.27 10.98
  A 0.56 0.56 0.0 0 0 4.42 9.92
  L 3.55 9.50"
/>
<path stroke="#aabfdc" vector-effect="non-scaling-stroke" d="
  M 14.9700 10.3477
  A 0.59 0.59 0.0 0 0 14.3811 9.7567
  L 6.7011 9.7433
  A 0.59 0.59 0.0 0 0 6.1101 10.3323
  L 6.1100 10.3923
  A 0.59 0.59 0.0 0 0 6.6989 10.9833
  L 14.3789 10.9967
  A 0.59 0.59 0.0 0 0 14.9699 10.4077
  L 14.9700 10.3477"
/>
</g>
<path fill="#ffffff" d="
  M 0.00 0.00
  L 18.00 0.00
  L 18.00 14.00
  L 0.00 14.00
  L 0.00 0.00
  Z
  M 3.22 3.22
  A 0.67 0.67 0.0 0 0 3.41 4.46
  L 4.25 4.65
  Q 5.19 4.86 4.85 3.96
  Q 4.32 2.58 3.22 3.22
  Z
  M 14.9399 3.6839
  A 0.58 0.58 0.0 0 0 14.3670 3.0968
  L 6.7076 3.0033
  A 0.58 0.58 0.0 0 0 6.1206 3.5761
  L 6.1201 3.6161
  A 0.58 0.58 0.0 0 0 6.6930 4.2032
  L 14.3524 4.2967
  A 0.58 0.58 0.0 0 0 14.9394 3.7239
  L 14.9399 3.6839
  Z
  M 14.9619 6.6827
  A 0.26 0.26 0.0 0 0 14.7032 6.4214
  L 6.5434 6.3786
  A 0.26 0.26 0.0 0 0 6.2820 6.6373
  L 6.2781 7.3773
  A 0.26 0.26 0.0 0 0 6.5368 7.6386
  L 14.6966 7.6814
  A 0.26 0.26 0.0 0 0 14.9580 7.4227
  L 14.9619 6.6827
  Z
  M 3.17 6.62
  A 0.26 0.26 0.0 0 0 2.99 7.00
  L 3.32 7.61
  A 0.51 0.51 0.0 0 0 4.19 7.65
  L 4.54 7.13
  Q 5.13 6.24 4.08 6.45
  L 3.17 6.62
  Z
  M 3.55 9.50
  A 0.37 0.37 0.0 0 0 3.01 9.80
  Q 2.89 11.21 4.27 10.98
  A 0.56 0.56 0.0 0 0 4.42 9.92
  L 3.55 9.50
  Z
  M 14.9700 10.3477
  A 0.59 0.59 0.0 0 0 14.3811 9.7567
  L 6.7011 9.7433
  A 0.59 0.59 0.0 0 0 6.1101 10.3323
  L 6.1100 10.3923
  A 0.59 0.59 0.0 0 0 6.6989 10.9833
  L 14.3789 10.9967
  A 0.59 0.59 0.0 0 0 14.9699 10.4077
  L 14.9700 10.3477
  Z"
/>
<path fill="#547fb8" d="
  M 3.22 3.22
  Q 4.32 2.58 4.85 3.96
  Q 5.19 4.86 4.25 4.65
  L 3.41 4.46
  A 0.67 0.67 0.0 0 1 3.22 3.22
  Z"
/>
<rect fill="#547fb8" x="-4.41" y="-0.60" transform="translate(10.53,3.65) rotate(0.7)" width="8.82" height="1.20" rx="0.58"/>
<rect fill="#547fb8" x="-4.34" y="-0.63" transform="translate(10.62,7.03) rotate(0.3)" width="8.68" height="1.26" rx="0.26"/>
<path fill="#547fb8" d="
  M 3.17 6.62
  L 4.08 6.45
  Q 5.13 6.24 4.54 7.13
  L 4.19 7.65
  A 0.51 0.51 0.0 0 1 3.32 7.61
  L 2.99 7.00
  A 0.26 0.26 0.0 0 1 3.17 6.62
  Z"
/>
<path fill="#547fb8" d="
  M 3.55 9.50
  L 4.42 9.92
  A 0.56 0.56 0.0 0 1 4.27 10.98
  Q 2.89 11.21 3.01 9.80
  A 0.37 0.37 0.0 0 1 3.55 9.50
  Z"
/>
<rect fill="#547fb8" x="-4.43" y="-0.62" transform="translate(10.54,10.37) rotate(0.1)" width="8.86" height="1.24" rx="0.59"/>
</svg>
