<?xml version="1.0" encoding="UTF-8" standalone="no"?>
<!DOCTYPE svg PUBLIC "-//W3C//DTD SVG 1.1//EN" "http://www.w3.org/Graphics/SVG/1.1/DTD/svg11.dtd">
<svg xmlns="http://www.w3.org/2000/svg" version="1.1" viewBox="0.00 0.00 42.00 38.00">
<g stroke-width="2.00" fill="none" stroke-linecap="butt">
<path stroke="#9ccca9" vector-effect="non-scaling-stroke" d="
  M 0.69 38.00
  L 1.10 37.00
  Q 1.43 36.19 0.56 36.25
  Q 0.26 36.27 0.00 36.19"
/>
<path stroke="#9ccca9" vector-effect="non-scaling-stroke" d="
  M 22.78 26.50
  L 22.21 26.50
  Q 21.65 26.50 21.26 26.09
  Q 18.70 23.34 16.01 20.73
  C 14.99 19.74 14.49 18.47 13.73 17.27
  Q 13.44 16.81 13.73 16.34
  L 16.89 11.23
  Q 17.13 10.83 16.92 10.42
  C 15.36 7.41 12.41 6.16 10.28 3.70
  A 1.24 1.24 0.0 0 0 8.23 3.95
  C 2.99 14.37 9.38 25.27 18.12 31.15
  C 19.90 32.35 21.99 32.89 24.03 33.77
  C 28.00 35.48 31.28 34.63 34.67 32.44
  Q 35.08 32.17 35.16 31.68
  C 35.71 28.10 32.53 25.46 29.27 22.51
  Q 28.89 22.17 28.39 22.26
  Q 27.61 22.42 27.27 23.12
  Q 27.06 23.55 26.60 23.69
  Q 24.62 24.28 23.55 26.06
  Q 23.29 26.50 22.78 26.50"
/>
<path stroke="#9ccca9" vector-effect="non-scaling-stroke" d="
  M 36.29 15.26
  C 36.29 6.94 31.00 2.39 22.74 3.69
  Q 22.29 3.76 22.28 4.21
  L 22.08 16.32
  Q 22.06 17.15 22.89 17.15
  L 34.33 17.22
  A 1.95 1.95 0.0 0 0 36.29 15.26"
/>
</g>
<path fill="#ffffff" d="
  M 0.00 0.00
  L 42.00 0.00
  L 42.00 38.00
  L 0.69 38.00
  L 1.10 37.00
  Q 1.43 36.19 0.56 36.25
  Q 0.26 36.27 0.00 36.19
  L 0.00 0.00
  Z
  M 22.78 26.50
  L 22.21 26.50
  Q 21.65 26.50 21.26 26.09
  Q 18.70 23.34 16.01 20.73
  C 14.99 19.74 14.49 18.47 13.73 17.27
  Q 13.44 16.81 13.73 16.34
  L 16.89 11.23
  Q 17.13 10.83 16.92 10.42
  C 15.36 7.41 12.41 6.16 10.28 3.70
  A 1.24 1.24 0.0 0 0 8.23 3.95
  C 2.99 14.37 9.38 25.27 18.12 31.15
  C 19.90 32.35 21.99 32.89 24.03 33.77
  C 28.00 35.48 31.28 34.63 34.67 32.44
  Q 35.08 32.17 35.16 31.68
  C 35.71 28.10 32.53 25.46 29.27 22.51
  Q 28.89 22.17 28.39 22.26
  Q 27.61 22.42 27.27 23.12
  Q 27.06 23.55 26.60 23.69
  Q 24.62 24.28 23.55 26.06
  Q 23.29 26.50 22.78 26.50
  Z
  M 36.29 15.26
  C 36.29 6.94 31.00 2.39 22.74 3.69
  Q 22.29 3.76 22.28 4.21
  L 22.08 16.32
  Q 22.06 17.15 22.89 17.15
  L 34.33 17.22
  A 1.95 1.95 0.0 0 0 36.29 15.26
  Z"
/>
<path fill="#389953" d="
  M 23.55 26.06
  Q 24.62 24.28 26.60 23.69
  Q 27.06 23.55 27.27 23.12
  Q 27.61 22.42 28.39 22.26
  Q 28.89 22.17 29.27 22.51
  C 32.53 25.46 35.71 28.10 35.16 31.68
  Q 35.08 32.17 34.67 32.44
  C 31.28 34.63 28.00 35.48 24.03 33.77
  C 21.99 32.89 19.90 32.35 18.12 31.15
  C 9.38 25.27 2.99 14.37 8.23 3.95
  A 1.24 1.24 0.0 0 1 10.28 3.70
  C 12.41 6.16 15.36 7.41 16.92 10.42
  Q 17.13 10.83 16.89 11.23
  L 13.73 16.34
  Q 13.44 16.81 13.73 17.27
  C 14.49 18.47 14.99 19.74 16.01 20.73
  Q 18.70 23.34 21.26 26.09
  Q 21.65 26.50 22.21 26.50
  L 22.78 26.50
  Q 23.29 26.50 23.55 26.06
  Z"
/>
<path fill="#389953" d="
  M 22.74 3.69
  C 31.00 2.39 36.29 6.94 36.29 15.26
  A 1.95 1.95 0.0 0 1 34.33 17.22
  L 22.89 17.15
  Q 22.06 17.15 22.08 16.32
  L 22.28 4.21
  Q 22.29 3.76 22.74 3.69
  Z"
/>
<path fill="#389953" d="
  M 0.00 36.19
  Q 0.26 36.27 0.56 36.25
  Q 1.43 36.19 1.10 37.00
  L 0.69 38.00
  L 0.00 38.00
  L 0.00 36.19
  Z"
/>
</svg>
