<svg width="108" height="100" viewBox="0 0 108 100" fill="none" xmlns="http://www.w3.org/2000/svg">
<g clip-path="url(#clip0_142_87)">
<path d="M95.83 45.33C95.83 34.114 91.3745 23.3574 83.4435 15.4265C75.5126 7.49558 64.756 3.04004 53.54 3.04004C42.324 3.04004 31.5674 7.49558 23.6365 15.4265C15.7055 23.3574 11.25 34.114 11.25 45.33C11.25 56.546 15.7055 67.3027 23.6365 75.2336C31.5674 83.1645 42.324 87.62 53.54 87.62C64.756 87.62 75.5126 83.1645 83.4435 75.2336C91.3745 67.3027 95.83 56.546 95.83 45.33Z" stroke="#F3F9FE" stroke-width="2"/>
<path d="M43.5 30.04C42.7467 29.24 42.5167 28.21 42.81 26.95C42.9234 26.4833 42.74 26.25 42.26 26.25H35.02C34.6867 26.25 34.52 26.4167 34.52 26.75L34.54 36.25" stroke="#7DA2CF" stroke-width="2"/>
<path d="M34.54 36.25C34.56 38.19 28.84 42.28 27.3 43.87C27.2274 43.9455 27.1779 44.0402 27.1573 44.1429C27.1366 44.2456 27.1458 44.3521 27.1836 44.4498C27.2214 44.5474 27.2863 44.6323 27.3707 44.6944C27.4551 44.7564 27.5555 44.7931 27.66 44.8L32.41 45.03" stroke="#7489A8" stroke-width="2"/>
<path d="M32.41 45.03L32.48 65.92C32.4866 66.2134 32.6366 66.36 32.93 66.36L42.25 66.26C42.5833 66.2534 42.75 66.0834 42.75 65.75V46.52C42.75 46.1649 42.831 45.814 42.9869 45.4936C43.1428 45.1732 43.3695 44.8916 43.65 44.67L53.05 37.27C53.1841 37.1662 53.3486 37.1099 53.5171 37.1099C53.6856 37.1099 53.8486 37.1662 53.98 37.27C56.04 38.88 64.26 44.41 64.29 46.75" stroke="#8CBBE1" stroke-width="2"/>
<path d="M64.29 46.75L64.46 65.91C64.46 66.23 64.62 66.3867 64.94 66.38L74.03 66.19C74.33 66.1833 74.48 66.0333 74.48 65.74L74.46 45.5" stroke="#7DA2CF" stroke-width="2"/>
<path d="M74.46 45.5001L75 44.9601" stroke="#8CBBE1" stroke-width="2"/>
<path d="M75 44.9601C76.6933 45.2934 78.0667 45.2167 79.12 44.7301C80.0133 44.3234 80.08 43.8067 79.32 43.1801L54.06 22.4801C53.6733 22.1601 53.2833 22.1567 52.89 22.4701L43.5 30.0401" stroke="#7489A8" stroke-width="2"/>
<path d="M75 44.9601L54.56 28.8201C54.3066 28.6201 54.0166 28.5401 53.69 28.5801C52.4166 28.7467 51.53 29.0634 51.03 29.5301C45.0833 35.0434 38.8766 40.2101 32.41 45.0301" stroke="#19518D" stroke-width="2"/>
<path d="M34.54 36.25C37.46 36.12 41.53 32.12 43.5 30.04" stroke="#0A387B" stroke-width="2"/>
<path d="M74.46 45.5C73.7733 46.06 73.4166 47.2333 73.39 49.02C73.3166 54.1067 73.2166 59.24 73.09 64.42C73.0833 64.8067 72.8866 65 72.5 65H67.55C66.5766 65 66.0833 64.5167 66.07 63.55L65.84 47.59C65.8333 47.1633 65.6266 46.8933 65.22 46.78C64.88 46.68 64.57 46.67 64.29 46.75" stroke="#226AB4" stroke-width="2"/>
<path d="M58.4856 49.7413C58.4855 49.7058 58.4785 49.6707 58.4649 49.638C58.4512 49.6053 58.4313 49.5756 58.4062 49.5505C58.381 49.5255 58.3512 49.5057 58.3185 49.4922C58.2857 49.4787 58.2506 49.4717 58.2151 49.4718L48.7552 49.4883C48.7197 49.4884 48.6846 49.4954 48.6519 49.509C48.6192 49.5226 48.5894 49.5426 48.5644 49.5677C48.5394 49.5928 48.5195 49.6226 48.506 49.6553C48.4925 49.6881 48.4855 49.7232 48.4856 49.7587L48.5144 66.2387C48.5145 66.2742 48.5215 66.3093 48.5351 66.342C48.5488 66.3747 48.5687 66.4044 48.5938 66.4295C48.6189 66.4545 48.6488 66.4743 48.6815 66.4878C48.7143 66.5013 48.7494 66.5083 48.7849 66.5082L58.2448 66.4917C58.2803 66.4916 58.3154 66.4846 58.3481 66.471C58.3808 66.4574 58.4106 66.4374 58.4356 66.4123C58.4606 66.3872 58.4805 66.3574 58.494 66.3247C58.5075 66.2919 58.5144 66.2568 58.5144 66.2213L58.4856 49.7413Z" stroke="#B9D2AB" stroke-width="2"/>
<path d="M0 0H108V100H0V0ZM95.83 45.33C95.83 34.114 91.3745 23.3574 83.4435 15.4265C75.5126 7.49554 64.756 3.04 53.54 3.04C42.324 3.04 31.5674 7.49554 23.6365 15.4265C15.7055 23.3574 11.25 34.114 11.25 45.33C11.25 56.546 15.7055 67.3026 23.6365 75.2335C31.5674 83.1645 42.324 87.62 53.54 87.62C64.756 87.62 75.5126 83.1645 83.4435 75.2335C91.3745 67.3026 95.83 56.546 95.83 45.33Z" fill="white"/>
<path d="M95.83 45.33C95.83 56.546 91.3745 67.3027 83.4435 75.2336C75.5126 83.1645 64.756 87.62 53.54 87.62C42.324 87.62 31.5674 83.1645 23.6365 75.2336C15.7055 67.3027 11.25 56.546 11.25 45.33C11.25 34.114 15.7055 23.3574 23.6365 15.4265C31.5674 7.49558 42.324 3.04004 53.54 3.04004C64.756 3.04004 75.5126 7.49558 83.4435 15.4265C91.3745 23.3574 95.83 34.114 95.83 45.33ZM43.5 30.04C42.7467 29.24 42.5167 28.21 42.81 26.95C42.9233 26.4834 42.74 26.25 42.26 26.25H35.02C34.6867 26.25 34.52 26.4167 34.52 26.75L34.54 36.25C34.56 38.19 28.84 42.28 27.3 43.87C27.2274 43.9455 27.1779 44.0402 27.1572 44.1429C27.1366 44.2456 27.1457 44.3521 27.1835 44.4498C27.2214 44.5475 27.2863 44.6324 27.3707 44.6944C27.4551 44.7564 27.5555 44.7931 27.66 44.8L32.41 45.03L32.48 65.92C32.4867 66.2134 32.6367 66.36 32.93 66.36L42.25 66.26C42.5833 66.2534 42.75 66.0834 42.75 65.75V46.52C42.7501 46.1649 42.8311 45.814 42.9869 45.4936C43.1428 45.1732 43.3695 44.8916 43.65 44.67L53.05 37.27C53.1842 37.1663 53.3486 37.1099 53.5171 37.1099C53.6857 37.1099 53.8486 37.1663 53.98 37.27C56.04 38.88 64.26 44.41 64.29 46.75L64.46 65.91C64.46 66.23 64.62 66.3867 64.94 66.38L74.03 66.19C74.33 66.1834 74.48 66.0334 74.48 65.74L74.46 45.5L75 44.96C76.6933 45.2934 78.0667 45.2167 79.12 44.73C80.0133 44.3234 80.08 43.8067 79.32 43.18L54.06 22.48C53.6733 22.16 53.2833 22.1567 52.89 22.47L43.5 30.04ZM58.4856 49.7413C58.4855 49.7059 58.4785 49.6708 58.4649 49.6381C58.4512 49.6053 58.4313 49.5756 58.4062 49.5506C58.381 49.5255 58.3512 49.5057 58.3185 49.4922C58.2857 49.4787 58.2506 49.4718 58.2151 49.4718L48.7552 49.4883C48.7197 49.4884 48.6846 49.4954 48.6519 49.509C48.6192 49.5227 48.5894 49.5426 48.5644 49.5677C48.5394 49.5928 48.5195 49.6226 48.506 49.6554C48.4925 49.6882 48.4855 49.7233 48.4856 49.7587L48.5144 66.2387C48.5145 66.2742 48.5215 66.3093 48.5351 66.342C48.5488 66.3748 48.5687 66.4045 48.5938 66.4295C48.619 66.4545 48.6488 66.4744 48.6815 66.4879C48.7143 66.5014 48.7494 66.5083 48.7849 66.5082L58.2448 66.4917C58.2803 66.4917 58.3154 66.4846 58.3481 66.471C58.3808 66.4574 58.4106 66.4375 58.4356 66.4124C58.4606 66.3873 58.4805 66.3575 58.494 66.3247C58.5075 66.2919 58.5145 66.2568 58.5144 66.2213L58.4856 49.7413Z" fill="#E7F3FC"/>
<path d="M75 44.96L54.56 28.82C54.3067 28.62 54.0167 28.54 53.69 28.58C52.4167 28.7466 51.53 29.0633 51.03 29.53C45.0834 35.0433 38.8767 40.21 32.41 45.03L27.66 44.8C27.5555 44.793 27.4551 44.7564 27.3707 44.6943C27.2863 44.6323 27.2214 44.5474 27.1836 44.4497C27.1458 44.352 27.1366 44.2456 27.1573 44.1428C27.1779 44.0401 27.2274 43.9455 27.3 43.87C28.84 42.28 34.56 38.19 34.54 36.25C37.46 36.12 41.53 32.12 43.5 30.04L52.89 22.47C53.2834 22.1566 53.6734 22.16 54.06 22.48L79.32 43.18C80.08 43.8066 80.0134 44.3233 79.12 44.73C78.0667 45.2166 76.6934 45.2933 75 44.96Z" fill="#011F54"/>
<path d="M43.5 30.04C41.53 32.12 37.46 36.12 34.54 36.25L34.52 26.75C34.52 26.4167 34.6867 26.25 35.02 26.25H42.26C42.74 26.25 42.9234 26.4833 42.81 26.95C42.5167 28.21 42.7467 29.24 43.5 30.04Z" fill="#1351A2"/>
<path d="M75 44.9599L74.46 45.4999C73.7733 46.0599 73.4166 47.2333 73.39 49.0199C73.3166 54.1066 73.2166 59.2399 73.09 64.4199C73.0833 64.8066 72.8866 64.9999 72.5 64.9999H67.55C66.5766 64.9999 66.0833 64.5166 66.07 63.5499L65.84 47.5899C65.8333 47.1633 65.6266 46.8933 65.22 46.7799C64.88 46.6799 64.57 46.6699 64.29 46.7499C64.26 44.4099 56.04 38.8799 53.98 37.2699C53.8486 37.1662 53.6856 37.1098 53.5171 37.1098C53.3486 37.1098 53.1841 37.1662 53.05 37.2699L43.65 44.6699C43.3695 44.8916 43.1428 45.1731 42.9869 45.4935C42.831 45.8139 42.75 46.1648 42.75 46.5199V65.7499C42.75 66.0833 42.5833 66.2533 42.25 66.2599L32.93 66.3599C32.6366 66.3599 32.4866 66.2133 32.48 65.9199L32.41 45.0299C38.8766 40.2099 45.0833 35.0433 51.03 29.5299C51.53 29.0633 52.4166 28.7466 53.69 28.5799C54.0166 28.5399 54.3066 28.6199 54.56 28.8199L75 44.9599Z" fill="#3082C6"/>
<path d="M74.46 45.5L74.48 65.74C74.48 66.0333 74.33 66.1833 74.03 66.19L64.94 66.38C64.62 66.3867 64.46 66.23 64.46 65.91L64.29 46.75C64.57 46.67 64.88 46.68 65.22 46.78C65.6266 46.8933 65.8333 47.1633 65.84 47.59L66.07 63.55C66.0833 64.5167 66.5766 65 67.55 65H72.5C72.8866 65 73.0833 64.8067 73.09 64.42C73.2166 59.24 73.3166 54.1067 73.39 49.02C73.4166 47.2333 73.7733 46.06 74.46 45.5Z" fill="#1351A2"/>
<path d="M58.2152 49.4718L48.7552 49.4883C48.6061 49.4886 48.4854 49.6097 48.4856 49.7588L48.5144 66.2387C48.5147 66.3879 48.6358 66.5085 48.7849 66.5083L58.2449 66.4918C58.394 66.4915 58.5146 66.3704 58.5144 66.2213L58.4856 49.7413C58.4854 49.5922 58.3643 49.4715 58.2152 49.4718Z" fill="#8BB159"/>
</g>
<defs>
<clipPath id="clip0_142_87">
<rect width="108" height="100" fill="white"/>
</clipPath>
</defs>
</svg>
