<?xml version="1.0" encoding="UTF-8" standalone="no"?>
<!DOCTYPE svg PUBLIC "-//W3C//DTD SVG 1.1//EN" "http://www.w3.org/Graphics/SVG/1.1/DTD/svg11.dtd">
<svg xmlns="http://www.w3.org/2000/svg" version="1.1" viewBox="0.00 0.00 116.00 88.00">
<g stroke-width="2.00" fill="none" stroke-linecap="butt">
<path stroke="#fd8fdc" vector-effect="non-scaling-stroke" d="
  M 80.28 48.45
  L 85.34 47.89
  A 1.24 1.24 0.0 0 0 86.45 46.66
  L 86.52 33.31
  Q 86.53 32.67 85.89 32.62
  L 81.69 32.25
  Q 80.01 32.10 79.81 30.42
  C 79.04 23.88 91.31 20.04 90.25 32.49
  C 89.00 47.09 91.80 61.82 109.75 62.29
  A 0.92 0.92 0.0 0 0 110.70 61.37
  L 110.65 48.68
  Q 110.64 48.11 110.11 47.94
  Q 105.18 46.32 104.85 41.12
  A 0.98 0.98 0.0 0 1 105.77 40.08
  L 109.95 39.84
  Q 110.75 39.80 110.75 39.00
  L 110.75 25.82
  A 0.82 0.81 89.6 0 0 109.94 25.01
  L 104.94 24.99
  Q 104.33 24.99 104.21 24.40
  C 99.47 1.26 65.73 4.78 65.25 27.25
  Q 64.91 43.59 64.75 59.94
  Q 64.72 62.62 67.01 62.27
  Q 78.04 60.55 79.67 49.04
  Q 79.74 48.51 80.28 48.45"
/>
<path stroke="#fd8fdc" vector-effect="non-scaling-stroke" d="
  M 24.56 57.98
  Q 23.72 57.49 23.39 56.58
  Q 22.33 53.72 22.33 49.99
  Q 22.31 30.17 22.21 10.25
  Q 22.20 9.75 21.70 9.75
  L 8.06 9.75
  A 0.56 0.56 0.0 0 0 7.50 10.31
  Q 7.51 26.30 7.50 42.45
  C 7.49 54.99 10.37 64.88 25.96 61.62
  Q 26.53 61.50 26.45 60.92
  Q 26.19 58.94 24.56 57.98"
/>
<path stroke="#fd8fdc" vector-effect="non-scaling-stroke" d="
  M 45.91 60.74
  C 45.78 67.22 33.87 64.62 30.82 64.01
  Q 30.19 63.88 30.20 64.53
  L 30.36 75.64
  Q 30.37 76.24 30.80 76.65
  C 34.05 79.73 42.03 79.38 45.95 78.47
  C 57.56 75.76 61.53 67.18 61.50 56.12
  Q 61.47 41.01 61.53 25.86
  A 0.61 0.61 0.0 0 0 60.92 25.25
  L 46.63 25.25
  Q 46.00 25.25 46.00 25.87
  L 46.00 47.08
  Q 46.00 47.73 45.35 47.73
  L 42.10 47.76
  Q 41.44 47.76 41.43 47.10
  L 41.24 25.62
  Q 41.23 25.25 40.87 25.25
  L 27.49 25.25
  A 0.69 0.69 0.0 0 0 26.80 25.93
  Q 26.63 34.87 26.81 43.91
  C 26.96 51.02 26.57 55.72 31.42 59.71
  C 35.45 63.03 40.92 62.78 45.39 60.42
  Q 45.92 60.14 45.91 60.74"
/>
</g>
<path fill="#ffffff" d="
  M 0.00 0.00
  L 116.00 0.00
  L 116.00 88.00
  L 0.00 88.00
  L 0.00 0.00
  Z
  M 80.28 48.45
  L 85.34 47.89
  A 1.24 1.24 0.0 0 0 86.45 46.66
  L 86.52 33.31
  Q 86.53 32.67 85.89 32.62
  L 81.69 32.25
  Q 80.01 32.10 79.81 30.42
  C 79.04 23.88 91.31 20.04 90.25 32.49
  C 89.00 47.09 91.80 61.82 109.75 62.29
  A 0.92 0.92 0.0 0 0 110.70 61.37
  L 110.65 48.68
  Q 110.64 48.11 110.11 47.94
  Q 105.18 46.32 104.85 41.12
  A 0.98 0.98 0.0 0 1 105.77 40.08
  L 109.95 39.84
  Q 110.75 39.80 110.75 39.00
  L 110.75 25.82
  A 0.82 0.81 89.6 0 0 109.94 25.01
  L 104.94 24.99
  Q 104.33 24.99 104.21 24.40
  C 99.47 1.26 65.73 4.78 65.25 27.25
  Q 64.91 43.59 64.75 59.94
  Q 64.72 62.62 67.01 62.27
  Q 78.04 60.55 79.67 49.04
  Q 79.74 48.51 80.28 48.45
  Z
  M 24.56 57.98
  Q 23.72 57.49 23.39 56.58
  Q 22.33 53.72 22.33 49.99
  Q 22.31 30.17 22.21 10.25
  Q 22.20 9.75 21.70 9.75
  L 8.06 9.75
  A 0.56 0.56 0.0 0 0 7.50 10.31
  Q 7.51 26.30 7.50 42.45
  C 7.49 54.99 10.37 64.88 25.96 61.62
  Q 26.53 61.50 26.45 60.92
  Q 26.19 58.94 24.56 57.98
  Z
  M 45.91 60.74
  C 45.78 67.22 33.87 64.62 30.82 64.01
  Q 30.19 63.88 30.20 64.53
  L 30.36 75.64
  Q 30.37 76.24 30.80 76.65
  C 34.05 79.73 42.03 79.38 45.95 78.47
  C 57.56 75.76 61.53 67.18 61.50 56.12
  Q 61.47 41.01 61.53 25.86
  A 0.61 0.61 0.0 0 0 60.92 25.25
  L 46.63 25.25
  Q 46.00 25.25 46.00 25.87
  L 46.00 47.08
  Q 46.00 47.73 45.35 47.73
  L 42.10 47.76
  Q 41.44 47.76 41.43 47.10
  L 41.24 25.62
  Q 41.23 25.25 40.87 25.25
  L 27.49 25.25
  A 0.69 0.69 0.0 0 0 26.80 25.93
  Q 26.63 34.87 26.81 43.91
  C 26.96 51.02 26.57 55.72 31.42 59.71
  C 35.45 63.03 40.92 62.78 45.39 60.42
  Q 45.92 60.14 45.91 60.74
  Z"
/>
<path fill="#fa1fb9" d="
  M 79.67 49.04
  Q 78.04 60.55 67.01 62.27
  Q 64.72 62.62 64.75 59.94
  Q 64.91 43.59 65.25 27.25
  C 65.73 4.78 99.47 1.26 104.21 24.40
  Q 104.33 24.99 104.94 24.99
  L 109.94 25.01
  A 0.82 0.81 89.6 0 1 110.75 25.82
  L 110.75 39.00
  Q 110.75 39.80 109.95 39.84
  L 105.77 40.08
  A 0.98 0.98 0.0 0 0 104.85 41.12
  Q 105.18 46.32 110.11 47.94
  Q 110.64 48.11 110.65 48.68
  L 110.70 61.37
  A 0.92 0.92 0.0 0 1 109.75 62.29
  C 91.80 61.82 89.00 47.09 90.25 32.49
  C 91.31 20.04 79.04 23.88 79.81 30.42
  Q 80.01 32.10 81.69 32.25
  L 85.89 32.62
  Q 86.53 32.67 86.52 33.31
  L 86.45 46.66
  A 1.24 1.24 0.0 0 1 85.34 47.89
  L 80.28 48.45
  Q 79.74 48.51 79.67 49.04
  Z"
/>
<path fill="#fa1fb9" d="
  M 24.56 57.98
  Q 26.19 58.94 26.45 60.92
  Q 26.53 61.50 25.96 61.62
  C 10.37 64.88 7.49 54.99 7.50 42.45
  Q 7.51 26.30 7.50 10.31
  A 0.56 0.56 0.0 0 1 8.06 9.75
  L 21.70 9.75
  Q 22.20 9.75 22.21 10.25
  Q 22.31 30.17 22.33 49.99
  Q 22.33 53.72 23.39 56.58
  Q 23.72 57.49 24.56 57.98
  Z"
/>
<path fill="#fa1fb9" d="
  M 45.39 60.42
  C 40.92 62.78 35.45 63.03 31.42 59.71
  C 26.57 55.72 26.96 51.02 26.81 43.91
  Q 26.63 34.87 26.80 25.93
  A 0.69 0.69 0.0 0 1 27.49 25.25
  L 40.87 25.25
  Q 41.23 25.25 41.24 25.62
  L 41.43 47.10
  Q 41.44 47.76 42.10 47.76
  L 45.35 47.73
  Q 46.00 47.73 46.00 47.08
  L 46.00 25.87
  Q 46.00 25.25 46.63 25.25
  L 60.92 25.25
  A 0.61 0.61 0.0 0 1 61.53 25.86
  Q 61.47 41.01 61.50 56.12
  C 61.53 67.18 57.56 75.76 45.95 78.47
  C 42.03 79.38 34.05 79.73 30.80 76.65
  Q 30.37 76.24 30.36 75.64
  L 30.20 64.53
  Q 30.19 63.88 30.82 64.01
  C 33.87 64.62 45.78 67.22 45.91 60.74
  Q 45.92 60.14 45.39 60.42
  Z"
/>
</svg>
