<?xml version="1.0" encoding="UTF-8" standalone="no"?>
<!DOCTYPE svg PUBLIC "-//W3C//DTD SVG 1.1//EN" "http://www.w3.org/Graphics/SVG/1.1/DTD/svg11.dtd">
<svg xmlns="http://www.w3.org/2000/svg" version="1.1" viewBox="0.00 0.00 15.00 17.00">
<g stroke-width="2.00" fill="none" stroke-linecap="butt">
<path stroke="#e1b99c" vector-effect="non-scaling-stroke" d="
  M 14.64 8.96
  A 6.64 6.64 0.0 0 0 8.00 2.32
  A 6.64 6.64 0.0 0 0 1.36 8.96
  A 6.64 6.64 0.0 0 0 8.00 15.60
  A 6.64 6.64 0.0 0 0 14.64 8.96"
/>
<path stroke="#e1b99c" vector-effect="non-scaling-stroke" d="
  M 12.64 8.89
  A 4.61 4.61 0.0 0 0 8.03 4.28
  A 4.61 4.61 0.0 0 0 3.42 8.89
  A 4.61 4.61 0.0 0 0 8.03 13.50
  A 4.61 4.61 0.0 0 0 12.64 8.89"
/>
</g>
<path fill="#ffffff" d="
  M 0.00 0.00
  L 15.00 0.00
  L 15.00 17.00
  L 0.00 17.00
  L 0.00 0.00
  Z
  M 14.64 8.96
  A 6.64 6.64 0.0 0 0 8.00 2.32
  A 6.64 6.64 0.0 0 0 1.36 8.96
  A 6.64 6.64 0.0 0 0 8.00 15.60
  A 6.64 6.64 0.0 0 0 14.64 8.96
  Z"
/>
<path fill="#c37339" d="
  M 14.64 8.96
  A 6.64 6.64 0.0 0 1 8.00 15.60
  A 6.64 6.64 0.0 0 1 1.36 8.96
  A 6.64 6.64 0.0 0 1 8.00 2.32
  A 6.64 6.64 0.0 0 1 14.64 8.96
  Z
  M 12.64 8.89
  A 4.61 4.61 0.0 0 0 8.03 4.28
  A 4.61 4.61 0.0 0 0 3.42 8.89
  A 4.61 4.61 0.0 0 0 8.03 13.50
  A 4.61 4.61 0.0 0 0 12.64 8.89
  Z"
/>
<circle fill="#ffffff" cx="8.03" cy="8.89" r="4.61"/>
</svg>
