<?xml version="1.0" encoding="UTF-8" standalone="no"?>
<!DOCTYPE svg PUBLIC "-//W3C//DTD SVG 1.1//EN" "http://www.w3.org/Graphics/SVG/1.1/DTD/svg11.dtd">
<svg xmlns="http://www.w3.org/2000/svg" version="1.1" viewBox="0.00 0.00 40.00 42.00">
<g stroke-width="2.00" fill="none" stroke-linecap="butt">
<path stroke="#8bacdc" vector-effect="non-scaling-stroke" d="
  M 36.8329 22.2774
  A 16.59 16.23 -2.6 0 0 19.5238 6.8167
  A 16.59 16.23 -2.6 0 0 3.6871 23.7826
  A 16.59 16.23 -2.6 0 0 20.9962 39.2433
  A 16.59 16.23 -2.6 0 0 36.8329 22.2774"
/>
<path stroke="#8bacdc" vector-effect="non-scaling-stroke" d="
  M 33.5000 17.8188
  A 14.17 13.86 -21.1 0 0 15.2904 9.9893
  A 14.17 13.86 -21.1 0 0 7.0600 28.0212
  A 14.17 13.86 -21.1 0 0 25.2696 35.8507
  A 14.17 13.86 -21.1 0 0 33.5000 17.8188"
/>
<path stroke="#9ebce3" vector-effect="non-scaling-stroke" d="
  M 23.46 20.58
  A 1.14 1.14 0.0 0 1 22.60 19.71
  L 21.80 15.98
  A 1.14 1.14 0.0 0 0 19.57 15.96
  L 18.71 19.67
  A 1.14 1.14 0.0 0 1 17.84 20.53
  L 14.11 21.33
  A 1.14 1.14 0.0 0 0 14.09 23.56
  L 17.80 24.42
  A 1.14 1.14 0.0 0 1 18.66 25.29
  L 19.46 29.02
  A 1.14 1.14 0.0 0 0 21.69 29.04
  L 22.55 25.33
  A 1.14 1.14 0.0 0 1 23.42 24.47
  L 27.15 23.67
  A 1.14 1.14 0.0 0 0 27.17 21.44
  L 23.46 20.58"
/>
</g>
<path fill="#feffff" d="
  M 0.00 0.00
  L 40.00 0.00
  L 40.00 42.00
  L 0.00 42.00
  L 0.00 0.00
  Z
  M 36.8329 22.2774
  A 16.59 16.23 -2.6 0 0 19.5238 6.8167
  A 16.59 16.23 -2.6 0 0 3.6871 23.7826
  A 16.59 16.23 -2.6 0 0 20.9962 39.2433
  A 16.59 16.23 -2.6 0 0 36.8329 22.2774
  Z"
/>
<path fill="#1858b9" d="
  M 36.8329 22.2774
  A 16.59 16.23 -2.6 0 1 20.9962 39.2433
  A 16.59 16.23 -2.6 0 1 3.6871 23.7826
  A 16.59 16.23 -2.6 0 1 19.5238 6.8167
  A 16.59 16.23 -2.6 0 1 36.8329 22.2774
  Z
  M 33.5000 17.8188
  A 14.17 13.86 -21.1 0 0 15.2904 9.9893
  A 14.17 13.86 -21.1 0 0 7.0600 28.0212
  A 14.17 13.86 -21.1 0 0 25.2696 35.8507
  A 14.17 13.86 -21.1 0 0 33.5000 17.8188
  Z"
/>
<path fill="#feffff" d="
  M 33.5000 17.8188
  A 14.17 13.86 -21.1 0 1 25.2696 35.8507
  A 14.17 13.86 -21.1 0 1 7.0600 28.0212
  A 14.17 13.86 -21.1 0 1 15.2904 9.9893
  A 14.17 13.86 -21.1 0 1 33.5000 17.8188
  Z
  M 23.46 20.58
  A 1.14 1.14 0.0 0 1 22.60 19.71
  L 21.80 15.98
  A 1.14 1.14 0.0 0 0 19.57 15.96
  L 18.71 19.67
  A 1.14 1.14 0.0 0 1 17.84 20.53
  L 14.11 21.33
  A 1.14 1.14 0.0 0 0 14.09 23.56
  L 17.80 24.42
  A 1.14 1.14 0.0 0 1 18.66 25.29
  L 19.46 29.02
  A 1.14 1.14 0.0 0 0 21.69 29.04
  L 22.55 25.33
  A 1.14 1.14 0.0 0 1 23.42 24.47
  L 27.15 23.67
  A 1.14 1.14 0.0 0 0 27.17 21.44
  L 23.46 20.58
  Z"
/>
<path fill="#3d79c6" d="
  M 23.46 20.58
  L 27.17 21.44
  A 1.14 1.14 0.0 0 1 27.15 23.67
  L 23.42 24.47
  A 1.14 1.14 0.0 0 0 22.55 25.33
  L 21.69 29.04
  A 1.14 1.14 0.0 0 1 19.46 29.02
  L 18.66 25.29
  A 1.14 1.14 0.0 0 0 17.80 24.42
  L 14.09 23.56
  A 1.14 1.14 0.0 0 1 14.11 21.33
  L 17.84 20.53
  A 1.14 1.14 0.0 0 0 18.71 19.67
  L 19.57 15.96
  A 1.14 1.14 0.0 0 1 21.80 15.98
  L 22.60 19.71
  A 1.14 1.14 0.0 0 0 23.46 20.58
  Z"
/>
</svg>
