<?xml version="1.0" encoding="UTF-8" standalone="no"?>
<!DOCTYPE svg PUBLIC "-//W3C//DTD SVG 1.1//EN" "http://www.w3.org/Graphics/SVG/1.1/DTD/svg11.dtd">
<svg xmlns="http://www.w3.org/2000/svg" version="1.1" viewBox="0.00 0.00 62.00 100.00">
<g stroke-width="2.00" fill="none" stroke-linecap="butt">
<path stroke="#808080" vector-effect="non-scaling-stroke" d="
  M 3.79 36.00
  C 3.28 43.38 4.02 52.15 4.01 58.00
  Q 3.98 75.69 4.01 93.38
  Q 4.01 94.01 4.63 94.00
  Q 4.78 94.00 4.93 94.00
  Q 5.56 94.00 5.57 93.37
  L 5.79 41.75"
/>
<path stroke="#98a0a8" vector-effect="non-scaling-stroke" d="
  M 5.79 41.75
  L 6.29 40.00"
/>
<path stroke="#86aed9" vector-effect="non-scaling-stroke" d="
  M 6.29 40.00
  C 6.89 37.73 6.14 33.26 8.49 33.26
  Q 30.78 33.23 53.04 33.26
  C 53.77 33.26 54.69 33.60 55.51 33.77"
/>
<path stroke="#98a0a8" vector-effect="non-scaling-stroke" d="
  M 55.51 33.77
  C 55.29 39.04 56.26 44.67 56.24 49.41
  Q 56.16 71.30 56.58 93.19
  Q 56.59 93.79 57.19 93.87
  L 57.49 93.91
  Q 58.26 94.01 58.26 93.24
  Q 58.61 53.24 58.28 13.26
  Q 58.21 4.06 48.75 4.02
  Q 30.53 3.94 12.31 4.12
  C 6.15 4.19 4.07 7.77 4.03 13.62
  Q 3.96 24.81 3.79 36.00"
/>
<path stroke="#1f4f81" vector-effect="non-scaling-stroke" d="
  M 55.51 33.77
  Q 56.37 22.79 55.77 11.79
  C 55.59 8.50 54.47 6.15 50.98 5.98
  Q 34.98 5.17 13.44 5.89
  C 8.63 6.04 5.72 6.99 5.58 12.26
  Q 5.18 27.57 6.29 40.00"
/>
<path stroke="#192129" vector-effect="non-scaling-stroke" d="
  M 5.79 41.75
  L 4.89 36.62
  Q 4.79 36.03 4.20 36.01
  L 3.79 36.00"
/>
<path stroke="#e9ded7" vector-effect="non-scaling-stroke" d="
  M 12.46 38.75
  L 9.50 42.70
  Q 9.10 43.23 9.57 43.69
  L 10.13 44.25
  Q 10.50 44.63 10.87 44.25
  L 11.11 44.02
  Q 11.73 43.40 11.74 44.28
  L 11.75 44.96"
/>
<path stroke="#c6b7b4" vector-effect="non-scaling-stroke" d="
  M 11.75 44.96
  Q 11.61 44.97 11.49 45.00
  Q 11.36 45.04 11.32 45.17
  C 10.90 46.48 12.36 47.81 13.04 46.75"
/>
<path stroke="#e9ded7" vector-effect="non-scaling-stroke" d="
  M 13.04 46.75
  L 14.21 47.00"
/>
<path stroke="#c6b7b4" vector-effect="non-scaling-stroke" d="
  M 14.21 47.00
  C 15.38 47.53 16.54 47.11 17.09 45.92
  Q 20.09 39.52 12.46 38.75"
/>
<path stroke="#b0968b" vector-effect="non-scaling-stroke" d="
  M 14.21 47.00
  L 14.13 40.61
  Q 14.13 40.03 13.55 40.07
  Q 12.51 40.13 12.46 38.75"
/>
<path stroke="#b0968b" vector-effect="non-scaling-stroke" d="
  M 13.04 46.75
  L 13.04 45.70
  Q 13.03 45.24 12.60 45.06
  Q 12.23 44.90 11.75 44.96"
/>
<path stroke="#c1bdd2" vector-effect="non-scaling-stroke" d="
  M 36.93 41.71
  A 0.44 0.44 0.0 0 0 36.49 41.27
  L 21.79 41.27
  A 0.44 0.44 0.0 0 0 21.35 41.71
  L 21.35 41.95
  A 0.44 0.44 0.0 0 0 21.79 42.39
  L 36.49 42.39
  A 0.44 0.44 0.0 0 0 36.93 41.95
  L 36.93 41.71"
/>
<path stroke="#e9ded7" vector-effect="non-scaling-stroke" d="
  M 34.4293 44.3836
  A 0.25 0.25 0.0 0 0 34.1758 44.1371
  L 22.2969 44.3030
  A 0.25 0.25 0.0 0 0 22.0505 44.5564
  L 22.0507 44.5764
  A 0.25 0.25 0.0 0 0 22.3042 44.8229
  L 34.1831 44.6570
  A 0.25 0.25 0.0 0 0 34.4295 44.4036
  L 34.4293 44.3836"
/>
<path stroke="#808080" vector-effect="non-scaling-stroke" d="
  M 14.62 57.44
  L 14.69 64.49
  Q 14.69 65.18 15.18 64.69
  L 15.46 64.41
  Q 15.75 64.13 15.75 63.72
  L 15.75 58.74
  Q 15.75 58.12 16.37 58.07
  C 18.23 57.93 21.89 58.33 22.25 57.52
  Q 22.58 56.79 21.78 56.78
  L 15.32 56.74
  Q 14.61 56.73 14.62 57.44"
/>
<path stroke="#808080" vector-effect="non-scaling-stroke" d="
  M 46.88 56.94
  Q 42.89 56.36 38.94 57.21
  Q 36.48 57.74 38.99 57.89
  Q 42.27 58.09 45.54 57.97
  Q 46.07 57.96 46.09 58.49
  C 46.11 59.30 46.03 64.61 46.67 64.71
  Q 47.22 64.79 47.22 64.23
  L 47.26 57.38
  Q 47.26 56.99 46.88 56.94"
/>
<path stroke="#e9ded7" vector-effect="non-scaling-stroke" d="
  M 37.29 69.25
  L 36.25 69.29"
/>
<path stroke="#808080" vector-effect="non-scaling-stroke" d="
  M 36.25 69.29
  Q 34.66 70.01 33.53 69.32
  Q 32.60 68.75 33.70 68.75
  L 35.14 68.75
  Q 35.72 68.75 35.90 68.20
  L 36.00 67.86
  Q 36.16 67.35 35.63 67.41
  Q 33.19 67.68 31.78 65.66
  Q 31.51 65.28 31.86 64.98
  L 33.21 63.79
  Q 33.71 63.35 33.14 63.00
  Q 32.28 62.48 31.35 62.85
  Q 30.85 63.05 30.74 63.57
  Q 30.28 65.61 31.29 67.49
  Q 31.50 67.88 31.81 67.57
  L 32.01 67.36
  Q 32.45 66.92 32.68 67.50
  Q 32.84 67.93 32.69 68.18
  Q 32.39 68.64 32.78 69.03
  Q 33.78 70.05 33.75 71.46"
/>
<path stroke="#98a0a8" vector-effect="non-scaling-stroke" d="
  M 33.75 71.46
  L 31.25 71.54"
/>
<path stroke="#808080" vector-effect="non-scaling-stroke" d="
  M 31.25 71.54
  Q 29.36 70.45 27.98 71.98
  Q 27.80 72.18 27.54 72.24
  Q 27.32 72.29 27.11 72.21
  Q 26.45 71.94 27.02 71.52
  L 29.44 69.74
  Q 29.84 69.44 30.23 69.75
  L 31.16 70.46
  Q 31.69 70.86 31.76 70.20
  Q 31.92 68.50 30.25 67.73
  Q 29.71 67.48 29.74 66.89
  L 29.79 66.04
  Q 29.80 65.73 29.55 65.55
  Q 28.71 64.95 27.78 65.27
  Q 26.67 65.66 27.84 65.83
  Q 29.35 66.06 28.91 67.60
  Q 28.77 68.08 28.41 68.44
  L 25.50 71.29"
/>
<path stroke="#e9ded7" vector-effect="non-scaling-stroke" d="
  M 25.50 71.29
  L 24.59 71.21"
/>
<path stroke="#808080" vector-effect="non-scaling-stroke" d="
  M 24.59 71.21
  Q 25.84 67.88 21.58 69.45
  Q 21.03 69.65 20.51 69.39
  L 19.38 68.81
  Q 18.78 68.50 18.58 69.15
  Q 18.21 70.33 19.04 71.25"
/>
<path stroke="#e9ded7" vector-effect="non-scaling-stroke" d="
  M 19.04 71.25
  L 18.54 74.00"
/>
<path stroke="#808080" vector-effect="non-scaling-stroke" d="
  M 18.54 74.00
  L 18.46 84.71
  A 0.98 0.97 89.2 0 0 19.47 85.70
  L 25.75 85.46"
/>
<path stroke="#98a0a8" vector-effect="non-scaling-stroke" d="
  M 25.75 85.46
  L 27.63 85.44
  Q 28.00 85.43 28.00 85.06
  Q 28.00 84.89 28.00 84.72
  Q 27.99 84.16 27.43 84.25
  L 25.79 84.50"
/>
<path stroke="#808080" vector-effect="non-scaling-stroke" d="
  M 25.79 84.50
  L 25.67 79.39
  Q 25.65 78.86 25.12 78.84
  L 19.85 78.61
  A 0.61 0.61 0.0 0 1 19.29 77.82
  L 19.83 76.00
  Q 20.04 75.29 20.49 75.87
  Q 21.10 76.63 21.99 76.37
  Q 22.64 76.18 22.30 75.60
  L 21.72 74.63
  Q 21.36 74.01 22.07 73.95
  Q 23.96 73.77 24.58 72.00
  Q 24.78 71.41 25.22 71.85
  L 25.42 72.04
  Q 25.79 72.42 25.37 72.74
  Q 24.97 73.03 24.99 73.49
  Q 25.05 74.58 25.81 73.81
  L 26.42 73.21
  Q 26.83 72.79 27.30 73.15
  Q 27.98 73.68 27.71 74.66
  Q 27.52 75.32 28.16 75.58
  L 29.56 76.14
  Q 29.89 76.28 29.61 76.50
  Q 28.50 77.42 27.02 77.25
  Q 26.59 77.20 26.51 76.77
  Q 26.47 76.60 26.50 76.47
  Q 26.63 75.90 26.18 75.52
  L 24.27 73.92
  Q 23.47 73.25 23.93 74.18
  Q 24.24 74.81 24.79 75.25"
/>
<path stroke="#e9ded7" vector-effect="non-scaling-stroke" d="
  M 24.79 75.25
  L 24.50 75.96"
/>
<path stroke="#98a0a8" vector-effect="non-scaling-stroke" d="
  M 24.50 75.96
  Q 23.82 76.09 23.26 76.59
  A 0.37 0.37 0.0 0 0 23.50 77.23
  Q 24.14 77.24 24.71 77.00"
/>
<path stroke="#e9ded7" vector-effect="non-scaling-stroke" d="
  M 24.71 77.00
  L 25.25 77.29"
/>
<path stroke="#808080" vector-effect="non-scaling-stroke" d="
  M 25.25 77.29
  C 29.72 79.49 32.58 74.64 33.46 75.11
  Q 33.99 75.39 33.57 75.81
  L 32.57 76.81
  Q 32.21 77.17 32.24 77.68
  Q 32.25 77.87 32.38 78.03
  Q 32.75 78.47 33.21 78.12
  Q 34.20 77.38 34.89 78.23
  A 0.96 0.96 0.0 0 1 34.55 79.72
  Q 32.26 80.76 30.97 78.90
  Q 30.66 78.46 30.19 78.71
  Q 29.77 78.93 29.71 79.50"
/>
<path stroke="#c6b7b4" vector-effect="non-scaling-stroke" d="
  M 29.71 79.50
  L 29.21 80.00"
/>
<path stroke="#808080" vector-effect="non-scaling-stroke" d="
  M 29.21 80.00
  C 27.82 79.94 26.11 81.30 27.22 82.54
  Q 27.59 82.96 28.16 82.98
  Q 28.92 83.01 28.99 83.84
  Q 29.04 84.40 29.55 84.65
  L 31.13 85.44
  Q 31.54 85.64 31.33 85.23
  L 29.71 82.00"
/>
<path stroke="#c6b7b4" vector-effect="non-scaling-stroke" d="
  M 29.71 82.00
  Q 29.28 80.88 30.00 80.21"
/>
<path stroke="#808080" vector-effect="non-scaling-stroke" d="
  M 30.00 80.21
  Q 33.20 79.70 33.77 82.47"
/>
<path stroke="#98a0a8" vector-effect="non-scaling-stroke" d="
  M 33.77 82.47
  Q 32.21 82.21 31.61 81.09
  Q 31.36 80.62 31.07 81.07
  C 30.83 81.43 32.54 83.30 32.71 84.25"
/>
<path stroke="#808080" vector-effect="non-scaling-stroke" d="
  M 32.71 84.25
  C 33.64 84.73 34.67 82.91 35.95 82.60
  C 39.35 81.80 40.73 80.68 39.26 76.62
  A 0.73 0.73 0.0 0 0 38.26 76.22
  L 35.97 77.31
  Q 35.11 77.72 35.00 76.77
  Q 34.69 74.17 37.22 73.79
  A 1.13 1.13 0.0 0 1 38.51 74.83
  Q 38.57 75.74 39.37 75.85
  Q 39.91 75.93 40.11 76.43
  Q 41.01 78.66 43.28 79.60
  Q 44.24 80.00 43.63 79.16
  L 41.60 76.38
  Q 41.40 76.09 41.70 75.91
  L 41.92 75.78
  Q 42.09 75.68 42.23 75.82
  L 43.09 76.68
  Q 43.97 77.55 43.99 76.31
  Q 44.01 75.50 43.41 74.81
  Q 43.11 74.47 43.33 74.07
  Q 44.08 72.76 43.64 71.33
  Q 43.50 70.89 43.52 70.43
  L 43.83 61.29
  Q 43.85 60.73 43.29 60.74
  L 30.19 61.00
  Q 29.91 61.01 29.77 61.25
  L 29.61 61.51
  Q 29.35 61.95 28.86 61.79
  Q 24.06 60.15 18.99 60.91
  Q 18.50 60.98 18.50 61.48
  L 18.50 67.27
  Q 18.50 68.05 19.28 68.05
  L 25.02 68.01
  Q 25.57 68.01 26.09 68.15
  Q 26.76 68.34 27.46 68.44
  Q 27.93 68.51 28.00 68.04
  C 28.15 66.96 26.89 67.29 26.33 67.31
  Q 25.73 67.32 25.73 66.72
  L 25.79 61.73
  A 0.61 0.61 0.0 0 1 26.95 61.47
  Q 27.79 63.17 29.54 63.67
  Q 29.82 63.75 29.79 63.47
  L 29.75 62.85
  Q 29.70 62.28 30.22 62.05
  Q 32.77 60.95 35.23 62.11
  Q 35.60 62.28 35.88 61.99
  L 36.18 61.70
  Q 36.65 61.22 36.66 61.90
  L 36.73 66.53
  A 1.49 1.49 0.0 0 0 38.28 67.99
  L 42.53 67.83
  A 0.84 0.83 -53.4 0 1 42.77 69.47
  Q 39.89 70.24 37.29 69.25"
/>
<path stroke="#192129" vector-effect="non-scaling-stroke" d="
  M 32.71 84.25
  Q 32.35 83.19 33.77 82.47"
/>
<path stroke="#473835" vector-effect="non-scaling-stroke" d="
  M 30.00 80.21
  L 29.71 79.50"
/>
<path stroke="#6a5f58" vector-effect="non-scaling-stroke" d="
  M 25.25 77.29
  Q 25.65 77.24 25.84 77.05
  Q 26.19 76.70 25.85 76.35
  L 24.79 75.25"
/>
<path stroke="#192129" vector-effect="non-scaling-stroke" d="
  M 25.79 84.50
  L 25.75 85.46"
/>
<path stroke="#6a5f58" vector-effect="non-scaling-stroke" d="
  M 18.54 74.00
  Q 19.27 74.14 19.93 73.97
  Q 20.47 73.83 20.69 73.33
  Q 21.17 72.27 22.23 71.71
  Q 22.58 71.52 22.94 71.68
  Q 24.13 72.19 25.50 71.29"
/>
<path stroke="#192129" vector-effect="non-scaling-stroke" d="
  M 31.25 71.54
  L 31.54 72.25"
/>
<path stroke="#808080" vector-effect="non-scaling-stroke" d="
  M 31.54 72.25
  Q 30.83 73.64 29.69 73.00
  A 0.65 0.65 0.0 0 0 28.73 73.66
  C 29.26 77.75 32.59 75.04 33.54 73.25"
/>
<path stroke="#192129" vector-effect="non-scaling-stroke" d="
  M 33.54 73.25
  L 34.50 72.79"
/>
<path stroke="#6a5f58" vector-effect="non-scaling-stroke" d="
  M 34.50 72.79
  L 35.53 72.42
  Q 36.00 72.25 35.52 72.11
  L 34.29 71.75"
/>
<path stroke="#192129" vector-effect="non-scaling-stroke" d="
  M 34.29 71.75
  L 33.75 71.46"
/>
<path stroke="#6a5f58" vector-effect="non-scaling-stroke" d="
  M 36.25 69.29
  L 36.57 70.61
  Q 36.65 70.90 36.94 70.99
  Q 37.16 71.05 37.34 70.98
  Q 37.92 70.77 37.61 70.24
  Q 37.34 69.77 37.29 69.25"
/>
<path stroke="#827f7f" vector-effect="non-scaling-stroke" d="
  M 24.71 77.00
  L 24.89 76.69
  Q 25.07 76.38 24.78 76.17
  L 24.50 75.96"
/>
<path stroke="#473835" vector-effect="non-scaling-stroke" d="
  M 29.71 82.00
  L 28.69 81.98
  Q 28.09 81.97 28.26 81.39
  Q 28.51 80.58 29.21 80.00"
/>
<path stroke="#827f7f" vector-effect="non-scaling-stroke" d="
  M 34.29 71.75
  L 33.94 72.19
  Q 33.52 72.73 34.21 72.74
  Q 34.38 72.74 34.50 72.79"
/>
<path stroke="#98a0a8" vector-effect="non-scaling-stroke" d="
  M 33.54 73.25
  Q 33.26 72.86 33.14 72.29
  Q 32.95 71.42 32.23 71.94
  Q 31.87 72.20 31.54 72.25"
/>
<path stroke="#6a5f58" vector-effect="non-scaling-stroke" d="
  M 24.59 71.21
  C 21.59 68.85 21.38 71.65 19.04 71.25"
/>
<path stroke="#808080" vector-effect="non-scaling-stroke" d="
  M 35.56 65.31
  Q 35.94 64.85 35.62 64.18
  Q 35.46 63.84 35.15 64.03
  L 34.63 64.34
  Q 34.43 64.45 34.55 64.65
  L 35.12 65.56
  Q 35.30 65.83 35.49 65.57
  Q 35.57 65.47 35.56 65.31"
/>
<path stroke="#808080" vector-effect="non-scaling-stroke" d="
  M 45.72 88.02
  Q 42.76 87.92 39.81 88.10
  Q 36.99 88.27 39.76 88.86
  Q 43.20 89.58 46.68 89.06
  Q 47.25 88.97 47.25 88.39
  C 47.25 87.45 47.53 81.45 46.82 81.27
  Q 46.25 81.13 46.25 81.71
  L 46.25 87.51
  Q 46.25 88.03 45.72 88.02"
/>
<path stroke="#808080" vector-effect="non-scaling-stroke" d="
  M 16.00 88.00
  A 0.25 0.25 0.0 0 1 15.75 87.75
  L 15.75 81.92
  A 0.25 0.25 0.0 0 0 15.63 81.71
  L 15.13 81.41
  A 0.25 0.25 0.0 0 0 14.75 81.63
  L 14.75 88.94
  A 0.25 0.25 0.0 0 0 15.00 89.19
  L 21.89 89.27
  A 0.25 0.25 0.0 0 0 22.13 89.10
  L 22.41 88.34
  A 0.25 0.25 0.0 0 0 22.17 88.00
  L 16.00 88.00"
/>
<path stroke="#c1bdd2" vector-effect="non-scaling-stroke" d="
  M 39.50 84.46
  Q 39.69 84.45 39.90 84.49
  Q 40.02 84.51 39.97 84.62
  L 39.79 85.05
  Q 39.55 85.58 40.13 85.50
  Q 41.01 85.38 41.75 84.71"
/>
<path stroke="#808080" vector-effect="non-scaling-stroke" d="
  M 41.75 84.71
  L 43.19 85.51
  Q 43.79 85.85 43.77 85.16
  L 43.70 81.96
  Q 43.68 81.13 42.96 81.54
  Q 40.24 83.06 36.01 83.96
  Q 34.78 84.22 35.11 85.45
  Q 35.27 86.05 35.86 85.83
  L 39.50 84.46"
/>
<path stroke="#423e53" vector-effect="non-scaling-stroke" d="
  M 41.75 84.71
  Q 40.69 83.93 39.50 84.46"
/>
<path stroke="#c1bdd2" vector-effect="non-scaling-stroke" d="
  M 34.61 91.32
  Q 32.36 90.39 30.13 90.95
  Q 29.69 91.06 29.29 90.86
  L 27.56 89.98
  Q 26.21 89.30 26.95 90.62
  Q 27.60 91.79 26.72 92.73
  Q 25.78 93.72 27.48 93.37
  Q 30.69 92.70 34.00 93.07
  Q 34.46 93.12 34.66 92.70
  L 34.93 92.15
  Q 35.20 91.57 34.61 91.32"
/>
<path stroke="#86aed9" vector-effect="non-scaling-stroke" d="
  M 34.55 13.09
  A 3.55 3.55 0.0 0 0 31.00 9.54
  A 3.55 3.55 0.0 0 0 27.45 13.09
  A 3.55 3.55 0.0 0 0 31.00 16.64
  A 3.55 3.55 0.0 0 0 34.55 13.09"
/>
<path stroke="#4b88cc" vector-effect="non-scaling-stroke" d="
  M 25.21 22.82
  Q 24.61 22.12 24.77 21.18
  Q 24.89 20.48 24.18 20.50
  C 22.81 20.52 23.18 22.77 23.60 23.45
  Q 23.83 23.84 24.28 23.86
  L 28.69 24.07
  Q 29.17 24.09 29.62 23.92
  Q 31.07 23.38 32.58 23.65
  Q 33.24 23.77 33.04 23.13
  L 32.72 22.08
  Q 32.58 21.64 32.13 21.64
  L 28.84 21.64
  Q 28.44 21.64 28.46 22.05
  Q 28.52 23.12 27.66 23.67
  A 0.43 0.43 0.0 0 1 27.00 23.31
  L 27.00 21.79
  Q 27.00 20.76 26.37 21.58
  Q 26.03 22.02 25.96 22.59
  Q 25.85 23.55 25.21 22.82"
/>
<path stroke="#4b88cc" vector-effect="non-scaling-stroke" d="
  M 38.51 23.63
  L 38.47 21.91
  A 0.28 0.28 0.0 0 0 38.19 21.63
  L 35.43 21.69
  A 1.22 0.89 -1.2 0 0 34.23 22.60
  L 34.24 23.10
  A 1.22 0.89 -1.2 0 0 35.47 23.97
  L 38.23 23.91
  A 0.28 0.28 0.0 0 0 38.51 23.63"
/>
<path stroke="#4b88cc" vector-effect="non-scaling-stroke" d="
  M 19.38 28.76
  L 19.22 29.02
  Q 19.10 29.22 19.33 29.28
  Q 22.49 30.13 22.46 26.78
  Q 22.45 26.04 21.70 26.05
  L 19.49 26.08
  Q 18.78 26.09 18.95 26.78
  L 19.41 28.57
  Q 19.43 28.67 19.38 28.76"
/>
<path stroke="#4b88cc" vector-effect="non-scaling-stroke" d="
  M 34.33 28.94
  C 33.69 28.41 32.33 27.36 34.09 26.82
  Q 34.61 26.66 34.30 26.22
  C 33.44 25.01 31.87 27.02 32.28 28.29
  A 1.59 1.59 0.0 0 0 33.82 29.39
  L 41.90 29.20
  Q 42.43 29.19 42.56 28.68
  L 42.85 27.62
  Q 43.00 27.04 42.42 26.92
  L 39.80 26.33
  Q 39.27 26.22 38.85 26.54
  Q 37.74 27.39 36.51 26.77
  Q 35.91 26.47 35.43 26.92
  Q 34.76 27.54 35.02 28.50
  Q 35.37 29.80 34.33 28.94"
/>
<path stroke="#4b88cc" vector-effect="non-scaling-stroke" d="
  M 24.35 27.33
  L 23.62 26.99
  Q 22.82 26.62 22.98 27.48
  C 23.51 30.28 27.08 30.01 28.18 27.90
  Q 28.42 27.43 27.96 27.20
  Q 26.18 26.29 24.97 27.25
  Q 24.68 27.48 24.35 27.33"
/>
<path stroke="#4b88cc" vector-effect="non-scaling-stroke" d="
  M 30.54 26.86
  C 28.84 25.77 28.56 28.70 29.77 29.56
  Q 30.27 29.92 30.43 29.32
  L 30.85 27.66
  Q 30.98 27.15 30.54 26.86"
/>
<path stroke="#86aed9" vector-effect="non-scaling-stroke" d="
  M 32.6910 12.6907
  A 1.11 1.11 0.0 0 0 31.6590 11.5078
  L 30.6613 11.4397
  A 1.11 1.11 0.0 0 0 29.4784 12.4717
  L 29.4090 13.4893
  A 1.11 1.11 0.0 0 0 30.4410 14.6722
  L 31.4387 14.7403
  A 1.11 1.11 0.0 0 0 32.6216 13.7083
  L 32.6910 12.6907"
/>
<path stroke="#808080" vector-effect="non-scaling-stroke" d="
  M 24.7048 62.6216
  A 0.73 0.73 0.0 0 0 23.9812 61.8853
  L 20.5014 61.8549
  A 0.73 0.73 0.0 0 0 19.7650 62.5785
  L 19.7352 65.9984
  A 0.73 0.73 0.0 0 0 20.4588 66.7347
  L 23.9386 66.7651
  A 0.73 0.73 0.0 0 0 24.6750 66.0415
  L 24.7048 62.6216"
/>
<path stroke="#808080" vector-effect="non-scaling-stroke" d="
  M 42.6851 62.7435
  A 1.00 1.00 0.0 0 0 41.6391 61.7917
  L 38.6225 61.9339
  A 1.00 1.00 0.0 0 0 37.6707 62.9799
  L 37.8149 66.0365
  A 1.00 1.00 0.0 0 0 38.8609 66.9883
  L 41.8775 66.8461
  A 1.00 1.00 0.0 0 0 42.8293 65.8001
  L 42.6851 62.7435"
/>
<path stroke="#6a5f58" vector-effect="non-scaling-stroke" d="
  M 42.74 70.84
  A 0.33 0.33 0.0 0 0 42.26 70.49
  L 41.26 71.00
  Q 40.78 71.25 41.10 71.69
  Q 41.48 72.22 42.21 71.92
  Q 42.61 71.75 42.67 71.32
  L 42.74 70.84"
/>
<path stroke="#808080" vector-effect="non-scaling-stroke" d="
  M 42.77 73.24
  L 37.29 71.47
  A 0.11 0.11 0.0 0 0 37.15 71.54
  L 37.15 71.56
  A 2.83 1.97 17.9 0 0 39.24 74.30
  L 39.54 74.40
  A 2.83 1.97 17.9 0 0 42.84 73.39
  L 42.84 73.37
  A 0.11 0.11 0.0 0 0 42.77 73.24"
/>
<path stroke="#808080" vector-effect="non-scaling-stroke" d="
  M 35.66 78.95
  L 35.74 80.24
  Q 35.78 80.99 36.54 81.01
  Q 38.48 81.07 39.16 79.20
  Q 39.34 78.71 38.98 78.32
  Q 37.97 77.25 36.24 78.00
  Q 35.62 78.27 35.66 78.95"
/>
<path stroke="#808080" vector-effect="non-scaling-stroke" d="
  M 24.6847 80.5574
  A 0.85 0.85 0.0 0 0 23.8171 79.7254
  L 20.4578 79.7957
  A 0.85 0.85 0.0 0 0 19.6258 80.6633
  L 19.6953 83.9826
  A 0.85 0.85 0.0 0 0 20.5629 84.8146
  L 23.9222 84.7443
  A 0.85 0.85 0.0 0 0 24.7542 83.8767
  L 24.6847 80.5574"
/>
<path stroke="#808080" vector-effect="non-scaling-stroke" d="
  M 23.66 64.18
  A 1.52 1.52 0.0 0 0 22.14 62.66
  A 1.52 1.52 0.0 0 0 20.62 64.18
  A 1.52 1.52 0.0 0 0 22.14 65.70
  A 1.52 1.52 0.0 0 0 23.66 64.18"
/>
<path stroke="#808080" vector-effect="non-scaling-stroke" d="
  M 41.74 64.20
  A 1.52 1.52 0.0 0 0 40.22 62.68
  A 1.52 1.52 0.0 0 0 38.70 64.20
  A 1.52 1.52 0.0 0 0 40.22 65.72
  A 1.52 1.52 0.0 0 0 41.74 64.20"
/>
<path stroke="#808080" vector-effect="non-scaling-stroke" d="
  M 23.50 82.22
  A 1.43 1.43 0.0 0 0 22.07 80.79
  A 1.43 1.43 0.0 0 0 20.64 82.22
  A 1.43 1.43 0.0 0 0 22.07 83.65
  A 1.43 1.43 0.0 0 0 23.50 82.22"
/>
</g>
<path fill="#ffffff" d="
  M 0.00 0.00
  L 62.00 0.00
  L 62.00 100.00
  L 0.00 100.00
  L 0.00 0.00
  Z
  M 3.79 36.00
  C 3.28 43.38 4.02 52.15 4.01 58.00
  Q 3.98 75.69 4.01 93.38
  Q 4.01 94.01 4.63 94.00
  Q 4.78 94.00 4.93 94.00
  Q 5.56 94.00 5.57 93.37
  L 5.79 41.75
  L 6.29 40.00
  C 6.89 37.73 6.14 33.26 8.49 33.26
  Q 30.78 33.23 53.04 33.26
  C 53.77 33.26 54.69 33.60 55.51 33.77
  C 55.29 39.04 56.26 44.67 56.24 49.41
  Q 56.16 71.30 56.58 93.19
  Q 56.59 93.79 57.19 93.87
  L 57.49 93.91
  Q 58.26 94.01 58.26 93.24
  Q 58.61 53.24 58.28 13.26
  Q 58.21 4.06 48.75 4.02
  Q 30.53 3.94 12.31 4.12
  C 6.15 4.19 4.07 7.77 4.03 13.62
  Q 3.96 24.81 3.79 36.00
  Z
  M 12.46 38.75
  L 9.50 42.70
  Q 9.10 43.23 9.57 43.69
  L 10.13 44.25
  Q 10.50 44.63 10.87 44.25
  L 11.11 44.02
  Q 11.73 43.40 11.74 44.28
  L 11.75 44.96
  Q 11.61 44.97 11.49 45.00
  Q 11.36 45.04 11.32 45.17
  C 10.90 46.48 12.36 47.81 13.04 46.75
  L 14.21 47.00
  C 15.38 47.53 16.54 47.11 17.09 45.92
  Q 20.09 39.52 12.46 38.75
  Z
  M 36.93 41.71
  A 0.44 0.44 0.0 0 0 36.49 41.27
  L 21.79 41.27
  A 0.44 0.44 0.0 0 0 21.35 41.71
  L 21.35 41.95
  A 0.44 0.44 0.0 0 0 21.79 42.39
  L 36.49 42.39
  A 0.44 0.44 0.0 0 0 36.93 41.95
  L 36.93 41.71
  Z
  M 34.4293 44.3836
  A 0.25 0.25 0.0 0 0 34.1758 44.1371
  L 22.2969 44.3030
  A 0.25 0.25 0.0 0 0 22.0505 44.5564
  L 22.0507 44.5764
  A 0.25 0.25 0.0 0 0 22.3042 44.8229
  L 34.1831 44.6570
  A 0.25 0.25 0.0 0 0 34.4295 44.4036
  L 34.4293 44.3836
  Z
  M 14.62 57.44
  L 14.69 64.49
  Q 14.69 65.18 15.18 64.69
  L 15.46 64.41
  Q 15.75 64.13 15.75 63.72
  L 15.75 58.74
  Q 15.75 58.12 16.37 58.07
  C 18.23 57.93 21.89 58.33 22.25 57.52
  Q 22.58 56.79 21.78 56.78
  L 15.32 56.74
  Q 14.61 56.73 14.62 57.44
  Z
  M 46.88 56.94
  Q 42.89 56.36 38.94 57.21
  Q 36.48 57.74 38.99 57.89
  Q 42.27 58.09 45.54 57.97
  Q 46.07 57.96 46.09 58.49
  C 46.11 59.30 46.03 64.61 46.67 64.71
  Q 47.22 64.79 47.22 64.23
  L 47.26 57.38
  Q 47.26 56.99 46.88 56.94
  Z
  M 37.29 69.25
  L 36.25 69.29
  Q 34.66 70.01 33.53 69.32
  Q 32.60 68.75 33.70 68.75
  L 35.14 68.75
  Q 35.72 68.75 35.90 68.20
  L 36.00 67.86
  Q 36.16 67.35 35.63 67.41
  Q 33.19 67.68 31.78 65.66
  Q 31.51 65.28 31.86 64.98
  L 33.21 63.79
  Q 33.71 63.35 33.14 63.00
  Q 32.28 62.48 31.35 62.85
  Q 30.85 63.05 30.74 63.57
  Q 30.28 65.61 31.29 67.49
  Q 31.50 67.88 31.81 67.57
  L 32.01 67.36
  Q 32.45 66.92 32.68 67.50
  Q 32.84 67.93 32.69 68.18
  Q 32.39 68.64 32.78 69.03
  Q 33.78 70.05 33.75 71.46
  L 31.25 71.54
  Q 29.36 70.45 27.98 71.98
  Q 27.80 72.18 27.54 72.24
  Q 27.32 72.29 27.11 72.21
  Q 26.45 71.94 27.02 71.52
  L 29.44 69.74
  Q 29.84 69.44 30.23 69.75
  L 31.16 70.46
  Q 31.69 70.86 31.76 70.20
  Q 31.92 68.50 30.25 67.73
  Q 29.71 67.48 29.74 66.89
  L 29.79 66.04
  Q 29.80 65.73 29.55 65.55
  Q 28.71 64.95 27.78 65.27
  Q 26.67 65.66 27.84 65.83
  Q 29.35 66.06 28.91 67.60
  Q 28.77 68.08 28.41 68.44
  L 25.50 71.29
  L 24.59 71.21
  Q 25.84 67.88 21.58 69.45
  Q 21.03 69.65 20.51 69.39
  L 19.38 68.81
  Q 18.78 68.50 18.58 69.15
  Q 18.21 70.33 19.04 71.25
  L 18.54 74.00
  L 18.46 84.71
  A 0.98 0.97 89.2 0 0 19.47 85.70
  L 25.75 85.46
  L 27.63 85.44
  Q 28.00 85.43 28.00 85.06
  Q 28.00 84.89 28.00 84.72
  Q 27.99 84.16 27.43 84.25
  L 25.79 84.50
  L 25.67 79.39
  Q 25.65 78.86 25.12 78.84
  L 19.85 78.61
  A 0.61 0.61 0.0 0 1 19.29 77.82
  L 19.83 76.00
  Q 20.04 75.29 20.49 75.87
  Q 21.10 76.63 21.99 76.37
  Q 22.64 76.18 22.30 75.60
  L 21.72 74.63
  Q 21.36 74.01 22.07 73.95
  Q 23.96 73.77 24.58 72.00
  Q 24.78 71.41 25.22 71.85
  L 25.42 72.04
  Q 25.79 72.42 25.37 72.74
  Q 24.97 73.03 24.99 73.49
  Q 25.05 74.58 25.81 73.81
  L 26.42 73.21
  Q 26.83 72.79 27.30 73.15
  Q 27.98 73.68 27.71 74.66
  Q 27.52 75.32 28.16 75.58
  L 29.56 76.14
  Q 29.89 76.28 29.61 76.50
  Q 28.50 77.42 27.02 77.25
  Q 26.59 77.20 26.51 76.77
  Q 26.47 76.60 26.50 76.47
  Q 26.63 75.90 26.18 75.52
  L 24.27 73.92
  Q 23.47 73.25 23.93 74.18
  Q 24.24 74.81 24.79 75.25
  L 24.50 75.96
  Q 23.82 76.09 23.26 76.59
  A 0.37 0.37 0.0 0 0 23.50 77.23
  Q 24.14 77.24 24.71 77.00
  L 25.25 77.29
  C 29.72 79.49 32.58 74.64 33.46 75.11
  Q 33.99 75.39 33.57 75.81
  L 32.57 76.81
  Q 32.21 77.17 32.24 77.68
  Q 32.25 77.87 32.38 78.03
  Q 32.75 78.47 33.21 78.12
  Q 34.20 77.38 34.89 78.23
  A 0.96 0.96 0.0 0 1 34.55 79.72
  Q 32.26 80.76 30.97 78.90
  Q 30.66 78.46 30.19 78.71
  Q 29.77 78.93 29.71 79.50
  L 29.21 80.00
  C 27.82 79.94 26.11 81.30 27.22 82.54
  Q 27.59 82.96 28.16 82.98
  Q 28.92 83.01 28.99 83.84
  Q 29.04 84.40 29.55 84.65
  L 31.13 85.44
  Q 31.54 85.64 31.33 85.23
  L 29.71 82.00
  Q 29.28 80.88 30.00 80.21
  Q 33.20 79.70 33.77 82.47
  Q 32.21 82.21 31.61 81.09
  Q 31.36 80.62 31.07 81.07
  C 30.83 81.43 32.54 83.30 32.71 84.25
  C 33.64 84.73 34.67 82.91 35.95 82.60
  C 39.35 81.80 40.73 80.68 39.26 76.62
  A 0.73 0.73 0.0 0 0 38.26 76.22
  L 35.97 77.31
  Q 35.11 77.72 35.00 76.77
  Q 34.69 74.17 37.22 73.79
  A 1.13 1.13 0.0 0 1 38.51 74.83
  Q 38.57 75.74 39.37 75.85
  Q 39.91 75.93 40.11 76.43
  Q 41.01 78.66 43.28 79.60
  Q 44.24 80.00 43.63 79.16
  L 41.60 76.38
  Q 41.40 76.09 41.70 75.91
  L 41.92 75.78
  Q 42.09 75.68 42.23 75.82
  L 43.09 76.68
  Q 43.97 77.55 43.99 76.31
  Q 44.01 75.50 43.41 74.81
  Q 43.11 74.47 43.33 74.07
  Q 44.08 72.76 43.64 71.33
  Q 43.50 70.89 43.52 70.43
  L 43.83 61.29
  Q 43.85 60.73 43.29 60.74
  L 30.19 61.00
  Q 29.91 61.01 29.77 61.25
  L 29.61 61.51
  Q 29.35 61.95 28.86 61.79
  Q 24.06 60.15 18.99 60.91
  Q 18.50 60.98 18.50 61.48
  L 18.50 67.27
  Q 18.50 68.05 19.28 68.05
  L 25.02 68.01
  Q 25.57 68.01 26.09 68.15
  Q 26.76 68.34 27.46 68.44
  Q 27.93 68.51 28.00 68.04
  C 28.15 66.96 26.89 67.29 26.33 67.31
  Q 25.73 67.32 25.73 66.72
  L 25.79 61.73
  A 0.61 0.61 0.0 0 1 26.95 61.47
  Q 27.79 63.17 29.54 63.67
  Q 29.82 63.75 29.79 63.47
  L 29.75 62.85
  Q 29.70 62.28 30.22 62.05
  Q 32.77 60.95 35.23 62.11
  Q 35.60 62.28 35.88 61.99
  L 36.18 61.70
  Q 36.65 61.22 36.66 61.90
  L 36.73 66.53
  A 1.49 1.49 0.0 0 0 38.28 67.99
  L 42.53 67.83
  A 0.84 0.83 -53.4 0 1 42.77 69.47
  Q 39.89 70.24 37.29 69.25
  Z
  M 35.56 65.31
  Q 35.94 64.85 35.62 64.18
  Q 35.46 63.84 35.15 64.03
  L 34.63 64.34
  Q 34.43 64.45 34.55 64.65
  L 35.12 65.56
  Q 35.30 65.83 35.49 65.57
  Q 35.57 65.47 35.56 65.31
  Z
  M 45.72 88.02
  Q 42.76 87.92 39.81 88.10
  Q 36.99 88.27 39.76 88.86
  Q 43.20 89.58 46.68 89.06
  Q 47.25 88.97 47.25 88.39
  C 47.25 87.45 47.53 81.45 46.82 81.27
  Q 46.25 81.13 46.25 81.71
  L 46.25 87.51
  Q 46.25 88.03 45.72 88.02
  Z
  M 16.00 88.00
  A 0.25 0.25 0.0 0 1 15.75 87.75
  L 15.75 81.92
  A 0.25 0.25 0.0 0 0 15.63 81.71
  L 15.13 81.41
  A 0.25 0.25 0.0 0 0 14.75 81.63
  L 14.75 88.94
  A 0.25 0.25 0.0 0 0 15.00 89.19
  L 21.89 89.27
  A 0.25 0.25 0.0 0 0 22.13 89.10
  L 22.41 88.34
  A 0.25 0.25 0.0 0 0 22.17 88.00
  L 16.00 88.00
  Z
  M 39.50 84.46
  Q 39.69 84.45 39.90 84.49
  Q 40.02 84.51 39.97 84.62
  L 39.79 85.05
  Q 39.55 85.58 40.13 85.50
  Q 41.01 85.38 41.75 84.71
  L 43.19 85.51
  Q 43.79 85.85 43.77 85.16
  L 43.70 81.96
  Q 43.68 81.13 42.96 81.54
  Q 40.24 83.06 36.01 83.96
  Q 34.78 84.22 35.11 85.45
  Q 35.27 86.05 35.86 85.83
  L 39.50 84.46
  Z
  M 34.61 91.32
  Q 32.36 90.39 30.13 90.95
  Q 29.69 91.06 29.29 90.86
  L 27.56 89.98
  Q 26.21 89.30 26.95 90.62
  Q 27.60 91.79 26.72 92.73
  Q 25.78 93.72 27.48 93.37
  Q 30.69 92.70 34.00 93.07
  Q 34.46 93.12 34.66 92.70
  L 34.93 92.15
  Q 35.20 91.57 34.61 91.32
  Z"
/>
<path fill="#314050" d="
  M 55.51 33.77
  Q 56.37 22.79 55.77 11.79
  C 55.59 8.50 54.47 6.15 50.98 5.98
  Q 34.98 5.17 13.44 5.89
  C 8.63 6.04 5.72 6.99 5.58 12.26
  Q 5.18 27.57 6.29 40.00
  L 5.79 41.75
  L 4.89 36.62
  Q 4.79 36.03 4.20 36.01
  L 3.79 36.00
  Q 3.96 24.81 4.03 13.62
  C 4.07 7.77 6.15 4.19 12.31 4.12
  Q 30.53 3.94 48.75 4.02
  Q 58.21 4.06 58.28 13.26
  Q 58.61 53.24 58.26 93.24
  Q 58.26 94.01 57.49 93.91
  L 57.19 93.87
  Q 56.59 93.79 56.58 93.19
  Q 56.16 71.30 56.24 49.41
  C 56.26 44.67 55.29 39.04 55.51 33.77
  Z"
/>
<path fill="#0c5db2" d="
  M 55.51 33.77
  C 54.69 33.60 53.77 33.26 53.04 33.26
  Q 30.78 33.23 8.49 33.26
  C 6.14 33.26 6.89 37.73 6.29 40.00
  Q 5.18 27.57 5.58 12.26
  C 5.72 6.99 8.63 6.04 13.44 5.89
  Q 34.98 5.17 50.98 5.98
  C 54.47 6.15 55.59 8.50 55.77 11.79
  Q 56.37 22.79 55.51 33.77
  Z
  M 34.55 13.09
  A 3.55 3.55 0.0 0 0 31.00 9.54
  A 3.55 3.55 0.0 0 0 27.45 13.09
  A 3.55 3.55 0.0 0 0 31.00 16.64
  A 3.55 3.55 0.0 0 0 34.55 13.09
  Z
  M 25.21 22.82
  Q 24.61 22.12 24.77 21.18
  Q 24.89 20.48 24.18 20.50
  C 22.81 20.52 23.18 22.77 23.60 23.45
  Q 23.83 23.84 24.28 23.86
  L 28.69 24.07
  Q 29.17 24.09 29.62 23.92
  Q 31.07 23.38 32.58 23.65
  Q 33.24 23.77 33.04 23.13
  L 32.72 22.08
  Q 32.58 21.64 32.13 21.64
  L 28.84 21.64
  Q 28.44 21.64 28.46 22.05
  Q 28.52 23.12 27.66 23.67
  A 0.43 0.43 0.0 0 1 27.00 23.31
  L 27.00 21.79
  Q 27.00 20.76 26.37 21.58
  Q 26.03 22.02 25.96 22.59
  Q 25.85 23.55 25.21 22.82
  Z
  M 38.51 23.63
  L 38.47 21.91
  A 0.28 0.28 0.0 0 0 38.19 21.63
  L 35.43 21.69
  A 1.22 0.89 -1.2 0 0 34.23 22.60
  L 34.24 23.10
  A 1.22 0.89 -1.2 0 0 35.47 23.97
  L 38.23 23.91
  A 0.28 0.28 0.0 0 0 38.51 23.63
  Z
  M 19.38 28.76
  L 19.22 29.02
  Q 19.10 29.22 19.33 29.28
  Q 22.49 30.13 22.46 26.78
  Q 22.45 26.04 21.70 26.05
  L 19.49 26.08
  Q 18.78 26.09 18.95 26.78
  L 19.41 28.57
  Q 19.43 28.67 19.38 28.76
  Z
  M 34.33 28.94
  C 33.69 28.41 32.33 27.36 34.09 26.82
  Q 34.61 26.66 34.30 26.22
  C 33.44 25.01 31.87 27.02 32.28 28.29
  A 1.59 1.59 0.0 0 0 33.82 29.39
  L 41.90 29.20
  Q 42.43 29.19 42.56 28.68
  L 42.85 27.62
  Q 43.00 27.04 42.42 26.92
  L 39.80 26.33
  Q 39.27 26.22 38.85 26.54
  Q 37.74 27.39 36.51 26.77
  Q 35.91 26.47 35.43 26.92
  Q 34.76 27.54 35.02 28.50
  Q 35.37 29.80 34.33 28.94
  Z
  M 24.35 27.33
  L 23.62 26.99
  Q 22.82 26.62 22.98 27.48
  C 23.51 30.28 27.08 30.01 28.18 27.90
  Q 28.42 27.43 27.96 27.20
  Q 26.18 26.29 24.97 27.25
  Q 24.68 27.48 24.35 27.33
  Z
  M 30.54 26.86
  C 28.84 25.77 28.56 28.70 29.77 29.56
  Q 30.27 29.92 30.43 29.32
  L 30.85 27.66
  Q 30.98 27.15 30.54 26.86
  Z"
/>
<path fill="#ffffff" d="
  M 34.55 13.09
  A 3.55 3.55 0.0 0 1 31.00 16.64
  A 3.55 3.55 0.0 0 1 27.45 13.09
  A 3.55 3.55 0.0 0 1 31.00 9.54
  A 3.55 3.55 0.0 0 1 34.55 13.09
  Z
  M 32.6910 12.6907
  A 1.11 1.11 0.0 0 0 31.6590 11.5078
  L 30.6613 11.4397
  A 1.11 1.11 0.0 0 0 29.4784 12.4717
  L 29.4090 13.4893
  A 1.11 1.11 0.0 0 0 30.4410 14.6722
  L 31.4387 14.7403
  A 1.11 1.11 0.0 0 0 32.6216 13.7083
  L 32.6910 12.6907
  Z"
/>
<rect fill="#0c5db2" x="-1.61" y="-1.62" transform="translate(31.05,13.09) rotate(3.9)" width="3.22" height="3.24" rx="1.11"/>
<path fill="#8ab2e5" d="
  M 25.96 22.59
  Q 26.03 22.02 26.37 21.58
  Q 27.00 20.76 27.00 21.79
  L 27.00 23.31
  A 0.43 0.43 0.0 0 0 27.66 23.67
  Q 28.52 23.12 28.46 22.05
  Q 28.44 21.64 28.84 21.64
  L 32.13 21.64
  Q 32.58 21.64 32.72 22.08
  L 33.04 23.13
  Q 33.24 23.77 32.58 23.65
  Q 31.07 23.38 29.62 23.92
  Q 29.17 24.09 28.69 24.07
  L 24.28 23.86
  Q 23.83 23.84 23.60 23.45
  C 23.18 22.77 22.81 20.52 24.18 20.50
  Q 24.89 20.48 24.77 21.18
  Q 24.61 22.12 25.21 22.82
  Q 25.85 23.55 25.96 22.59
  Z"
/>
<path fill="#8ab2e5" d="
  M 38.51 23.63
  A 0.28 0.28 0.0 0 1 38.23 23.91
  L 35.47 23.97
  A 1.22 0.89 -1.2 0 1 34.24 23.10
  L 34.23 22.60
  A 1.22 0.89 -1.2 0 1 35.43 21.69
  L 38.19 21.63
  A 0.28 0.28 0.0 0 1 38.47 21.91
  L 38.51 23.63
  Z"
/>
<path fill="#8ab2e5" d="
  M 19.41 28.57
  L 18.95 26.78
  Q 18.78 26.09 19.49 26.08
  L 21.70 26.05
  Q 22.45 26.04 22.46 26.78
  Q 22.49 30.13 19.33 29.28
  Q 19.10 29.22 19.22 29.02
  L 19.38 28.76
  Q 19.43 28.67 19.41 28.57
  Z"
/>
<path fill="#8ab2e5" d="
  M 34.09 26.82
  C 32.33 27.36 33.69 28.41 34.33 28.94
  Q 35.37 29.80 35.02 28.50
  Q 34.76 27.54 35.43 26.92
  Q 35.91 26.47 36.51 26.77
  Q 37.74 27.39 38.85 26.54
  Q 39.27 26.22 39.80 26.33
  L 42.42 26.92
  Q 43.00 27.04 42.85 27.62
  L 42.56 28.68
  Q 42.43 29.19 41.90 29.20
  L 33.82 29.39
  A 1.59 1.59 0.0 0 1 32.28 28.29
  C 31.87 27.02 33.44 25.01 34.30 26.22
  Q 34.61 26.66 34.09 26.82
  Z"
/>
<path fill="#8ab2e5" d="
  M 24.97 27.25
  Q 26.18 26.29 27.96 27.20
  Q 28.42 27.43 28.18 27.90
  C 27.08 30.01 23.51 30.28 22.98 27.48
  Q 22.82 26.62 23.62 26.99
  L 24.35 27.33
  Q 24.68 27.48 24.97 27.25
  Z"
/>
<path fill="#8ab2e5" d="
  M 29.77 29.56
  C 28.56 28.70 28.84 25.77 30.54 26.86
  Q 30.98 27.15 30.85 27.66
  L 30.43 29.32
  Q 30.27 29.92 29.77 29.56
  Z"
/>
<path fill="#010101" d="
  M 3.79 36.00
  L 4.20 36.01
  Q 4.79 36.03 4.89 36.62
  L 5.79 41.75
  L 5.57 93.37
  Q 5.56 94.00 4.93 94.00
  Q 4.78 94.00 4.63 94.00
  Q 4.01 94.01 4.01 93.38
  Q 3.98 75.69 4.01 58.00
  C 4.02 52.15 3.28 43.38 3.79 36.00
  Z"
/>
<path fill="#8d6e68" d="
  M 14.21 47.00
  L 14.13 40.61
  Q 14.13 40.03 13.55 40.07
  Q 12.51 40.13 12.46 38.75
  Q 20.09 39.52 17.09 45.92
  C 16.54 47.11 15.38 47.53 14.21 47.00
  Z"
/>
<path fill="#d3bdae" d="
  M 12.46 38.75
  Q 12.51 40.13 13.55 40.07
  Q 14.13 40.03 14.13 40.61
  L 14.21 47.00
  L 13.04 46.75
  L 13.04 45.70
  Q 13.03 45.24 12.60 45.06
  Q 12.23 44.90 11.75 44.96
  L 11.74 44.28
  Q 11.73 43.40 11.11 44.02
  L 10.87 44.25
  Q 10.50 44.63 10.13 44.25
  L 9.57 43.69
  Q 9.10 43.23 9.50 42.70
  L 12.46 38.75
  Z"
/>
<rect fill="#837aa5" x="21.35" y="41.27" width="15.58" height="1.12" rx="0.44"/>
<rect fill="#d3bdae" x="-6.19" y="-0.26" transform="translate(28.24,44.48) rotate(-0.8)" width="12.38" height="0.52" rx="0.25"/>
<path fill="#8d6e68" d="
  M 11.75 44.96
  Q 12.23 44.90 12.60 45.06
  Q 13.03 45.24 13.04 45.70
  L 13.04 46.75
  C 12.36 47.81 10.90 46.48 11.32 45.17
  Q 11.36 45.04 11.49 45.00
  Q 11.61 44.97 11.75 44.96
  Z"
/>
<path fill="#010101" d="
  M 14.62 57.44
  Q 14.61 56.73 15.32 56.74
  L 21.78 56.78
  Q 22.58 56.79 22.25 57.52
  C 21.89 58.33 18.23 57.93 16.37 58.07
  Q 15.75 58.12 15.75 58.74
  L 15.75 63.72
  Q 15.75 64.13 15.46 64.41
  L 15.18 64.69
  Q 14.69 65.18 14.69 64.49
  L 14.62 57.44
  Z"
/>
<path fill="#010101" d="
  M 46.88 56.94
  Q 47.26 56.99 47.26 57.38
  L 47.22 64.23
  Q 47.22 64.79 46.67 64.71
  C 46.03 64.61 46.11 59.30 46.09 58.49
  Q 46.07 57.96 45.54 57.97
  Q 42.27 58.09 38.99 57.89
  Q 36.48 57.74 38.94 57.21
  Q 42.89 56.36 46.88 56.94
  Z"
/>
<path fill="#010101" d="
  M 32.71 84.25
  Q 32.35 83.19 33.77 82.47
  Q 33.20 79.70 30.00 80.21
  L 29.71 79.50
  Q 29.77 78.93 30.19 78.71
  Q 30.66 78.46 30.97 78.90
  Q 32.26 80.76 34.55 79.72
  A 0.96 0.96 0.0 0 0 34.89 78.23
  Q 34.20 77.38 33.21 78.12
  Q 32.75 78.47 32.38 78.03
  Q 32.25 77.87 32.24 77.68
  Q 32.21 77.17 32.57 76.81
  L 33.57 75.81
  Q 33.99 75.39 33.46 75.11
  C 32.58 74.64 29.72 79.49 25.25 77.29
  Q 25.65 77.24 25.84 77.05
  Q 26.19 76.70 25.85 76.35
  L 24.79 75.25
  Q 24.24 74.81 23.93 74.18
  Q 23.47 73.25 24.27 73.92
  L 26.18 75.52
  Q 26.63 75.90 26.50 76.47
  Q 26.47 76.60 26.51 76.77
  Q 26.59 77.20 27.02 77.25
  Q 28.50 77.42 29.61 76.50
  Q 29.89 76.28 29.56 76.14
  L 28.16 75.58
  Q 27.52 75.32 27.71 74.66
  Q 27.98 73.68 27.30 73.15
  Q 26.83 72.79 26.42 73.21
  L 25.81 73.81
  Q 25.05 74.58 24.99 73.49
  Q 24.97 73.03 25.37 72.74
  Q 25.79 72.42 25.42 72.04
  L 25.22 71.85
  Q 24.78 71.41 24.58 72.00
  Q 23.96 73.77 22.07 73.95
  Q 21.36 74.01 21.72 74.63
  L 22.30 75.60
  Q 22.64 76.18 21.99 76.37
  Q 21.10 76.63 20.49 75.87
  Q 20.04 75.29 19.83 76.00
  L 19.29 77.82
  A 0.61 0.61 0.0 0 0 19.85 78.61
  L 25.12 78.84
  Q 25.65 78.86 25.67 79.39
  L 25.79 84.50
  L 25.75 85.46
  L 19.47 85.70
  A 0.98 0.97 89.2 0 1 18.46 84.71
  L 18.54 74.00
  Q 19.27 74.14 19.93 73.97
  Q 20.47 73.83 20.69 73.33
  Q 21.17 72.27 22.23 71.71
  Q 22.58 71.52 22.94 71.68
  Q 24.13 72.19 25.50 71.29
  L 28.41 68.44
  Q 28.77 68.08 28.91 67.60
  Q 29.35 66.06 27.84 65.83
  Q 26.67 65.66 27.78 65.27
  Q 28.71 64.95 29.55 65.55
  Q 29.80 65.73 29.79 66.04
  L 29.74 66.89
  Q 29.71 67.48 30.25 67.73
  Q 31.92 68.50 31.76 70.20
  Q 31.69 70.86 31.16 70.46
  L 30.23 69.75
  Q 29.84 69.44 29.44 69.74
  L 27.02 71.52
  Q 26.45 71.94 27.11 72.21
  Q 27.32 72.29 27.54 72.24
  Q 27.80 72.18 27.98 71.98
  Q 29.36 70.45 31.25 71.54
  L 31.54 72.25
  Q 30.83 73.64 29.69 73.00
  A 0.65 0.65 0.0 0 0 28.73 73.66
  C 29.26 77.75 32.59 75.04 33.54 73.25
  L 34.50 72.79
  L 35.53 72.42
  Q 36.00 72.25 35.52 72.11
  L 34.29 71.75
  L 33.75 71.46
  Q 33.78 70.05 32.78 69.03
  Q 32.39 68.64 32.69 68.18
  Q 32.84 67.93 32.68 67.50
  Q 32.45 66.92 32.01 67.36
  L 31.81 67.57
  Q 31.50 67.88 31.29 67.49
  Q 30.28 65.61 30.74 63.57
  Q 30.85 63.05 31.35 62.85
  Q 32.28 62.48 33.14 63.00
  Q 33.71 63.35 33.21 63.79
  L 31.86 64.98
  Q 31.51 65.28 31.78 65.66
  Q 33.19 67.68 35.63 67.41
  Q 36.16 67.35 36.00 67.86
  L 35.90 68.20
  Q 35.72 68.75 35.14 68.75
  L 33.70 68.75
  Q 32.60 68.75 33.53 69.32
  Q 34.66 70.01 36.25 69.29
  L 36.57 70.61
  Q 36.65 70.90 36.94 70.99
  Q 37.16 71.05 37.34 70.98
  Q 37.92 70.77 37.61 70.24
  Q 37.34 69.77 37.29 69.25
  Q 39.89 70.24 42.77 69.47
  A 0.84 0.83 -53.4 0 0 42.53 67.83
  L 38.28 67.99
  A 1.49 1.49 0.0 0 1 36.73 66.53
  L 36.66 61.90
  Q 36.65 61.22 36.18 61.70
  L 35.88 61.99
  Q 35.60 62.28 35.23 62.11
  Q 32.77 60.95 30.22 62.05
  Q 29.70 62.28 29.75 62.85
  L 29.79 63.47
  Q 29.82 63.75 29.54 63.67
  Q 27.79 63.17 26.95 61.47
  A 0.61 0.61 0.0 0 0 25.79 61.73
  L 25.73 66.72
  Q 25.73 67.32 26.33 67.31
  C 26.89 67.29 28.15 66.96 28.00 68.04
  Q 27.93 68.51 27.46 68.44
  Q 26.76 68.34 26.09 68.15
  Q 25.57 68.01 25.02 68.01
  L 19.28 68.05
  Q 18.50 68.05 18.50 67.27
  L 18.50 61.48
  Q 18.50 60.98 18.99 60.91
  Q 24.06 60.15 28.86 61.79
  Q 29.35 61.95 29.61 61.51
  L 29.77 61.25
  Q 29.91 61.01 30.19 61.00
  L 43.29 60.74
  Q 43.85 60.73 43.83 61.29
  L 43.52 70.43
  Q 43.50 70.89 43.64 71.33
  Q 44.08 72.76 43.33 74.07
  Q 43.11 74.47 43.41 74.81
  Q 44.01 75.50 43.99 76.31
  Q 43.97 77.55 43.09 76.68
  L 42.23 75.82
  Q 42.09 75.68 41.92 75.78
  L 41.70 75.91
  Q 41.40 76.09 41.60 76.38
  L 43.63 79.16
  Q 44.24 80.00 43.28 79.60
  Q 41.01 78.66 40.11 76.43
  Q 39.91 75.93 39.37 75.85
  Q 38.57 75.74 38.51 74.83
  A 1.13 1.13 0.0 0 0 37.22 73.79
  Q 34.69 74.17 35.00 76.77
  Q 35.11 77.72 35.97 77.31
  L 38.26 76.22
  A 0.73 0.73 0.0 0 1 39.26 76.62
  C 40.73 80.68 39.35 81.80 35.95 82.60
  C 34.67 82.91 33.64 84.73 32.71 84.25
  Z
  M 24.7048 62.6216
  A 0.73 0.73 0.0 0 0 23.9812 61.8853
  L 20.5014 61.8549
  A 0.73 0.73 0.0 0 0 19.7650 62.5785
  L 19.7352 65.9984
  A 0.73 0.73 0.0 0 0 20.4588 66.7347
  L 23.9386 66.7651
  A 0.73 0.73 0.0 0 0 24.6750 66.0415
  L 24.7048 62.6216
  Z
  M 42.6851 62.7435
  A 1.00 1.00 0.0 0 0 41.6391 61.7917
  L 38.6225 61.9339
  A 1.00 1.00 0.0 0 0 37.6707 62.9799
  L 37.8149 66.0365
  A 1.00 1.00 0.0 0 0 38.8609 66.9883
  L 41.8775 66.8461
  A 1.00 1.00 0.0 0 0 42.8293 65.8001
  L 42.6851 62.7435
  Z
  M 42.74 70.84
  A 0.33 0.33 0.0 0 0 42.26 70.49
  L 41.26 71.00
  Q 40.78 71.25 41.10 71.69
  Q 41.48 72.22 42.21 71.92
  Q 42.61 71.75 42.67 71.32
  L 42.74 70.84
  Z
  M 42.77 73.24
  L 37.29 71.47
  A 0.11 0.11 0.0 0 0 37.15 71.54
  L 37.15 71.56
  A 2.83 1.97 17.9 0 0 39.24 74.30
  L 39.54 74.40
  A 2.83 1.97 17.9 0 0 42.84 73.39
  L 42.84 73.37
  A 0.11 0.11 0.0 0 0 42.77 73.24
  Z
  M 35.66 78.95
  L 35.74 80.24
  Q 35.78 80.99 36.54 81.01
  Q 38.48 81.07 39.16 79.20
  Q 39.34 78.71 38.98 78.32
  Q 37.97 77.25 36.24 78.00
  Q 35.62 78.27 35.66 78.95
  Z
  M 24.6847 80.5574
  A 0.85 0.85 0.0 0 0 23.8171 79.7254
  L 20.4578 79.7957
  A 0.85 0.85 0.0 0 0 19.6258 80.6633
  L 19.6953 83.9826
  A 0.85 0.85 0.0 0 0 20.5629 84.8146
  L 23.9222 84.7443
  A 0.85 0.85 0.0 0 0 24.7542 83.8767
  L 24.6847 80.5574
  Z"
/>
<path fill="#ffffff" d="
  M 24.6750 66.0415
  A 0.73 0.73 0.0 0 1 23.9386 66.7651
  L 20.4588 66.7347
  A 0.73 0.73 0.0 0 1 19.7352 65.9984
  L 19.7650 62.5785
  A 0.73 0.73 0.0 0 1 20.5014 61.8549
  L 23.9812 61.8853
  A 0.73 0.73 0.0 0 1 24.7048 62.6216
  L 24.6750 66.0415
  Z
  M 23.66 64.18
  A 1.52 1.52 0.0 0 0 22.14 62.66
  A 1.52 1.52 0.0 0 0 20.62 64.18
  A 1.52 1.52 0.0 0 0 22.14 65.70
  A 1.52 1.52 0.0 0 0 23.66 64.18
  Z"
/>
<path fill="#ffffff" d="
  M 42.8293 65.8001
  A 1.00 1.00 0.0 0 1 41.8775 66.8461
  L 38.8609 66.9883
  A 1.00 1.00 0.0 0 1 37.8149 66.0365
  L 37.6707 62.9799
  A 1.00 1.00 0.0 0 1 38.6225 61.9339
  L 41.6391 61.7917
  A 1.00 1.00 0.0 0 1 42.6851 62.7435
  L 42.8293 65.8001
  Z
  M 41.74 64.20
  A 1.52 1.52 0.0 0 0 40.22 62.68
  A 1.52 1.52 0.0 0 0 38.70 64.20
  A 1.52 1.52 0.0 0 0 40.22 65.72
  A 1.52 1.52 0.0 0 0 41.74 64.20
  Z"
/>
<circle fill="#010101" cx="22.14" cy="64.18" r="1.52"/>
<circle fill="#010101" cx="40.22" cy="64.20" r="1.52"/>
<path fill="#010101" d="
  M 35.56 65.31
  Q 35.57 65.47 35.49 65.57
  Q 35.30 65.83 35.12 65.56
  L 34.55 64.65
  Q 34.43 64.45 34.63 64.34
  L 35.15 64.03
  Q 35.46 63.84 35.62 64.18
  Q 35.94 64.85 35.56 65.31
  Z"
/>
<path fill="#010101" d="
  M 24.59 71.21
  C 21.59 68.85 21.38 71.65 19.04 71.25
  Q 18.21 70.33 18.58 69.15
  Q 18.78 68.50 19.38 68.81
  L 20.51 69.39
  Q 21.03 69.65 21.58 69.45
  Q 25.84 67.88 24.59 71.21
  Z"
/>
<path fill="#d3bdae" d="
  M 37.29 69.25
  Q 37.34 69.77 37.61 70.24
  Q 37.92 70.77 37.34 70.98
  Q 37.16 71.05 36.94 70.99
  Q 36.65 70.90 36.57 70.61
  L 36.25 69.29
  L 37.29 69.25
  Z"
/>
<path fill="#d3bdae" d="
  M 24.59 71.21
  L 25.50 71.29
  Q 24.13 72.19 22.94 71.68
  Q 22.58 71.52 22.23 71.71
  Q 21.17 72.27 20.69 73.33
  Q 20.47 73.83 19.93 73.97
  Q 19.27 74.14 18.54 74.00
  L 19.04 71.25
  C 21.38 71.65 21.59 68.85 24.59 71.21
  Z"
/>
<path fill="#d3bdae" d="
  M 42.74 70.84
  L 42.67 71.32
  Q 42.61 71.75 42.21 71.92
  Q 41.48 72.22 41.10 71.69
  Q 40.78 71.25 41.26 71.00
  L 42.26 70.49
  A 0.33 0.33 0.0 0 1 42.74 70.84
  Z"
/>
<path fill="#314050" d="
  M 33.75 71.46
  L 34.29 71.75
  L 33.94 72.19
  Q 33.52 72.73 34.21 72.74
  Q 34.38 72.74 34.50 72.79
  L 33.54 73.25
  Q 33.26 72.86 33.14 72.29
  Q 32.95 71.42 32.23 71.94
  Q 31.87 72.20 31.54 72.25
  L 31.25 71.54
  L 33.75 71.46
  Z"
/>
<path fill="#ffffff" d="
  M 42.77 73.24
  A 0.11 0.11 0.0 0 1 42.84 73.37
  L 42.84 73.39
  A 2.83 1.97 17.9 0 1 39.54 74.40
  L 39.24 74.30
  A 2.83 1.97 17.9 0 1 37.15 71.56
  L 37.15 71.54
  A 0.11 0.11 0.0 0 1 37.29 71.47
  L 42.77 73.24
  Z"
/>
<path fill="#d3bdae" d="
  M 34.29 71.75
  L 35.52 72.11
  Q 36.00 72.25 35.53 72.42
  L 34.50 72.79
  Q 34.38 72.74 34.21 72.74
  Q 33.52 72.73 33.94 72.19
  L 34.29 71.75
  Z"
/>
<path fill="#ffffff" d="
  M 33.54 73.25
  C 32.59 75.04 29.26 77.75 28.73 73.66
  A 0.65 0.65 0.0 0 1 29.69 73.00
  Q 30.83 73.64 31.54 72.25
  Q 31.87 72.20 32.23 71.94
  Q 32.95 71.42 33.14 72.29
  Q 33.26 72.86 33.54 73.25
  Z"
/>
<path fill="#d3bdae" d="
  M 24.79 75.25
  L 25.85 76.35
  Q 26.19 76.70 25.84 77.05
  Q 25.65 77.24 25.25 77.29
  L 24.71 77.00
  L 24.89 76.69
  Q 25.07 76.38 24.78 76.17
  L 24.50 75.96
  L 24.79 75.25
  Z"
/>
<path fill="#314050" d="
  M 24.50 75.96
  L 24.78 76.17
  Q 25.07 76.38 24.89 76.69
  L 24.71 77.00
  Q 24.14 77.24 23.50 77.23
  A 0.37 0.37 0.0 0 1 23.26 76.59
  Q 23.82 76.09 24.50 75.96
  Z"
/>
<path fill="#ffffff" d="
  M 35.66 78.95
  Q 35.62 78.27 36.24 78.00
  Q 37.97 77.25 38.98 78.32
  Q 39.34 78.71 39.16 79.20
  Q 38.48 81.07 36.54 81.01
  Q 35.78 80.99 35.74 80.24
  L 35.66 78.95
  Z"
/>
<path fill="#8d6e68" d="
  M 29.71 79.50
  L 30.00 80.21
  Q 29.28 80.88 29.71 82.00
  L 28.69 81.98
  Q 28.09 81.97 28.26 81.39
  Q 28.51 80.58 29.21 80.00
  L 29.71 79.50
  Z"
/>
<path fill="#ffffff" d="
  M 24.7542 83.8767
  A 0.85 0.85 0.0 0 1 23.9222 84.7443
  L 20.5629 84.8146
  A 0.85 0.85 0.0 0 1 19.6953 83.9826
  L 19.6258 80.6633
  A 0.85 0.85 0.0 0 1 20.4578 79.7957
  L 23.8171 79.7254
  A 0.85 0.85 0.0 0 1 24.6847 80.5574
  L 24.7542 83.8767
  Z
  M 23.50 82.22
  A 1.43 1.43 0.0 0 0 22.07 80.79
  A 1.43 1.43 0.0 0 0 20.64 82.22
  A 1.43 1.43 0.0 0 0 22.07 83.65
  A 1.43 1.43 0.0 0 0 23.50 82.22
  Z"
/>
<path fill="#010101" d="
  M 29.21 80.00
  Q 28.51 80.58 28.26 81.39
  Q 28.09 81.97 28.69 81.98
  L 29.71 82.00
  L 31.33 85.23
  Q 31.54 85.64 31.13 85.44
  L 29.55 84.65
  Q 29.04 84.40 28.99 83.84
  Q 28.92 83.01 28.16 82.98
  Q 27.59 82.96 27.22 82.54
  C 26.11 81.30 27.82 79.94 29.21 80.00
  Z"
/>
<circle fill="#010101" cx="22.07" cy="82.22" r="1.43"/>
<path fill="#314050" d="
  M 33.77 82.47
  Q 32.35 83.19 32.71 84.25
  C 32.54 83.30 30.83 81.43 31.07 81.07
  Q 31.36 80.62 31.61 81.09
  Q 32.21 82.21 33.77 82.47
  Z"
/>
<path fill="#010101" d="
  M 46.25 87.51
  L 46.25 81.71
  Q 46.25 81.13 46.82 81.27
  C 47.53 81.45 47.25 87.45 47.25 88.39
  Q 47.25 88.97 46.68 89.06
  Q 43.20 89.58 39.76 88.86
  Q 36.99 88.27 39.81 88.10
  Q 42.76 87.92 45.72 88.02
  Q 46.25 88.03 46.25 87.51
  Z"
/>
<path fill="#010101" d="
  M 16.00 88.00
  L 22.17 88.00
  A 0.25 0.25 0.0 0 1 22.41 88.34
  L 22.13 89.10
  A 0.25 0.25 0.0 0 1 21.89 89.27
  L 15.00 89.19
  A 0.25 0.25 0.0 0 1 14.75 88.94
  L 14.75 81.63
  A 0.25 0.25 0.0 0 1 15.13 81.41
  L 15.63 81.71
  A 0.25 0.25 0.0 0 1 15.75 81.92
  L 15.75 87.75
  A 0.25 0.25 0.0 0 0 16.00 88.00
  Z"
/>
<path fill="#010101" d="
  M 41.75 84.71
  Q 40.69 83.93 39.50 84.46
  L 35.86 85.83
  Q 35.27 86.05 35.11 85.45
  Q 34.78 84.22 36.01 83.96
  Q 40.24 83.06 42.96 81.54
  Q 43.68 81.13 43.70 81.96
  L 43.77 85.16
  Q 43.79 85.85 43.19 85.51
  L 41.75 84.71
  Z"
/>
<path fill="#314050" d="
  M 25.75 85.46
  L 25.79 84.50
  L 27.43 84.25
  Q 27.99 84.16 28.00 84.72
  Q 28.00 84.89 28.00 85.06
  Q 28.00 85.43 27.63 85.44
  L 25.75 85.46
  Z"
/>
<path fill="#837aa5" d="
  M 41.75 84.71
  Q 41.01 85.38 40.13 85.50
  Q 39.55 85.58 39.79 85.05
  L 39.97 84.62
  Q 40.02 84.51 39.90 84.49
  Q 39.69 84.45 39.50 84.46
  Q 40.69 83.93 41.75 84.71
  Z"
/>
<path fill="#837aa5" d="
  M 34.61 91.32
  Q 35.20 91.57 34.93 92.15
  L 34.66 92.70
  Q 34.46 93.12 34.00 93.07
  Q 30.69 92.70 27.48 93.37
  Q 25.78 93.72 26.72 92.73
  Q 27.60 91.79 26.95 90.62
  Q 26.21 89.30 27.56 89.98
  L 29.29 90.86
  Q 29.69 91.06 30.13 90.95
  Q 32.36 90.39 34.61 91.32
  Z"
/>
</svg>
