<?xml version="1.0" encoding="UTF-8" standalone="no"?>
<!DOCTYPE svg PUBLIC "-//W3C//DTD SVG 1.1//EN" "http://www.w3.org/Graphics/SVG/1.1/DTD/svg11.dtd">
<svg xmlns="http://www.w3.org/2000/svg" version="1.1" viewBox="0.00 0.00 31.00 36.00">
<g stroke-width="2.00" fill="none" stroke-linecap="butt">
<path stroke="#b6b6b6" vector-effect="non-scaling-stroke" d="
  M 14.82 7.93
  Q 13.65 6.81 11.99 6.98
  Q 9.62 7.22 11.99 7.51
  Q 13.46 7.69 13.51 9.10
  Q 13.53 9.68 14.02 9.98
  C 16.76 11.67 19.09 10.12 19.89 7.20
  Q 20.14 6.31 19.41 6.88
  L 18.11 7.88
  Q 17.32 8.50 17.20 7.50
  L 16.88 4.66
  Q 16.84 4.32 16.51 4.25
  Q 16.31 4.21 16.15 4.27
  Q 15.67 4.47 15.69 4.99
  L 15.78 7.50
  Q 15.83 8.89 14.82 7.93"
/>
<path stroke="#cbccca" vector-effect="non-scaling-stroke" d="
  M 3.78 14.28
  Q 3.52 15.55 4.26 15.58
  Q 15.19 16.01 26.15 15.87
  Q 26.69 15.86 26.94 15.38
  Q 27.19 14.89 26.96 14.25"
/>
<path stroke="#b6b6b6" vector-effect="non-scaling-stroke" d="
  M 26.96 14.25
  Q 27.27 13.93 27.26 13.49
  A 0.47 0.47 0.0 0 0 26.80 13.04
  L 4.34 12.86
  Q 3.86 12.86 3.62 13.27
  Q 3.23 13.96 3.78 14.28"
/>
<path stroke="#828381" vector-effect="non-scaling-stroke" d="
  M 26.96 14.25
  Q 15.37 13.62 3.78 14.28"
/>
<path stroke="#cbccca" vector-effect="non-scaling-stroke" d="
  M 5.23 22.69
  Q 15.41 23.07 25.50 22.21"
/>
<path stroke="#b6b6b6" vector-effect="non-scaling-stroke" d="
  M 25.50 22.21
  C 26.93 22.93 28.54 21.33 26.52 20.14
  A 1.11 1.06 58.4 0 0 25.99 20.00
  L 4.29 20.00
  Q 3.85 20.00 3.70 20.41
  Q 2.92 22.54 5.23 22.69"
/>
<path stroke="#828381" vector-effect="non-scaling-stroke" d="
  M 25.50 22.21
  C 24.37 20.76 7.39 21.15 4.95 21.28
  Q 4.35 21.31 4.80 21.71
  Q 5.30 22.15 5.23 22.69"
/>
<path stroke="#b6b6b6" vector-effect="non-scaling-stroke" d="
  M 17.94 26.85
  L 19.47 27.60
  Q 20.48 28.10 20.01 27.07
  Q 18.58 23.97 15.21 23.93
  Q 14.64 23.93 14.40 24.44
  Q 13.55 26.28 11.81 27.30
  Q 10.20 28.23 12.01 27.78
  L 14.93 27.03
  Q 15.67 26.84 15.69 27.60
  L 15.78 30.12
  Q 15.80 30.61 16.28 30.49
  C 17.13 30.29 16.97 27.90 17.12 27.24
  Q 17.28 26.52 17.94 26.85"
/>
</g>
<path fill="#ffffff" d="
  M 0.00 0.00
  L 31.00 0.00
  L 31.00 36.00
  L 0.00 36.00
  L 0.00 0.00
  Z
  M 14.82 7.93
  Q 13.65 6.81 11.99 6.98
  Q 9.62 7.22 11.99 7.51
  Q 13.46 7.69 13.51 9.10
  Q 13.53 9.68 14.02 9.98
  C 16.76 11.67 19.09 10.12 19.89 7.20
  Q 20.14 6.31 19.41 6.88
  L 18.11 7.88
  Q 17.32 8.50 17.20 7.50
  L 16.88 4.66
  Q 16.84 4.32 16.51 4.25
  Q 16.31 4.21 16.15 4.27
  Q 15.67 4.47 15.69 4.99
  L 15.78 7.50
  Q 15.83 8.89 14.82 7.93
  Z
  M 3.78 14.28
  Q 3.52 15.55 4.26 15.58
  Q 15.19 16.01 26.15 15.87
  Q 26.69 15.86 26.94 15.38
  Q 27.19 14.89 26.96 14.25
  Q 27.27 13.93 27.26 13.49
  A 0.47 0.47 0.0 0 0 26.80 13.04
  L 4.34 12.86
  Q 3.86 12.86 3.62 13.27
  Q 3.23 13.96 3.78 14.28
  Z
  M 5.23 22.69
  Q 15.41 23.07 25.50 22.21
  C 26.93 22.93 28.54 21.33 26.52 20.14
  A 1.11 1.06 58.4 0 0 25.99 20.00
  L 4.29 20.00
  Q 3.85 20.00 3.70 20.41
  Q 2.92 22.54 5.23 22.69
  Z
  M 17.94 26.85
  L 19.47 27.60
  Q 20.48 28.10 20.01 27.07
  Q 18.58 23.97 15.21 23.93
  Q 14.64 23.93 14.40 24.44
  Q 13.55 26.28 11.81 27.30
  Q 10.20 28.23 12.01 27.78
  L 14.93 27.03
  Q 15.67 26.84 15.69 27.60
  L 15.78 30.12
  Q 15.80 30.61 16.28 30.49
  C 17.13 30.29 16.97 27.90 17.12 27.24
  Q 17.28 26.52 17.94 26.85
  Z"
/>
<path fill="#6c6d6c" d="
  M 15.78 7.50
  L 15.69 4.99
  Q 15.67 4.47 16.15 4.27
  Q 16.31 4.21 16.51 4.25
  Q 16.84 4.32 16.88 4.66
  L 17.20 7.50
  Q 17.32 8.50 18.11 7.88
  L 19.41 6.88
  Q 20.14 6.31 19.89 7.20
  C 19.09 10.12 16.76 11.67 14.02 9.98
  Q 13.53 9.68 13.51 9.10
  Q 13.46 7.69 11.99 7.51
  Q 9.62 7.22 11.99 6.98
  Q 13.65 6.81 14.82 7.93
  Q 15.83 8.89 15.78 7.50
  Z"
/>
<path fill="#6c6d6c" d="
  M 26.96 14.25
  Q 15.37 13.62 3.78 14.28
  Q 3.23 13.96 3.62 13.27
  Q 3.86 12.86 4.34 12.86
  L 26.80 13.04
  A 0.47 0.47 0.0 0 1 27.26 13.49
  Q 27.27 13.93 26.96 14.25
  Z"
/>
<path fill="#979995" d="
  M 26.96 14.25
  Q 27.19 14.89 26.94 15.38
  Q 26.69 15.86 26.15 15.87
  Q 15.19 16.01 4.26 15.58
  Q 3.52 15.55 3.78 14.28
  Q 15.37 13.62 26.96 14.25
  Z"
/>
<path fill="#6c6d6c" d="
  M 25.50 22.21
  C 24.37 20.76 7.39 21.15 4.95 21.28
  Q 4.35 21.31 4.80 21.71
  Q 5.30 22.15 5.23 22.69
  Q 2.92 22.54 3.70 20.41
  Q 3.85 20.00 4.29 20.00
  L 25.99 20.00
  A 1.11 1.06 58.4 0 1 26.52 20.14
  C 28.54 21.33 26.93 22.93 25.50 22.21
  Z"
/>
<path fill="#979995" d="
  M 25.50 22.21
  Q 15.41 23.07 5.23 22.69
  Q 5.30 22.15 4.80 21.71
  Q 4.35 21.31 4.95 21.28
  C 7.39 21.15 24.37 20.76 25.50 22.21
  Z"
/>
<path fill="#6c6d6c" d="
  M 17.12 27.24
  C 16.97 27.90 17.13 30.29 16.28 30.49
  Q 15.80 30.61 15.78 30.12
  L 15.69 27.60
  Q 15.67 26.84 14.93 27.03
  L 12.01 27.78
  Q 10.20 28.23 11.81 27.30
  Q 13.55 26.28 14.40 24.44
  Q 14.64 23.93 15.21 23.93
  Q 18.58 23.97 20.01 27.07
  Q 20.48 28.10 19.47 27.60
  L 17.94 26.85
  Q 17.28 26.52 17.12 27.24
  Z"
/>
</svg>
