<?xml version="1.0" encoding="UTF-8" standalone="no"?>
<!DOCTYPE svg PUBLIC "-//W3C//DTD SVG 1.1//EN" "http://www.w3.org/Graphics/SVG/1.1/DTD/svg11.dtd">
<svg xmlns="http://www.w3.org/2000/svg" version="1.1" viewBox="0.00 0.00 34.00 40.00">
<g stroke-width="2.00" fill="none" stroke-linecap="butt">
<path stroke="#88a1c0" vector-effect="non-scaling-stroke" d="
  M 32.05 9.41
  L 18.72 2.57
  Q 18.16 2.28 17.60 2.57
  L 4.30 9.25
  A 1.25 1.24 78.6 0 0 3.61 10.30
  Q 2.84 25.52 14.61 34.67
  Q 17.68 37.06 20.71 34.95
  Q 33.44 26.10 32.35 10.01
  Q 32.32 9.55 32.05 9.41"
/>
<path stroke="#88a1c0" vector-effect="non-scaling-stroke" d="
  M 29.50 10.90
  L 18.58 5.35
  Q 18.05 5.09 17.53 5.35
  L 6.49 10.90
  Q 6.04 11.13 6.03 11.63
  C 5.91 19.32 10.00 30.36 17.98 33.23
  Q 18.51 33.42 18.98 33.10
  Q 30.14 25.47 29.98 11.66
  Q 29.97 11.14 29.50 10.90"
/>
<path stroke="#88a1c0" vector-effect="non-scaling-stroke" d="
  M 23.75 12.97
  A 1.19 1.19 0.0 0 0 22.56 11.78
  L 12.76 11.78
  A 1.19 1.19 0.0 0 0 11.57 12.97
  L 11.57 13.05
  A 1.19 1.19 0.0 0 0 12.76 14.24
  L 22.56 14.24
  A 1.19 1.19 0.0 0 0 23.75 13.05
  L 23.75 12.97"
/>
<path stroke="#88a1c0" vector-effect="non-scaling-stroke" d="
  M 23.76 17.99
  A 1.20 1.20 0.0 0 0 22.56 16.79
  L 12.74 16.79
  A 1.20 1.20 0.0 0 0 11.54 17.99
  L 11.54 18.05
  A 1.20 1.20 0.0 0 0 12.74 19.25
  L 22.56 19.25
  A 1.20 1.20 0.0 0 0 23.76 18.05
  L 23.76 17.99"
/>
</g>
<path fill="#114381" d="
  M 0.00 0.00
  L 34.00 0.00
  L 34.00 40.00
  L 0.00 40.00
  L 0.00 0.00
  Z
  M 32.05 9.41
  L 18.72 2.57
  Q 18.16 2.28 17.60 2.57
  L 4.30 9.25
  A 1.25 1.24 78.6 0 0 3.61 10.30
  Q 2.84 25.52 14.61 34.67
  Q 17.68 37.06 20.71 34.95
  Q 33.44 26.10 32.35 10.01
  Q 32.32 9.55 32.05 9.41
  Z"
/>
<path fill="#feffff" d="
  M 18.72 2.57
  L 32.05 9.41
  Q 32.32 9.55 32.35 10.01
  Q 33.44 26.10 20.71 34.95
  Q 17.68 37.06 14.61 34.67
  Q 2.84 25.52 3.61 10.30
  A 1.25 1.24 78.6 0 1 4.30 9.25
  L 17.60 2.57
  Q 18.16 2.28 18.72 2.57
  Z
  M 29.50 10.90
  L 18.58 5.35
  Q 18.05 5.09 17.53 5.35
  L 6.49 10.90
  Q 6.04 11.13 6.03 11.63
  C 5.91 19.32 10.00 30.36 17.98 33.23
  Q 18.51 33.42 18.98 33.10
  Q 30.14 25.47 29.98 11.66
  Q 29.97 11.14 29.50 10.90
  Z"
/>
<path fill="#114381" d="
  M 18.58 5.35
  L 29.50 10.90
  Q 29.97 11.14 29.98 11.66
  Q 30.14 25.47 18.98 33.10
  Q 18.51 33.42 17.98 33.23
  C 10.00 30.36 5.91 19.32 6.03 11.63
  Q 6.04 11.13 6.49 10.90
  L 17.53 5.35
  Q 18.05 5.09 18.58 5.35
  Z
  M 23.75 12.97
  A 1.19 1.19 0.0 0 0 22.56 11.78
  L 12.76 11.78
  A 1.19 1.19 0.0 0 0 11.57 12.97
  L 11.57 13.05
  A 1.19 1.19 0.0 0 0 12.76 14.24
  L 22.56 14.24
  A 1.19 1.19 0.0 0 0 23.75 13.05
  L 23.75 12.97
  Z
  M 23.76 17.99
  A 1.20 1.20 0.0 0 0 22.56 16.79
  L 12.74 16.79
  A 1.20 1.20 0.0 0 0 11.54 17.99
  L 11.54 18.05
  A 1.20 1.20 0.0 0 0 12.74 19.25
  L 22.56 19.25
  A 1.20 1.20 0.0 0 0 23.76 18.05
  L 23.76 17.99
  Z"
/>
<rect fill="#feffff" x="11.57" y="11.78" width="12.18" height="2.46" rx="1.19"/>
<rect fill="#feffff" x="11.54" y="16.79" width="12.22" height="2.46" rx="1.20"/>
</svg>
