<?xml version="1.0" encoding="UTF-8" standalone="no"?>
<!DOCTYPE svg PUBLIC "-//W3C//DTD SVG 1.1//EN" "http://www.w3.org/Graphics/SVG/1.1/DTD/svg11.dtd">
<svg xmlns="http://www.w3.org/2000/svg" version="1.1" viewBox="0 0 20 21">
<g stroke-width="2.00" fill="none" stroke-linecap="butt">
<path stroke="#9cb3da" vector-effect="non-scaling-stroke" d="
  M 14.87 4.37
  Q 8.72 4.08 2.86 4.32
  A 1.31 1.31 0.0 0 0 1.59 5.62
  L 1.50 14.37
  A 1.62 1.62 0.0 0 0 3.12 16.00
  L 9.69 16.00
  Q 10.20 16.00 10.59 16.32
  L 13.06 18.34
  Q 13.54 18.72 14.06 18.40
  Q 19.55 15.05 17.88 8.81
  Q 17.76 8.34 17.86 7.87
  C 18.37 5.38 17.31 4.48 14.87 4.37"
/>
<path stroke="#9cb3da" vector-effect="non-scaling-stroke" d="
  M 8.94 8.99
  L 3.62 9.01
  Q 3.00 9.01 3.00 9.63
  L 3.00 13.95
  Q 3.00 14.65 3.70 14.66
  L 9.15 14.78
  Q 9.78 14.79 9.63 14.18
  L 8.93 11.39
  A 1.69 1.69 0.0 0 1 10.39 9.30
  Q 11.96 9.14 13.09 8.04
  Q 13.57 7.57 14.13 7.95
  L 15.48 8.89
  Q 16.13 9.34 16.35 8.57
  Q 16.74 7.18 16.13 5.90
  Q 15.93 5.50 15.48 5.50
  L 3.63 5.50
  Q 3.00 5.50 3.00 6.13
  L 3.00 7.25
  Q 3.00 7.74 3.50 7.75
  L 8.69 7.76
  A 0.69 0.56 39.3 0 1 8.94 8.99"
/>
<path stroke="#9cb3da" vector-effect="non-scaling-stroke" d="
  M 16.63 10.98
  L 13.96 9.85
  Q 13.65 9.72 13.24 9.91
  L 10.68 11.08
  Q 10.24 11.29 10.32 11.77
  Q 10.80 14.38 12.57 16.35
  Q 13.54 17.44 14.64 16.48
  Q 16.85 14.54 17.00 11.56
  Q 17.02 11.14 16.63 10.98"
/>
</g>
<path fill="#ffffff" d="
  M 0.00 0.00
  L 20.00 0.00
  L 20.00 21.00
  L 0.00 21.00
  L 0.00 0.00
  Z
  M 14.87 4.37
  Q 8.72 4.08 2.86 4.32
  A 1.31 1.31 0.0 0 0 1.59 5.62
  L 1.50 14.37
  A 1.62 1.62 0.0 0 0 3.12 16.00
  L 9.69 16.00
  Q 10.20 16.00 10.59 16.32
  L 13.06 18.34
  Q 13.54 18.72 14.06 18.40
  Q 19.55 15.05 17.88 8.81
  Q 17.76 8.34 17.86 7.87
  C 18.37 5.38 17.31 4.48 14.87 4.37
  Z"
/>
<path fill="#3966b4" d="
  M 14.87 4.37
  C 17.31 4.48 18.37 5.38 17.86 7.87
  Q 17.76 8.34 17.88 8.81
  Q 19.55 15.05 14.06 18.40
  Q 13.54 18.72 13.06 18.34
  L 10.59 16.32
  Q 10.20 16.00 9.69 16.00
  L 3.12 16.00
  A 1.62 1.62 0.0 0 1 1.50 14.37
  L 1.59 5.62
  A 1.31 1.31 0.0 0 1 2.86 4.32
  Q 8.72 4.08 14.87 4.37
  Z
  M 8.94 8.99
  L 3.62 9.01
  Q 3.00 9.01 3.00 9.63
  L 3.00 13.95
  Q 3.00 14.65 3.70 14.66
  L 9.15 14.78
  Q 9.78 14.79 9.63 14.18
  L 8.93 11.39
  A 1.69 1.69 0.0 0 1 10.39 9.30
  Q 11.96 9.14 13.09 8.04
  Q 13.57 7.57 14.13 7.95
  L 15.48 8.89
  Q 16.13 9.34 16.35 8.57
  Q 16.74 7.18 16.13 5.90
  Q 15.93 5.50 15.48 5.50
  L 3.63 5.50
  Q 3.00 5.50 3.00 6.13
  L 3.00 7.25
  Q 3.00 7.74 3.50 7.75
  L 8.69 7.76
  A 0.69 0.56 39.3 0 1 8.94 8.99
  Z
  M 16.63 10.98
  L 13.96 9.85
  Q 13.65 9.72 13.24 9.91
  L 10.68 11.08
  Q 10.24 11.29 10.32 11.77
  Q 10.80 14.38 12.57 16.35
  Q 13.54 17.44 14.64 16.48
  Q 16.85 14.54 17.00 11.56
  Q 17.02 11.14 16.63 10.98
  Z"
/>
<path fill="#ffffff" d="
  M 8.94 8.99
  A 0.69 0.56 39.3 0 0 8.69 7.76
  L 3.50 7.75
  Q 3.00 7.74 3.00 7.25
  L 3.00 6.13
  Q 3.00 5.50 3.63 5.50
  L 15.48 5.50
  Q 15.93 5.50 16.13 5.90
  Q 16.74 7.18 16.35 8.57
  Q 16.13 9.34 15.48 8.89
  L 14.13 7.95
  Q 13.57 7.57 13.09 8.04
  Q 11.96 9.14 10.39 9.30
  A 1.69 1.69 0.0 0 0 8.93 11.39
  L 9.63 14.18
  Q 9.78 14.79 9.15 14.78
  L 3.70 14.66
  Q 3.00 14.65 3.00 13.95
  L 3.00 9.63
  Q 3.00 9.01 3.62 9.01
  L 8.94 8.99
  Z"
/>
<path fill="#ffffff" d="
  M 13.96 9.85
  L 16.63 10.98
  Q 17.02 11.14 17.00 11.56
  Q 16.85 14.54 14.64 16.48
  Q 13.54 17.44 12.57 16.35
  Q 10.80 14.38 10.32 11.77
  Q 10.24 11.29 10.68 11.08
  L 13.24 9.91
  Q 13.65 9.72 13.96 9.85
  Z"
/>
</svg>
