<svg width="102" height="102" viewBox="0 0 102 102" fill="none" xmlns="http://www.w3.org/2000/svg">
<g clip-path="url(#clip0_142_67)">
<path d="M93.82 53.29C93.82 42.0713 89.3634 31.3122 81.4306 23.3794C73.4978 15.4466 62.7386 10.99 51.52 10.99C45.9651 10.99 40.4645 12.0841 35.3325 14.2099C30.2004 16.3357 25.5373 19.4515 21.6094 23.3794C13.6766 31.3122 9.21997 42.0713 9.21997 53.29C9.21997 58.8449 10.3141 64.3454 12.4399 69.4775C14.5656 74.6096 17.6814 79.2727 21.6094 83.2006C29.5421 91.1334 40.3013 95.59 51.52 95.59C57.0749 95.59 62.5754 94.4959 67.7075 92.3701C72.8396 90.2443 77.5027 87.1285 81.4306 83.2006C85.3585 79.2727 88.4743 74.6096 90.6001 69.4775C92.7258 64.3454 93.82 58.8449 93.82 53.29Z" stroke="#F3F9FE" stroke-width="2"/>
<path d="M31.96 40.5C26.9133 45.58 24.38 51.7533 24.36 59.02C24.36 59.2733 24.4867 59.4067 24.74 59.42L29.34 59.75C29.8133 59.7833 30.0767 59.5667 30.13 59.1C30.7233 54.0467 32.5433 49.49 35.59 45.43" stroke="#D5A38F" stroke-width="2"/>
<path d="M35.59 45.43C40.0633 40.8166 45.6166 38.4933 52.25 38.46" stroke="#E9D3A6" stroke-width="2"/>
<path d="M52.25 38.46C57.95 38.76 62.8533 40.8566 66.96 44.75" stroke="#B9D2AA" stroke-width="2"/>
<path d="M66.96 44.75C70.3666 48.8633 72.2966 53.6166 72.75 59.01C72.7766 59.3766 72.9766 59.5533 73.35 59.54L78.18 59.39C78.6533 59.3766 78.88 59.1366 78.86 58.67C78.56 51.49 75.94 45.42 71 40.46" stroke="#9FBC99" stroke-width="2"/>
<path d="M70.9999 40.4599C65.2533 34.9866 58.4433 32.2266 50.5699 32.1799" stroke="#B9D2AA" stroke-width="2"/>
<path d="M50.57 32.1799C43.23 32.6733 37.0266 35.4466 31.96 40.4999" stroke="#E9D3A6" stroke-width="2"/>
<path d="M50.5699 32.1799L52.2499 38.4599" stroke="#BBB254" stroke-width="2"/>
<path d="M35.59 45.43C35.1833 43.2967 33.9733 41.6533 31.96 40.5" stroke="#D78339" stroke-width="2"/>
<path d="M71 40.46L66.96 44.75" stroke="#719B47" stroke-width="2"/>
<path d="M49.3499 57.08C46.7199 60.79 50.4399 64.76 53.4999 62.39C55.3699 60.94 56.4599 49.77 56.8399 47.12C56.8474 47.0576 56.8336 46.9946 56.8009 46.941C56.7683 46.8874 56.7185 46.8463 56.6596 46.8244C56.6008 46.8025 56.5363 46.801 56.4765 46.8201C56.4167 46.8392 56.3651 46.8779 56.3299 46.93C53.9966 50.41 51.6699 53.7933 49.3499 57.08Z" stroke="#7B9EC9" stroke-width="2"/>
<path d="M0 0H102V102H0V0ZM93.82 53.29C93.82 42.0713 89.3634 31.3122 81.4306 23.3794C73.4978 15.4466 62.7387 10.99 51.52 10.99C45.9651 10.99 40.4646 12.0841 35.3325 14.2099C30.2004 16.3357 25.5373 19.4515 21.6094 23.3794C13.6766 31.3122 9.22 42.0713 9.22 53.29C9.22 58.8449 10.3141 64.3454 12.4399 69.4775C14.5657 74.6096 17.6815 79.2727 21.6094 83.2006C29.5422 91.1334 40.3013 95.59 51.52 95.59C57.0749 95.59 62.5754 94.4959 67.7075 92.3701C72.8396 90.2443 77.5027 87.1285 81.4306 83.2006C85.3585 79.2727 88.4743 74.6096 90.6001 69.4775C92.7259 64.3454 93.82 58.8449 93.82 53.29Z" fill="white"/>
<path d="M93.82 53.29C93.82 58.8449 92.7258 64.3454 90.6001 69.4775C88.4743 74.6096 85.3585 79.2727 81.4306 83.2006C77.5027 87.1285 72.8396 90.2443 67.7075 92.3701C62.5754 94.4959 57.0749 95.59 51.52 95.59C45.9651 95.59 40.4645 94.4959 35.3325 92.3701C30.2004 90.2443 25.5373 87.1285 21.6094 83.2006C17.6814 79.2727 14.5656 74.6096 12.4399 69.4775C10.3141 64.3454 9.21997 58.8449 9.21997 53.29C9.21997 42.0713 13.6766 31.3122 21.6094 23.3794C29.5421 15.4466 40.3013 10.99 51.52 10.99C62.7386 10.99 73.4978 15.4466 81.4306 23.3794C89.3634 31.3122 93.82 42.0713 93.82 53.29ZM31.96 40.5C26.9133 45.58 24.38 51.7533 24.36 59.02C24.36 59.2733 24.4866 59.4067 24.74 59.42L29.34 59.75C29.8133 59.7833 30.0766 59.5667 30.13 59.1C30.7233 54.0467 32.5433 49.49 35.59 45.43C40.0633 40.8167 45.6166 38.4933 52.25 38.46C57.95 38.76 62.8533 40.8567 66.96 44.75C70.3666 48.8633 72.2966 53.6167 72.75 59.01C72.7766 59.3767 72.9766 59.5533 73.35 59.54L78.18 59.39C78.6533 59.3767 78.88 59.1367 78.86 58.67C78.56 51.49 75.94 45.42 71 40.46C65.2533 34.9867 58.4433 32.2267 50.57 32.18C43.23 32.6733 37.0266 35.4467 31.96 40.5ZM49.35 57.08C46.72 60.79 50.44 64.76 53.5 62.39C55.37 60.94 56.46 49.77 56.84 47.12C56.8474 47.0576 56.8337 46.9946 56.801 46.941C56.7683 46.8874 56.7185 46.8463 56.6597 46.8244C56.6009 46.8025 56.5364 46.801 56.4766 46.8201C56.4168 46.8393 56.3651 46.878 56.33 46.93C53.9966 50.41 51.67 53.7933 49.35 57.08Z" fill="#E7F3FC"/>
<path d="M50.57 32.1801L52.25 38.4601C45.6166 38.4934 40.0633 40.8167 35.59 45.4301C35.1833 43.2967 33.9733 41.6534 31.96 40.5001C37.0266 35.4467 43.23 32.6734 50.57 32.1801Z" fill="#EBB350"/>
<path d="M50.5699 32.1801C58.4433 32.2267 65.2533 34.9867 70.9999 40.4601L66.9599 44.7501C62.8533 40.8567 57.9499 38.7601 52.2499 38.4601L50.5699 32.1801Z" fill="#8AB157"/>
<path d="M31.96 40.5C33.9733 41.6533 35.1833 43.2967 35.59 45.43C32.5433 49.49 30.7233 54.0467 30.13 59.1C30.0767 59.5667 29.8133 59.7833 29.34 59.75L24.74 59.42C24.4867 59.4067 24.36 59.2733 24.36 59.02C24.38 51.7533 26.9133 45.58 31.96 40.5Z" fill="#C35322"/>
<path d="M71 40.46C75.94 45.42 78.56 51.49 78.86 58.67C78.88 59.1366 78.6533 59.3766 78.18 59.39L73.35 59.54C72.9766 59.5533 72.7766 59.3766 72.75 59.01C72.2966 53.6166 70.3666 48.8633 66.96 44.75L71 40.46Z" fill="#578436"/>
<path d="M53.5 62.39C50.44 64.76 46.72 60.79 49.35 57.08C51.67 53.7933 53.9967 50.41 56.33 46.93C56.3652 46.8779 56.4168 46.8392 56.4766 46.8201C56.5364 46.801 56.6009 46.8025 56.6598 46.8244C56.7186 46.8463 56.7684 46.8874 56.8011 46.941C56.8338 46.9946 56.8475 47.0576 56.84 47.12C56.46 49.77 55.37 60.94 53.5 62.39Z" fill="#0F4895"/>
</g>
<defs>
<clipPath id="clip0_142_67">
<rect width="102" height="102" fill="white"/>
</clipPath>
</defs>
</svg>
