<?xml version="1.0" encoding="UTF-8" standalone="no"?>
<!DOCTYPE svg PUBLIC "-//W3C//DTD SVG 1.1//EN" "http://www.w3.org/Graphics/SVG/1.1/DTD/svg11.dtd">
<svg xmlns="http://www.w3.org/2000/svg" version="1.1" viewBox="0.00 0.00 47.00 44.00">
<g stroke-width="2.00" fill="none" stroke-linecap="butt">
<path stroke="#f2eee2" vector-effect="non-scaling-stroke" d="
  M 4.53 19.52
  C 1.49 20.31 2.87 29.28 3.24 31.80
  Q 3.31 32.29 3.77 32.46
  L 4.50 32.71"
/>
<path stroke="#c5c6c7" vector-effect="non-scaling-stroke" d="
  M 4.50 32.71
  Q 7.20 33.64 10.04 32.96
  A 0.86 0.86 0.0 0 1 11.09 33.65
  L 11.71 37.14
  Q 11.83 37.84 12.54 37.83
  L 35.00 37.54
  A 1.62 1.62 0.0 0 0 36.60 35.82
  L 36.48 34.00
  Q 36.45 33.44 37.01 33.39
  L 42.73 32.90
  Q 43.30 32.86 43.28 32.29
  L 42.97 20.00
  A 2.04 2.03 -88.8 0 0 41.08 18.02
  L 36.81 17.74
  Q 36.23 17.70 36.23 17.12
  L 36.26 3.75
  A 0.51 0.50 0.0 0 0 35.75 3.25
  L 12.26 3.25
  Q 11.77 3.25 11.77 3.74
  L 11.71 17.22
  Q 11.71 17.96 10.98 17.82
  Q 7.21 17.11 4.53 19.52"
/>
<path stroke="#b8b4aa" vector-effect="non-scaling-stroke" d="
  M 4.50 32.71
  Q 5.67 26.44 4.53 19.52"
/>
<path stroke="#c5c6c7" vector-effect="non-scaling-stroke" d="
  M 33.4376 7.1950
  A 0.66 0.66 0.0 0 0 32.7696 6.5432
  L 15.2109 6.7577
  A 0.66 0.66 0.0 0 0 14.5590 7.4257
  L 14.6824 17.5250
  A 0.66 0.66 0.0 0 0 15.3504 18.1768
  L 32.9091 17.9623
  A 0.66 0.66 0.0 0 0 33.5610 17.2943
  L 33.4376 7.1950"
/>
<path stroke="#c5c6c7" vector-effect="non-scaling-stroke" d="
  M 36.01 24.90
  L 36.60 29.17
  Q 36.68 29.72 37.24 29.73
  L 39.26 29.76
  Q 40.03 29.77 40.03 28.99
  L 39.95 21.55
  Q 39.94 20.91 39.30 20.91
  L 15.35 20.71
  Q 15.16 20.71 15.10 20.53
  Q 15.04 20.37 14.99 20.19
  Q 14.93 20.00 14.73 20.00
  L 8.28 20.00
  Q 7.71 20.00 7.59 20.56
  Q 6.69 24.81 7.20 29.10
  Q 7.28 29.75 7.93 29.75
  L 10.47 29.75
  Q 11.00 29.75 11.00 29.22
  C 10.96 26.23 10.70 23.76 14.65 24.09
  Q 22.31 24.73 29.98 24.09
  C 31.73 23.94 33.43 24.32 35.22 24.24
  Q 35.92 24.21 36.01 24.90"
/>
<path stroke="#c5c6c7" vector-effect="non-scaling-stroke" d="
  M 33.8319 29.1536
  A 1.19 1.19 0.0 0 0 32.6275 27.9782
  L 15.9287 28.1823
  A 1.19 1.19 0.0 0 0 14.7533 29.3867
  L 14.8081 33.8664
  A 1.19 1.19 0.0 0 0 16.0125 35.0418
  L 32.7113 34.8377
  A 1.19 1.19 0.0 0 0 33.8867 33.6333
  L 33.8319 29.1536"
/>
</g>
<path fill="#ffffff" d="
  M 0.00 0.00
  L 47.00 0.00
  L 47.00 44.00
  L 0.00 44.00
  L 0.00 0.00
  Z
  M 4.53 19.52
  C 1.49 20.31 2.87 29.28 3.24 31.80
  Q 3.31 32.29 3.77 32.46
  L 4.50 32.71
  Q 7.20 33.64 10.04 32.96
  A 0.86 0.86 0.0 0 1 11.09 33.65
  L 11.71 37.14
  Q 11.83 37.84 12.54 37.83
  L 35.00 37.54
  A 1.62 1.62 0.0 0 0 36.60 35.82
  L 36.48 34.00
  Q 36.45 33.44 37.01 33.39
  L 42.73 32.90
  Q 43.30 32.86 43.28 32.29
  L 42.97 20.00
  A 2.04 2.03 -88.8 0 0 41.08 18.02
  L 36.81 17.74
  Q 36.23 17.70 36.23 17.12
  L 36.26 3.75
  A 0.51 0.50 0.0 0 0 35.75 3.25
  L 12.26 3.25
  Q 11.77 3.25 11.77 3.74
  L 11.71 17.22
  Q 11.71 17.96 10.98 17.82
  Q 7.21 17.11 4.53 19.52
  Z"
/>
<path fill="#8b8c8e" d="
  M 4.50 32.71
  Q 5.67 26.44 4.53 19.52
  Q 7.21 17.11 10.98 17.82
  Q 11.71 17.96 11.71 17.22
  L 11.77 3.74
  Q 11.77 3.25 12.26 3.25
  L 35.75 3.25
  A 0.51 0.50 0.0 0 1 36.26 3.75
  L 36.23 17.12
  Q 36.23 17.70 36.81 17.74
  L 41.08 18.02
  A 2.04 2.03 -88.8 0 1 42.97 20.00
  L 43.28 32.29
  Q 43.30 32.86 42.73 32.90
  L 37.01 33.39
  Q 36.45 33.44 36.48 34.00
  L 36.60 35.82
  A 1.62 1.62 0.0 0 1 35.00 37.54
  L 12.54 37.83
  Q 11.83 37.84 11.71 37.14
  L 11.09 33.65
  A 0.86 0.86 0.0 0 0 10.04 32.96
  Q 7.20 33.64 4.50 32.71
  Z
  M 33.4376 7.1950
  A 0.66 0.66 0.0 0 0 32.7696 6.5432
  L 15.2109 6.7577
  A 0.66 0.66 0.0 0 0 14.5590 7.4257
  L 14.6824 17.5250
  A 0.66 0.66 0.0 0 0 15.3504 18.1768
  L 32.9091 17.9623
  A 0.66 0.66 0.0 0 0 33.5610 17.2943
  L 33.4376 7.1950
  Z
  M 36.01 24.90
  L 36.60 29.17
  Q 36.68 29.72 37.24 29.73
  L 39.26 29.76
  Q 40.03 29.77 40.03 28.99
  L 39.95 21.55
  Q 39.94 20.91 39.30 20.91
  L 15.35 20.71
  Q 15.16 20.71 15.10 20.53
  Q 15.04 20.37 14.99 20.19
  Q 14.93 20.00 14.73 20.00
  L 8.28 20.00
  Q 7.71 20.00 7.59 20.56
  Q 6.69 24.81 7.20 29.10
  Q 7.28 29.75 7.93 29.75
  L 10.47 29.75
  Q 11.00 29.75 11.00 29.22
  C 10.96 26.23 10.70 23.76 14.65 24.09
  Q 22.31 24.73 29.98 24.09
  C 31.73 23.94 33.43 24.32 35.22 24.24
  Q 35.92 24.21 36.01 24.90
  Z
  M 33.8319 29.1536
  A 1.19 1.19 0.0 0 0 32.6275 27.9782
  L 15.9287 28.1823
  A 1.19 1.19 0.0 0 0 14.7533 29.3867
  L 14.8081 33.8664
  A 1.19 1.19 0.0 0 0 16.0125 35.0418
  L 32.7113 34.8377
  A 1.19 1.19 0.0 0 0 33.8867 33.6333
  L 33.8319 29.1536
  Z"
/>
<rect fill="#ffffff" x="-9.44" y="-5.71" transform="translate(24.06,12.36) rotate(-0.7)" width="18.88" height="11.42" rx="0.66"/>
<path fill="#e4dcc5" d="
  M 4.53 19.52
  Q 5.67 26.44 4.50 32.71
  L 3.77 32.46
  Q 3.31 32.29 3.24 31.80
  C 2.87 29.28 1.49 20.31 4.53 19.52
  Z"
/>
<path fill="#ffffff" d="
  M 35.22 24.24
  C 33.43 24.32 31.73 23.94 29.98 24.09
  Q 22.31 24.73 14.65 24.09
  C 10.70 23.76 10.96 26.23 11.00 29.22
  Q 11.00 29.75 10.47 29.75
  L 7.93 29.75
  Q 7.28 29.75 7.20 29.10
  Q 6.69 24.81 7.59 20.56
  Q 7.71 20.00 8.28 20.00
  L 14.73 20.00
  Q 14.93 20.00 14.99 20.19
  Q 15.04 20.37 15.10 20.53
  Q 15.16 20.71 15.35 20.71
  L 39.30 20.91
  Q 39.94 20.91 39.95 21.55
  L 40.03 28.99
  Q 40.03 29.77 39.26 29.76
  L 37.24 29.73
  Q 36.68 29.72 36.60 29.17
  L 36.01 24.90
  Q 35.92 24.21 35.22 24.24
  Z"
/>
<rect fill="#ffffff" x="-9.54" y="-3.43" transform="translate(24.32,31.51) rotate(-0.7)" width="19.08" height="6.86" rx="1.19"/>
</svg>
