<svg width="112" height="112" viewBox="0 0 112 112" fill="none" xmlns="http://www.w3.org/2000/svg">
<g clip-path="url(#clip0_142_33)">
<path d="M99.76 58.71C99.76 53.1617 98.6672 47.6677 96.5439 42.5416C94.4207 37.4156 91.3085 32.758 87.3853 28.8348C83.462 24.9115 78.8044 21.7994 73.6784 19.6761C68.5524 17.5529 63.0584 16.46 57.51 16.46C46.3046 16.46 35.5582 20.9113 27.6347 28.8348C19.7113 36.7582 15.26 47.5046 15.26 58.71C15.26 69.9154 19.7113 80.6619 27.6347 88.5853C35.5582 96.5087 46.3046 100.96 57.51 100.96C63.0584 100.96 68.5524 99.8672 73.6784 97.7439C78.8044 95.6207 83.462 92.5086 87.3853 88.5853C91.3085 84.662 94.4207 80.0044 96.5439 74.8784C98.6672 69.7524 99.76 64.2584 99.76 58.71Z" stroke="#F3FAFE" stroke-width="2"/>
<path d="M47.5 42.71L37.66 45.28C37.3989 45.3487 37.1679 45.5027 37.0032 45.7181C36.8385 45.9334 36.7495 46.1979 36.75 46.47V79C36.75 79.1326 36.8027 79.2598 36.8964 79.3536C36.9902 79.4473 37.1174 79.5 37.25 79.5H76.57C77.6833 79.5 78.2567 78.9434 78.29 77.83L78.46 72" stroke="#748AAB" stroke-width="2"/>
<path d="M78.46 72L78.21 70.25" stroke="#8BBDE5" stroke-width="2"/>
<path d="M78.21 70.25C79.4633 66.7167 79.4533 63.2334 78.18 59.8" stroke="#F3FAFE" stroke-width="2"/>
<path d="M78.18 59.8C78.6867 56.9 78.7 53.99 78.22 51.07C78.16 50.7167 77.95 50.52 77.59 50.48L70.47 49.75" stroke="#8BBDE5" stroke-width="2"/>
<path d="M70.47 49.75C70.97 48.9967 71.2434 48.33 71.29 47.75" stroke="#7EA2CE" stroke-width="2"/>
<path d="M71.29 47.75L74.37 41.66C74.55 41.3 74.48 41 74.16 40.76C71.1467 38.4467 67.9267 36.4567 64.5 34.79" stroke="#8AB7DC" stroke-width="2"/>
<path d="M64.5 34.79L60.04 32.25" stroke="#748AAB" stroke-width="2"/>
<path d="M60.04 32.2501C58.5 30.7101 56.92 30.6101 55.61 32.5701C52.83 36.7001 52.02 40.0601 47.5 42.7101" stroke="#8AB7DC" stroke-width="2"/>
<path d="M60.04 32.25C58.94 36.58 55.23 43.74 50.46 48.19" stroke="#184C8A" stroke-width="2"/>
<path d="M50.46 48.19C49.2534 47.93 48.0867 47.3667 46.96 46.5" stroke="#2265AD" stroke-width="2"/>
<path d="M46.96 46.5C47.56 45.66 49.85 43.44 47.5 42.71" stroke="#184C8A" stroke-width="2"/>
<path d="M70.47 49.75C64.1967 49.59 57.9133 49.74 51.62 50.2C49.45 50.36 48.15 49.63 46 49.46" stroke="#236BB6" stroke-width="2"/>
<path d="M46.96 46.5L46 49.46" stroke="#0C387C" stroke-width="2"/>
<path d="M46 49.46L38.66 49.33C38.02 49.3167 37.7 49.63 37.7 50.27L37.77 77.48C37.7726 77.6798 37.8549 77.8706 37.999 78.011C38.1432 78.1514 38.3375 78.2301 38.54 78.23L76.57 78.29C77.0167 78.29 77.2667 78.07 77.32 77.63L77.93 72.2C77.95 72.0533 78.0333 71.9733 78.18 71.96C78.2667 71.9467 78.36 71.96 78.46 72" stroke="#195293" stroke-width="2"/>
<path d="M64.5 34.79C61.6334 38.15 59.2034 41.8034 57.21 45.75" stroke="#184C8A" stroke-width="2"/>
<path d="M57.21 45.75C56.7034 46.37 56.37 47.1 56.21 47.94C56.15 48.2533 56 48.5167 55.76 48.73C53.7334 50.5367 51.9667 50.3567 50.46 48.19" stroke="#0C387C" stroke-width="2"/>
<path d="M71.29 47.75C70.13 45.16 68.24 47.78 66.24 47.59C63.6733 47.3433 61.0866 47.3333 58.48 47.56C57.5533 47.64 57.13 47.0367 57.21 45.75" stroke="#2265AD" stroke-width="2"/>
<path d="M78.18 59.8C74.4333 59.74 70.7867 59.76 67.24 59.86C61.55 60.02 59.44 66.44 64.17 69.36C67.47 71.41 74.4 70.53 78.21 70.25" stroke="#97C2E6" stroke-width="2"/>
<path d="M64.79 39.07L62.82 43.3C62.7453 43.4659 62.7391 43.6546 62.8027 43.825C62.8664 43.9954 62.9948 44.1338 63.16 44.21L63.26 44.26C63.9376 44.5741 64.7013 44.6294 65.3837 44.4138C66.0661 44.1982 66.6114 43.7293 66.9 43.11L67.28 42.32C67.423 42.0127 67.4984 41.6776 67.5019 41.3338C67.5054 40.9901 67.437 40.6444 67.3004 40.3166C67.1639 39.9887 66.962 39.6852 66.7063 39.4233C66.4506 39.1613 66.146 38.9461 65.81 38.79L65.71 38.74C65.628 38.7011 65.539 38.6788 65.4484 38.6744C65.3577 38.6699 65.267 38.6834 65.1815 38.714C65.096 38.7447 65.0175 38.7919 64.9503 38.853C64.8831 38.9141 64.8286 38.9878 64.79 39.07Z" stroke="#6F9FAD" stroke-width="2"/>
<path d="M69.87 65.04C69.87 64.3186 69.5834 63.6268 69.0733 63.1167C68.5632 62.6066 67.8714 62.32 67.15 62.32C66.4286 62.32 65.7368 62.6066 65.2267 63.1167C64.7166 63.6268 64.43 64.3186 64.43 65.04C64.43 65.7614 64.7166 66.4532 65.2267 66.9633C65.7368 67.4734 66.4286 67.76 67.15 67.76C67.8714 67.76 68.5632 67.4734 69.0733 66.9633C69.5834 66.4532 69.87 65.7614 69.87 65.04Z" stroke="#808085" stroke-width="2"/>
<path d="M0 0H112V112H0V0ZM99.76 58.71C99.76 53.1617 98.6672 47.6676 96.5439 42.5416C94.4206 37.4156 91.3085 32.758 87.3853 28.8347C83.462 24.9115 78.8044 21.7994 73.6784 19.6761C68.5524 17.5528 63.0583 16.46 57.51 16.46C46.3046 16.46 35.5582 20.9113 27.6347 28.8347C19.7113 36.7581 15.26 47.5046 15.26 58.71C15.26 69.9154 19.7113 80.6618 27.6347 88.5853C35.5582 96.5087 46.3046 100.96 57.51 100.96C63.0583 100.96 68.5524 99.8672 73.6784 97.7439C78.8044 95.6207 83.462 92.5085 87.3853 88.5853C91.3085 84.662 94.4206 80.0044 96.5439 74.8784C98.6672 69.7524 99.76 64.2583 99.76 58.71Z" fill="white"/>
<path d="M99.76 58.71C99.76 64.2584 98.6672 69.7524 96.5439 74.8784C94.4207 80.0044 91.3085 84.662 87.3853 88.5853C83.462 92.5086 78.8044 95.6207 73.6784 97.7439C68.5524 99.8672 63.0584 100.96 57.51 100.96C46.3046 100.96 35.5582 96.5087 27.6347 88.5853C19.7113 80.6619 15.26 69.9154 15.26 58.71C15.26 47.5046 19.7113 36.7582 27.6347 28.8348C35.5582 20.9113 46.3046 16.46 57.51 16.46C63.0584 16.46 68.5524 17.5529 73.6784 19.6761C78.8044 21.7994 83.462 24.9115 87.3853 28.8348C91.3085 32.758 94.4207 37.4156 96.5439 42.5416C98.6672 47.6677 99.76 53.1617 99.76 58.71ZM47.5 42.71L37.66 45.28C37.3989 45.3487 37.1679 45.5027 37.0032 45.7181C36.8385 45.9334 36.7495 46.1979 36.75 46.47V79C36.75 79.1326 36.8027 79.2598 36.8965 79.3536C36.9902 79.4473 37.1174 79.5 37.25 79.5H76.57C77.6833 79.5 78.2567 78.9434 78.29 77.83L78.46 72L78.21 70.25C79.4633 66.7167 79.4533 63.2334 78.18 59.8C78.6867 56.9 78.7 53.99 78.22 51.07C78.16 50.7167 77.95 50.52 77.59 50.48L70.47 49.75C70.97 48.9967 71.2433 48.33 71.29 47.75L74.37 41.66C74.55 41.3 74.48 41 74.16 40.76C71.1467 38.4467 67.9267 36.4567 64.5 34.79L60.04 32.25C58.5 30.71 56.92 30.61 55.61 32.57C52.83 36.7 52.02 40.06 47.5 42.71Z" fill="#E6F4FD"/>
<path d="M60.04 32.25C58.94 36.58 55.23 43.74 50.46 48.19C49.2534 47.93 48.0867 47.3667 46.96 46.5C47.56 45.66 49.85 43.44 47.5 42.71C52.02 40.06 52.83 36.7 55.61 32.57C56.92 30.61 58.5 30.71 60.04 32.25Z" fill="#2E79BB"/>
<path d="M60.04 32.25L64.5 34.79C61.6334 38.15 59.2034 41.8033 57.21 45.75C56.7034 46.37 56.37 47.1 56.21 47.94C56.15 48.2533 56 48.5167 55.76 48.73C53.7334 50.5367 51.9667 50.3567 50.46 48.19C55.23 43.74 58.94 36.58 60.04 32.25Z" fill="#021F59"/>
<path d="M64.5 34.79C67.9266 36.4566 71.1466 38.4466 74.16 40.76C74.48 41 74.55 41.3 74.37 41.66L71.29 47.75C70.13 45.16 68.24 47.78 66.24 47.59C63.6733 47.3433 61.0866 47.3333 58.48 47.56C57.5533 47.64 57.13 47.0366 57.21 45.75C59.2033 41.8033 61.6333 38.15 64.5 34.79ZM64.79 39.07L62.82 43.3C62.7452 43.4658 62.739 43.6545 62.8027 43.825C62.8664 43.9954 62.9948 44.1338 63.16 44.21L63.26 44.26C63.9375 44.574 64.7013 44.6293 65.3837 44.4137C66.0661 44.1982 66.6114 43.7293 66.9 43.11L67.28 42.32C67.423 42.0127 67.4984 41.6775 67.5019 41.3338C67.5054 40.99 67.4369 40.6443 67.3004 40.3165C67.1639 39.9887 66.962 39.6851 66.7063 39.4232C66.4505 39.1613 66.146 38.9461 65.81 38.79L65.71 38.74C65.6279 38.7011 65.539 38.6788 65.4483 38.6743C65.3576 38.6699 65.2669 38.6833 65.1815 38.714C65.096 38.7447 65.0174 38.7919 64.9502 38.853C64.8831 38.9141 64.8286 38.9878 64.79 39.07Z" fill="#2E79BB"/>
<path d="M64.79 39.07C64.8286 38.9878 64.8831 38.9141 64.9503 38.853C65.0175 38.7919 65.096 38.7447 65.1815 38.714C65.267 38.6834 65.3577 38.6699 65.4484 38.6744C65.539 38.6788 65.628 38.7011 65.71 38.74L65.81 38.79C66.146 38.9461 66.4506 39.1613 66.7063 39.4233C66.962 39.6852 67.1639 39.9887 67.3004 40.3166C67.437 40.6444 67.5054 40.9901 67.5019 41.3338C67.4984 41.6776 67.423 42.0127 67.28 42.32L66.9 43.11C66.6114 43.7293 66.0661 44.1982 65.3837 44.4138C64.7013 44.6294 63.9376 44.5741 63.26 44.26L63.16 44.21C62.9948 44.1338 62.8664 43.9954 62.8027 43.825C62.7391 43.6546 62.7453 43.4659 62.82 43.3L64.79 39.07Z" fill="#B0C59F"/>
<path d="M47.5 42.71C49.85 43.44 47.56 45.66 46.96 46.5L46 49.46L38.66 49.33C38.02 49.3167 37.7 49.63 37.7 50.27L37.77 77.48C37.7726 77.6799 37.8549 77.8706 37.999 78.011C38.1432 78.1514 38.3375 78.2301 38.54 78.23L76.57 78.29C77.0167 78.29 77.2667 78.07 77.32 77.63L77.93 72.2C77.95 72.0534 78.0333 71.9734 78.18 71.96C78.2667 71.9467 78.36 71.96 78.46 72L78.29 77.83C78.2567 78.9434 77.6833 79.5 76.57 79.5H37.25C37.1174 79.5 36.9902 79.4473 36.8964 79.3536C36.8027 79.2598 36.75 79.1326 36.75 79V46.47C36.7495 46.1979 36.8385 45.9334 37.0032 45.7181C37.1679 45.5027 37.3989 45.3487 37.66 45.28L47.5 42.71Z" fill="#021F59"/>
<path d="M57.21 45.75C57.13 47.0367 57.5533 47.64 58.48 47.56C61.0867 47.3333 63.6733 47.3433 66.24 47.59C68.24 47.78 70.13 45.16 71.29 47.75C71.2433 48.33 70.97 48.9967 70.47 49.75C64.1967 49.59 57.9133 49.74 51.62 50.2C49.45 50.36 48.15 49.63 46 49.46L46.96 46.5C48.0867 47.3667 49.2533 47.93 50.46 48.19C51.9667 50.3567 53.7333 50.5367 55.76 48.73C56 48.5167 56.15 48.2533 56.21 47.94C56.37 47.1 56.7033 46.37 57.21 45.75Z" fill="#16509F"/>
<path d="M46 49.46C48.15 49.63 49.45 50.36 51.62 50.2C57.9133 49.74 64.1967 49.59 70.47 49.75L77.59 50.48C77.95 50.52 78.16 50.7167 78.22 51.07C78.7 53.99 78.6867 56.9 78.18 59.8C74.4333 59.74 70.7867 59.76 67.24 59.86C61.55 60.02 59.44 66.44 64.17 69.36C67.47 71.41 74.4 70.53 78.21 70.25L78.46 72C78.36 71.96 78.2667 71.9467 78.18 71.96C78.0333 71.9733 77.95 72.0533 77.93 72.2L77.32 77.63C77.2667 78.07 77.0167 78.29 76.57 78.29L38.54 78.23C38.3375 78.2301 38.1432 78.1514 37.999 78.011C37.8549 77.8706 37.7726 77.6798 37.77 77.48L37.7 50.27C37.7 49.63 38.02 49.3167 38.66 49.33L46 49.46Z" fill="#2F85CC"/>
<path d="M78.18 59.8C79.4533 63.2333 79.4633 66.7167 78.21 70.25C74.4 70.53 67.47 71.41 64.17 69.36C59.44 66.44 61.55 60.02 67.24 59.86C70.7867 59.76 74.4333 59.74 78.18 59.8ZM69.87 65.04C69.87 64.3186 69.5834 63.6268 69.0733 63.1167C68.5632 62.6066 67.8714 62.32 67.15 62.32C66.4286 62.32 65.7368 62.6066 65.2267 63.1167C64.7166 63.6268 64.43 64.3186 64.43 65.04C64.43 65.7614 64.7166 66.4532 65.2267 66.9633C65.7368 67.4734 66.4286 67.76 67.15 67.76C67.8714 67.76 68.5632 67.4734 69.0733 66.9633C69.5834 66.4532 69.87 65.7614 69.87 65.04Z" fill="white"/>
<path d="M67.15 67.76C68.6522 67.76 69.87 66.5422 69.87 65.04C69.87 63.5378 68.6522 62.32 67.15 62.32C65.6478 62.32 64.43 63.5378 64.43 65.04C64.43 66.5422 65.6478 67.76 67.15 67.76Z" fill="#01000B"/>
</g>
<defs>
<clipPath id="clip0_142_33">
<rect width="112" height="112" fill="white"/>
</clipPath>
</defs>
</svg>
