<?xml version="1.0" encoding="UTF-8" standalone="no"?>
<!DOCTYPE svg PUBLIC "-//W3C//DTD SVG 1.1//EN" "http://www.w3.org/Graphics/SVG/1.1/DTD/svg11.dtd">
<svg xmlns="http://www.w3.org/2000/svg" version="1.1" viewBox="0.00 0.00 46.00 54.00">
<g stroke-width="2.00" fill="none" stroke-linecap="butt">
<path stroke="#1963dc" vector-effect="non-scaling-stroke" d="
  M 3.96 20.75
  L 2.70 21.25
  Q 2.28 21.41 2.12 21.84
  C 0.17 27.13 1.67 32.00 2.28 37.20
  C 2.67 40.60 6.79 47.65 11.14 45.48
  Q 11.57 45.27 11.92 45.60
  Q 12.99 46.62 14.46 46.50"
/>
<path stroke="#79acf4" vector-effect="non-scaling-stroke" d="
  M 14.46 46.50
  C 15.94 47.50 17.55 46.38 18.58 47.73
  Q 18.86 48.10 19.32 48.17
  C 50.74 52.76 51.28 5.97 25.17 6.80
  C 21.09 6.92 17.33 6.71 13.35 8.79
  C 9.40 10.85 5.25 16.01 3.96 20.75"
/>
<path stroke="#84b0e7" vector-effect="non-scaling-stroke" d="
  M 14.46 46.50
  C 12.81 43.86 10.05 44.15 8.71 41.75"
/>
<path stroke="#b3d4ff" vector-effect="non-scaling-stroke" d="
  M 8.71 41.75
  Q 7.88 40.03 6.25 39.04"
/>
<path stroke="#84b0e7" vector-effect="non-scaling-stroke" d="
  M 6.25 39.04
  C 2.88 33.73 3.58 26.74 3.96 20.75"
/>
<path stroke="#538be7" vector-effect="non-scaling-stroke" d="
  M 6.25 39.04
  Q 6.25 41.64 8.71 41.75"
/>
<path stroke="#79acf4" vector-effect="non-scaling-stroke" d="
  M 16.25 11.21
  Q 10.95 13.61 8.25 18.79"
/>
<path stroke="#84b0e7" vector-effect="non-scaling-stroke" d="
  M 8.25 18.79
  Q 6.20 19.94 6.29 22.25"
/>
<path stroke="#79acf4" vector-effect="non-scaling-stroke" d="
  M 6.29 22.25
  Q 5.63 27.39 6.44 32.51
  C 6.54 33.15 7.11 33.24 7.43 33.89
  Q 14.48 48.20 30.58 43.33
  Q 33.40 42.48 36.33 39.60
  C 43.17 32.86 42.65 22.47 36.94 15.26
  C 35.36 13.26 32.91 12.07 30.69 10.75
  C 27.38 8.80 24.38 9.09 20.75 9.29"
/>
<path stroke="#b3d4ff" vector-effect="non-scaling-stroke" d="
  M 20.75 9.29
  Q 17.60 8.61 16.25 11.21"
/>
<path stroke="#4887f4" vector-effect="non-scaling-stroke" d="
  M 20.75 9.29
  Q 18.86 10.97 16.25 11.21"
/>
<path stroke="#1963dc" vector-effect="non-scaling-stroke" d="
  M 6.29 22.25
  Q 8.31 21.20 8.25 18.79"
/>
<path stroke="#4887f4" vector-effect="non-scaling-stroke" d="
  M 34.15 27.41
  Q 32.04 22.43 26.29 25.00"
/>
<path stroke="#6b9ff4" vector-effect="non-scaling-stroke" d="
  M 26.29 25.00
  L 25.54 17.88
  Q 25.48 17.29 24.88 17.35
  L 22.67 17.56
  Q 22.23 17.60 22.03 18.00
  Q 20.83 20.40 21.49 22.94
  A 1.13 1.13 0.0 0 1 20.53 24.34
  L 15.50 24.93
  Q 14.86 25.00 14.70 25.62
  L 14.13 27.93
  Q 13.95 28.66 14.70 28.70
  L 20.03 28.94
  A 1.64 1.63 89.2 0 1 21.58 30.45
  L 22.02 36.10
  Q 22.08 36.84 22.81 36.76
  L 24.74 36.54
  Q 25.37 36.47 25.41 35.84
  L 25.74 29.34
  Q 25.77 28.70 26.41 28.78
  Q 30.53 29.32 34.15 27.41"
/>
<path stroke="#a5c7ff" vector-effect="non-scaling-stroke" d="
  M 26.29 25.00
  L 26.03 26.38
  A 0.59 0.58 88.1 0 0 26.75 27.06
  Q 30.92 25.95 34.15 27.41"
/>
</g>
<path fill="#0d5fe9" d="
  M 0.00 0.00
  L 46.00 0.00
  L 46.00 54.00
  L 0.00 54.00
  L 0.00 0.00
  Z
  M 3.96 20.75
  L 2.70 21.25
  Q 2.28 21.41 2.12 21.84
  C 0.17 27.13 1.67 32.00 2.28 37.20
  C 2.67 40.60 6.79 47.65 11.14 45.48
  Q 11.57 45.27 11.92 45.60
  Q 12.99 46.62 14.46 46.50
  C 15.94 47.50 17.55 46.38 18.58 47.73
  Q 18.86 48.10 19.32 48.17
  C 50.74 52.76 51.28 5.97 25.17 6.80
  C 21.09 6.92 17.33 6.71 13.35 8.79
  C 9.40 10.85 5.25 16.01 3.96 20.75
  Z"
/>
<path fill="#e4f8ff" d="
  M 14.46 46.50
  C 12.81 43.86 10.05 44.15 8.71 41.75
  Q 7.88 40.03 6.25 39.04
  C 2.88 33.73 3.58 26.74 3.96 20.75
  C 5.25 16.01 9.40 10.85 13.35 8.79
  C 17.33 6.71 21.09 6.92 25.17 6.80
  C 51.28 5.97 50.74 52.76 19.32 48.17
  Q 18.86 48.10 18.58 47.73
  C 17.55 46.38 15.94 47.50 14.46 46.50
  Z
  M 16.25 11.21
  Q 10.95 13.61 8.25 18.79
  Q 6.20 19.94 6.29 22.25
  Q 5.63 27.39 6.44 32.51
  C 6.54 33.15 7.11 33.24 7.43 33.89
  Q 14.48 48.20 30.58 43.33
  Q 33.40 42.48 36.33 39.60
  C 43.17 32.86 42.65 22.47 36.94 15.26
  C 35.36 13.26 32.91 12.07 30.69 10.75
  C 27.38 8.80 24.38 9.09 20.75 9.29
  Q 17.60 8.61 16.25 11.21
  Z"
/>
<path fill="#82afff" d="
  M 20.75 9.29
  Q 18.86 10.97 16.25 11.21
  Q 17.60 8.61 20.75 9.29
  Z"
/>
<path fill="#0d5fe9" d="
  M 20.75 9.29
  C 24.38 9.09 27.38 8.80 30.69 10.75
  C 32.91 12.07 35.36 13.26 36.94 15.26
  C 42.65 22.47 43.17 32.86 36.33 39.60
  Q 33.40 42.48 30.58 43.33
  Q 14.48 48.20 7.43 33.89
  C 7.11 33.24 6.54 33.15 6.44 32.51
  Q 5.63 27.39 6.29 22.25
  Q 8.31 21.20 8.25 18.79
  Q 10.95 13.61 16.25 11.21
  Q 18.86 10.97 20.75 9.29
  Z
  M 34.15 27.41
  Q 32.04 22.43 26.29 25.00
  L 25.54 17.88
  Q 25.48 17.29 24.88 17.35
  L 22.67 17.56
  Q 22.23 17.60 22.03 18.00
  Q 20.83 20.40 21.49 22.94
  A 1.13 1.13 0.0 0 1 20.53 24.34
  L 15.50 24.93
  Q 14.86 25.00 14.70 25.62
  L 14.13 27.93
  Q 13.95 28.66 14.70 28.70
  L 20.03 28.94
  A 1.64 1.63 89.2 0 1 21.58 30.45
  L 22.02 36.10
  Q 22.08 36.84 22.81 36.76
  L 24.74 36.54
  Q 25.37 36.47 25.41 35.84
  L 25.74 29.34
  Q 25.77 28.70 26.41 28.78
  Q 30.53 29.32 34.15 27.41
  Z"
/>
<path fill="#c8deff" d="
  M 26.29 25.00
  L 26.03 26.38
  A 0.59 0.58 88.1 0 0 26.75 27.06
  Q 30.92 25.95 34.15 27.41
  Q 30.53 29.32 26.41 28.78
  Q 25.77 28.70 25.74 29.34
  L 25.41 35.84
  Q 25.37 36.47 24.74 36.54
  L 22.81 36.76
  Q 22.08 36.84 22.02 36.10
  L 21.58 30.45
  A 1.64 1.63 89.2 0 0 20.03 28.94
  L 14.70 28.70
  Q 13.95 28.66 14.13 27.93
  L 14.70 25.62
  Q 14.86 25.00 15.50 24.93
  L 20.53 24.34
  A 1.13 1.13 0.0 0 0 21.49 22.94
  Q 20.83 20.40 22.03 18.00
  Q 22.23 17.60 22.67 17.56
  L 24.88 17.35
  Q 25.48 17.29 25.54 17.88
  L 26.29 25.00
  Z"
/>
<path fill="#2467cf" d="
  M 8.25 18.79
  Q 8.31 21.20 6.29 22.25
  Q 6.20 19.94 8.25 18.79
  Z"
/>
<path fill="#2467cf" d="
  M 3.96 20.75
  C 3.58 26.74 2.88 33.73 6.25 39.04
  Q 6.25 41.64 8.71 41.75
  C 10.05 44.15 12.81 43.86 14.46 46.50
  Q 12.99 46.62 11.92 45.60
  Q 11.57 45.27 11.14 45.48
  C 6.79 47.65 2.67 40.60 2.28 37.20
  C 1.67 32.00 0.17 27.13 2.12 21.84
  Q 2.28 21.41 2.70 21.25
  L 3.96 20.75
  Z"
/>
<path fill="#82afff" d="
  M 34.15 27.41
  Q 30.92 25.95 26.75 27.06
  A 0.59 0.58 88.1 0 1 26.03 26.38
  L 26.29 25.00
  Q 32.04 22.43 34.15 27.41
  Z"
/>
<path fill="#82afff" d="
  M 6.25 39.04
  Q 7.88 40.03 8.71 41.75
  Q 6.25 41.64 6.25 39.04
  Z"
/>
</svg>
